<?xml version="1.0" encoding="UTF-8" standalone="yes"?>
<svg xmlns="http://www.w3.org/2000/svg" xmlns:xlink="http://www.w3.org/1999/xlink" width="180.469pt" height="180.473pt" version="1.1" viewBox="6356.287 -1839.938 180.469 180.473">
  <!--
	Exported with Concepts: Smarter Sketching
	Version: 1059 on iOS 15.4
	https://concepts.app/
	-->
  <title>Functional Programming</title>
  <desc>Drawing exported from Concepts: Smarter Sketching</desc>
  <defs></defs>
  <g id="Pen" opacity="1.000">
    <path id="STROKE_63ba0dd4-01b1-4e35-952d-3c629778f458" opacity="0.650" fill="none" stroke="#00a0c8" stroke-width="5.030" stroke-opacity="1.000" stroke-linecap="round" stroke-linejoin="round" d="M 6531.423 -1749.306 Q 6531.418 -1748.347 6531.393 -1747.388 Q 6531.366 -1746.429 6531.318 -1745.471 Q 6531.271 -1744.512 6531.201 -1743.555 Q 6531.132 -1742.599 6531.041 -1741.643 Q 6530.950 -1740.688 6530.837 -1739.735 Q 6530.725 -1738.782 6530.590 -1737.832 Q 6530.456 -1736.882 6530.301 -1735.936 Q 6530.145 -1734.989 6529.968 -1734.046 Q 6529.791 -1733.103 6529.593 -1732.164 Q 6529.395 -1731.225 6529.175 -1730.291 Q 6528.956 -1729.357 6528.716 -1728.428 Q 6528.475 -1727.499 6528.214 -1726.576 Q 6527.952 -1725.653 6527.670 -1724.736 Q 6527.388 -1723.819 6527.085 -1722.908 Q 6526.783 -1721.998 6526.459 -1721.094 Q 6526.136 -1720.191 6525.792 -1719.295 Q 6525.449 -1718.399 6525.085 -1717.511 Q 6524.721 -1716.623 6524.337 -1715.744 Q 6523.954 -1714.865 6523.550 -1713.994 Q 6523.146 -1713.124 6522.724 -1712.262 Q 6522.300 -1711.401 6521.857 -1710.550 Q 6521.415 -1709.698 6520.954 -1708.857 Q 6520.492 -1708.016 6520.012 -1707.186 Q 6519.531 -1706.355 6519.032 -1705.536 Q 6518.533 -1704.716 6518.016 -1703.908 Q 6517.498 -1703.100 6516.962 -1702.304 Q 6516.427 -1701.508 6515.873 -1700.724 Q 6515.319 -1699.941 6514.748 -1699.170 Q 6514.177 -1698.399 6513.589 -1697.641 Q 6513.000 -1696.883 6512.396 -1696.138 Q 6511.790 -1695.394 6511.168 -1694.663 Q 6510.546 -1693.933 6509.908 -1693.216 Q 6509.270 -1692.500 6508.615 -1691.798 Q 6507.960 -1691.097 6507.291 -1690.410 Q 6506.621 -1689.723 6505.935 -1689.052 Q 6505.250 -1688.380 6504.549 -1687.724 Q 6503.849 -1687.069 6503.134 -1686.429 Q 6502.419 -1685.789 6501.689 -1685.166 Q 6500.960 -1684.542 6500.217 -1683.935 Q 6499.474 -1683.328 6498.717 -1682.739 Q 6497.960 -1682.149 6497.190 -1681.576 Q 6496.420 -1681.004 6495.638 -1680.448 Q 6494.855 -1679.893 6494.060 -1679.356 Q 6493.265 -1678.819 6492.458 -1678.300 Q 6491.651 -1677.781 6490.833 -1677.280 Q 6490.014 -1676.779 6489.185 -1676.297 Q 6488.355 -1675.815 6487.515 -1675.352 Q 6486.675 -1674.888 6485.824 -1674.444 Q 6484.974 -1674.000 6484.113 -1673.575 Q 6483.253 -1673.150 6482.383 -1672.745 Q 6481.514 -1672.340 6480.635 -1671.954 Q 6479.756 -1671.569 6478.869 -1671.203 Q 6477.982 -1670.838 6477.087 -1670.492 Q 6476.192 -1670.147 6475.289 -1669.822 Q 6474.386 -1669.497 6473.477 -1669.192 Q 6472.566 -1668.887 6471.650 -1668.604 Q 6470.733 -1668.319 6469.811 -1668.056 Q 6468.888 -1667.793 6467.960 -1667.551 Q 6467.031 -1667.309 6466.098 -1667.087 Q 6465.164 -1666.866 6464.226 -1666.666 Q 6463.287 -1666.466 6462.345 -1666.287 Q 6461.402 -1666.108 6460.455 -1665.951 Q 6459.509 -1665.793 6458.559 -1665.657 Q 6457.609 -1665.521 6456.657 -1665.407 Q 6455.704 -1665.292 6454.749 -1665.199 Q 6453.794 -1665.106 6452.837 -1665.035 Q 6451.880 -1664.964 6450.922 -1664.914 Q 6449.964 -1664.864 6449.005 -1664.836 Q 6448.046 -1664.808 6447.086 -1664.802 Q 6446.127 -1664.795 6445.167 -1664.811 Q 6444.208 -1664.826 6443.249 -1664.863 Q 6442.291 -1664.900 6441.333 -1664.958 Q 6440.375 -1665.017 6439.419 -1665.097 Q 6438.463 -1665.177 6437.509 -1665.279 Q 6436.555 -1665.381 6435.604 -1665.505 Q 6434.652 -1665.628 6433.703 -1665.773 Q 6432.755 -1665.918 6431.810 -1666.084 Q 6430.865 -1666.250 6429.924 -1666.438 Q 6428.983 -1666.625 6428.046 -1666.834 Q 6427.110 -1667.043 6426.178 -1667.273 Q 6425.247 -1667.503 6424.320 -1667.754 Q 6423.395 -1668.005 6422.475 -1668.276 Q 6421.554 -1668.548 6420.641 -1668.841 Q 6419.727 -1669.133 6418.819 -1669.446 Q 6417.913 -1669.759 6417.013 -1670.093 Q 6416.113 -1670.426 6415.221 -1670.780 Q 6414.329 -1671.134 6413.445 -1671.508 Q 6412.562 -1671.881 6411.687 -1672.275 Q 6410.812 -1672.669 6409.946 -1673.082 Q 6409.080 -1673.495 6408.224 -1673.928 Q 6407.368 -1674.361 6406.521 -1674.813 Q 6405.675 -1675.265 6404.839 -1675.736 Q 6404.003 -1676.207 6403.178 -1676.697 Q 6402.353 -1677.187 6401.539 -1677.695 Q 6400.726 -1678.204 6399.923 -1678.730 Q 6399.121 -1679.257 6398.331 -1679.802 Q 6397.542 -1680.346 6396.764 -1680.908 Q 6395.986 -1681.471 6395.222 -1682.051 Q 6394.458 -1682.630 6393.706 -1683.227 Q 6392.955 -1683.824 6392.218 -1684.438 Q 6391.480 -1685.051 6390.756 -1685.682 Q 6390.033 -1686.312 6389.324 -1686.958 Q 6388.615 -1687.605 6387.920 -1688.267 Q 6387.226 -1688.929 6386.547 -1689.607 Q 6385.868 -1690.285 6385.204 -1690.978 Q 6384.541 -1691.671 6383.893 -1692.378 Q 6383.245 -1693.086 6382.613 -1693.808 Q 6381.981 -1694.531 6381.366 -1695.267 Q 6380.751 -1696.003 6380.153 -1696.753 Q 6379.555 -1697.503 6378.973 -1698.267 Q 6378.392 -1699.030 6377.828 -1699.807 Q 6377.264 -1700.583 6376.718 -1701.372 Q 6376.172 -1702.161 6375.644 -1702.962 Q 6375.115 -1703.763 6374.605 -1704.575 Q 6374.095 -1705.388 6373.604 -1706.212 Q 6373.112 -1707.036 6372.640 -1707.871 Q 6372.167 -1708.706 6371.713 -1709.552 Q 6371.259 -1710.397 6370.825 -1711.252 Q 6370.391 -1712.108 6369.976 -1712.973 Q 6369.560 -1713.838 6369.165 -1714.712 Q 6368.770 -1715.587 6368.394 -1716.469 Q 6368.018 -1717.352 6367.663 -1718.244 Q 6367.307 -1719.135 6366.972 -1720.034 Q 6366.637 -1720.933 6366.322 -1721.839 Q 6366.007 -1722.745 6365.713 -1723.659 Q 6365.418 -1724.572 6365.145 -1725.492 Q 6364.871 -1726.411 6364.618 -1727.337 Q 6364.366 -1728.262 6364.134 -1729.194 Q 6363.902 -1730.125 6363.691 -1731.061 Q 6363.480 -1731.997 6363.291 -1732.938 Q 6363.102 -1733.878 6362.934 -1734.823 Q 6362.766 -1735.767 6362.619 -1736.716 Q 6362.472 -1737.664 6362.347 -1738.615 Q 6362.221 -1739.566 6362.117 -1740.520 Q 6362.014 -1741.474 6361.932 -1742.430 Q 6361.850 -1743.386 6361.789 -1744.344 Q 6361.729 -1745.301 6361.689 -1746.260 Q 6361.650 -1747.219 6361.633 -1748.178 Q 6361.616 -1749.137 6361.621 -1750.097 Q 6361.625 -1751.056 6361.651 -1752.015 Q 6361.677 -1752.975 6361.725 -1753.933 Q 6361.773 -1754.891 6361.843 -1755.848 Q 6361.912 -1756.805 6362.003 -1757.760 Q 6362.094 -1758.715 6362.207 -1759.668 Q 6362.319 -1760.621 6362.453 -1761.571 Q 6362.587 -1762.521 6362.743 -1763.468 Q 6362.898 -1764.415 6363.075 -1765.358 Q 6363.252 -1766.301 6363.451 -1767.240 Q 6363.649 -1768.179 6363.868 -1769.113 Q 6364.088 -1770.047 6364.328 -1770.976 Q 6364.568 -1771.905 6364.830 -1772.828 Q 6365.091 -1773.751 6365.373 -1774.668 Q 6365.655 -1775.585 6365.958 -1776.496 Q 6366.261 -1777.406 6366.584 -1778.309 Q 6366.908 -1779.213 6367.251 -1780.109 Q 6367.595 -1781.005 6367.959 -1781.892 Q 6368.323 -1782.780 6368.706 -1783.660 Q 6369.090 -1784.539 6369.493 -1785.410 Q 6369.897 -1786.280 6370.320 -1787.141 Q 6370.743 -1788.002 6371.186 -1788.854 Q 6371.628 -1789.705 6372.090 -1790.546 Q 6372.551 -1791.387 6373.032 -1792.218 Q 6373.513 -1793.048 6374.012 -1793.868 Q 6374.511 -1794.687 6375.028 -1795.495 Q 6375.546 -1796.303 6376.082 -1797.099 Q 6376.617 -1797.895 6377.171 -1798.679 Q 6377.724 -1799.463 6378.295 -1800.234 Q 6378.866 -1801.005 6379.455 -1801.763 Q 6380.043 -1802.521 6380.648 -1803.265 Q 6381.253 -1804.010 6381.875 -1804.740 Q 6382.498 -1805.471 6383.136 -1806.187 Q 6383.774 -1806.904 6384.429 -1807.605 Q 6385.083 -1808.307 6385.753 -1808.994 Q 6386.423 -1809.681 6387.108 -1810.352 Q 6387.794 -1811.023 6388.494 -1811.679 Q 6389.195 -1812.335 6389.910 -1812.975 Q 6390.625 -1813.615 6391.354 -1814.238 Q 6392.083 -1814.861 6392.827 -1815.468 Q 6393.570 -1816.075 6394.327 -1816.665 Q 6395.083 -1817.255 6395.854 -1817.828 Q 6396.624 -1818.400 6397.406 -1818.955 Q 6398.189 -1819.510 6398.984 -1820.047 Q 6399.779 -1820.585 6400.586 -1821.104 Q 6401.393 -1821.623 6402.211 -1822.124 Q 6403.029 -1822.625 6403.859 -1823.107 Q 6404.688 -1823.589 6405.529 -1824.052 Q 6406.369 -1824.515 6407.220 -1824.959 Q 6408.070 -1825.404 6408.931 -1825.829 Q 6409.791 -1826.253 6410.661 -1826.659 Q 6411.530 -1827.064 6412.409 -1827.449 Q 6413.288 -1827.835 6414.175 -1828.201 Q 6415.062 -1828.566 6415.957 -1828.912 Q 6416.852 -1829.257 6417.755 -1829.582 Q 6418.658 -1829.907 6419.567 -1830.212 Q 6420.478 -1830.516 6421.394 -1830.800 Q 6422.311 -1831.084 6423.233 -1831.348 Q 6424.156 -1831.611 6425.084 -1831.853 Q 6426.013 -1832.095 6426.946 -1832.316 Q 6427.880 -1832.538 6428.818 -1832.738 Q 6429.757 -1832.938 6430.699 -1833.117 Q 6431.642 -1833.296 6432.589 -1833.453 Q 6433.535 -1833.610 6434.485 -1833.746 Q 6435.435 -1833.882 6436.388 -1833.997 Q 6437.340 -1834.112 6438.295 -1834.205 Q 6439.250 -1834.297 6440.207 -1834.369 Q 6441.164 -1834.440 6442.122 -1834.490 Q 6443.080 -1834.540 6444.039 -1834.568 Q 6444.999 -1834.596 6445.958 -1834.602 Q 6446.917 -1834.609 6447.877 -1834.593 Q 6448.836 -1834.578 6449.795 -1834.541 Q 6450.754 -1834.504 6451.711 -1834.445 Q 6452.669 -1834.387 6453.625 -1834.306 Q 6454.582 -1834.226 6455.536 -1834.124 Q 6456.490 -1834.022 6457.441 -1833.899 Q 6458.393 -1833.776 6459.341 -1833.631 Q 6460.290 -1833.486 6461.234 -1833.320 Q 6462.180 -1833.153 6463.121 -1832.966 Q 6464.062 -1832.778 6464.998 -1832.569 Q 6465.935 -1832.360 6466.866 -1832.131 Q 6467.798 -1831.901 6468.724 -1831.650 Q 6469.650 -1831.399 6470.570 -1831.127 Q 6471.490 -1830.855 6472.404 -1830.563 Q 6473.318 -1830.270 6474.225 -1829.957 Q 6475.132 -1829.644 6476.031 -1829.311 Q 6476.931 -1828.977 6477.823 -1828.623 Q 6478.715 -1828.270 6479.599 -1827.896 Q 6480.482 -1827.522 6481.357 -1827.128 Q 6482.232 -1826.735 6483.099 -1826.321 Q 6483.964 -1825.908 6484.821 -1825.475 Q 6485.677 -1825.042 6486.523 -1824.590 Q 6487.370 -1824.138 6488.206 -1823.667 Q 6489.042 -1823.196 6489.866 -1822.706 Q 6490.691 -1822.216 6491.505 -1821.708 Q 6492.319 -1821.199 6493.121 -1820.673 Q 6493.923 -1820.146 6494.713 -1819.602 Q 6495.503 -1819.057 6496.280 -1818.495 Q 6497.058 -1817.932 6497.822 -1817.353 Q 6498.587 -1816.773 6499.338 -1816.176 Q 6500.090 -1815.579 6500.827 -1814.965 Q 6501.565 -1814.352 6502.288 -1813.721 Q 6503.012 -1813.091 6503.721 -1812.445 Q 6504.430 -1811.798 6505.124 -1811.136 Q 6505.818 -1810.474 6506.498 -1809.796 Q 6507.177 -1809.118 6507.840 -1808.425 Q 6508.504 -1807.732 6509.152 -1807.024 Q 6509.800 -1806.317 6510.432 -1805.594 Q 6511.063 -1804.872 6511.678 -1804.136 Q 6512.293 -1803.399 6512.892 -1802.649 Q 6513.490 -1801.899 6514.071 -1801.136 Q 6514.652 -1800.372 6515.216 -1799.596 Q 6515.780 -1798.820 6516.326 -1798.031 Q 6516.873 -1797.242 6517.401 -1796.441 Q 6517.929 -1795.640 6518.439 -1794.827 Q 6518.949 -1794.014 6519.440 -1793.190 Q 6519.932 -1792.366 6520.405 -1791.531 Q 6520.877 -1790.696 6521.331 -1789.851 Q 6521.785 -1789.005 6522.220 -1788.150 Q 6522.654 -1787.294 6523.069 -1786.429 Q 6523.484 -1785.564 6523.879 -1784.690 Q 6524.275 -1783.816 6524.650 -1782.933 Q 6525.026 -1782.050 6525.381 -1781.159 Q 6525.737 -1780.267 6526.072 -1779.368 Q 6526.408 -1778.469 6526.723 -1777.563 Q 6527.037 -1776.657 6527.332 -1775.743 Q 6527.626 -1774.830 6527.899 -1773.910 Q 6528.173 -1772.991 6528.426 -1772.065 Q 6528.679 -1771.140 6528.910 -1770.208 Q 6529.142 -1769.277 6529.353 -1768.341 Q 6529.563 -1767.405 6529.753 -1766.465 Q 6529.942 -1765.524 6530.110 -1764.579 Q 6530.278 -1763.635 6530.425 -1762.686 Q 6530.572 -1761.738 6530.697 -1760.787 Q 6530.822 -1759.836 6530.926 -1758.882 Q 6531.030 -1757.928 6531.112 -1756.972 Q 6531.194 -1756.016 6531.255 -1755.058 Q 6531.315 -1754.101 6531.354 -1753.142 Q 6531.393 -1752.183 6531.410 -1751.224 Q 6531.428 -1750.265 6531.423 -1749.306 Z"></path>
    <path id="STROKE_d10a236b-141f-46e2-9a48-679853058812" opacity="0.830" fill="none" stroke="#f9642d" stroke-width="0.312" stroke-opacity="1.000" stroke-linecap="round" stroke-linejoin="round" d="M 6384.520 -1792.487 L 6384.474 -1727.239 "></path>
    <path id="STROKE_f4fca4eb-04c9-4c5d-a7b4-6d3279d51a06" opacity="0.830" fill="none" stroke="#f9642d" stroke-width="0.326" stroke-opacity="1.000" stroke-linecap="round" stroke-linejoin="round" d="M 6383.982 -1727.105 L 6448.907 -1727.597 "></path>
    <path id="STROKE_134da33c-29be-4e67-850d-7a73f3f572ea" opacity="0.830" fill="none" stroke="#f9642d" stroke-width="0.302" stroke-opacity="1.000" stroke-linecap="round" stroke-linejoin="round" d="M 6448.962 -1727.298 L 6448.444 -1791.863 "></path>
    <path id="STROKE_47d6fc39-38ba-457b-8de3-87c4dd84cb6c" opacity="0.830" fill="none" stroke="#f9642d" stroke-width="0.392" stroke-opacity="1.000" stroke-linecap="round" stroke-linejoin="round" d="M 6448.710 -1791.477 L 6383.866 -1791.491 "></path>
    <path id="STROKE_82b22ed9-0ffa-4dfd-b02a-ab107bbe314b" opacity="0.750" fill="none" stroke="#bd8ae6" stroke-width="0.290" stroke-opacity="1.000" stroke-linecap="round" stroke-linejoin="round" d="M 6464.997 -1771.788 L 6463.995 -1706.118 "></path>
    <path id="STROKE_cc6ce1d6-c548-4ace-8a12-e48b731bd6b7" opacity="0.750" fill="none" stroke="#bd8ae6" stroke-width="0.262" stroke-opacity="1.000" stroke-linecap="round" stroke-linejoin="round" d="M 6464.304 -1706.978 L 6496.639 -1707.087 "></path>
    <path id="STROKE_bdf11206-66ff-42dc-8a41-267f119f7c7b" opacity="0.750" fill="none" stroke="#bd8ae6" stroke-width="0.262" stroke-opacity="1.000" stroke-linecap="round" stroke-linejoin="round" d="M 6496.716 -1706.427 L 6496.503 -1771.603 "></path>
    <path id="STROKE_60f70038-9927-41fb-b699-a11f2b97f855" opacity="0.830" fill="none" stroke="#f9642d" stroke-width="0.426" stroke-opacity="1.000" stroke-linecap="round" stroke-linejoin="round" d="M 6400.632 -1791.475 L 6399.818 -1728.179 "></path>
    <path id="STROKE_fd3ab07d-e177-48a6-af8d-7970f690fc1d" opacity="0.830" fill="none" stroke="#f9642d" stroke-width="0.366" stroke-opacity="1.000" stroke-linecap="round" stroke-linejoin="round" d="M 6416.511 -1791.195 L 6416.709 -1727.500 "></path>
    <path id="STROKE_68390813-b08b-4950-87f1-b3e5608e2b5a" opacity="0.830" fill="none" stroke="#f9642d" stroke-width="0.311" stroke-opacity="1.000" stroke-linecap="round" stroke-linejoin="round" d="M 6431.290 -1792.030 L 6431.799 -1728.070 "></path>
    <path id="STROKE_7ae651e4-9c7b-4259-a824-1ddfdee4bae2" opacity="0.830" fill="none" stroke="#f9642d" stroke-width="0.297" stroke-opacity="1.000" stroke-linecap="round" stroke-linejoin="round" d="M 6384.646 -1776.137 L 6448.400 -1776.243 "></path>
    <path id="STROKE_37dcc67e-9326-48ea-b3c0-f66fdaf57930" opacity="0.830" fill="none" stroke="#f9642d" stroke-width="0.322" stroke-opacity="1.000" stroke-linecap="round" stroke-linejoin="round" d="M 6385.267 -1759.889 L 6448.477 -1760.411 "></path>
    <path id="STROKE_67c71713-1a5b-46f4-8652-ffe7635e9684" opacity="0.830" fill="none" stroke="#f9642d" stroke-width="0.356" stroke-opacity="1.000" stroke-linecap="round" stroke-linejoin="round" d="M 6384.540 -1743.284 L 6448.690 -1743.393 "></path>
    <path id="STROKE_883cda9e-8160-44ad-a351-745d31bcab1f" opacity="0.550" fill="none" stroke="#fff3e3" stroke-width="0.257" stroke-opacity="1.000" stroke-linecap="round" stroke-linejoin="round" d="M 6396.738 -1777.956 L 6396.522 -1778.064 Q 6396.406 -1778.229 6396.404 -1778.254 L 6396.359 -1778.638 Q 6396.352 -1778.694 6396.453 -1779.075 Q 6396.554 -1779.456 6396.704 -1779.662 Q 6396.854 -1779.868 6397.108 -1780.071 Q 6397.361 -1780.274 6397.517 -1780.328 Q 6397.672 -1780.382 6397.678 -1780.380 Q 6397.684 -1780.379 6397.977 -1780.371 Q 6398.269 -1780.363 6398.460 -1780.200 Q 6398.652 -1780.038 6398.797 -1779.831 Q 6398.942 -1779.625 6398.986 -1779.255 Q 6399.030 -1778.885 6398.986 -1778.669 Q 6398.943 -1778.454 6398.846 -1778.281 Q 6398.748 -1778.107 6398.528 -1777.877 Q 6398.309 -1777.646 6397.927 -1777.527 Q 6397.544 -1777.407 6397.391 -1777.430 Q 6397.238 -1777.453 6397.178 -1777.482 Q 6397.118 -1777.510 6397.050 -1777.610 Q 6396.982 -1777.711 6396.959 -1777.792 Q 6396.937 -1777.873 6396.972 -1777.992 Q 6397.006 -1778.111 6397.078 -1778.294 "></path>
    <path id="STROKE_efba9117-0a02-4704-a452-830b5520f3aa" opacity="0.550" fill="none" stroke="#fff3e3" stroke-width="0.260" stroke-opacity="1.000" stroke-linecap="round" stroke-linejoin="round" d="M 6414.249 -1780.051 L 6414.243 -1780.041 Q 6414.249 -1780.037 6414.292 -1777.376 Q 6414.378 -1777.340 6414.462 -1777.277 "></path>
    <path id="STROKE_c7c59732-3718-482c-b445-5eacb13d2469" opacity="0.550" fill="none" stroke="#fff3e3" stroke-width="0.266" stroke-opacity="1.000" stroke-linecap="round" stroke-linejoin="round" d="M 6428.399 -1778.616 Q 6428.371 -1778.769 6428.363 -1778.904 Q 6428.354 -1779.039 6428.357 -1779.044 Q 6428.360 -1779.049 6428.387 -1779.299 Q 6428.415 -1779.550 6428.566 -1779.735 Q 6428.719 -1779.921 6428.900 -1780.013 Q 6429.081 -1780.105 6429.196 -1780.130 Q 6429.312 -1780.155 6429.459 -1780.136 Q 6429.607 -1780.118 6429.731 -1780.007 Q 6429.856 -1779.896 6429.986 -1779.426 Q 6430.115 -1778.955 6429.908 -1778.431 Q 6429.700 -1777.907 6429.410 -1777.671 Q 6429.119 -1777.435 6428.971 -1777.404 Q 6428.823 -1777.372 6428.716 -1777.361 Q 6428.609 -1777.349 6428.539 -1777.527 Q 6428.795 -1777.599 6429.514 -1777.589 Q 6430.232 -1777.579 6430.429 -1777.553 "></path>
    <path id="STROKE_022e2aea-eb4d-4649-a9e0-83f3cc16ddae" opacity="0.550" fill="none" stroke="#fff3e3" stroke-width="0.243" stroke-opacity="1.000" stroke-linecap="round" stroke-linejoin="round" d="M 6444.782 -1779.267 L 6445.006 -1779.317 L 6445.214 -1779.391 Q 6445.283 -1779.420 6445.765 -1779.495 Q 6446.246 -1779.571 6446.564 -1779.476 Q 6446.883 -1779.380 6446.913 -1779.333 Q 6446.942 -1779.286 6446.946 -1779.221 Q 6446.950 -1779.156 6446.926 -1779.101 Q 6446.901 -1779.047 6446.887 -1779.031 Q 6446.872 -1779.015 6446.819 -1778.964 Q 6446.768 -1778.913 6446.739 -1778.891 Q 6446.710 -1778.870 6446.592 -1778.789 Q 6446.593 -1778.771 6446.647 -1778.754 Q 6446.701 -1778.737 6446.871 -1778.622 Q 6447.041 -1778.507 6447.167 -1778.197 Q 6447.294 -1777.886 6447.233 -1777.615 Q 6447.173 -1777.344 6447.104 -1777.272 Q 6447.035 -1777.200 6446.916 -1777.113 Q 6446.797 -1777.026 6446.571 -1777.052 Q 6446.345 -1777.079 6446.153 -1777.154 "></path>
    <path id="STROKE_c367772c-497e-46ae-b867-98161fa03afc" opacity="0.550" fill="none" stroke="#fff3e3" stroke-width="0.263" stroke-opacity="1.000" stroke-linecap="round" stroke-linejoin="round" d="M 6397.019 -1764.205 Q 6396.937 -1764.224 6396.917 -1764.233 Q 6396.896 -1764.241 6396.838 -1764.229 Q 6396.618 -1763.794 6396.571 -1763.501 Q 6396.525 -1763.208 6396.613 -1762.999 Q 6396.701 -1762.791 6396.716 -1762.774 Q 6396.731 -1762.757 6397.078 -1762.624 Q 6397.425 -1762.491 6397.688 -1762.508 Q 6397.951 -1762.525 6398.023 -1762.543 Q 6398.096 -1762.561 6398.231 -1762.659 Q 6398.366 -1762.757 6398.525 -1762.942 "></path>
    <path id="STROKE_cff8e319-1d97-4cd1-8358-df9186f17dc0" opacity="0.550" fill="none" stroke="#fff3e3" stroke-width="0.263" stroke-opacity="1.000" stroke-linecap="round" stroke-linejoin="round" d="M 6398.418 -1764.252 L 6398.323 -1764.137 Q 6398.285 -1764.026 6398.175 -1762.885 Q 6398.064 -1761.744 6398.212 -1761.195 Q 6398.360 -1760.645 6398.434 -1760.488 "></path>
    <path id="STROKE_5b296a51-c029-4b9d-b21d-c281fe5fe751" opacity="0.550" fill="none" stroke="#fff3e3" stroke-width="0.283" stroke-opacity="1.000" stroke-linecap="round" stroke-linejoin="round" d="M 6414.894 -1763.617 Q 6414.704 -1763.732 6414.622 -1763.767 Q 6414.539 -1763.802 6414.509 -1763.830 Q 6414.479 -1763.859 6413.245 -1763.698 L 6413.154 -1763.559 Q 6413.106 -1763.385 6413.090 -1763.288 Q 6413.073 -1763.191 6413.117 -1763.045 Q 6413.161 -1762.900 6413.192 -1762.856 Q 6413.224 -1762.812 6413.353 -1762.729 Q 6413.480 -1762.645 6413.541 -1762.623 Q 6413.601 -1762.601 6413.669 -1762.588 Q 6413.737 -1762.574 6413.985 -1762.518 Q 6414.233 -1762.461 6414.356 -1762.421 Q 6414.479 -1762.381 6414.591 -1762.305 Q 6414.704 -1762.229 6414.709 -1762.227 Q 6414.715 -1762.225 6414.794 -1762.121 Q 6414.872 -1762.017 6414.896 -1761.902 Q 6414.919 -1761.788 6414.914 -1761.733 Q 6414.910 -1761.679 6414.910 -1761.646 Q 6414.911 -1761.613 6414.635 -1761.343 Q 6414.358 -1761.073 6413.680 -1761.060 Q 6413.002 -1761.047 6412.937 -1761.090 "></path>
    <path id="STROKE_11f21b73-da98-4b1e-8003-9ee615a0dc44" opacity="0.550" fill="none" stroke="#fff3e3" stroke-width="0.291" stroke-opacity="1.000" stroke-linecap="round" stroke-linejoin="round" d="M 6430.448 -1764.172 Q 6430.256 -1764.379 6430.213 -1764.367 Q 6430.151 -1764.400 6429.914 -1764.416 Q 6429.678 -1764.432 6429.354 -1764.281 Q 6429.032 -1764.129 6428.778 -1763.709 Q 6428.525 -1763.288 6428.479 -1762.910 Q 6428.434 -1762.532 6428.481 -1762.257 Q 6428.528 -1761.983 6428.675 -1761.816 Q 6428.822 -1761.650 6429.142 -1761.569 Q 6429.461 -1761.488 6429.604 -1761.501 Q 6429.746 -1761.514 6429.870 -1761.576 Q 6429.994 -1761.638 6429.993 -1761.643 Q 6429.992 -1761.647 6430.012 -1761.687 Q 6430.032 -1761.726 6430.030 -1761.807 Q 6430.028 -1761.888 6429.932 -1761.982 Q 6429.835 -1762.075 6429.624 -1762.148 Q 6429.414 -1762.222 6428.826 -1762.406 L 6428.676 -1762.415 "></path>
    <path id="STROKE_248dfaba-cb55-4680-bc9d-d0d685a438d8" opacity="0.550" fill="none" stroke="#fff3e3" stroke-width="0.243" stroke-opacity="1.000" stroke-linecap="round" stroke-linejoin="round" d="M 6444.937 -1764.049 L 6444.939 -1764.066 L 6444.983 -1764.141 Q 6445.004 -1764.212 6445.805 -1764.332 Q 6446.606 -1764.452 6447.466 -1764.416 Q 6447.509 -1764.321 6447.527 -1764.321 Q 6447.544 -1764.321 6447.500 -1764.141 Q 6447.456 -1763.961 6447.419 -1763.879 Q 6447.383 -1763.798 6447.081 -1763.364 Q 6446.778 -1762.930 6446.462 -1762.460 L 6446.521 -1762.339 "></path>
    <path id="STROKE_765f1a3a-fd17-47eb-bfe1-47d666fea86f" opacity="0.550" fill="none" stroke="#fff3e3" stroke-width="0.260" stroke-opacity="1.000" stroke-linecap="round" stroke-linejoin="round" d="M 6396.831 -1747.524 Q 6396.868 -1747.587 6396.878 -1747.593 Q 6396.888 -1747.600 6396.959 -1748.057 L 6396.893 -1748.107 L 6396.751 -1748.127 Q 6396.605 -1748.114 6396.392 -1747.972 Q 6396.179 -1747.830 6396.066 -1747.702 Q 6395.954 -1747.573 6395.890 -1747.298 Q 6395.825 -1747.022 6395.915 -1746.816 Q 6396.006 -1746.611 6396.047 -1746.573 Q 6396.087 -1746.534 6396.462 -1746.232 Q 6396.837 -1745.929 6397.051 -1745.762 Q 6397.264 -1745.596 6397.400 -1745.340 Q 6397.537 -1745.084 6397.537 -1744.825 Q 6397.537 -1744.566 6397.493 -1744.472 Q 6397.450 -1744.379 6397.370 -1744.309 Q 6397.289 -1744.239 6397.207 -1744.210 Q 6397.125 -1744.182 6396.945 -1744.203 Q 6396.766 -1744.223 6396.669 -1744.287 Q 6396.571 -1744.352 6396.556 -1744.369 Q 6396.541 -1744.386 6396.454 -1744.498 Q 6396.367 -1744.610 6396.348 -1744.783 Q 6396.328 -1744.956 6396.341 -1745.050 Q 6396.355 -1745.145 6396.537 -1745.443 Q 6396.719 -1745.741 6396.956 -1746.023 Q 6397.192 -1746.305 6397.562 -1746.834 Q 6397.933 -1747.363 6398.009 -1747.594 Q 6398.086 -1747.825 6398.069 -1747.974 Q 6398.052 -1748.122 6398.053 -1748.129 Q 6398.053 -1748.136 6398.002 -1748.279 "></path>
    <path id="STROKE_c6811c37-8f7b-41ba-9ecd-a588befa9321" opacity="0.550" fill="none" stroke="#fff3e3" stroke-width="0.260" stroke-opacity="1.000" stroke-linecap="round" stroke-linejoin="round" d="M 6414.399 -1747.477 Q 6414.360 -1747.366 6414.507 -1744.037 Q 6414.556 -1744.021 6414.772 -1744.304 "></path>
    <path id="STROKE_82947f0a-daf0-47a1-a20a-65c8fde07458" opacity="0.550" fill="none" stroke="#fff3e3" stroke-width="0.265" stroke-opacity="1.000" stroke-linecap="round" stroke-linejoin="round" d="M 6414.569 -1747.557 Q 6414.105 -1747.868 6413.907 -1747.938 Q 6413.708 -1748.008 6413.320 -1747.993 Q 6412.932 -1747.979 6412.646 -1747.597 Q 6412.359 -1747.216 6412.277 -1746.800 Q 6412.195 -1746.384 6412.211 -1746.169 Q 6412.228 -1745.954 6412.396 -1745.685 Q 6412.563 -1745.416 6413.559 -1745.496 Q 6414.553 -1745.577 6414.753 -1745.629 "></path>
    <path id="STROKE_2b4b68f5-cd13-43fe-a73f-b1fe8844b877" opacity="0.550" fill="none" stroke="#fff3e3" stroke-width="0.234" stroke-opacity="1.000" stroke-linecap="round" stroke-linejoin="round" d="M 6428.937 -1744.718 Q 6428.953 -1744.786 6429.031 -1745.026 Q 6429.159 -1745.101 6429.232 -1745.165 "></path>
    <path id="STROKE_acf98986-0997-48e7-9679-c8560b08ce49" opacity="0.550" fill="none" stroke="#fff3e3" stroke-width="0.209" stroke-opacity="1.000" stroke-linecap="round" stroke-linejoin="round" d="M 6448.229 -1744.998 Q 6448.085 -1745.139 6448.046 -1745.443 L 6448.075 -1745.567 "></path>
    <path id="STROKE_f791d91f-92c9-4fe2-ba2f-bbc6b3f70f66" opacity="0.550" fill="none" stroke="#fff3e3" stroke-width="0.236" stroke-opacity="1.000" stroke-linecap="round" stroke-linejoin="round" d="M 6397.092 -1729.595 Q 6396.962 -1729.560 6396.881 -1729.502 Q 6396.892 -1729.493 6397.025 -1729.452 Q 6397.159 -1729.412 6397.354 -1729.366 "></path>
    <circle id="STROKE_5f8300b5-3ae6-4b4c-8a23-e27b17761d56" opacity="0.550" fill="#fff3e3" stroke="#fff3e3" stroke-width="0.1" stroke-opacity="1.000" fill-opacity="1.000" cx="6415.169" cy="-1728.578" r="0.115"></circle>
    <path id="STROKE_d297c901-02c3-4778-8919-3dce839db5c3" opacity="0.550" fill="none" stroke="#fff3e3" stroke-width="0.235" stroke-opacity="1.000" stroke-linecap="round" stroke-linejoin="round" d="M 6429.552 -1729.504 Q 6429.524 -1729.557 6429.615 -1729.642 "></path>
    <path id="STROKE_08436200-1b56-43ed-8c54-b65cecb7d027" opacity="0.550" fill="none" stroke="#fff3e3" stroke-width="0.285" stroke-opacity="1.000" stroke-linecap="round" stroke-linejoin="round" d="M 6448.012 -1729.148 Q 6448.007 -1729.154 6447.977 -1729.207 Q 6447.946 -1729.260 6447.891 -1729.424 L 6447.906 -1729.580 "></path>
    <path id="STROKE_919df1f8-6014-4aff-b451-517aaff211b7" opacity="0.550" fill="none" stroke="#fff3e3" stroke-width="0.248" stroke-opacity="1.000" stroke-linecap="round" stroke-linejoin="round" d="M 6415.092 -1729.042 Q 6415.090 -1729.051 6415.036 -1728.987 Q 6414.982 -1728.923 6414.926 -1728.977 Q 6414.869 -1729.032 6414.861 -1729.026 Q 6414.853 -1729.020 6414.864 -1729.043 "></path>
    <path id="STROKE_8bafc029-9c4e-4191-8080-95d5cfd1a36e" opacity="0.550" fill="none" stroke="#fff3e3" stroke-width="0.267" stroke-opacity="1.000" stroke-linecap="round" stroke-linejoin="round" d="M 6429.247 -1744.580 Q 6429.239 -1744.638 6429.248 -1744.628 Q 6429.257 -1744.618 6429.189 -1744.893 Q 6429.246 -1744.924 6429.354 -1744.950 "></path>
    <path id="STROKE_27c78d8b-96e8-4c14-b7f2-4934d7f7faa0" opacity="0.830" fill="none" stroke="#f9642d" stroke-width="0.322" stroke-opacity="1.000" stroke-linecap="round" stroke-linejoin="round" d="M 6400.036 -1727.611 L 6399.929 -1710.828 "></path>
    <path id="STROKE_a890da67-8165-4910-8683-aaba1f9a0642" opacity="0.830" fill="none" stroke="#f9642d" stroke-width="0.280" stroke-opacity="1.000" stroke-linecap="round" stroke-linejoin="round" d="M 6400.024 -1711.776 L 6448.849 -1712.444 "></path>
    <path id="STROKE_305aaa55-1067-422e-a876-a3ee25f472b6" opacity="0.830" fill="none" stroke="#f9642d" stroke-width="0.261" stroke-opacity="1.000" stroke-linecap="round" stroke-linejoin="round" d="M 6448.558 -1727.925 L 6448.349 -1679.903 "></path>
    <path id="STROKE_8e6b41ab-42c8-4b06-9126-b8dd292b52e5" opacity="0.830" fill="none" stroke="#f9642d" stroke-width="0.276" stroke-opacity="1.000" stroke-linecap="round" stroke-linejoin="round" d="M 6416.174 -1712.353 L 6416.012 -1695.803 "></path>
    <path id="STROKE_9eef1f2e-ce24-4ac0-b90c-6ebff25b25ef" opacity="0.830" fill="none" stroke="#f9642d" stroke-width="0.282" stroke-opacity="1.000" stroke-linecap="round" stroke-linejoin="round" d="M 6415.776 -1695.828 L 6447.705 -1696.156 "></path>
    <path id="STROKE_37ea521b-b4ac-4ca5-9537-33c987fcb599" opacity="0.830" fill="none" stroke="#f9642d" stroke-width="0.249" stroke-opacity="1.000" stroke-linecap="round" stroke-linejoin="round" d="M 6432.501 -1697.138 L 6432.394 -1679.925 "></path>
    <path id="STROKE_c483ea6a-233e-44fe-9808-59c4c476a197" opacity="0.830" fill="none" stroke="#f9642d" stroke-width="0.298" stroke-opacity="1.000" stroke-linecap="round" stroke-linejoin="round" d="M 6432.463 -1679.914 L 6448.720 -1680.476 "></path>
    <path id="STROKE_ff5fc2cf-ebc3-46bb-814d-0fd55102e430" opacity="0.830" fill="none" stroke="#f9642d" stroke-width="0.276" stroke-opacity="1.000" stroke-linecap="round" stroke-linejoin="round" d="M 6431.427 -1728.524 L 6432.338 -1694.786 "></path>
    <path id="STROKE_4ae88f46-7198-4db7-bb70-b3ca287108ae" opacity="0.830" fill="none" stroke="#f9642d" stroke-width="0.276" stroke-opacity="1.000" stroke-linecap="round" stroke-linejoin="round" d="M 6416.549 -1728.687 L 6416.255 -1695.710 "></path>
    <path id="STROKE_141c1cd9-e658-426a-b0cd-449123a899f6" opacity="0.550" fill="none" stroke="#fff3e3" stroke-width="0.523" stroke-opacity="1.000" stroke-linecap="round" stroke-linejoin="round" d="M 6414.960 -1713.814 L 6414.843 -1713.813 L 6414.743 -1713.818 Q 6414.629 -1713.854 6414.688 -1713.901 Q 6414.746 -1713.947 6414.853 -1713.965 Q 6414.960 -1713.982 6415.035 -1714.006 Q 6415.110 -1714.029 6415.273 -1714.084 "></path>
    <path id="STROKE_d37b94b9-fe5d-4ff2-b14a-64513b079943" opacity="0.550" fill="none" stroke="#fff3e3" stroke-width="0.527" stroke-opacity="1.000" stroke-linecap="round" stroke-linejoin="round" d="M 6430.293 -1713.558 L 6430.299 -1713.644 Q 6430.260 -1713.851 6430.251 -1713.869 Q 6430.199 -1713.958 6430.195 -1713.964 Q 6430.192 -1713.971 6430.159 -1714.072 Q 6430.125 -1714.173 6430.190 -1714.236 Q 6430.256 -1714.298 6430.304 -1714.330 "></path>
    <path id="STROKE_6c6929e4-ab99-49a0-8537-4fcf4615c498" opacity="0.550" fill="none" stroke="#fff3e3" stroke-width="0.475" stroke-opacity="1.000" stroke-linecap="round" stroke-linejoin="round" d="M 6446.932 -1713.828 Q 6446.739 -1713.946 6446.380 -1714.282 Q 6446.383 -1714.298 6446.418 -1714.344 Q 6446.453 -1714.390 6446.501 -1714.459 "></path>
    <path id="STROKE_9a418732-df72-44da-97ae-12211d7f08a1" opacity="0.550" fill="none" stroke="#fff3e3" stroke-width="0.500" stroke-opacity="1.000" stroke-linecap="round" stroke-linejoin="round" d="M 6430.643 -1697.794 Q 6430.576 -1697.892 6430.554 -1697.905 Q 6430.533 -1697.918 6430.533 -1697.939 Q 6430.533 -1697.959 6430.125 -1698.120 Q 6430.162 -1698.140 6430.278 -1698.228 "></path>
    <path id="STROKE_4d59ea0c-81d7-4cd4-beb2-8babc354ed69" opacity="0.550" fill="none" stroke="#fff3e3" stroke-width="0.698" stroke-opacity="1.000" stroke-linecap="round" stroke-linejoin="round" d="M 6447.296 -1697.138 Q 6447.115 -1697.289 6447.112 -1697.310 L 6447.046 -1697.396 Q 6447.033 -1697.396 6446.883 -1697.623 L 6446.862 -1697.654 "></path>
    <path id="STROKE_a89818dd-9a71-4380-ab9d-8af5f9804ac2" opacity="0.550" fill="none" stroke="#fff3e3" stroke-width="0.495" stroke-opacity="1.000" stroke-linecap="round" stroke-linejoin="round" d="M 6447.425 -1681.844 Q 6447.317 -1681.925 6447.312 -1681.930 Q 6447.306 -1681.935 6447.246 -1682.004 Q 6447.186 -1682.073 6447.185 -1682.078 Q 6447.183 -1682.083 6447.079 -1682.238 Q 6446.974 -1682.393 6446.899 -1682.547 "></path>
    <path id="STROKE_94026d0e-a18f-4149-b8a2-7216705a6a98" opacity="0.750" fill="none" stroke="#bd8ae6" stroke-width="0.357" stroke-opacity="1.000" stroke-linecap="round" stroke-linejoin="round" d="M 6464.896 -1770.342 L 6464.601 -1792.089 "></path>
    <path id="STROKE_bd71e515-4426-473f-bcca-34a98cf1ba43" opacity="0.750" fill="none" stroke="#bd8ae6" stroke-width="0.284" stroke-opacity="1.000" stroke-linecap="round" stroke-linejoin="round" d="M 6496.286 -1792.381 L 6496.448 -1755.938 "></path>
    <path id="STROKE_d7dff074-c291-4710-b449-742748899b5e" opacity="0.550" fill="none" stroke="#fff3e3" stroke-width="0.267" stroke-opacity="1.000" stroke-linecap="round" stroke-linejoin="round" d="M 6479.574 -1759.978 L 6479.563 -1760.017 Q 6479.556 -1760.071 6479.731 -1760.359 Q 6479.906 -1760.646 6480.182 -1760.672 Q 6480.271 -1760.232 6480.130 -1760.060 Q 6479.989 -1759.888 6479.731 -1759.856 Q 6479.667 -1759.919 6479.701 -1760.238 Q 6479.735 -1760.556 6479.928 -1760.752 Q 6480.120 -1760.948 6480.212 -1760.980 Q 6480.303 -1761.012 6480.361 -1761.011 Q 6480.419 -1761.009 6480.502 -1760.960 Q 6480.585 -1760.910 6480.624 -1760.854 Q 6480.663 -1760.798 6480.714 -1760.566 Q 6480.765 -1760.334 6480.669 -1760.081 Q 6480.574 -1759.829 6480.459 -1759.760 Q 6480.344 -1759.692 6480.274 -1759.676 Q 6480.204 -1759.659 6480.078 -1759.760 Q 6479.952 -1759.860 6479.911 -1759.956 Q 6479.870 -1760.052 6479.861 -1760.225 Q 6479.853 -1760.398 6479.933 -1760.557 Q 6480.014 -1760.717 6480.599 -1760.723 Q 6480.621 -1760.705 6480.693 -1760.504 Q 6480.766 -1760.303 6480.670 -1760.094 Q 6480.574 -1759.884 6480.471 -1759.818 Q 6480.368 -1759.751 6480.278 -1759.737 Q 6480.188 -1759.724 6480.185 -1759.724 Q 6480.181 -1759.724 6480.071 -1759.781 Q 6479.960 -1759.838 6479.910 -1759.983 Q 6479.860 -1760.128 6479.896 -1760.468 Q 6480.090 -1760.619 6480.192 -1760.693 "></path>
    <path id="STROKE_e89ec1d9-0d74-465c-842d-30e8985a8146" opacity="0.550" fill="none" stroke="#fff3e3" stroke-width="0.336" stroke-opacity="1.000" stroke-linecap="round" stroke-linejoin="round" d="M 6480.122 -1767.954 Q 6480.114 -1767.973 6480.038 -1768.053 Q 6479.962 -1768.133 6479.927 -1768.302 Q 6479.891 -1768.471 6479.895 -1768.477 Q 6479.897 -1768.484 6479.918 -1768.586 Q 6479.938 -1768.688 6480.026 -1768.803 Q 6480.115 -1768.918 6480.238 -1768.969 Q 6480.361 -1769.021 6480.408 -1769.011 Q 6480.456 -1769.001 6480.534 -1768.927 Q 6480.612 -1768.852 6480.693 -1768.665 Q 6480.774 -1768.479 6480.800 -1768.167 Q 6480.825 -1767.855 6480.767 -1767.657 Q 6480.708 -1767.458 6480.609 -1767.347 Q 6480.510 -1767.235 6480.391 -1767.191 Q 6480.271 -1767.146 6480.104 -1767.211 Q 6479.936 -1767.276 6479.785 -1767.628 Q 6479.634 -1767.980 6479.655 -1768.260 Q 6479.676 -1768.540 6479.788 -1768.677 Q 6479.899 -1768.815 6480.059 -1768.905 Q 6480.219 -1768.996 6480.335 -1769.011 Q 6480.452 -1769.027 6480.599 -1768.911 Q 6480.746 -1768.795 6480.765 -1768.573 Q 6480.783 -1768.352 6480.719 -1768.185 Q 6480.654 -1768.018 6480.540 -1767.911 Q 6480.425 -1767.803 6480.386 -1767.785 Q 6480.348 -1767.767 6480.264 -1767.769 Q 6480.181 -1767.770 6480.130 -1767.797 Q 6480.080 -1767.823 6480.006 -1768.118 Q 6479.933 -1768.413 6479.976 -1768.546 Q 6480.019 -1768.678 6480.471 -1768.683 Q 6480.497 -1768.660 6480.540 -1768.473 Q 6480.583 -1768.285 6480.182 -1768.093 L 6480.078 -1768.105 "></path>
    <path id="STROKE_2f7ea8a6-e6e9-4bfa-be90-e01df8a7b444" opacity="0.550" fill="none" stroke="#fff3e3" stroke-width="0.318" stroke-opacity="1.000" stroke-linecap="round" stroke-linejoin="round" d="M 6480.718 -1777.015 Q 6480.521 -1777.031 6480.454 -1777.069 Q 6480.387 -1777.106 6480.352 -1777.172 Q 6480.315 -1777.239 6480.322 -1777.367 Q 6480.328 -1777.495 6480.433 -1777.566 Q 6480.538 -1777.637 6480.595 -1777.650 Q 6480.651 -1777.662 6480.797 -1777.612 Q 6480.942 -1777.562 6481.081 -1777.363 Q 6481.219 -1777.164 6481.309 -1776.775 Q 6481.399 -1776.386 6481.405 -1776.220 Q 6481.412 -1776.054 6481.355 -1775.866 Q 6481.299 -1775.677 6481.221 -1775.579 Q 6481.143 -1775.481 6480.946 -1775.443 Q 6480.749 -1775.404 6480.610 -1775.508 Q 6480.472 -1775.612 6480.394 -1775.777 Q 6480.316 -1775.942 6480.286 -1776.115 Q 6480.257 -1776.288 6480.318 -1776.493 Q 6480.380 -1776.698 6480.441 -1776.748 Q 6480.502 -1776.798 6480.586 -1776.847 Q 6480.669 -1776.897 6480.769 -1776.915 Q 6480.868 -1776.934 6480.982 -1776.918 Q 6481.098 -1776.902 6481.171 -1776.813 Q 6481.244 -1776.725 6481.265 -1776.622 Q 6481.285 -1776.519 6481.283 -1776.474 Q 6481.281 -1776.428 6481.286 -1776.416 Q 6481.292 -1776.404 6481.184 -1776.200 Q 6481.076 -1775.996 6480.904 -1775.922 Q 6480.733 -1775.847 6480.634 -1775.846 Q 6480.534 -1775.845 6480.396 -1775.957 Q 6480.258 -1776.068 6480.186 -1776.252 Q 6480.114 -1776.435 6480.104 -1776.514 Q 6480.095 -1776.594 6480.106 -1776.738 Q 6480.119 -1776.882 6480.292 -1777.031 Q 6480.466 -1777.179 6480.604 -1777.182 Q 6480.742 -1777.185 6480.836 -1777.159 Q 6480.931 -1777.132 6480.992 -1777.005 Q 6481.053 -1776.877 6481.056 -1776.816 Q 6481.058 -1776.755 6481.024 -1776.656 Q 6480.992 -1776.556 6480.863 -1776.490 Q 6480.735 -1776.424 6480.641 -1776.432 Q 6480.547 -1776.440 6480.470 -1776.504 Q 6480.392 -1776.568 6480.372 -1776.612 Q 6480.351 -1776.655 6480.345 -1776.657 Q 6480.338 -1776.659 6480.327 -1776.737 Q 6480.316 -1776.816 6480.320 -1776.936 "></path>
    <path id="STROKE_15b0d732-17dd-49ba-a69c-068c8fd2bdb4" opacity="0.550" fill="none" stroke="#fff3e3" stroke-width="0.446" stroke-opacity="1.000" stroke-linecap="round" stroke-linejoin="round" d="M 6410.622 -1807.513 Q 6410.545 -1807.848 6410.483 -1807.967 Q 6410.422 -1808.086 6410.399 -1808.110 Q 6410.376 -1808.133 6410.297 -1808.191 Q 6410.218 -1808.250 6410.051 -1808.307 Q 6409.884 -1808.364 6409.717 -1808.378 Q 6409.549 -1808.392 6409.461 -1808.401 Q 6409.372 -1808.410 6408.792 -1808.276 Q 6408.211 -1808.143 6407.637 -1807.782 Q 6407.063 -1807.422 6406.750 -1807.016 Q 6406.436 -1806.610 6406.374 -1806.126 Q 6406.312 -1805.643 6406.330 -1805.426 Q 6406.349 -1805.210 6406.963 -1804.629 Q 6407.577 -1804.048 6408.301 -1803.637 Q 6409.024 -1803.227 6409.470 -1802.973 Q 6409.915 -1802.719 6410.239 -1802.434 Q 6410.563 -1802.150 6410.688 -1801.849 Q 6410.812 -1801.549 6410.784 -1801.255 Q 6410.755 -1800.962 6410.361 -1800.589 Q 6409.967 -1800.216 6409.055 -1799.970 Q 6408.143 -1799.724 6406.866 -1800.306 Q 6406.864 -1800.313 6407.154 -1800.467 Q 6407.444 -1800.622 6407.678 -1800.728 "></path>
    <path id="STROKE_eed871fc-df49-46de-a939-cd8a7f7db009" opacity="0.550" fill="none" stroke="#fff3e3" stroke-width="0.335" stroke-opacity="1.000" stroke-linecap="round" stroke-linejoin="round" d="M 6414.431 -1808.274 Q 6414.392 -1808.221 6414.462 -1806.548 Q 6414.533 -1804.874 6414.114 -1801.000 Q 6414.110 -1801.015 6414.166 -1801.872 "></path>
    <path id="STROKE_85526f3d-4777-485f-bd97-f8c15c1f87ca" opacity="0.550" fill="none" stroke="#fff3e3" stroke-width="0.295" stroke-opacity="1.000" stroke-linecap="round" stroke-linejoin="round" d="M 6412.826 -1803.696 L 6412.833 -1803.670 Q 6412.927 -1803.633 6414.104 -1803.568 Q 6415.280 -1803.502 6415.572 -1803.462 "></path>
    <path id="STROKE_abf06b40-7127-4f90-bf45-23d3e123d778" opacity="0.550" fill="none" stroke="#fff3e3" stroke-width="0.308" stroke-opacity="1.000" stroke-linecap="round" stroke-linejoin="round" d="M 6418.188 -1803.114 Q 6417.960 -1803.105 6417.669 -1803.087 Q 6417.379 -1803.069 6417.044 -1802.680 Q 6416.709 -1802.292 6416.621 -1801.836 Q 6416.532 -1801.381 6416.640 -1801.073 Q 6416.747 -1800.766 6416.991 -1800.769 Q 6417.236 -1800.772 6417.409 -1800.880 Q 6417.583 -1800.989 6417.891 -1801.326 Q 6418.199 -1801.663 6418.376 -1802.015 Q 6418.553 -1802.367 6418.585 -1802.860 Q 6418.522 -1802.905 6418.477 -1802.551 Q 6418.431 -1802.197 6418.518 -1801.889 Q 6418.605 -1801.582 6418.673 -1801.526 Q 6418.741 -1801.471 6418.807 -1801.438 Q 6418.872 -1801.405 6419.194 -1801.360 Q 6419.517 -1801.316 6419.972 -1801.538 Q 6420.426 -1801.760 6420.674 -1801.938 "></path>
    <path id="STROKE_425bd004-d675-4411-ba95-ef278a11ed35" opacity="0.550" fill="none" stroke="#fff3e3" stroke-width="0.366" stroke-opacity="1.000" stroke-linecap="round" stroke-linejoin="round" d="M 6423.420 -1808.474 Q 6423.338 -1808.467 6423.194 -1808.305 Q 6423.050 -1808.142 6423.015 -1807.417 Q 6422.980 -1806.691 6422.858 -1805.020 Q 6422.736 -1803.348 6422.922 -1801.969 Q 6423.020 -1801.929 6423.042 -1801.967 Q 6423.064 -1802.004 6423.139 -1802.087 "></path>
    <path id="STROKE_20160b88-a34e-4c32-b5de-6ba26c44cbce" opacity="0.550" fill="none" stroke="#fff3e3" stroke-width="0.290" stroke-opacity="1.000" stroke-linecap="round" stroke-linejoin="round" d="M 6421.831 -1804.126 L 6421.859 -1804.104 Q 6421.988 -1804.097 6422.875 -1804.064 Q 6423.761 -1804.031 6423.951 -1804.013 "></path>
    <path id="STROKE_29495ab5-411d-4e87-a0b1-0d3e473b6201" opacity="0.550" fill="none" stroke="#fff3e3" stroke-width="0.376" stroke-opacity="1.000" stroke-linecap="round" stroke-linejoin="round" d="M 6426.447 -1803.813 L 6426.445 -1803.814 Q 6426.403 -1803.669 6427.563 -1804.989 Q 6427.497 -1805.050 6427.104 -1804.944 Q 6426.710 -1804.838 6426.282 -1804.343 Q 6425.854 -1803.847 6425.735 -1803.225 Q 6425.617 -1802.604 6425.650 -1802.285 Q 6425.683 -1801.967 6425.829 -1801.782 Q 6425.976 -1801.598 6426.148 -1801.518 Q 6426.321 -1801.438 6426.462 -1801.404 Q 6426.604 -1801.371 6427.292 -1801.412 Q 6427.980 -1801.453 6428.817 -1801.788 Q 6429.654 -1802.123 6429.907 -1802.251 "></path>
    <path id="STROKE_eb7aa4f0-bb88-440a-8807-4c17131d5093" opacity="0.550" fill="none" stroke="#fff3e3" stroke-width="0.381" stroke-opacity="1.000" stroke-linecap="round" stroke-linejoin="round" d="M 6463.049 -1802.450 L 6463.008 -1802.511 Q 6462.990 -1802.532 6463.003 -1802.920 Q 6463.016 -1803.308 6463.115 -1803.589 Q 6463.215 -1803.869 6463.709 -1805.203 Q 6464.203 -1806.537 6465.060 -1809.133 L 6465.077 -1809.134 Q 6465.292 -1808.855 6465.455 -1803.904 Q 6465.635 -1804.054 6465.632 -1804.076 Q 6465.684 -1804.170 6466.354 -1805.635 Q 6467.023 -1807.100 6468.153 -1811.797 Q 6468.136 -1811.801 6468.098 -1809.844 Q 6468.061 -1807.886 6468.063 -1806.789 Q 6468.067 -1805.692 6468.105 -1805.208 Q 6468.145 -1804.724 6468.226 -1804.543 Q 6468.307 -1804.362 6468.463 -1804.304 Q 6468.619 -1804.246 6468.812 -1804.192 "></path>
    <path id="STROKE_75fab04a-9262-49c9-8c94-9984f9fa63ca" opacity="0.550" fill="none" stroke="#fff3e3" stroke-width="0.271" stroke-opacity="1.000" stroke-linecap="round" stroke-linejoin="round" d="M 6470.813 -1804.892 L 6471.017 -1804.994 Q 6471.146 -1805.098 6471.281 -1805.262 Q 6471.415 -1805.426 6471.438 -1805.859 Q 6471.447 -1805.878 6471.210 -1805.950 Q 6470.974 -1806.021 6470.625 -1805.821 Q 6470.276 -1805.620 6470.138 -1805.401 Q 6469.999 -1805.181 6469.917 -1804.735 Q 6469.835 -1804.288 6469.877 -1803.949 Q 6469.920 -1803.609 6470.227 -1803.295 Q 6470.534 -1802.980 6471.146 -1802.906 Q 6471.759 -1802.832 6472.186 -1802.966 Q 6472.613 -1803.100 6472.913 -1803.231 "></path>
    <path id="STROKE_2d0766c3-7ed6-40f8-b347-8be79a1bdb41" opacity="0.550" fill="none" stroke="#fff3e3" stroke-width="0.281" stroke-opacity="1.000" stroke-linecap="round" stroke-linejoin="round" d="M 6475.200 -1805.505 Q 6475.014 -1805.632 6474.715 -1805.743 Q 6474.417 -1805.855 6474.075 -1805.821 Q 6473.734 -1805.787 6473.600 -1805.643 Q 6473.466 -1805.499 6473.444 -1805.403 Q 6473.423 -1805.307 6473.438 -1805.205 Q 6473.454 -1805.102 6473.670 -1804.994 Q 6473.886 -1804.886 6474.185 -1804.767 Q 6474.483 -1804.648 6474.716 -1804.398 Q 6474.950 -1804.149 6475.011 -1803.917 Q 6475.072 -1803.684 6475.045 -1803.470 Q 6475.019 -1803.256 6474.800 -1803.065 Q 6474.582 -1802.874 6474.345 -1802.858 Q 6474.108 -1802.842 6473.972 -1802.881 Q 6473.834 -1802.921 6473.757 -1803.001 Q 6473.679 -1803.081 6473.646 -1803.195 Q 6473.614 -1803.309 6473.722 -1803.452 Q 6473.830 -1803.595 6474.000 -1803.690 Q 6474.170 -1803.785 6474.388 -1803.896 "></path>
    <path id="STROKE_ba916d74-225e-4eed-a9ca-87e3efdab032" opacity="0.550" fill="none" stroke="#fff3e3" stroke-width="0.287" stroke-opacity="1.000" stroke-linecap="round" stroke-linejoin="round" d="M 6478.160 -1805.470 L 6478.146 -1805.478 Q 6477.655 -1805.633 6477.050 -1805.359 Q 6476.444 -1805.085 6476.300 -1804.150 Q 6476.315 -1804.095 6476.710 -1804.013 Q 6477.105 -1803.930 6477.427 -1803.887 Q 6477.750 -1803.844 6477.853 -1803.808 Q 6477.956 -1803.772 6478.074 -1803.641 Q 6478.192 -1803.510 6478.188 -1803.362 Q 6478.183 -1803.214 6478.002 -1802.965 Q 6477.821 -1802.716 6477.389 -1802.515 Q 6476.956 -1802.314 6475.987 -1802.467 Q 6475.936 -1802.589 6476.157 -1802.687 Q 6476.378 -1802.785 6476.607 -1802.868 "></path>
    <path id="STROKE_5fcc3c57-62c5-48a1-9fae-b77c0267fccf" opacity="0.550" fill="none" stroke="#fff3e3" stroke-width="0.272" stroke-opacity="1.000" stroke-linecap="round" stroke-linejoin="round" d="M 6480.578 -1804.442 Q 6480.542 -1804.482 6480.272 -1804.502 Q 6480.002 -1804.523 6479.811 -1804.371 Q 6479.620 -1804.218 6479.436 -1803.868 Q 6479.252 -1803.517 6479.220 -1803.371 Q 6479.187 -1803.225 6479.268 -1802.815 Q 6479.314 -1802.781 6479.475 -1802.769 Q 6479.635 -1802.756 6479.834 -1802.880 Q 6480.034 -1803.004 6480.308 -1803.342 Q 6480.582 -1803.680 6480.685 -1803.879 Q 6480.788 -1804.077 6480.836 -1804.274 Q 6480.781 -1804.061 6480.792 -1803.634 Q 6480.802 -1803.207 6481.308 -1803.068 Q 6481.813 -1802.929 6482.068 -1802.899 "></path>
    <path id="STROKE_2f849215-a04a-4613-9bd4-5fb2a905f719" opacity="0.550" fill="none" stroke="#fff3e3" stroke-width="0.353" stroke-opacity="1.000" stroke-linecap="round" stroke-linejoin="round" d="M 6484.054 -1804.560 Q 6483.988 -1804.577 6483.843 -1804.584 Q 6483.699 -1804.592 6483.466 -1804.482 Q 6483.233 -1804.372 6483.219 -1804.345 Q 6483.204 -1804.318 6483.034 -1804.061 Q 6482.864 -1803.804 6482.938 -1803.060 L 6483.076 -1803.020 Q 6483.264 -1802.998 6483.903 -1804.412 Q 6484.304 -1802.481 6484.385 -1801.789 Q 6484.467 -1801.096 6484.424 -1800.614 Q 6484.381 -1800.131 6484.201 -1799.857 Q 6484.021 -1799.583 6483.648 -1799.488 Q 6483.276 -1799.392 6482.905 -1799.656 Q 6482.533 -1799.920 6482.360 -1800.239 Q 6482.188 -1800.557 6482.164 -1800.883 Q 6482.140 -1801.209 6482.813 -1802.036 "></path>
    <path id="STROKE_4befd81d-efae-41e3-b256-fc5c88587e04" opacity="0.550" fill="none" stroke="#fff3e3" stroke-width="0.290" stroke-opacity="1.000" stroke-linecap="round" stroke-linejoin="round" d="M 6486.388 -1803.563 Q 6486.472 -1803.591 6486.615 -1803.674 Q 6486.758 -1803.758 6486.932 -1803.928 Q 6487.106 -1804.099 6487.212 -1804.306 Q 6487.317 -1804.513 6487.331 -1804.644 Q 6487.345 -1804.775 6487.308 -1804.882 Q 6487.270 -1804.990 6487.056 -1805.050 Q 6486.842 -1805.111 6486.665 -1805.084 Q 6486.487 -1805.058 6486.357 -1804.967 Q 6486.228 -1804.875 6486.190 -1804.832 Q 6486.153 -1804.788 6486.035 -1804.652 Q 6485.917 -1804.517 6485.792 -1804.032 Q 6485.667 -1803.546 6485.731 -1803.198 Q 6485.795 -1802.849 6485.856 -1802.764 Q 6485.917 -1802.678 6486.056 -1802.543 Q 6486.196 -1802.409 6486.783 -1802.270 Q 6487.370 -1802.131 6487.954 -1802.220 Q 6488.538 -1802.308 6489.252 -1802.781 Q 6489.967 -1803.254 6490.316 -1803.677 Q 6490.666 -1804.099 6490.580 -1804.592 Q 6490.473 -1804.663 6490.140 -1804.690 Q 6489.807 -1804.718 6489.620 -1804.584 Q 6489.434 -1804.450 6489.399 -1804.387 Q 6489.365 -1804.325 6489.359 -1804.191 Q 6489.354 -1804.056 6489.356 -1804.040 Q 6489.359 -1804.024 6489.483 -1803.919 Q 6489.608 -1803.814 6489.889 -1803.526 Q 6490.169 -1803.239 6490.281 -1803.050 Q 6490.393 -1802.862 6490.457 -1802.725 Q 6490.521 -1802.588 6490.567 -1802.398 Q 6490.613 -1802.208 6490.631 -1802.026 Q 6490.648 -1801.844 6490.615 -1801.616 Q 6490.582 -1801.388 6490.481 -1801.247 Q 6490.381 -1801.106 6490.003 -1800.996 Q 6489.624 -1800.886 6489.129 -1801.045 Q 6488.634 -1801.204 6488.509 -1801.259 "></path>
  </g>
</svg>