<?xml version="1.0" encoding="UTF-8" standalone="yes"?>
<svg xmlns="http://www.w3.org/2000/svg" xmlns:xlink="http://www.w3.org/1999/xlink" width="88.440pt" height="88.441pt" version="1.1" viewBox="7063.424 -2318.455 88.440 88.441">
  <!--
	Exported with Concepts: Smarter Sketching
	Version: 1059 on iOS 15.4
	https://concepts.app/
	-->
  <title>Functional Programming</title>
  <desc>Drawing exported from Concepts: Smarter Sketching</desc>
  <defs></defs>
  <g id="Pen" opacity="1.000">
    <path id="STROKE_7e0a2c25-86db-4534-9f07-6f419ac26ad0" opacity="0.830" fill="none" stroke="#f9642d" stroke-width="1.615" stroke-opacity="1.000" stroke-linecap="round" stroke-linejoin="round" d="M 7082.370 -2292.041 L 7082.276 -2258.519 "></path>
    <path id="STROKE_850510d0-d863-44ae-90ac-118d3cf213d4" opacity="0.830" fill="none" stroke="#f9642d" stroke-width="1.378" stroke-opacity="1.000" stroke-linecap="round" stroke-linejoin="round" d="M 7081.703 -2259.354 L 7115.346 -2259.129 "></path>
    <path id="STROKE_684b9db9-737d-4c33-966b-f56a6c5593c9" opacity="0.830" fill="none" stroke="#f9642d" stroke-width="1.482" stroke-opacity="1.000" stroke-linecap="round" stroke-linejoin="round" d="M 7114.753 -2258.864 L 7114.788 -2291.360 "></path>
    <path id="STROKE_eafa981e-94c9-42ba-ae09-f82b7fe60c5c" opacity="0.830" fill="none" stroke="#f9642d" stroke-width="1.852" stroke-opacity="1.000" stroke-linecap="round" stroke-linejoin="round" d="M 7115.275 -2291.099 L 7083.634 -2291.290 "></path>
    <path id="STROKE_3bab724b-55f9-43d1-9275-8728bc61fce3" opacity="0.830" fill="none" stroke="#f9642d" stroke-width="0.325" stroke-opacity="1.000" stroke-linecap="round" stroke-linejoin="round" d="M 7098.834 -2291.945 L 7098.751 -2259.533 "></path>
    <path id="STROKE_304368fd-2d56-459e-bf3f-e6df9083664b" opacity="0.830" fill="none" stroke="#f9642d" stroke-width="0.312" stroke-opacity="1.000" stroke-linecap="round" stroke-linejoin="round" d="M 7082.453 -2275.029 L 7113.884 -2275.853 "></path>
    <path id="STROKE_e14abd00-0664-4201-8f85-1b2f020f8405" opacity="0.750" fill="none" stroke="#fff000" stroke-width="1.418" stroke-opacity="1.000" stroke-linecap="round" stroke-linejoin="round" d="M 7082.146 -2285.344 L 7088.138 -2290.739 "></path>
    <path id="STROKE_8b4fcdc0-53be-4c18-aca1-a012316ab0ba" opacity="0.750" fill="none" stroke="#fff000" stroke-width="1.411" stroke-opacity="1.000" stroke-linecap="round" stroke-linejoin="round" d="M 7082.277 -2282.549 L 7091.450 -2290.607 "></path>
    <path id="STROKE_db846db3-760f-4015-955f-31ad376c8d25" opacity="0.750" fill="none" stroke="#fff000" stroke-width="1.471" stroke-opacity="1.000" stroke-linecap="round" stroke-linejoin="round" d="M 7082.516 -2288.718 L 7084.196 -2290.615 "></path>
    <path id="STROKE_989210a2-378d-4ebe-b5d8-a69dfc26dc98" opacity="0.750" fill="none" stroke="#fff000" stroke-width="1.387" stroke-opacity="1.000" stroke-linecap="round" stroke-linejoin="round" d="M 7081.964 -2279.562 L 7094.464 -2290.913 "></path>
    <path id="STROKE_b0acce12-0026-4375-a921-bc758bf16eab" opacity="0.750" fill="none" stroke="#fff000" stroke-width="1.422" stroke-opacity="1.000" stroke-linecap="round" stroke-linejoin="round" d="M 7082.276 -2276.374 L 7097.573 -2291.082 "></path>
    <path id="STROKE_17a77ad7-6abe-4db1-b2ca-6d459fcd694b" opacity="0.750" fill="none" stroke="#fff000" stroke-width="1.300" stroke-opacity="1.000" stroke-linecap="round" stroke-linejoin="round" d="M 7083.956 -2274.212 L 7098.800 -2288.574 "></path>
    <path id="STROKE_4da6a049-e3d9-465c-a3ab-60744152aca6" opacity="0.750" fill="none" stroke="#fff000" stroke-width="1.231" stroke-opacity="1.000" stroke-linecap="round" stroke-linejoin="round" d="M 7087.291 -2274.546 L 7098.170 -2284.861 "></path>
    <path id="STROKE_fd34e3a3-b907-4fec-bf60-45b58fb0cf2e" opacity="0.750" fill="none" stroke="#fff000" stroke-width="1.196" stroke-opacity="1.000" stroke-linecap="round" stroke-linejoin="round" d="M 7092.413 -2275.575 L 7098.372 -2281.639 "></path>
    <path id="STROKE_3e11b3f4-b268-4901-91b8-f9964c549ccb" opacity="0.750" fill="none" stroke="#fff000" stroke-width="1.231" stroke-opacity="1.000" stroke-linecap="round" stroke-linejoin="round" d="M 7096.227 -2275.586 L 7099.407 -2279.263 "></path>
    <path id="STROKE_eb83c312-98c6-4190-adef-600d9a59efbc" opacity="0.750" fill="none" stroke="#fff000" stroke-width="1.386" stroke-opacity="1.000" stroke-linecap="round" stroke-linejoin="round" d="M 7082.313 -2270.141 L 7087.065 -2274.200 "></path>
    <path id="STROKE_95ac9439-c594-48e1-806e-c9bf41cc018a" opacity="0.750" fill="none" stroke="#fff000" stroke-width="1.370" stroke-opacity="1.000" stroke-linecap="round" stroke-linejoin="round" d="M 7082.182 -2266.011 L 7091.329 -2274.987 "></path>
    <path id="STROKE_81d398cf-fc71-4368-8437-a999ed1ae402" opacity="0.750" fill="none" stroke="#fff000" stroke-width="1.231" stroke-opacity="1.000" stroke-linecap="round" stroke-linejoin="round" d="M 7081.478 -2262.885 L 7094.382 -2274.737 "></path>
    <path id="STROKE_637e5eef-249d-444c-a5e5-09c10aa45904" opacity="0.750" fill="none" stroke="#fff000" stroke-width="1.244" stroke-opacity="1.000" stroke-linecap="round" stroke-linejoin="round" d="M 7082.193 -2258.873 L 7097.765 -2274.785 "></path>
    <path id="STROKE_7a55d70c-3ffe-4759-a448-036598f719b0" opacity="0.750" fill="none" stroke="#fff000" stroke-width="1.217" stroke-opacity="1.000" stroke-linecap="round" stroke-linejoin="round" d="M 7087.639 -2259.601 L 7099.085 -2272.243 "></path>
    <path id="STROKE_683f0ae5-1ec9-4ae4-a648-36d98bb5d7c9" opacity="0.750" fill="none" stroke="#fff000" stroke-width="1.172" stroke-opacity="1.000" stroke-linecap="round" stroke-linejoin="round" d="M 7092.105 -2260.436 L 7098.575 -2268.147 "></path>
    <path id="STROKE_95521431-467f-4b73-b3f7-1b31a69a42c5" opacity="0.750" fill="none" stroke="#fff000" stroke-width="1.216" stroke-opacity="1.000" stroke-linecap="round" stroke-linejoin="round" d="M 7095.191 -2259.745 L 7098.897 -2264.448 "></path>
    <path id="STROKE_d6a9de6d-d8ad-4fa5-b2d6-4cb64216a245" opacity="0.750" fill="none" stroke="#fff000" stroke-width="1.293" stroke-opacity="1.000" stroke-linecap="round" stroke-linejoin="round" d="M 7098.334 -2286.151 L 7103.949 -2290.784 "></path>
    <path id="STROKE_46f2399b-8644-4449-bd46-55b903dbfbbe" opacity="0.750" fill="none" stroke="#fff000" stroke-width="1.557" stroke-opacity="1.000" stroke-linecap="round" stroke-linejoin="round" d="M 7099.204 -2288.549 L 7100.982 -2290.376 "></path>
    <path id="STROKE_e752fdda-29f3-49b8-aa95-56cb57dde344" opacity="0.750" fill="none" stroke="#fff000" stroke-width="1.404" stroke-opacity="1.000" stroke-linecap="round" stroke-linejoin="round" d="M 7098.334 -2281.614 L 7108.344 -2290.711 "></path>
    <path id="STROKE_00de0d6d-d519-4ec5-8f81-87b146b55137" opacity="0.750" fill="none" stroke="#fff000" stroke-width="1.406" stroke-opacity="1.000" stroke-linecap="round" stroke-linejoin="round" d="M 7098.144 -2279.323 L 7111.371 -2290.663 "></path>
    <path id="STROKE_5947b3ef-bf5d-4ee4-bf98-92ed0b6ad3e9" opacity="0.750" fill="none" stroke="#fff000" stroke-width="1.376" stroke-opacity="1.000" stroke-linecap="round" stroke-linejoin="round" d="M 7099.182 -2276.745 L 7114.015 -2290.210 "></path>
    <path id="STROKE_266a7a15-c9d3-4d72-9e0f-e906c40c5437" opacity="0.750" fill="none" stroke="#fff000" stroke-width="1.250" stroke-opacity="1.000" stroke-linecap="round" stroke-linejoin="round" d="M 7100.562 -2275.300 L 7114.584 -2287.810 "></path>
    <path id="STROKE_3c0a4af5-b2d5-4b64-b7f0-adb20b3d2197" opacity="0.750" fill="none" stroke="#fff000" stroke-width="1.317" stroke-opacity="1.000" stroke-linecap="round" stroke-linejoin="round" d="M 7104.935 -2275.825 L 7114.622 -2284.180 "></path>
    <path id="STROKE_f764f23b-03b5-4307-af31-5da2670d704b" opacity="0.750" fill="none" stroke="#fff000" stroke-width="1.221" stroke-opacity="1.000" stroke-linecap="round" stroke-linejoin="round" d="M 7108.333 -2275.586 L 7114.157 -2281.591 "></path>
    <path id="STROKE_f85315f9-f1b5-4442-b6b8-9ee5fe440e60" opacity="0.750" fill="none" stroke="#fff000" stroke-width="1.228" stroke-opacity="1.000" stroke-linecap="round" stroke-linejoin="round" d="M 7112.274 -2276.230 L 7115.657 -2280.110 "></path>
    <path id="STROKE_be61b6c6-4b78-4047-a706-829181f780d5" opacity="0.750" fill="none" stroke="#fff000" stroke-width="1.236" stroke-opacity="1.000" stroke-linecap="round" stroke-linejoin="round" d="M 7114.240 -2276.171 L 7115.338 -2277.292 "></path>
    <path id="STROKE_0e5bf4d8-d037-4fb7-a347-35a1a05d485b" opacity="0.750" fill="none" stroke="#fff000" stroke-width="1.477" stroke-opacity="1.000" stroke-linecap="round" stroke-linejoin="round" d="M 7098.728 -2272.696 L 7100.705 -2275.024 "></path>
    <path id="STROKE_9c308903-d947-4100-9036-9e8773dafc14" opacity="0.750" fill="none" stroke="#fff000" stroke-width="1.354" stroke-opacity="1.000" stroke-linecap="round" stroke-linejoin="round" d="M 7098.526 -2269.258 L 7104.984 -2274.906 "></path>
    <path id="STROKE_9e8a7ecd-78f9-40fd-adb7-a642dd8eb988" opacity="0.750" fill="none" stroke="#fff000" stroke-width="1.414" stroke-opacity="1.000" stroke-linecap="round" stroke-linejoin="round" d="M 7098.432 -2265.415 L 7107.414 -2274.656 "></path>
    <path id="STROKE_6b5000fa-4226-4fa5-b50b-6d30e7e10a94" opacity="0.750" fill="none" stroke="#fff000" stroke-width="1.371" stroke-opacity="1.000" stroke-linecap="round" stroke-linejoin="round" d="M 7098.477 -2263.062 L 7110.332 -2274.667 "></path>
    <path id="STROKE_8c9b82e2-e369-4596-accb-7d8ad978125f" opacity="0.750" fill="none" stroke="#fff000" stroke-width="1.291" stroke-opacity="1.000" stroke-linecap="round" stroke-linejoin="round" d="M 7099.110 -2260.962 L 7113.598 -2275.097 "></path>
    <path id="STROKE_3b834c14-ff7b-4a7e-bda9-cdedaa6fa822" opacity="0.750" fill="none" stroke="#fff000" stroke-width="1.259" stroke-opacity="1.000" stroke-linecap="round" stroke-linejoin="round" d="M 7101.706 -2259.804 L 7115.192 -2272.865 "></path>
    <path id="STROKE_12c52510-f22d-4d39-b35a-8b895c0572ed" opacity="0.750" fill="none" stroke="#fff000" stroke-width="1.280" stroke-opacity="1.000" stroke-linecap="round" stroke-linejoin="round" d="M 7105.520 -2260.256 L 7114.716 -2270.129 "></path>
    <path id="STROKE_23c6b79f-8de0-4f28-950d-300591258fcc" opacity="0.750" fill="none" stroke="#fff000" stroke-width="1.171" stroke-opacity="1.000" stroke-linecap="round" stroke-linejoin="round" d="M 7108.536 -2259.303 L 7114.337 -2266.860 "></path>
    <path id="STROKE_0c5f260e-663f-4a44-9641-3ede4e30b1f3" opacity="0.750" fill="none" stroke="#fff000" stroke-width="1.164" stroke-opacity="1.000" stroke-linecap="round" stroke-linejoin="round" d="M 7111.562 -2259.624 L 7114.742 -2263.635 "></path>
    <path id="STROKE_ad3e7046-7109-43b1-bde1-c16a65bcb0af" opacity="0.750" fill="none" stroke="#fff000" stroke-width="1.157" stroke-opacity="1.000" stroke-linecap="round" stroke-linejoin="round" d="M 7114.015 -2260.017 L 7114.885 -2261.378 "></path>
    <path id="STROKE_f991c677-1a8e-4360-9c12-2bcd8fe3cb7f" opacity="0.750" fill="none" stroke="#bd8ae6" stroke-width="0.921" stroke-opacity="1.000" stroke-linecap="round" stroke-linejoin="round" d="M 7130.406 -2296.705 L 7130.634 -2275.198 "></path>
    <path id="STROKE_f0fe9b86-b997-454e-bae9-5141bde8edf8" opacity="0.750" fill="none" stroke="#bd8ae6" stroke-width="0.873" stroke-opacity="1.000" stroke-linecap="round" stroke-linejoin="round" d="M 7130.478 -2274.993 L 7140.983 -2275.117 "></path>
    <path id="STROKE_0b94df1b-a6cf-426b-81fe-b8d2047abc5d" opacity="0.750" fill="none" stroke="#bd8ae6" stroke-width="0.857" stroke-opacity="1.000" stroke-linecap="round" stroke-linejoin="round" d="M 7141.219 -2274.679 L 7140.985 -2297.138 "></path>
    <path id="STROKE_e2e0f297-ab0c-4026-84b6-a4fff98d6b02" opacity="0.750" fill="none" stroke="#bd8ae6" stroke-width="0.185" stroke-opacity="1.000" stroke-linecap="round" stroke-linejoin="round" d="M 7131.120 -2280.242 L 7140.706 -2280.470 "></path>
    <path id="STROKE_adf8fab5-9c6f-4166-966a-9b0fc4bf6db6" opacity="0.750" fill="none" stroke="#bd8ae6" stroke-width="0.192" stroke-opacity="1.000" stroke-linecap="round" stroke-linejoin="round" d="M 7130.554 -2285.920 L 7140.724 -2286.223 "></path>
    <path id="STROKE_f7ea8290-b9c0-4416-92d1-d506e5966681" opacity="0.750" fill="none" stroke="#bd8ae6" stroke-width="0.191" stroke-opacity="1.000" stroke-linecap="round" stroke-linejoin="round" d="M 7130.986 -2285.322 L 7135.865 -2283.134 "></path>
    <path id="STROKE_71f4f853-3f84-4ff2-bd06-6167a103a723" opacity="0.750" fill="none" stroke="#bd8ae6" stroke-width="0.185" stroke-opacity="1.000" stroke-linecap="round" stroke-linejoin="round" d="M 7135.462 -2282.754 L 7140.847 -2286.056 "></path>
    <path id="STROKE_151bc488-959e-4efb-ae26-f75b1b24f354" opacity="0.750" fill="none" stroke="#bd8ae6" stroke-width="0.196" stroke-opacity="1.000" stroke-linecap="round" stroke-linejoin="round" d="M 7131.107 -2279.806 L 7136.257 -2277.704 "></path>
    <path id="STROKE_6e32311e-d500-4c75-90c9-e2ed93ef9875" opacity="0.750" fill="none" stroke="#bd8ae6" stroke-width="0.182" stroke-opacity="1.000" stroke-linecap="round" stroke-linejoin="round" d="M 7135.783 -2277.243 L 7140.951 -2280.612 "></path>
    <path id="STROKE_3fb2f843-37da-4cf5-aca3-a4a46a99aaef" opacity="0.650" fill="none" stroke="#00a0c8" stroke-width="0.566" stroke-opacity="1.000" stroke-linecap="round" stroke-linejoin="round" d="M 7149.708 -2273.747 Q 7149.703 -2273.271 7149.687 -2272.796 Q 7149.670 -2272.321 7149.644 -2271.847 Q 7149.616 -2271.372 7149.579 -2270.898 Q 7149.541 -2270.424 7149.492 -2269.951 Q 7149.444 -2269.478 7149.385 -2269.006 Q 7149.326 -2268.535 7149.256 -2268.064 Q 7149.187 -2267.594 7149.106 -2267.125 Q 7149.026 -2266.657 7148.935 -2266.190 Q 7148.844 -2265.724 7148.742 -2265.259 Q 7148.641 -2264.795 7148.529 -2264.333 Q 7148.417 -2263.871 7148.295 -2263.411 Q 7148.173 -2262.952 7148.040 -2262.495 Q 7147.907 -2262.039 7147.765 -2261.585 Q 7147.622 -2261.132 7147.469 -2260.682 Q 7147.315 -2260.232 7147.152 -2259.785 Q 7146.989 -2259.339 7146.815 -2258.896 Q 7146.642 -2258.453 7146.459 -2258.015 Q 7146.275 -2257.576 7146.082 -2257.142 Q 7145.889 -2256.707 7145.687 -2256.277 Q 7145.483 -2255.847 7145.271 -2255.422 Q 7145.058 -2254.997 7144.836 -2254.577 Q 7144.614 -2254.156 7144.382 -2253.741 Q 7144.150 -2253.326 7143.909 -2252.916 Q 7143.668 -2252.506 7143.418 -2252.102 Q 7143.168 -2251.698 7142.909 -2251.299 Q 7142.650 -2250.900 7142.382 -2250.508 Q 7142.114 -2250.115 7141.837 -2249.729 Q 7141.560 -2249.343 7141.274 -2248.962 Q 7140.989 -2248.582 7140.694 -2248.209 Q 7140.400 -2247.835 7140.098 -2247.469 Q 7139.795 -2247.102 7139.485 -2246.742 Q 7139.174 -2246.382 7138.855 -2246.029 Q 7138.537 -2245.677 7138.210 -2245.331 Q 7137.883 -2244.986 7137.549 -2244.648 Q 7137.215 -2244.310 7136.873 -2243.979 Q 7136.531 -2243.649 7136.182 -2243.327 Q 7135.833 -2243.004 7135.476 -2242.689 Q 7135.119 -2242.375 7134.756 -2242.069 Q 7134.392 -2241.762 7134.021 -2241.464 Q 7133.651 -2241.166 7133.274 -2240.876 Q 7132.897 -2240.587 7132.514 -2240.306 Q 7132.131 -2240.024 7131.741 -2239.752 Q 7131.352 -2239.480 7130.956 -2239.216 Q 7130.560 -2238.953 7130.158 -2238.698 Q 7129.757 -2238.444 7129.350 -2238.199 Q 7128.942 -2237.953 7128.529 -2237.717 Q 7128.117 -2237.481 7127.699 -2237.254 Q 7127.281 -2237.028 7126.858 -2236.811 Q 7126.435 -2236.594 7126.008 -2236.386 Q 7125.580 -2236.178 7125.147 -2235.981 Q 7124.715 -2235.783 7124.278 -2235.595 Q 7123.842 -2235.407 7123.401 -2235.229 Q 7122.960 -2235.051 7122.516 -2234.883 Q 7122.071 -2234.715 7121.622 -2234.557 Q 7121.174 -2234.399 7120.722 -2234.251 Q 7120.271 -2234.103 7119.815 -2233.965 Q 7119.360 -2233.828 7118.902 -2233.701 Q 7118.444 -2233.573 7117.983 -2233.457 Q 7117.522 -2233.340 7117.059 -2233.233 Q 7116.596 -2233.127 7116.130 -2233.031 Q 7115.665 -2232.935 7115.197 -2232.850 Q 7114.729 -2232.764 7114.260 -2232.689 Q 7113.790 -2232.615 7113.319 -2232.551 Q 7112.848 -2232.487 7112.375 -2232.433 Q 7111.903 -2232.379 7111.430 -2232.337 Q 7110.956 -2232.294 7110.481 -2232.262 Q 7110.007 -2232.230 7109.532 -2232.208 Q 7109.058 -2232.187 7108.582 -2232.176 Q 7108.107 -2232.166 7107.632 -2232.166 Q 7107.156 -2232.166 7106.681 -2232.177 Q 7106.206 -2232.188 7105.730 -2232.209 Q 7105.256 -2232.231 7104.781 -2232.263 Q 7104.307 -2232.296 7103.834 -2232.339 Q 7103.360 -2232.382 7102.888 -2232.436 Q 7102.416 -2232.489 7101.944 -2232.554 Q 7101.473 -2232.618 7101.004 -2232.693 Q 7100.534 -2232.768 7100.066 -2232.854 Q 7099.599 -2232.939 7099.134 -2233.036 Q 7098.668 -2233.132 7098.205 -2233.239 Q 7097.741 -2233.345 7097.280 -2233.462 Q 7096.820 -2233.579 7096.362 -2233.707 Q 7095.904 -2233.834 7095.449 -2233.972 Q 7094.994 -2234.110 7094.542 -2234.258 Q 7094.090 -2234.406 7093.642 -2234.564 Q 7093.193 -2234.722 7092.749 -2234.891 Q 7092.304 -2235.059 7091.863 -2235.237 Q 7091.423 -2235.416 7090.986 -2235.604 Q 7090.550 -2235.792 7090.118 -2235.990 Q 7089.686 -2236.188 7089.258 -2236.396 Q 7088.830 -2236.604 7088.407 -2236.821 Q 7087.984 -2237.039 7087.566 -2237.266 Q 7087.149 -2237.492 7086.736 -2237.729 Q 7086.324 -2237.965 7085.917 -2238.210 Q 7085.510 -2238.456 7085.108 -2238.711 Q 7084.707 -2238.965 7084.312 -2239.229 Q 7083.916 -2239.493 7083.526 -2239.765 Q 7083.137 -2240.038 7082.753 -2240.319 Q 7082.370 -2240.601 7081.993 -2240.890 Q 7081.616 -2241.180 7081.246 -2241.479 Q 7080.876 -2241.777 7080.513 -2242.083 Q 7080.149 -2242.390 7079.793 -2242.705 Q 7079.437 -2243.020 7079.087 -2243.342 Q 7078.738 -2243.665 7078.396 -2243.996 Q 7078.055 -2244.326 7077.721 -2244.664 Q 7077.387 -2245.002 7077.061 -2245.348 Q 7076.734 -2245.694 7076.415 -2246.046 Q 7076.097 -2246.399 7075.786 -2246.759 Q 7075.476 -2247.119 7075.173 -2247.486 Q 7074.871 -2247.853 7074.577 -2248.227 Q 7074.283 -2248.601 7073.998 -2248.981 Q 7073.712 -2249.361 7073.436 -2249.748 Q 7073.159 -2250.134 7072.891 -2250.527 Q 7072.623 -2250.920 7072.364 -2251.318 Q 7072.105 -2251.717 7071.855 -2252.122 Q 7071.605 -2252.526 7071.365 -2252.936 Q 7071.124 -2253.346 7070.893 -2253.761 Q 7070.662 -2254.177 7070.439 -2254.597 Q 7070.218 -2255.018 7070.005 -2255.443 Q 7069.793 -2255.868 7069.590 -2256.298 Q 7069.388 -2256.728 7069.194 -2257.163 Q 7069.001 -2257.597 7068.818 -2258.036 Q 7068.636 -2258.475 7068.463 -2258.917 Q 7068.290 -2259.360 7068.126 -2259.807 Q 7067.963 -2260.254 7067.811 -2260.704 Q 7067.657 -2261.154 7067.515 -2261.607 Q 7067.372 -2262.061 7067.240 -2262.518 Q 7067.107 -2262.974 7066.985 -2263.434 Q 7066.863 -2263.893 7066.751 -2264.355 Q 7066.640 -2264.817 7066.539 -2265.282 Q 7066.438 -2265.746 7066.347 -2266.213 Q 7066.256 -2266.680 7066.176 -2267.148 Q 7066.096 -2267.617 7066.026 -2268.087 Q 7065.957 -2268.558 7065.898 -2269.029 Q 7065.839 -2269.501 7065.791 -2269.974 Q 7065.743 -2270.447 7065.706 -2270.921 Q 7065.668 -2271.395 7065.642 -2271.870 Q 7065.615 -2272.344 7065.599 -2272.819 Q 7065.583 -2273.295 7065.578 -2273.770 Q 7065.572 -2274.245 7065.578 -2274.721 Q 7065.583 -2275.196 7065.600 -2275.671 Q 7065.616 -2276.146 7065.643 -2276.621 Q 7065.670 -2277.096 7065.708 -2277.570 Q 7065.745 -2278.044 7065.794 -2278.517 Q 7065.842 -2278.990 7065.901 -2279.461 Q 7065.960 -2279.933 7066.030 -2280.403 Q 7066.100 -2280.874 7066.180 -2281.342 Q 7066.260 -2281.811 7066.352 -2282.277 Q 7066.442 -2282.744 7066.544 -2283.208 Q 7066.645 -2283.673 7066.757 -2284.135 Q 7066.869 -2284.597 7066.991 -2285.057 Q 7067.113 -2285.516 7067.246 -2285.972 Q 7067.379 -2286.429 7067.521 -2286.882 Q 7067.665 -2287.336 7067.817 -2287.786 Q 7067.971 -2288.236 7068.134 -2288.682 Q 7068.297 -2289.129 7068.471 -2289.572 Q 7068.644 -2290.014 7068.827 -2290.453 Q 7069.011 -2290.892 7069.204 -2291.326 Q 7069.397 -2291.760 7069.600 -2292.190 Q 7069.803 -2292.620 7070.016 -2293.045 Q 7070.228 -2293.471 7070.450 -2293.891 Q 7070.672 -2294.312 7070.904 -2294.727 Q 7071.136 -2295.142 7071.377 -2295.552 Q 7071.618 -2295.961 7071.868 -2296.366 Q 7072.118 -2296.770 7072.377 -2297.169 Q 7072.636 -2297.567 7072.904 -2297.960 Q 7073.172 -2298.353 7073.449 -2298.739 Q 7073.726 -2299.125 7074.012 -2299.505 Q 7074.297 -2299.885 7074.592 -2300.259 Q 7074.886 -2300.633 7075.188 -2300.999 Q 7075.491 -2301.366 7075.801 -2301.726 Q 7076.112 -2302.086 7076.431 -2302.438 Q 7076.750 -2302.791 7077.076 -2303.137 Q 7077.403 -2303.482 7077.737 -2303.820 Q 7078.071 -2304.158 7078.413 -2304.488 Q 7078.755 -2304.819 7079.104 -2305.141 Q 7079.454 -2305.464 7079.811 -2305.778 Q 7080.167 -2306.093 7080.530 -2306.399 Q 7080.894 -2306.706 7081.265 -2307.004 Q 7081.635 -2307.302 7082.012 -2307.591 Q 7082.389 -2307.881 7082.772 -2308.162 Q 7083.155 -2308.443 7083.545 -2308.716 Q 7083.935 -2308.988 7084.330 -2309.251 Q 7084.726 -2309.515 7085.128 -2309.770 Q 7085.529 -2310.024 7085.937 -2310.269 Q 7086.344 -2310.514 7086.757 -2310.750 Q 7087.169 -2310.987 7087.587 -2311.213 Q 7088.005 -2311.440 7088.428 -2311.657 Q 7088.851 -2311.874 7089.279 -2312.082 Q 7089.707 -2312.289 7090.139 -2312.487 Q 7090.571 -2312.685 7091.008 -2312.873 Q 7091.444 -2313.061 7091.885 -2313.239 Q 7092.326 -2313.417 7092.771 -2313.585 Q 7093.215 -2313.753 7093.664 -2313.911 Q 7094.112 -2314.069 7094.564 -2314.217 Q 7095.016 -2314.365 7095.471 -2314.502 Q 7095.926 -2314.640 7096.384 -2314.767 Q 7096.842 -2314.895 7097.303 -2315.011 Q 7097.764 -2315.128 7098.228 -2315.235 Q 7098.690 -2315.341 7099.156 -2315.437 Q 7099.622 -2315.533 7100.090 -2315.618 Q 7100.558 -2315.704 7101.027 -2315.778 Q 7101.497 -2315.853 7101.968 -2315.917 Q 7102.438 -2315.981 7102.911 -2316.035 Q 7103.383 -2316.088 7103.856 -2316.131 Q 7104.330 -2316.174 7104.805 -2316.206 Q 7105.279 -2316.238 7105.754 -2316.259 Q 7106.229 -2316.281 7106.704 -2316.292 Q 7107.180 -2316.302 7107.655 -2316.302 Q 7108.130 -2316.302 7108.605 -2316.291 Q 7109.081 -2316.280 7109.556 -2316.258 Q 7110.031 -2316.237 7110.505 -2316.204 Q 7110.979 -2316.172 7111.453 -2316.129 Q 7111.926 -2316.086 7112.398 -2316.032 Q 7112.871 -2315.978 7113.342 -2315.914 Q 7113.813 -2315.850 7114.282 -2315.774 Q 7114.752 -2315.699 7115.220 -2315.614 Q 7115.688 -2315.528 7116.153 -2315.432 Q 7116.619 -2315.336 7117.082 -2315.229 Q 7117.545 -2315.123 7118.006 -2315.005 Q 7118.467 -2314.888 7118.925 -2314.761 Q 7119.383 -2314.633 7119.838 -2314.496 Q 7120.293 -2314.358 7120.745 -2314.209 Q 7121.196 -2314.062 7121.645 -2313.903 Q 7122.093 -2313.745 7122.538 -2313.577 Q 7122.982 -2313.408 7123.423 -2313.230 Q 7123.864 -2313.052 7124.300 -2312.864 Q 7124.737 -2312.675 7125.169 -2312.477 Q 7125.601 -2312.279 7126.029 -2312.071 Q 7126.457 -2311.864 7126.879 -2311.646 Q 7127.302 -2311.429 7127.720 -2311.202 Q 7128.138 -2310.975 7128.550 -2310.739 Q 7128.963 -2310.502 7129.370 -2310.257 Q 7129.777 -2310.011 7130.178 -2309.757 Q 7130.580 -2309.502 7130.976 -2309.238 Q 7131.371 -2308.975 7131.761 -2308.702 Q 7132.150 -2308.430 7132.533 -2308.148 Q 7132.917 -2307.867 7133.293 -2307.577 Q 7133.670 -2307.287 7134.041 -2306.989 Q 7134.411 -2306.691 7134.774 -2306.384 Q 7135.137 -2306.077 7135.494 -2305.763 Q 7135.850 -2305.448 7136.199 -2305.125 Q 7136.548 -2304.802 7136.890 -2304.472 Q 7137.231 -2304.141 7137.565 -2303.803 Q 7137.900 -2303.465 7138.227 -2303.119 Q 7138.553 -2302.774 7138.871 -2302.421 Q 7139.190 -2302.068 7139.500 -2301.708 Q 7139.811 -2301.348 7140.113 -2300.981 Q 7140.416 -2300.614 7140.709 -2300.240 Q 7141.003 -2299.867 7141.289 -2299.486 Q 7141.574 -2299.106 7141.851 -2298.720 Q 7142.127 -2298.333 7142.396 -2297.940 Q 7142.663 -2297.547 7142.922 -2297.149 Q 7143.181 -2296.750 7143.431 -2296.346 Q 7143.681 -2295.941 7143.922 -2295.531 Q 7144.162 -2295.121 7144.394 -2294.706 Q 7144.625 -2294.291 7144.847 -2293.870 Q 7145.069 -2293.450 7145.281 -2293.024 Q 7145.494 -2292.599 7145.696 -2292.169 Q 7145.899 -2291.739 7146.092 -2291.304 Q 7146.285 -2290.870 7146.468 -2290.431 Q 7146.651 -2289.992 7146.824 -2289.549 Q 7146.997 -2289.107 7147.160 -2288.660 Q 7147.323 -2288.213 7147.476 -2287.763 Q 7147.629 -2287.313 7147.771 -2286.859 Q 7147.915 -2286.406 7148.047 -2285.949 Q 7148.179 -2285.493 7148.301 -2285.033 Q 7148.423 -2284.574 7148.535 -2284.112 Q 7148.646 -2283.650 7148.748 -2283.185 Q 7148.849 -2282.720 7148.939 -2282.254 Q 7149.030 -2281.787 7149.110 -2281.318 Q 7149.190 -2280.850 7149.260 -2280.379 Q 7149.329 -2279.909 7149.388 -2279.438 Q 7149.447 -2278.966 7149.495 -2278.493 Q 7149.543 -2278.020 7149.580 -2277.546 Q 7149.618 -2277.072 7149.645 -2276.597 Q 7149.671 -2276.123 7149.688 -2275.647 Q 7149.703 -2275.172 7149.708 -2274.697 Q 7149.714 -2274.221 7149.708 -2273.747 Z"></path>
    <path id="STROKE_74df36f9-88f7-49ff-b8c3-12888bf6960f" opacity="0.650" fill="none" stroke="#00a0c8" stroke-width="0.566" stroke-opacity="1.000" stroke-linecap="round" stroke-linejoin="round" d="M 7149.708 -2273.747 Q 7149.703 -2273.271 7149.687 -2272.796 Q 7149.670 -2272.321 7149.644 -2271.847 Q 7149.616 -2271.372 7149.579 -2270.898 Q 7149.541 -2270.424 7149.492 -2269.951 Q 7149.444 -2269.478 7149.385 -2269.006 Q 7149.326 -2268.535 7149.256 -2268.064 Q 7149.187 -2267.594 7149.106 -2267.125 Q 7149.026 -2266.657 7148.935 -2266.190 Q 7148.844 -2265.724 7148.742 -2265.259 Q 7148.641 -2264.795 7148.529 -2264.333 Q 7148.417 -2263.871 7148.295 -2263.411 Q 7148.173 -2262.952 7148.040 -2262.495 Q 7147.907 -2262.039 7147.765 -2261.585 Q 7147.622 -2261.132 7147.469 -2260.682 Q 7147.315 -2260.232 7147.152 -2259.785 Q 7146.989 -2259.339 7146.815 -2258.896 Q 7146.642 -2258.453 7146.459 -2258.015 Q 7146.275 -2257.576 7146.082 -2257.142 Q 7145.889 -2256.707 7145.687 -2256.277 Q 7145.483 -2255.847 7145.271 -2255.422 Q 7145.058 -2254.997 7144.836 -2254.577 Q 7144.614 -2254.156 7144.382 -2253.741 Q 7144.150 -2253.326 7143.909 -2252.916 Q 7143.668 -2252.506 7143.418 -2252.102 Q 7143.168 -2251.698 7142.909 -2251.299 Q 7142.650 -2250.900 7142.382 -2250.508 Q 7142.114 -2250.115 7141.837 -2249.729 Q 7141.560 -2249.343 7141.274 -2248.962 Q 7140.989 -2248.582 7140.694 -2248.209 Q 7140.400 -2247.835 7140.098 -2247.469 Q 7139.795 -2247.102 7139.485 -2246.742 Q 7139.174 -2246.382 7138.855 -2246.029 Q 7138.537 -2245.677 7138.210 -2245.331 Q 7137.883 -2244.986 7137.549 -2244.648 Q 7137.215 -2244.310 7136.873 -2243.979 Q 7136.531 -2243.649 7136.182 -2243.327 Q 7135.833 -2243.004 7135.476 -2242.689 Q 7135.119 -2242.375 7134.756 -2242.069 Q 7134.392 -2241.762 7134.021 -2241.464 Q 7133.651 -2241.166 7133.274 -2240.876 Q 7132.897 -2240.587 7132.514 -2240.306 Q 7132.131 -2240.024 7131.741 -2239.752 Q 7131.352 -2239.480 7130.956 -2239.216 Q 7130.560 -2238.953 7130.158 -2238.698 Q 7129.757 -2238.444 7129.350 -2238.199 Q 7128.942 -2237.953 7128.529 -2237.717 Q 7128.117 -2237.481 7127.699 -2237.254 Q 7127.281 -2237.028 7126.858 -2236.811 Q 7126.435 -2236.594 7126.008 -2236.386 Q 7125.580 -2236.178 7125.147 -2235.981 Q 7124.715 -2235.783 7124.278 -2235.595 Q 7123.842 -2235.407 7123.401 -2235.229 Q 7122.960 -2235.051 7122.516 -2234.883 Q 7122.071 -2234.715 7121.622 -2234.557 Q 7121.174 -2234.399 7120.722 -2234.251 Q 7120.271 -2234.103 7119.815 -2233.965 Q 7119.360 -2233.828 7118.902 -2233.701 Q 7118.444 -2233.573 7117.983 -2233.457 Q 7117.522 -2233.340 7117.059 -2233.233 Q 7116.596 -2233.127 7116.130 -2233.031 Q 7115.665 -2232.935 7115.197 -2232.850 Q 7114.729 -2232.764 7114.260 -2232.689 Q 7113.790 -2232.615 7113.319 -2232.551 Q 7112.848 -2232.487 7112.375 -2232.433 Q 7111.903 -2232.379 7111.430 -2232.337 Q 7110.956 -2232.294 7110.481 -2232.262 Q 7110.007 -2232.230 7109.532 -2232.208 Q 7109.058 -2232.187 7108.582 -2232.176 Q 7108.107 -2232.166 7107.632 -2232.166 Q 7107.156 -2232.166 7106.681 -2232.177 Q 7106.206 -2232.188 7105.730 -2232.209 Q 7105.256 -2232.231 7104.781 -2232.263 Q 7104.307 -2232.296 7103.834 -2232.339 Q 7103.360 -2232.382 7102.888 -2232.436 Q 7102.416 -2232.489 7101.944 -2232.554 Q 7101.473 -2232.618 7101.004 -2232.693 Q 7100.534 -2232.768 7100.066 -2232.854 Q 7099.599 -2232.939 7099.134 -2233.036 Q 7098.668 -2233.132 7098.205 -2233.239 Q 7097.741 -2233.345 7097.280 -2233.462 Q 7096.820 -2233.579 7096.362 -2233.707 Q 7095.904 -2233.834 7095.449 -2233.972 Q 7094.994 -2234.110 7094.542 -2234.258 Q 7094.090 -2234.406 7093.642 -2234.564 Q 7093.193 -2234.722 7092.749 -2234.891 Q 7092.304 -2235.059 7091.863 -2235.237 Q 7091.423 -2235.416 7090.986 -2235.604 Q 7090.550 -2235.792 7090.118 -2235.990 Q 7089.686 -2236.188 7089.258 -2236.396 Q 7088.830 -2236.604 7088.407 -2236.821 Q 7087.984 -2237.039 7087.566 -2237.266 Q 7087.149 -2237.492 7086.736 -2237.729 Q 7086.324 -2237.965 7085.917 -2238.210 Q 7085.510 -2238.456 7085.108 -2238.711 Q 7084.707 -2238.965 7084.312 -2239.229 Q 7083.916 -2239.493 7083.526 -2239.765 Q 7083.137 -2240.038 7082.753 -2240.319 Q 7082.370 -2240.601 7081.993 -2240.890 Q 7081.616 -2241.180 7081.246 -2241.479 Q 7080.876 -2241.777 7080.513 -2242.083 Q 7080.149 -2242.390 7079.793 -2242.705 Q 7079.437 -2243.020 7079.087 -2243.342 Q 7078.738 -2243.665 7078.396 -2243.996 Q 7078.055 -2244.326 7077.721 -2244.664 Q 7077.387 -2245.002 7077.061 -2245.348 Q 7076.734 -2245.694 7076.415 -2246.046 Q 7076.097 -2246.399 7075.786 -2246.759 Q 7075.476 -2247.119 7075.173 -2247.486 Q 7074.871 -2247.853 7074.577 -2248.227 Q 7074.283 -2248.601 7073.998 -2248.981 Q 7073.712 -2249.361 7073.436 -2249.748 Q 7073.159 -2250.134 7072.891 -2250.527 Q 7072.623 -2250.920 7072.364 -2251.318 Q 7072.105 -2251.717 7071.855 -2252.122 Q 7071.605 -2252.526 7071.365 -2252.936 Q 7071.124 -2253.346 7070.893 -2253.761 Q 7070.662 -2254.177 7070.439 -2254.597 Q 7070.218 -2255.018 7070.005 -2255.443 Q 7069.793 -2255.868 7069.590 -2256.298 Q 7069.388 -2256.728 7069.194 -2257.163 Q 7069.001 -2257.597 7068.818 -2258.036 Q 7068.636 -2258.475 7068.463 -2258.917 Q 7068.290 -2259.360 7068.126 -2259.807 Q 7067.963 -2260.254 7067.811 -2260.704 Q 7067.657 -2261.154 7067.515 -2261.607 Q 7067.372 -2262.061 7067.240 -2262.518 Q 7067.107 -2262.974 7066.985 -2263.434 Q 7066.863 -2263.893 7066.751 -2264.355 Q 7066.640 -2264.817 7066.539 -2265.282 Q 7066.438 -2265.746 7066.347 -2266.213 Q 7066.256 -2266.680 7066.176 -2267.148 Q 7066.096 -2267.617 7066.026 -2268.087 Q 7065.957 -2268.558 7065.898 -2269.029 Q 7065.839 -2269.501 7065.791 -2269.974 Q 7065.743 -2270.447 7065.706 -2270.921 Q 7065.668 -2271.395 7065.642 -2271.870 Q 7065.615 -2272.344 7065.599 -2272.819 Q 7065.583 -2273.295 7065.578 -2273.770 Q 7065.572 -2274.245 7065.578 -2274.721 Q 7065.583 -2275.196 7065.600 -2275.671 Q 7065.616 -2276.146 7065.643 -2276.621 Q 7065.670 -2277.096 7065.708 -2277.570 Q 7065.745 -2278.044 7065.794 -2278.517 Q 7065.842 -2278.990 7065.901 -2279.461 Q 7065.960 -2279.933 7066.030 -2280.403 Q 7066.100 -2280.874 7066.180 -2281.342 Q 7066.260 -2281.811 7066.352 -2282.277 Q 7066.442 -2282.744 7066.544 -2283.208 Q 7066.645 -2283.673 7066.757 -2284.135 Q 7066.869 -2284.597 7066.991 -2285.057 Q 7067.113 -2285.516 7067.246 -2285.972 Q 7067.379 -2286.429 7067.521 -2286.882 Q 7067.665 -2287.336 7067.817 -2287.786 Q 7067.971 -2288.236 7068.134 -2288.682 Q 7068.297 -2289.129 7068.471 -2289.572 Q 7068.644 -2290.014 7068.827 -2290.453 Q 7069.011 -2290.892 7069.204 -2291.326 Q 7069.397 -2291.760 7069.600 -2292.190 Q 7069.803 -2292.620 7070.016 -2293.045 Q 7070.228 -2293.471 7070.450 -2293.891 Q 7070.672 -2294.312 7070.904 -2294.727 Q 7071.136 -2295.142 7071.377 -2295.552 Q 7071.618 -2295.961 7071.868 -2296.366 Q 7072.118 -2296.770 7072.377 -2297.169 Q 7072.636 -2297.567 7072.904 -2297.960 Q 7073.172 -2298.353 7073.449 -2298.739 Q 7073.726 -2299.125 7074.012 -2299.505 Q 7074.297 -2299.885 7074.592 -2300.259 Q 7074.886 -2300.633 7075.188 -2300.999 Q 7075.491 -2301.366 7075.801 -2301.726 Q 7076.112 -2302.086 7076.431 -2302.438 Q 7076.750 -2302.791 7077.076 -2303.137 Q 7077.403 -2303.482 7077.737 -2303.820 Q 7078.071 -2304.158 7078.413 -2304.488 Q 7078.755 -2304.819 7079.104 -2305.141 Q 7079.454 -2305.464 7079.811 -2305.778 Q 7080.167 -2306.093 7080.530 -2306.399 Q 7080.894 -2306.706 7081.265 -2307.004 Q 7081.635 -2307.302 7082.012 -2307.591 Q 7082.389 -2307.881 7082.772 -2308.162 Q 7083.155 -2308.443 7083.545 -2308.716 Q 7083.935 -2308.988 7084.330 -2309.251 Q 7084.726 -2309.515 7085.128 -2309.770 Q 7085.529 -2310.024 7085.937 -2310.269 Q 7086.344 -2310.514 7086.757 -2310.750 Q 7087.169 -2310.987 7087.587 -2311.213 Q 7088.005 -2311.440 7088.428 -2311.657 Q 7088.851 -2311.874 7089.279 -2312.082 Q 7089.707 -2312.289 7090.139 -2312.487 Q 7090.571 -2312.685 7091.008 -2312.873 Q 7091.444 -2313.061 7091.885 -2313.239 Q 7092.326 -2313.417 7092.771 -2313.585 Q 7093.215 -2313.753 7093.664 -2313.911 Q 7094.112 -2314.069 7094.564 -2314.217 Q 7095.016 -2314.365 7095.471 -2314.502 Q 7095.926 -2314.640 7096.384 -2314.767 Q 7096.842 -2314.895 7097.303 -2315.011 Q 7097.764 -2315.128 7098.228 -2315.235 Q 7098.690 -2315.341 7099.156 -2315.437 Q 7099.622 -2315.533 7100.090 -2315.618 Q 7100.558 -2315.704 7101.027 -2315.778 Q 7101.497 -2315.853 7101.968 -2315.917 Q 7102.438 -2315.981 7102.911 -2316.035 Q 7103.383 -2316.088 7103.856 -2316.131 Q 7104.330 -2316.174 7104.805 -2316.206 Q 7105.279 -2316.238 7105.754 -2316.259 Q 7106.229 -2316.281 7106.704 -2316.292 Q 7107.180 -2316.302 7107.655 -2316.302 Q 7108.130 -2316.302 7108.605 -2316.291 Q 7109.081 -2316.280 7109.556 -2316.258 Q 7110.031 -2316.237 7110.505 -2316.204 Q 7110.979 -2316.172 7111.453 -2316.129 Q 7111.926 -2316.086 7112.398 -2316.032 Q 7112.871 -2315.978 7113.342 -2315.914 Q 7113.813 -2315.850 7114.282 -2315.774 Q 7114.752 -2315.699 7115.220 -2315.614 Q 7115.688 -2315.528 7116.153 -2315.432 Q 7116.619 -2315.336 7117.082 -2315.229 Q 7117.545 -2315.123 7118.006 -2315.005 Q 7118.467 -2314.888 7118.925 -2314.761 Q 7119.383 -2314.633 7119.838 -2314.496 Q 7120.293 -2314.358 7120.745 -2314.209 Q 7121.196 -2314.062 7121.645 -2313.903 Q 7122.093 -2313.745 7122.538 -2313.577 Q 7122.982 -2313.408 7123.423 -2313.230 Q 7123.864 -2313.052 7124.300 -2312.864 Q 7124.737 -2312.675 7125.169 -2312.477 Q 7125.601 -2312.279 7126.029 -2312.071 Q 7126.457 -2311.864 7126.879 -2311.646 Q 7127.302 -2311.429 7127.720 -2311.202 Q 7128.138 -2310.975 7128.550 -2310.739 Q 7128.963 -2310.502 7129.370 -2310.257 Q 7129.777 -2310.011 7130.178 -2309.757 Q 7130.580 -2309.502 7130.976 -2309.238 Q 7131.371 -2308.975 7131.761 -2308.702 Q 7132.150 -2308.430 7132.533 -2308.148 Q 7132.917 -2307.867 7133.293 -2307.577 Q 7133.670 -2307.287 7134.041 -2306.989 Q 7134.411 -2306.691 7134.774 -2306.384 Q 7135.137 -2306.077 7135.494 -2305.763 Q 7135.850 -2305.448 7136.199 -2305.125 Q 7136.548 -2304.802 7136.890 -2304.472 Q 7137.231 -2304.141 7137.565 -2303.803 Q 7137.900 -2303.465 7138.227 -2303.119 Q 7138.553 -2302.774 7138.871 -2302.421 Q 7139.190 -2302.068 7139.500 -2301.708 Q 7139.811 -2301.348 7140.113 -2300.981 Q 7140.416 -2300.614 7140.709 -2300.240 Q 7141.003 -2299.867 7141.289 -2299.486 Q 7141.574 -2299.106 7141.851 -2298.720 Q 7142.127 -2298.333 7142.396 -2297.940 Q 7142.663 -2297.547 7142.922 -2297.149 Q 7143.181 -2296.750 7143.431 -2296.346 Q 7143.681 -2295.941 7143.922 -2295.531 Q 7144.162 -2295.121 7144.394 -2294.706 Q 7144.625 -2294.291 7144.847 -2293.870 Q 7145.069 -2293.450 7145.281 -2293.024 Q 7145.494 -2292.599 7145.696 -2292.169 Q 7145.899 -2291.739 7146.092 -2291.304 Q 7146.285 -2290.870 7146.468 -2290.431 Q 7146.651 -2289.992 7146.824 -2289.549 Q 7146.997 -2289.107 7147.160 -2288.660 Q 7147.323 -2288.213 7147.476 -2287.763 Q 7147.629 -2287.313 7147.771 -2286.859 Q 7147.915 -2286.406 7148.047 -2285.949 Q 7148.179 -2285.493 7148.301 -2285.033 Q 7148.423 -2284.574 7148.535 -2284.112 Q 7148.646 -2283.650 7148.748 -2283.185 Q 7148.849 -2282.720 7148.939 -2282.254 Q 7149.030 -2281.787 7149.110 -2281.318 Q 7149.190 -2280.850 7149.260 -2280.379 Q 7149.329 -2279.909 7149.388 -2279.438 Q 7149.447 -2278.966 7149.495 -2278.493 Q 7149.543 -2278.020 7149.580 -2277.546 Q 7149.618 -2277.072 7149.645 -2276.597 Q 7149.671 -2276.123 7149.688 -2275.647 Q 7149.703 -2275.172 7149.708 -2274.697 Q 7149.714 -2274.221 7149.708 -2273.747 Z"></path>
  </g>
</svg>