<svg id="Layer_1" data-name="Layer 1" xmlns="http://www.w3.org/2000/svg" viewBox="0 0 196.66 204.85"><defs><style>.cls-1,.cls-10,.cls-100,.cls-101,.cls-102,.cls-103,.cls-104,.cls-11,.cls-12,.cls-13,.cls-14,.cls-15,.cls-16,.cls-17,.cls-18,.cls-19,.cls-2,.cls-20,.cls-21,.cls-22,.cls-23,.cls-24,.cls-25,.cls-26,.cls-27,.cls-28,.cls-29,.cls-3,.cls-30,.cls-31,.cls-32,.cls-33,.cls-34,.cls-35,.cls-36,.cls-37,.cls-38,.cls-39,.cls-4,.cls-40,.cls-41,.cls-42,.cls-43,.cls-44,.cls-45,.cls-46,.cls-47,.cls-48,.cls-49,.cls-5,.cls-50,.cls-51,.cls-52,.cls-53,.cls-54,.cls-55,.cls-56,.cls-57,.cls-58,.cls-59,.cls-6,.cls-60,.cls-61,.cls-62,.cls-63,.cls-64,.cls-65,.cls-66,.cls-67,.cls-68,.cls-69,.cls-7,.cls-70,.cls-71,.cls-72,.cls-73,.cls-74,.cls-75,.cls-76,.cls-77,.cls-78,.cls-79,.cls-8,.cls-80,.cls-81,.cls-82,.cls-83,.cls-84,.cls-85,.cls-86,.cls-87,.cls-88,.cls-89,.cls-9,.cls-90,.cls-91,.cls-92,.cls-93,.cls-94,.cls-95,.cls-96,.cls-97,.cls-98,.cls-99{fill:none;stroke-linecap:round;stroke-linejoin:round;isolation:isolate;}.cls-1,.cls-10,.cls-2,.cls-3,.cls-4,.cls-5,.cls-52,.cls-53,.cls-54,.cls-55,.cls-56,.cls-57,.cls-58,.cls-59,.cls-6,.cls-60,.cls-61,.cls-7,.cls-8,.cls-9{stroke:#f9642d;opacity:0.83;}.cls-1{stroke-width:1.27px;}.cls-2{stroke-width:1.23px;}.cls-3{stroke-width:1.34px;}.cls-15,.cls-4,.cls-43{stroke-width:1.3px;}.cls-5{stroke-width:0.28px;}.cls-6{stroke-width:0.26px;}.cls-7{stroke-width:0.27px;}.cls-8{stroke-width:0.28px;}.cls-9{stroke-width:0.26px;}.cls-10{stroke-width:0.28px;}.cls-102,.cls-103,.cls-104,.cls-11,.cls-12,.cls-13,.cls-14,.cls-15,.cls-16,.cls-17,.cls-18,.cls-19,.cls-20,.cls-21,.cls-22,.cls-23,.cls-24,.cls-25,.cls-26,.cls-27,.cls-28,.cls-29,.cls-30,.cls-31,.cls-32,.cls-33,.cls-34,.cls-35,.cls-36,.cls-37,.cls-38,.cls-39,.cls-40,.cls-41,.cls-62,.cls-63,.cls-64,.cls-65,.cls-66,.cls-67,.cls-68,.cls-69,.cls-70,.cls-71,.cls-72,.cls-73,.cls-74,.cls-75,.cls-76,.cls-77,.cls-78,.cls-79,.cls-80,.cls-81,.cls-82,.cls-83,.cls-84,.cls-85,.cls-86,.cls-87,.cls-88,.cls-89,.cls-90,.cls-91,.cls-92{stroke:#6cba4b;}.cls-11{stroke-width:1.48px;}.cls-100,.cls-102,.cls-103,.cls-104,.cls-11,.cls-12,.cls-13,.cls-14,.cls-15,.cls-16,.cls-17,.cls-18,.cls-19,.cls-20,.cls-21,.cls-22,.cls-23,.cls-24,.cls-25,.cls-26,.cls-27,.cls-28,.cls-29,.cls-30,.cls-31,.cls-32,.cls-33,.cls-34,.cls-35,.cls-36,.cls-37,.cls-38,.cls-39,.cls-40,.cls-41,.cls-42,.cls-43,.cls-44,.cls-45,.cls-46,.cls-47,.cls-48,.cls-49,.cls-50,.cls-62,.cls-63,.cls-64,.cls-65,.cls-66,.cls-67,.cls-68,.cls-69,.cls-70,.cls-71,.cls-72,.cls-73,.cls-74,.cls-75,.cls-76,.cls-77,.cls-78,.cls-79,.cls-80,.cls-81,.cls-82,.cls-83,.cls-84,.cls-85,.cls-86,.cls-87,.cls-88,.cls-89,.cls-90,.cls-91,.cls-92,.cls-93,.cls-94,.cls-95,.cls-96,.cls-97,.cls-98,.cls-99{opacity:0.75;}.cls-12{stroke-width:1.43px;}.cls-13{stroke-width:1.41px;}.cls-14{stroke-width:1.3px;}.cls-16{stroke-width:1.31px;}.cls-17{stroke-width:1.33px;}.cls-18{stroke-width:1.39px;}.cls-19{stroke-width:1.32px;}.cls-20{stroke-width:1.41px;}.cls-21{stroke-width:1.36px;}.cls-22{stroke-width:1.37px;}.cls-23{stroke-width:1.28px;}.cls-24{stroke-width:1.27px;}.cls-25{stroke-width:1.29px;}.cls-26{stroke-width:1.58px;}.cls-27{stroke-width:1.61px;}.cls-28{stroke-width:1.58px;}.cls-29{stroke-width:1.35px;}.cls-30{stroke-width:1.55px;}.cls-31{stroke-width:1.43px;}.cls-32{stroke-width:1.45px;}.cls-33{stroke-width:1.49px;}.cls-34{stroke-width:1.37px;}.cls-35{stroke-width:1.33px;}.cls-36{stroke-width:1.31px;}.cls-37{stroke-width:1.32px;}.cls-38{stroke-width:1.26px;}.cls-39{stroke-width:1.34px;}.cls-40{stroke-width:1.25px;}.cls-41{stroke-width:1.17px;}.cls-100,.cls-42,.cls-43,.cls-44,.cls-45,.cls-46,.cls-47,.cls-48,.cls-49,.cls-50,.cls-93,.cls-94,.cls-95,.cls-96,.cls-97,.cls-98,.cls-99{stroke:#bd8ae6;}.cls-42{stroke-width:1.37px;}.cls-44{stroke-width:1.28px;}.cls-45{stroke-width:0.28px;}.cls-46{stroke-width:0.29px;}.cls-47{stroke-width:0.28px;}.cls-48{stroke-width:0.28px;}.cls-49{stroke-width:0.29px;}.cls-50{stroke-width:0.27px;}.cls-101,.cls-51{stroke:#00a0c8;opacity:0.65;}.cls-51{stroke-width:0.84px;}.cls-52{stroke-width:0.67px;}.cls-53{stroke-width:0.65px;}.cls-54{stroke-width:0.71px;}.cls-55,.cls-66,.cls-94{stroke-width:0.68px;}.cls-56{stroke-width:0.15px;}.cls-57{stroke-width:0.14px;}.cls-58{stroke-width:0.14px;}.cls-59,.cls-97{stroke-width:0.15px;}.cls-60{stroke-width:0.14px;}.cls-61,.cls-98{stroke-width:0.15px;}.cls-62{stroke-width:0.78px;}.cls-63{stroke-width:0.75px;}.cls-64{stroke-width:0.75px;}.cls-65{stroke-width:0.68px;}.cls-67{stroke-width:0.69px;}.cls-68{stroke-width:0.7px;}.cls-69{stroke-width:0.73px;}.cls-70{stroke-width:0.69px;}.cls-71{stroke-width:0.74px;}.cls-72{stroke-width:0.71px;}.cls-73{stroke-width:0.72px;}.cls-74{stroke-width:0.67px;}.cls-75{stroke-width:0.67px;}.cls-76{stroke-width:0.68px;}.cls-77{stroke-width:0.83px;}.cls-78{stroke-width:0.85px;}.cls-79{stroke-width:0.83px;}.cls-80{stroke-width:0.71px;}.cls-81{stroke-width:0.81px;}.cls-82{stroke-width:0.75px;}.cls-83{stroke-width:0.76px;}.cls-84{stroke-width:0.79px;}.cls-85{stroke-width:0.72px;}.cls-86{stroke-width:0.7px;}.cls-87{stroke-width:0.69px;}.cls-88{stroke-width:0.69px;}.cls-89{stroke-width:0.66px;}.cls-90{stroke-width:0.7px;}.cls-91{stroke-width:0.66px;}.cls-92{stroke-width:0.62px;}.cls-93{stroke-width:0.72px;}.cls-95{stroke-width:0.67px;}.cls-96{stroke-width:0.14px;}.cls-99{stroke-width:0.15px;}.cls-100{stroke-width:0.14px;}.cls-101{stroke-width:0.44px;}.cls-102{stroke-width:1.29px;}.cls-103{stroke-width:1.25px;}.cls-104{stroke-width:1.25px;}</style></defs><path id="STROKE_1fbadfdb-b7a0-411c-b5ac-ce42821c5350" data-name="STROKE 1fbadfdb-b7a0-411c-b5ac-ce42821c5350" class="cls-1" d="M102.83,117.27l-.09,63.62" transform="translate(-14.66 -7.48)"/><path id="STROKE_29945d61-ee9d-4729-baea-1f764e44ac1b" data-name="STROKE 29945d61-ee9d-4729-baea-1f764e44ac1b" class="cls-2" d="M102.47,180.53l64.54,0" transform="translate(-14.66 -7.48)"/><path id="STROKE_dbeeb414-f499-4f74-a347-0b2cdf3b9b6b" data-name="STROKE dbeeb414-f499-4f74-a347-0b2cdf3b9b6b" class="cls-3" d="M167,181.47,166.6,116" transform="translate(-14.66 -7.48)"/><path id="STROKE_0d99e589-9d75-4d4b-9b40-03bade7f3eca" data-name="STROKE 0d99e589-9d75-4d4b-9b40-03bade7f3eca" class="cls-4" d="M166.68,116.88l-65-.21" transform="translate(-14.66 -7.48)"/><path id="STROKE_387a177e-cbbd-43dd-a826-0fdd1912bb65" data-name="STROKE 387a177e-cbbd-43dd-a826-0fdd1912bb65" class="cls-5" d="M134.42,116.88l.75,63.24" transform="translate(-14.66 -7.48)"/><path id="STROKE_e6eb66f9-678b-4b5f-924d-d32cf0aa202e" data-name="STROKE e6eb66f9-678b-4b5f-924d-d32cf0aa202e" class="cls-6" d="M103.56,148.47l62.35.28" transform="translate(-14.66 -7.48)"/><path id="STROKE_e9a7fee7-059d-4be3-86fe-6dae1d22327e" data-name="STROKE e9a7fee7-059d-4be3-86fe-6dae1d22327e" class="cls-7" d="M117.8,118l.32,62.09" transform="translate(-14.66 -7.48)"/><path id="STROKE_47ec146f-8d34-450c-90ac-969cbc13f87f" data-name="STROKE 47ec146f-8d34-450c-90ac-969cbc13f87f" class="cls-8" d="M150.33,116.79l-.09,63.59" transform="translate(-14.66 -7.48)"/><path id="STROKE_d652bf96-4a54-495d-bed9-c4a39bd138b1" data-name="STROKE d652bf96-4a54-495d-bed9-c4a39bd138b1" class="cls-9" d="M103.52,133.53l62.77-.31" transform="translate(-14.66 -7.48)"/><path id="STROKE_d88126ea-d658-4312-ac2b-53efac7d00b6" data-name="STROKE d88126ea-d658-4312-ac2b-53efac7d00b6" class="cls-10" d="M102.75,164.44h63.79" transform="translate(-14.66 -7.48)"/><path id="STROKE_43398351-662a-4d93-9a8a-e9df6aa03292" data-name="STROKE 43398351-662a-4d93-9a8a-e9df6aa03292" class="cls-11" d="M118.47,138.09,122.4,134" transform="translate(-14.66 -7.48)"/><path id="STROKE_4f69a78c-b0c7-40c1-b7a1-52af4592c5a2" data-name="STROKE 4f69a78c-b0c7-40c1-b7a1-52af4592c5a2" class="cls-12" d="M118.29,142.27l8.32-8.48" transform="translate(-14.66 -7.48)"/><path id="STROKE_5166813c-e833-46d8-b2f8-e4b27f04755f" data-name="STROKE 5166813c-e833-46d8-b2f8-e4b27f04755f" class="cls-13" d="M118.35,146.17,130,134.24" transform="translate(-14.66 -7.48)"/><path id="STROKE_8f49a6a0-9907-4100-a6ab-7ee64a1d3967" data-name="STROKE 8f49a6a0-9907-4100-a6ab-7ee64a1d3967" class="cls-14" d="M120.52,149l13.69-14.6" transform="translate(-14.66 -7.48)"/><path id="STROKE_5fb02767-b053-4d32-9002-afb001782650" data-name="STROKE 5fb02767-b053-4d32-9002-afb001782650" class="cls-15" d="M124.67,148.74l8.9-9.86" transform="translate(-14.66 -7.48)"/><path id="STROKE_f6faf99d-5251-41b3-8134-003c82384806" data-name="STROKE f6faf99d-5251-41b3-8134-003c82384806" class="cls-16" d="M129.19,148.59l4.94-6.31" transform="translate(-14.66 -7.48)"/><path id="STROKE_90ff0245-eafb-4818-a82a-d7a198daec25" data-name="STROKE 90ff0245-eafb-4818-a82a-d7a198daec25" class="cls-17" d="M133,147.78l1.62-2.06" transform="translate(-14.66 -7.48)"/><path id="STROKE_81ab3940-a674-4367-8296-8150f91e4473" data-name="STROKE 81ab3940-a674-4367-8296-8150f91e4473" class="cls-18" d="M135,137.1l3.55-3.91" transform="translate(-14.66 -7.48)"/><path id="STROKE_e0f8c826-a3b3-46f8-a290-b2f28262ab8b" data-name="STROKE e0f8c826-a3b3-46f8-a290-b2f28262ab8b" class="cls-19" d="M134.94,140.25l6.35-6.35" transform="translate(-14.66 -7.48)"/><path id="STROKE_efc87ea1-cf6b-4764-ac1b-0e112b38b32e" data-name="STROKE efc87ea1-cf6b-4764-ac1b-0e112b38b32e" class="cls-20" d="M135.15,143.16l8.75-8.78" transform="translate(-14.66 -7.48)"/><path id="STROKE_2a7e768d-b696-41a2-a0a0-bde3590a9d6d" data-name="STROKE 2a7e768d-b696-41a2-a0a0-bde3590a9d6d" class="cls-21" d="M135.57,145.93l11.55-11.77" transform="translate(-14.66 -7.48)"/><path id="STROKE_c4fed58d-48f4-4d98-a7c6-02f5a5ccb18b" data-name="STROKE c4fed58d-48f4-4d98-a7c6-02f5a5ccb18b" class="cls-22" d="M136.59,147.88l12.82-13.47" transform="translate(-14.66 -7.48)"/><path id="STROKE_21bce556-1047-4a8e-a567-f5bf578e68ce" data-name="STROKE 21bce556-1047-4a8e-a567-f5bf578e68ce" class="cls-23" d="M138.94,148.15l10.56-11" transform="translate(-14.66 -7.48)"/><path id="STROKE_b9c3e880-706c-4e22-9d45-a0c8298d351f" data-name="STROKE b9c3e880-706c-4e22-9d45-a0c8298d351f" class="cls-24" d="M142.49,148.42l8.09-8.25" transform="translate(-14.66 -7.48)"/><path id="STROKE_dac5fc3f-10b2-426a-b054-08bcfe133cf4" data-name="STROKE dac5fc3f-10b2-426a-b054-08bcfe133cf4" class="cls-25" d="M147.91,147.05l2.81-3.29" transform="translate(-14.66 -7.48)"/><path id="STROKE_628d1081-b442-4dff-9af9-987c7e11b86f" data-name="STROKE 628d1081-b442-4dff-9af9-987c7e11b86f" class="cls-26" d="M118.05,152.58l3.53-3.41" transform="translate(-14.66 -7.48)"/><path id="STROKE_d52f24e8-44b4-4962-ab11-c75daa4f3911" data-name="STROKE d52f24e8-44b4-4962-ab11-c75daa4f3911" class="cls-27" d="M118.29,157.88l7.55-8.06" transform="translate(-14.66 -7.48)"/><path id="STROKE_1b023887-0aac-478f-8a01-9a4ca2ab10d5" data-name="STROKE 1b023887-0aac-478f-8a01-9a4ca2ab10d5" class="cls-28" d="M118.34,161.83,130,149.66" transform="translate(-14.66 -7.48)"/><path id="STROKE_d3127fbe-c96a-4237-9c23-3936a69122ed" data-name="STROKE d3127fbe-c96a-4237-9c23-3936a69122ed" class="cls-29" d="M119.24,163.22l12.91-13.62" transform="translate(-14.66 -7.48)"/><path id="STROKE_b0aeef83-1671-4b2a-80eb-81f22f6a9c16" data-name="STROKE b0aeef83-1671-4b2a-80eb-81f22f6a9c16" class="cls-30" d="M118.16,154.47l6.58-5.91" transform="translate(-14.66 -7.48)"/><path id="STROKE_0284883d-c7c2-4824-a76b-14700fa938f4" data-name="STROKE 0284883d-c7c2-4824-a76b-14700fa938f4" class="cls-31" d="M121.19,163.33l12.91-13.27" transform="translate(-14.66 -7.48)"/><path id="STROKE_6434bbf5-f37c-41af-8a93-f8169b791cc5" data-name="STROKE 6434bbf5-f37c-41af-8a93-f8169b791cc5" class="cls-32" d="M125.23,163.85l10.35-11.22" transform="translate(-14.66 -7.48)"/><path id="STROKE_d7dd161e-2568-49ee-88b3-21eea1916e6b" data-name="STROKE d7dd161e-2568-49ee-88b3-21eea1916e6b" class="cls-33" d="M129.69,163.11l4.79-5.4" transform="translate(-14.66 -7.48)"/><path id="STROKE_f7dc167c-42b0-4a75-9dff-147d578935d4" data-name="STROKE f7dc167c-42b0-4a75-9dff-147d578935d4" class="cls-34" d="M133,163.9l2.49-3.51" transform="translate(-14.66 -7.48)"/><path id="STROKE_02008cdf-68e4-4b89-861a-63d4f84c8a01" data-name="STROKE 02008cdf-68e4-4b89-861a-63d4f84c8a01" class="cls-35" d="M135.81,153.41l3.93-4.12" transform="translate(-14.66 -7.48)"/><path id="STROKE_32ee318b-6c56-462d-a18c-c23c5abcaffa" data-name="STROKE 32ee318b-6c56-462d-a18c-c23c5abcaffa" class="cls-36" d="M134.74,158.29l9-10.1" transform="translate(-14.66 -7.48)"/><path id="STROKE_1fbfad6f-543a-4123-ae55-0a90e20985ce" data-name="STROKE 1fbfad6f-543a-4123-ae55-0a90e20985ce" class="cls-37" d="M135.28,162.31l9.33-12.55" transform="translate(-14.66 -7.48)"/><path id="STROKE_27dd09a7-5058-4aad-8492-285d833163c4" data-name="STROKE 27dd09a7-5058-4aad-8492-285d833163c4" class="cls-38" d="M135.23,164.29l12.35-14.46" transform="translate(-14.66 -7.48)"/><path id="STROKE_b4605277-a493-4e6c-9db6-633aa9adb202" data-name="STROKE b4605277-a493-4e6c-9db6-633aa9adb202" class="cls-39" d="M137.94,164.65l11.69-13.32" transform="translate(-14.66 -7.48)"/><path id="STROKE_b22937ed-e5dd-413c-9bb6-d4c4540d9973" data-name="STROKE b22937ed-e5dd-413c-9bb6-d4c4540d9973" class="cls-24" d="M142.39,162.76l7.13-8.28" transform="translate(-14.66 -7.48)"/><path id="STROKE_018223ec-3ca7-4c35-84d0-d9bd227ce94b" data-name="STROKE 018223ec-3ca7-4c35-84d0-d9bd227ce94b" class="cls-40" d="M145,163.16l4.79-6.11" transform="translate(-14.66 -7.48)"/><path id="STROKE_6740a727-0802-4eeb-a4d5-1afb846e7c55" data-name="STROKE 6740a727-0802-4eeb-a4d5-1afb846e7c55" class="cls-41" d="M147.6,163.63l3.37-3.7" transform="translate(-14.66 -7.48)"/><path id="STROKE_0d5d022b-4b73-420e-ab40-a39450de6901" data-name="STROKE 0d5d022b-4b73-420e-ab40-a39450de6901" class="cls-42" d="M182.89,116.61l-.36,32" transform="translate(-14.66 -7.48)"/><path id="STROKE_f5f6cd23-03f9-41cb-866f-a7c57bf3483c" data-name="STROKE f5f6cd23-03f9-41cb-866f-a7c57bf3483c" class="cls-43" d="M182.29,148.92l15.63.16" transform="translate(-14.66 -7.48)"/><path id="STROKE_0e232b0d-ebcd-434c-968f-cc83c44a64e9" data-name="STROKE 0e232b0d-ebcd-434c-968f-cc83c44a64e9" class="cls-44" d="M198.26,149.74l.38-33.43" transform="translate(-14.66 -7.48)"/><path id="STROKE_81be8071-dbc5-4119-9626-c2bf39519b9d" data-name="STROKE 81be8071-dbc5-4119-9626-c2bf39519b9d" class="cls-45" d="M183.41,141.13l14.28,0" transform="translate(-14.66 -7.48)"/><path id="STROKE_2501a24d-aa19-4db2-8fb1-c3b06ba1d37c" data-name="STROKE 2501a24d-aa19-4db2-8fb1-c3b06ba1d37c" class="cls-46" d="M182.76,132.67l15.14-.12" transform="translate(-14.66 -7.48)"/><path id="STROKE_beb61591-c721-44c3-8e71-0335c27076a2" data-name="STROKE beb61591-c721-44c3-8e71-0335c27076a2" class="cls-47" d="M183.38,133.57l7.19,3.42" transform="translate(-14.66 -7.48)"/><path id="STROKE_d97977ff-9991-4406-aa32-857ee362e5de" data-name="STROKE d97977ff-9991-4406-aa32-857ee362e5de" class="cls-48" d="M190,137.54l8.12-4.74" transform="translate(-14.66 -7.48)"/><path id="STROKE_dbb012f0-901f-4ba5-acb9-16ab0ff4c6b5" data-name="STROKE dbb012f0-901f-4ba5-acb9-16ab0ff4c6b5" class="cls-49" d="M183.38,141.78l7.6,3.3" transform="translate(-14.66 -7.48)"/><path id="STROKE_7e5f50ca-cf2c-47c2-9992-e74deb20e923" data-name="STROKE 7e5f50ca-cf2c-47c2-9992-e74deb20e923" class="cls-50" d="M190.25,145.75l7.81-4.85" transform="translate(-14.66 -7.48)"/><path id="STROKE_f5fb28f4-aacc-43d3-b4bc-fcf0670f9520" data-name="STROKE f5fb28f4-aacc-43d3-b4bc-fcf0670f9520" class="cls-51" d="M210.86,151.4l-.06,1.42c0,.47-.06.94-.1,1.41l-.12,1.41c-.05.47-.11.94-.16,1.4s-.13.94-.19,1.41-.15.93-.23,1.39-.16.93-.25,1.4-.19.92-.29,1.38-.2.92-.31,1.38-.23.92-.35,1.37-.25.91-.38,1.37-.27.9-.41,1.35-.29.9-.44,1.35-.31.89-.47,1.33-.33.89-.5,1.32-.35.88-.53,1.32-.37.87-.56,1.3-.39.86-.59,1.28-.4.85-.61,1.28-.43.84-.65,1.25-.45.84-.68,1.25-.46.82-.7,1.23-.48.81-.73,1.21-.5.8-.76,1.19-.51.79-.78,1.18-.53.78-.81,1.16-.55.77-.84,1.14-.57.76-.86,1.13-.58.74-.88,1.1l-.92,1.08c-.3.36-.62.71-.93,1.06l-1,1-1,1c-.34.33-.67.67-1,1s-.68.66-1,1l-1,.95-1.07.92c-.36.31-.72.6-1.09.9l-1.11.88c-.38.28-.75.57-1.14.85s-.76.55-1.14.82l-1.17.8-1.19.77-1.2.75-1.22.71c-.41.24-.82.47-1.24.69s-.83.45-1.25.66l-1.27.64-1.27.6-1.3.58-1.3.54-1.32.52c-.44.16-.88.33-1.33.48l-1.34.46-1.35.43-1.36.39-1.37.37-1.37.33-1.38.3c-.46.1-.93.19-1.39.27s-.93.17-1.4.24l-1.4.21-1.4.17-1.41.15-1.41.11-1.41.08-1.41.05-1.42,0-1.41,0-1.42-.05-1.41-.08-1.41-.11-1.41-.14c-.47-.05-.94-.11-1.4-.18l-1.4-.2-1.4-.24-1.39-.27-1.38-.3L132.9,210l-1.36-.37c-.46-.12-.91-.25-1.36-.39l-1.35-.43c-.45-.14-.9-.29-1.34-.45l-1.33-.49-1.32-.51-1.31-.55-1.29-.57-1.28-.6-1.27-.63-1.25-.67-1.23-.68-1.22-.72c-.41-.24-.81-.49-1.21-.74l-1.18-.77c-.4-.27-.79-.53-1.17-.8s-.77-.55-1.15-.83l-1.14-.84-1.11-.88c-.37-.29-.73-.59-1.09-.9l-1.07-.92c-.36-.31-.71-.63-1.05-.95l-1-1c-.34-.33-.68-.66-1-1s-.66-.67-1-1-.65-.69-1-1-.63-.71-.94-1.06l-.91-1.08L99.1,188c-.29-.37-.58-.74-.86-1.12s-.57-.75-.84-1.14-.55-.77-.81-1.16l-.79-1.17-.76-1.2c-.24-.4-.49-.8-.73-1.21l-.7-1.23c-.23-.41-.45-.83-.67-1.24s-.44-.84-.65-1.26-.42-.85-.62-1.27-.4-.86-.59-1.29-.38-.86-.56-1.3-.36-.87-.53-1.31-.34-.88-.5-1.32-.32-.89-.47-1.34-.3-.89-.44-1.34-.28-.9-.41-1.36-.26-.9-.38-1.36-.24-.91-.35-1.37-.22-.92-.32-1.38-.2-.92-.29-1.39-.17-.92-.25-1.39-.16-.93-.23-1.4-.13-.93-.19-1.4-.11-.93-.16-1.4-.09-.94-.13-1.41-.07-.94-.09-1.41,0-1-.07-1.42l0-1.41c0-.47,0-.95,0-1.42l0-1.41.06-1.42c0-.47.06-.94.1-1.41s.08-.94.13-1.41.1-.93.16-1.4.12-.94.19-1.41.14-.93.22-1.39.16-.93.25-1.4.19-.92.29-1.38.21-.92.32-1.38.22-.92.34-1.37.25-.91.38-1.37.27-.9.41-1.35.29-.9.44-1.34.31-.9.47-1.34.33-.88.5-1.32.35-.88.53-1.31.37-.87.56-1.3.39-.86.59-1.29.41-.85.62-1.28.42-.84.64-1.25.45-.84.68-1.25.46-.82.7-1.23.48-.81.73-1.21.5-.8.76-1.19.52-.79.78-1.18l.81-1.16c.28-.39.55-.77.84-1.14s.57-.75.86-1.13.59-.73.89-1.1l.91-1.08c.31-.36.62-.71.94-1.06s.63-.7,1-1l1-1c.33-.33.66-.67,1-1l1-1,1-.94c.36-.32.71-.63,1.07-.93l1.09-.9,1.12-.88,1.13-.85,1.15-.82c.38-.27.77-.54,1.17-.8s.78-.52,1.18-.77l1.2-.74q.61-.37,1.23-.72c.4-.24.82-.47,1.23-.69s.83-.45,1.25-.66l1.27-.64,1.28-.6q.64-.3,1.29-.57l1.3-.55,1.32-.52,1.33-.48,1.34-.46c.45-.14.9-.29,1.35-.42l1.36-.4c.45-.13.91-.25,1.37-.36l1.37-.34,1.39-.3,1.38-.27,1.4-.24,1.4-.21,1.4-.17,1.41-.15,1.41-.11,1.41-.08,1.42-.05h2.83l1.41.05,1.41.08,1.42.11,1.4.14,1.41.18,1.4.2,1.39.24,1.39.27,1.38.3,1.38.33L165,89l1.36.39,1.35.43,1.33.45,1.34.49c.44.16.88.34,1.31.51l1.31.55q.65.27,1.29.57l1.28.6,1.27.64c.42.21.84.43,1.25.66s.83.45,1.24.69l1.22.71,1.2.74,1.19.78,1.17.79,1.15.83c.38.28.76.56,1.13.85s.74.57,1.11.87l1.09.9,1.08.92,1,1,1,1c.34.33.68.66,1,1s.66.67,1,1,.65.69,1,1,.63.71.94,1.06.62.72.91,1.09.6.73.89,1.1.58.74.86,1.12.57.76.84,1.14.55.77.81,1.16.53.78.79,1.18.51.79.76,1.19.49.81.73,1.21.47.82.7,1.23l.68,1.24.65,1.26c.21.42.41.85.61,1.28s.4.85.59,1.28.38.87.56,1.3.36.87.53,1.31.34.88.5,1.33.32.88.48,1.33.3.9.44,1.35.28.9.41,1.35.26.91.38,1.36.23.92.35,1.37.21.92.31,1.38.2.93.29,1.39.18.93.26,1.39.15.93.22,1.4.13.93.19,1.4.11.94.16,1.41.09.93.13,1.4.07.95.09,1.42.05.94.07,1.41,0,.94,0,1.41,0,1,0,1.42S210.88,150.93,210.86,151.4Z" transform="translate(-14.66 -7.48)"/><path id="STROKE_74c2b247-3efc-41ed-b0c4-63f60013798d" data-name="STROKE 74c2b247-3efc-41ed-b0c4-63f60013798d" class="cls-51" d="M210.86,151.4l-.06,1.42c0,.47-.06.94-.1,1.41l-.12,1.41c-.05.47-.11.94-.16,1.4s-.13.94-.19,1.41-.15.93-.23,1.39-.16.93-.25,1.4-.19.92-.29,1.38-.2.92-.31,1.38-.23.92-.35,1.37-.25.91-.38,1.37-.27.9-.41,1.35-.29.9-.44,1.35-.31.89-.47,1.33-.33.89-.5,1.32-.35.88-.53,1.32-.37.87-.56,1.3-.39.86-.59,1.28-.4.85-.61,1.28-.43.84-.65,1.25-.45.84-.68,1.25-.46.82-.7,1.23-.48.81-.73,1.21-.5.8-.76,1.19-.51.79-.78,1.18-.53.78-.81,1.16-.55.77-.84,1.14-.57.76-.86,1.13-.58.74-.88,1.1l-.92,1.08c-.3.36-.62.71-.93,1.06l-1,1-1,1c-.34.33-.67.67-1,1s-.68.66-1,1l-1,.95-1.07.92c-.36.31-.72.6-1.09.9l-1.11.88c-.38.28-.75.57-1.14.85s-.76.55-1.14.82l-1.17.8-1.19.77-1.2.75-1.22.71c-.41.24-.82.47-1.24.69s-.83.45-1.25.66l-1.27.64-1.27.6-1.3.58-1.3.54-1.32.52c-.44.16-.88.33-1.33.48l-1.34.46-1.35.43-1.36.39-1.37.37-1.37.33-1.38.3c-.46.1-.93.19-1.39.27s-.93.17-1.4.24l-1.4.21-1.4.17-1.41.15-1.41.11-1.41.08-1.41.05-1.42,0-1.41,0-1.42-.05-1.41-.08-1.41-.11-1.41-.14c-.47-.05-.94-.11-1.4-.18l-1.4-.2-1.4-.24-1.39-.27-1.38-.3L132.9,210l-1.36-.37c-.46-.12-.91-.25-1.36-.39l-1.35-.43c-.45-.14-.9-.29-1.34-.45l-1.33-.49-1.32-.51-1.31-.55-1.29-.57-1.28-.6-1.27-.63-1.25-.67-1.23-.68-1.22-.72c-.41-.24-.81-.49-1.21-.74l-1.18-.77c-.4-.27-.79-.53-1.17-.8s-.77-.55-1.15-.83l-1.14-.84-1.11-.88c-.37-.29-.73-.59-1.09-.9l-1.07-.92c-.36-.31-.71-.63-1.05-.95l-1-1c-.34-.33-.68-.66-1-1s-.66-.67-1-1-.65-.69-1-1-.63-.71-.94-1.06l-.91-1.08L99.1,188c-.29-.37-.58-.74-.86-1.12s-.57-.75-.84-1.14-.55-.77-.81-1.16l-.79-1.17-.76-1.2c-.24-.4-.49-.8-.73-1.21l-.7-1.23c-.23-.41-.45-.83-.67-1.24s-.44-.84-.65-1.26-.42-.85-.62-1.27-.4-.86-.59-1.29-.38-.86-.56-1.3-.36-.87-.53-1.31-.34-.88-.5-1.32-.32-.89-.47-1.34-.3-.89-.44-1.34-.28-.9-.41-1.36-.26-.9-.38-1.36-.24-.91-.35-1.37-.22-.92-.32-1.38-.2-.92-.29-1.39-.17-.92-.25-1.39-.16-.93-.23-1.4-.13-.93-.19-1.4-.11-.93-.16-1.4-.09-.94-.13-1.41-.07-.94-.09-1.41,0-1-.07-1.42l0-1.41c0-.47,0-.95,0-1.42l0-1.41.06-1.42c0-.47.06-.94.1-1.41s.08-.94.13-1.41.1-.93.16-1.4.12-.94.19-1.41.14-.93.22-1.39.16-.93.25-1.4.19-.92.29-1.38.21-.92.32-1.38.22-.92.34-1.37.25-.91.38-1.37.27-.9.41-1.35.29-.9.44-1.34.31-.9.47-1.34.33-.88.5-1.32.35-.88.53-1.31.37-.87.56-1.3.39-.86.59-1.29.41-.85.62-1.28.42-.84.64-1.25.45-.84.68-1.25.46-.82.7-1.23.48-.81.73-1.21.5-.8.76-1.19.52-.79.78-1.18l.81-1.16c.28-.39.55-.77.84-1.14s.57-.75.86-1.13.59-.73.89-1.1l.91-1.08c.31-.36.62-.71.94-1.06s.63-.7,1-1l1-1c.33-.33.66-.67,1-1l1-1,1-.94c.36-.32.71-.63,1.07-.93l1.09-.9,1.12-.88,1.13-.85,1.15-.82c.38-.27.77-.54,1.17-.8s.78-.52,1.18-.77l1.2-.74q.61-.37,1.23-.72c.4-.24.82-.47,1.23-.69s.83-.45,1.25-.66l1.27-.64,1.28-.6q.64-.3,1.29-.57l1.3-.55,1.32-.52,1.33-.48,1.34-.46c.45-.14.9-.29,1.35-.42l1.36-.4c.45-.13.91-.25,1.37-.36l1.37-.34,1.39-.3,1.38-.27,1.4-.24,1.4-.21,1.4-.17,1.41-.15,1.41-.11,1.41-.08,1.42-.05h2.83l1.41.05,1.41.08,1.42.11,1.4.14,1.41.18,1.4.2,1.39.24,1.39.27,1.38.3,1.38.33L165,89l1.36.39,1.35.43,1.33.45,1.34.49c.44.16.88.34,1.31.51l1.31.55q.65.27,1.29.57l1.28.6,1.27.64c.42.21.84.43,1.25.66s.83.45,1.24.69l1.22.71,1.2.74,1.19.78,1.17.79,1.15.83c.38.28.76.56,1.13.85s.74.57,1.11.87l1.09.9,1.08.92,1,1,1,1c.34.33.68.66,1,1s.66.67,1,1,.65.69,1,1,.63.71.94,1.06.62.72.91,1.09.6.73.89,1.1.58.74.86,1.12.57.76.84,1.14.55.77.81,1.16.53.78.79,1.18.51.79.76,1.19.49.81.73,1.21.47.82.7,1.23l.68,1.24.65,1.26c.21.42.41.85.61,1.28s.4.85.59,1.28.38.87.56,1.3.36.87.53,1.31.34.88.5,1.33.32.88.48,1.33.3.9.44,1.35.28.9.41,1.35.26.91.38,1.36.23.92.35,1.37.21.92.31,1.38.2.93.29,1.39.18.93.26,1.39.15.93.22,1.4.13.93.19,1.4.11.94.16,1.41.09.93.13,1.4.07.95.09,1.42.05.94.07,1.41,0,.94,0,1.41,0,1,0,1.42S210.88,150.93,210.86,151.4Z" transform="translate(-14.66 -7.48)"/><path id="STROKE_37d8925d-8e85-478a-92bb-7055d42fcc82" data-name="STROKE 37d8925d-8e85-478a-92bb-7055d42fcc82" class="cls-52" d="M100.61,23.7l-.18,33.49" transform="translate(-14.66 -7.48)"/><path id="STROKE_9224976f-525d-4089-81a8-00bca6598bfa" data-name="STROKE 9224976f-525d-4089-81a8-00bca6598bfa" class="cls-53" d="M100.29,57l34,.13" transform="translate(-14.66 -7.48)"/><path id="STROKE_841cf55a-b648-45c2-9f06-2559286c2817" data-name="STROKE 841cf55a-b648-45c2-9f06-2559286c2817" class="cls-54" d="M134.25,57.63l-.07-34.49" transform="translate(-14.66 -7.48)"/><path id="STROKE_2415118b-57e5-4a71-86b0-a883c3bce210" data-name="STROKE 2415118b-57e5-4a71-86b0-a883c3bce210" class="cls-55" d="M134.22,23.63,100,23.38" transform="translate(-14.66 -7.48)"/><path id="STROKE_ca2be8a8-8ae1-4629-9f2c-f827e671bdcd" data-name="STROKE ca2be8a8-8ae1-4629-9f2c-f827e671bdcd" class="cls-56" d="M117.25,23.56l.25,33.29" transform="translate(-14.66 -7.48)"/><path id="STROKE_f4c65503-0d7c-4c9e-ae87-3761420d1085" data-name="STROKE f4c65503-0d7c-4c9e-ae87-3761420d1085" class="cls-57" d="M100.93,40.12l32.82.29" transform="translate(-14.66 -7.48)"/><path id="STROKE_f1fec4cb-72b5-4d2e-b93e-f281e666b5ff" data-name="STROKE f1fec4cb-72b5-4d2e-b93e-f281e666b5ff" class="cls-58" d="M108.49,24.11l0,32.68" transform="translate(-14.66 -7.48)"/><path id="STROKE_e8fda8d5-516f-4d1a-b06a-29fc91b4c013" data-name="STROKE e8fda8d5-516f-4d1a-b06a-29fc91b4c013" class="cls-59" d="M125.62,23.55,125.43,57" transform="translate(-14.66 -7.48)"/><path id="STROKE_84589310-c905-46b2-b9cc-09dce2d96150" data-name="STROKE 84589310-c905-46b2-b9cc-09dce2d96150" class="cls-60" d="M100.94,32.26l33,0" transform="translate(-14.66 -7.48)"/><path id="STROKE_83987713-a346-4133-8882-8180dea2ca80" data-name="STROKE 83987713-a346-4133-8882-8180dea2ca80" class="cls-61" d="M100.47,48.53l33.57.15" transform="translate(-14.66 -7.48)"/><path id="STROKE_2eaf1988-7b5f-469d-990e-121ff6a5ca7b" data-name="STROKE 2eaf1988-7b5f-469d-990e-121ff6a5ca7b" class="cls-62" d="M108.8,34.7l2.08-2.16" transform="translate(-14.66 -7.48)"/><path id="STROKE_905b97a9-decd-41e7-83f1-62884a68105e" data-name="STROKE 905b97a9-decd-41e7-83f1-62884a68105e" class="cls-63" d="M108.7,36.89l4.39-4.44" transform="translate(-14.66 -7.48)"/><path id="STROKE_9a9ce45d-7337-4cf7-a9c9-9d3aa0670d34" data-name="STROKE 9a9ce45d-7337-4cf7-a9c9-9d3aa0670d34" class="cls-64" d="M108.72,39l6.15-6.26" transform="translate(-14.66 -7.48)"/><path id="STROKE_fa03a3ac-6b83-41e7-83d7-d96107104308" data-name="STROKE fa03a3ac-6b83-41e7-83d7-d96107104308" class="cls-65" d="M109.85,40.45l7.25-7.66" transform="translate(-14.66 -7.48)"/><path id="STROKE_3121057a-7ae0-40a3-9136-f44a5b7b86cf" data-name="STROKE 3121057a-7ae0-40a3-9136-f44a5b7b86cf" class="cls-66" d="M112,40.32l4.71-5.18" transform="translate(-14.66 -7.48)"/><path id="STROKE_4f2a2e4f-40a2-4512-92c2-a941ccb1b655" data-name="STROKE 4f2a2e4f-40a2-4512-92c2-a941ccb1b655" class="cls-67" d="M114.42,40.24,117,36.93" transform="translate(-14.66 -7.48)"/><path id="STROKE_3ad80da8-a511-4027-aa86-9165a7241cea" data-name="STROKE 3ad80da8-a511-4027-aa86-9165a7241cea" class="cls-68" d="M116.44,39.83l.86-1.08" transform="translate(-14.66 -7.48)"/><path id="STROKE_a13e5214-7386-413a-8a22-c63ed6f38bf2" data-name="STROKE a13e5214-7386-413a-8a22-c63ed6f38bf2" class="cls-69" d="M117.48,34.21l1.88-2.05" transform="translate(-14.66 -7.48)"/><path id="STROKE_d85fc2dd-c930-4dca-9c8c-92b9d20e5b41" data-name="STROKE d85fc2dd-c930-4dca-9c8c-92b9d20e5b41" class="cls-70" d="M117.46,35.87l3.36-3.33" transform="translate(-14.66 -7.48)"/><path id="STROKE_1ddb2238-7131-4cf9-ad93-c8769c7123e8" data-name="STROKE 1ddb2238-7131-4cf9-ad93-c8769c7123e8" class="cls-71" d="M117.57,37.4l4.62-4.6" transform="translate(-14.66 -7.48)"/><path id="STROKE_d3daa50c-43a7-48b9-bade-693d06b537c5" data-name="STROKE d3daa50c-43a7-48b9-bade-693d06b537c5" class="cls-72" d="M117.78,38.86l6.11-6.17" transform="translate(-14.66 -7.48)"/><path id="STROKE_55b3b4cd-0ae4-495b-b3de-a287e2193774" data-name="STROKE 55b3b4cd-0ae4-495b-b3de-a287e2193774" class="cls-73" d="M118.32,39.89l6.77-7.07" transform="translate(-14.66 -7.48)"/><path id="STROKE_791c044c-f577-429f-880d-f260e6eb0277" data-name="STROKE 791c044c-f577-429f-880d-f260e6eb0277" class="cls-74" d="M119.55,40l5.59-5.78" transform="translate(-14.66 -7.48)"/><path id="STROKE_99061f9a-f942-4091-b5b2-5204d6397534" data-name="STROKE 99061f9a-f942-4091-b5b2-5204d6397534" class="cls-75" d="M121.42,40.19l4.28-4.33" transform="translate(-14.66 -7.48)"/><path id="STROKE_fd353c4b-8bb7-4d2c-9da7-7f108735676f" data-name="STROKE fd353c4b-8bb7-4d2c-9da7-7f108735676f" class="cls-76" d="M124.27,39.47l1.49-1.72" transform="translate(-14.66 -7.48)"/><path id="STROKE_3bbb21e2-9e13-46a9-9301-9ed6e3f00a1a" data-name="STROKE 3bbb21e2-9e13-46a9-9301-9ed6e3f00a1a" class="cls-77" d="M108.55,42.32l1.86-1.79" transform="translate(-14.66 -7.48)"/><path id="STROKE_79db6c7f-dafe-4c3e-8e6f-d36f52f09914" data-name="STROKE 79db6c7f-dafe-4c3e-8e6f-d36f52f09914" class="cls-78" d="M108.66,45.11l4-4.22" transform="translate(-14.66 -7.48)"/><path id="STROKE_57a718ce-e110-43e0-8b55-4f26c8a2a5d7" data-name="STROKE 57a718ce-e110-43e0-8b55-4f26c8a2a5d7" class="cls-79" d="M108.68,47.19l6.13-6.38" transform="translate(-14.66 -7.48)"/><path id="STROKE_7af43453-281b-4310-a0bf-475a822ea686" data-name="STROKE 7af43453-281b-4310-a0bf-475a822ea686" class="cls-80" d="M109.15,47.92,116,40.78" transform="translate(-14.66 -7.48)"/><path id="STROKE_3e36b9c8-544f-4879-9c94-bb6edf660c64" data-name="STROKE 3e36b9c8-544f-4879-9c94-bb6edf660c64" class="cls-81" d="M108.6,43.32l3.48-3.1" transform="translate(-14.66 -7.48)"/><path id="STROKE_38e1d45d-8f89-4f97-b1c1-18ae0217ee90" data-name="STROKE 38e1d45d-8f89-4f97-b1c1-18ae0217ee90" class="cls-82" d="M110.18,48,117,41" transform="translate(-14.66 -7.48)"/><path id="STROKE_b9653b57-4a8b-4bf4-8301-992de6ef9e05" data-name="STROKE b9653b57-4a8b-4bf4-8301-992de6ef9e05" class="cls-83" d="M112.3,48.27l5.47-5.88" transform="translate(-14.66 -7.48)"/><path id="STROKE_d140b6a2-f749-439d-aee5-9b49635b90ee" data-name="STROKE d140b6a2-f749-439d-aee5-9b49635b90ee" class="cls-84" d="M114.65,47.89l2.53-2.84" transform="translate(-14.66 -7.48)"/><path id="STROKE_4b846dbe-49a5-40bf-ab30-3682de033670" data-name="STROKE 4b846dbe-49a5-40bf-ab30-3682de033670" class="cls-85" d="M116.38,48.31l1.32-1.84" transform="translate(-14.66 -7.48)"/><path id="STROKE_3bfc827e-cf39-4586-9cb1-404d03dac811" data-name="STROKE 3bfc827e-cf39-4586-9cb1-404d03dac811" class="cls-86" d="M117.9,42.8,120,40.64" transform="translate(-14.66 -7.48)"/><path id="STROKE_f6d1513c-e577-4cc9-8ad1-f1cc0f41f94e" data-name="STROKE f6d1513c-e577-4cc9-8ad1-f1cc0f41f94e" class="cls-87" d="M117.32,45.36l4.78-5.3" transform="translate(-14.66 -7.48)"/><path id="STROKE_fc83d44a-ff87-4047-b29a-fdd23ca65d55" data-name="STROKE fc83d44a-ff87-4047-b29a-fdd23ca65d55" class="cls-88" d="M117.6,47.48l4.93-6.58" transform="translate(-14.66 -7.48)"/><path id="STROKE_c10018f7-a34f-45fd-abcc-b9457e7436f8" data-name="STROKE c10018f7-a34f-45fd-abcc-b9457e7436f8" class="cls-89" d="M117.57,48.52l6.52-7.58" transform="translate(-14.66 -7.48)"/><path id="STROKE_3008d5bb-8824-418d-a16e-f24cee7a0482" data-name="STROKE 3008d5bb-8824-418d-a16e-f24cee7a0482" class="cls-90" d="M119,48.72l6.18-7" transform="translate(-14.66 -7.48)"/><path id="STROKE_64a1a876-6073-4ce2-9998-ecf3bd175eaf" data-name="STROKE 64a1a876-6073-4ce2-9998-ecf3bd175eaf" class="cls-75" d="M121.34,47.73l3.76-4.34" transform="translate(-14.66 -7.48)"/><path id="STROKE_3e0d6de7-5fe5-40c1-b533-fb7cddff0a13" data-name="STROKE 3e0d6de7-5fe5-40c1-b533-fb7cddff0a13" class="cls-91" d="M122.68,48l2.54-3.21" transform="translate(-14.66 -7.48)"/><path id="STROKE_5e9a2f66-67e7-43f5-8071-7017032efd46" data-name="STROKE 5e9a2f66-67e7-43f5-8071-7017032efd46" class="cls-92" d="M124.08,48.2l1.78-1.94" transform="translate(-14.66 -7.48)"/><path id="STROKE_3ffc7d69-d3f4-4ee4-a0c9-863df800c8c7" data-name="STROKE 3ffc7d69-d3f4-4ee4-a0c9-863df800c8c7" class="cls-93" d="M142.76,23.53l-.26,16.85" transform="translate(-14.66 -7.48)"/><path id="STROKE_31c09f21-e17e-436f-be06-69c04d390526" data-name="STROKE 31c09f21-e17e-436f-be06-69c04d390526" class="cls-94" d="M142.37,40.54l8.23.11" transform="translate(-14.66 -7.48)"/><path id="STROKE_28143aa2-8237-4275-8fd2-df2be946465f" data-name="STROKE 28143aa2-8237-4275-8fd2-df2be946465f" class="cls-95" d="M150.77,41l.28-17.59" transform="translate(-14.66 -7.48)"/><path id="STROKE_ed8e5ce5-e147-4f2d-b17b-9c84fea3cf62" data-name="STROKE ed8e5ce5-e147-4f2d-b17b-9c84fea3cf62" class="cls-96" d="M143,36.44l7.51,0" transform="translate(-14.66 -7.48)"/><path id="STROKE_e71673af-e71c-4044-b8f2-5dd2ad5f5f9f" data-name="STROKE e71673af-e71c-4044-b8f2-5dd2ad5f5f9f" class="cls-97" d="M142.65,32l8,0" transform="translate(-14.66 -7.48)"/><path id="STROKE_9e61b346-ad6b-4e37-aca2-6881c568f397" data-name="STROKE 9e61b346-ad6b-4e37-aca2-6881c568f397" class="cls-98" d="M143,32.46l3.77,1.81" transform="translate(-14.66 -7.48)"/><path id="STROKE_e8825632-c280-49c9-8708-128502e81465" data-name="STROKE e8825632-c280-49c9-8708-128502e81465" class="cls-96" d="M146.43,34.56l4.28-2.48" transform="translate(-14.66 -7.48)"/><path id="STROKE_5d4f3ef0-fc0c-4aa8-8f67-466f808fdf6a" data-name="STROKE 5d4f3ef0-fc0c-4aa8-8f67-466f808fdf6a" class="cls-99" d="M143,36.78l4,1.75" transform="translate(-14.66 -7.48)"/><path id="STROKE_08e317b7-8e3c-4ad0-a6f7-9db67bda7712" data-name="STROKE 08e317b7-8e3c-4ad0-a6f7-9db67bda7712" class="cls-100" d="M146.57,38.88l4.12-2.53" transform="translate(-14.66 -7.48)"/><path id="STROKE_fae8750a-804b-418e-b373-5d6d0d99f369" data-name="STROKE fae8750a-804b-418e-b373-5d6d0d99f369" class="cls-101" d="M157.4,41.91c0,.24,0,.49,0,.74l-.06.74c0,.25,0,.5-.07.74s-.05.5-.08.74-.07.5-.11.74-.07.49-.12.74-.09.48-.13.73-.1.48-.16.73-.11.48-.17.72l-.18.72c-.07.24-.13.48-.21.72l-.21.71-.24.71c-.08.23-.16.47-.25.7s-.17.47-.26.7l-.29.69c-.09.23-.19.45-.29.68s-.21.45-.32.67-.21.45-.32.67l-.35.67-.35.65-.38.64c-.12.22-.25.43-.38.64l-.4.63-.42.62-.43.61c-.14.2-.29.4-.44.59s-.3.4-.46.59-.31.39-.47.58l-.48.57c-.16.19-.33.37-.49.55l-.51.55-.52.53-.53.53-.55.51-.55.49-.57.49-.57.47-.59.46-.6.44-.61.43-.61.42-.63.4q-.31.21-.63.39l-.65.38-.65.36-.66.34c-.22.12-.44.23-.67.33l-.67.32-.68.3-.69.28c-.23.1-.46.19-.7.27l-.7.26-.7.23-.71.22-.72.21-.72.19-.73.17L131,73l-.73.13-.73.13-.74.1c-.24,0-.49.07-.74.09l-.74.08-.74,0-.75,0-.74,0H123.6l-.74,0-.75,0-.74-.07-.74-.07-.74-.1-.74-.11-.73-.13-.73-.14-.73-.17-.72-.17-.72-.2-.71-.21L114.1,72l-.71-.25-.7-.25-.69-.28-.69-.29-.67-.3-.68-.32-.66-.34-.66-.35-.65-.36-.64-.39c-.21-.12-.42-.26-.63-.39L106.1,68l-.62-.42-.6-.44-.6-.44-.58-.47-.57-.47-.57-.49-.55-.5c-.18-.17-.36-.34-.53-.52l-.53-.52-.52-.54c-.17-.18-.34-.36-.5-.55s-.33-.37-.49-.56L99,61.53c-.16-.19-.31-.39-.46-.58l-.46-.6c-.15-.19-.29-.39-.44-.6l-.42-.61c-.14-.21-.28-.41-.41-.62s-.27-.42-.4-.63L96,57.25l-.37-.65c-.12-.22-.23-.44-.35-.65l-.34-.67c-.11-.22-.22-.44-.32-.67s-.21-.45-.31-.68-.2-.45-.29-.68-.19-.46-.28-.7l-.26-.69-.24-.71c-.08-.23-.16-.47-.23-.7s-.15-.48-.21-.72-.14-.48-.2-.72l-.18-.72c-.06-.24-.11-.48-.17-.73s-.1-.48-.14-.73-.1-.48-.14-.73-.07-.49-.11-.74-.07-.49-.1-.73,0-.5-.08-.74,0-.5-.06-.75,0-.49,0-.74l0-.74c0-.25,0-.5,0-.75s0-.5,0-.74,0-.5,0-.75l0-.74.06-.75c0-.24,0-.49.07-.74s0-.49.08-.74.07-.49.11-.73S92,35.23,92,35s.08-.49.13-.73.1-.49.16-.73.11-.48.17-.73l.18-.72c.07-.24.13-.48.2-.71s.15-.48.22-.72l.24-.7c.08-.24.16-.47.25-.7s.17-.47.26-.7l.29-.69c.09-.23.19-.46.29-.68s.21-.45.32-.68.21-.45.32-.67.23-.44.35-.66.23-.44.35-.65l.38-.65c.12-.21.25-.42.38-.63s.27-.42.4-.63l.42-.62c.14-.2.28-.41.43-.61l.44-.6.46-.59.47-.57L99.6,19c.16-.19.33-.37.5-.56l.5-.54.52-.54.53-.52.55-.51.55-.5.57-.48.57-.47.59-.46.6-.45.61-.43.61-.41.63-.41.63-.39.65-.37.65-.36.66-.35.67-.33.67-.31c.23-.11.45-.21.68-.3l.69-.29.7-.27.7-.25.7-.24.71-.22.72-.2.72-.19.73-.17.72-.16.74-.14.73-.12.74-.11.74-.09.74-.07.74-.06.74,0c.25,0,.5,0,.75,0h1.49c.25,0,.5,0,.74,0l.75,0,.74.06.74.08.74.1.74.11.73.13.73.14.73.16.72.18.72.2.71.2.71.23.71.24.7.26.69.28.68.29.69.3.67.32.66.34.66.35.65.36.64.38.63.4.63.4.61.43.6.43.6.45.58.46.57.48.57.49.55.5.53.51.53.53.52.54c.17.18.34.36.5.55s.33.37.49.56l.48.57.47.58.45.59.44.6.42.62c.14.2.28.41.41.62s.27.42.4.63l.38.64.37.65c.12.21.24.43.35.65s.23.44.34.67.22.44.32.67.21.45.31.68.2.45.29.68.19.46.28.69.17.47.26.7l.24.7c.08.24.16.48.23.71s.15.48.21.72.14.47.2.71.13.49.18.73.12.48.17.72.1.49.14.73.09.49.14.74.07.49.11.73.07.5.1.74.06.49.08.74l.06.74c0,.25,0,.5,0,.75l0,.74c0,.25,0,.5,0,.75s0,.49,0,.74S157.41,41.66,157.4,41.91Z" transform="translate(-14.66 -7.48)"/><path id="STROKE_651a0017-7367-46af-a6c9-b666d7a1b9f4" data-name="STROKE 651a0017-7367-46af-a6c9-b666d7a1b9f4" class="cls-101" d="M157.4,41.91c0,.24,0,.49,0,.74l-.06.74c0,.25,0,.5-.07.74s-.05.5-.08.74-.07.5-.11.74-.07.49-.12.74-.09.48-.13.73-.1.48-.16.73-.11.48-.17.72l-.18.72c-.07.24-.13.48-.21.72l-.21.71-.24.71c-.08.23-.16.47-.25.7s-.17.47-.26.7l-.29.69c-.09.23-.19.45-.29.68s-.21.45-.32.67-.21.45-.32.67l-.35.67-.35.65-.38.64c-.12.22-.25.43-.38.64l-.4.63-.42.62-.43.61c-.14.2-.29.4-.44.59s-.3.4-.46.59-.31.39-.47.58l-.48.57c-.16.19-.33.37-.49.55l-.51.55-.52.53-.53.53-.55.51-.55.49-.57.49-.57.47-.59.46-.6.44-.61.43-.61.42-.63.4q-.31.21-.63.39l-.65.38-.65.36-.66.34c-.22.12-.44.23-.67.33l-.67.32-.68.3-.69.28c-.23.1-.46.19-.7.27l-.7.26-.7.23-.71.22-.72.21-.72.19-.73.17L131,73l-.73.13-.73.13-.74.1c-.24,0-.49.07-.74.09l-.74.08-.74,0-.75,0-.74,0H123.6l-.74,0-.75,0-.74-.07-.74-.07-.74-.1-.74-.11-.73-.13-.73-.14-.73-.17-.72-.17-.72-.2-.71-.21L114.1,72l-.71-.25-.7-.25-.69-.28-.69-.29-.67-.3-.68-.32-.66-.34-.66-.35-.65-.36-.64-.39c-.21-.12-.42-.26-.63-.39L106.1,68l-.62-.42-.6-.44-.6-.44-.58-.47-.57-.47-.57-.49-.55-.5c-.18-.17-.36-.34-.53-.52l-.53-.52-.52-.54c-.17-.18-.34-.36-.5-.55s-.33-.37-.49-.56L99,61.53c-.16-.19-.31-.39-.46-.58l-.46-.6c-.15-.19-.29-.39-.44-.6l-.42-.61c-.14-.21-.28-.41-.41-.62s-.27-.42-.4-.63L96,57.25l-.37-.65c-.12-.22-.23-.44-.35-.65l-.34-.67c-.11-.22-.22-.44-.32-.67s-.21-.45-.31-.68-.2-.45-.29-.68-.19-.46-.28-.7l-.26-.69-.24-.71c-.08-.23-.16-.47-.23-.7s-.15-.48-.21-.72-.14-.48-.2-.72l-.18-.72c-.06-.24-.11-.48-.17-.73s-.1-.48-.14-.73-.1-.48-.14-.73-.07-.49-.11-.74-.07-.49-.1-.73,0-.5-.08-.74,0-.5-.06-.75,0-.49,0-.74l0-.74c0-.25,0-.5,0-.75s0-.5,0-.74,0-.5,0-.75l0-.74.06-.75c0-.24,0-.49.07-.74s0-.49.08-.74.07-.49.11-.73S92,35.23,92,35s.08-.49.13-.73.1-.49.16-.73.11-.48.17-.73l.18-.72c.07-.24.13-.48.2-.71s.15-.48.22-.72l.24-.7c.08-.24.16-.47.25-.7s.17-.47.26-.7l.29-.69c.09-.23.19-.46.29-.68s.21-.45.32-.68.21-.45.32-.67.23-.44.35-.66.23-.44.35-.65l.38-.65c.12-.21.25-.42.38-.63s.27-.42.4-.63l.42-.62c.14-.2.28-.41.43-.61l.44-.6.46-.59.47-.57L99.6,19c.16-.19.33-.37.5-.56l.5-.54.52-.54.53-.52.55-.51.55-.5.57-.48.57-.47.59-.46.6-.45.61-.43.61-.41.63-.41.63-.39.65-.37.65-.36.66-.35.67-.33.67-.31c.23-.11.45-.21.68-.3l.69-.29.7-.27.7-.25.7-.24.71-.22.72-.2.72-.19.73-.17.72-.16.74-.14.73-.12.74-.11.74-.09.74-.07.74-.06.74,0c.25,0,.5,0,.75,0h1.49c.25,0,.5,0,.74,0l.75,0,.74.06.74.08.74.1.74.11.73.13.73.14.73.16.72.18.72.2.71.2.71.23.71.24.7.26.69.28.68.29.69.3.67.32.66.34.66.35.65.36.64.38.63.4.63.4.61.43.6.43.6.45.58.46.57.48.57.49.55.5.53.51.53.53.52.54c.17.18.34.36.5.55s.33.37.49.56l.48.57.47.58.45.59.44.6.42.62c.14.2.28.41.41.62s.27.42.4.63l.38.64.37.65c.12.21.24.43.35.65s.23.44.34.67.22.44.32.67.21.45.31.68.2.45.29.68.19.46.28.69.17.47.26.7l.24.7c.08.24.16.48.23.71s.15.48.21.72.14.47.2.71.13.49.18.73.12.48.17.72.1.49.14.73.09.49.14.74.07.49.11.73.07.5.1.74.06.49.08.74l.06.74c0,.25,0,.5,0,.75l0,.74c0,.25,0,.5,0,.75s0,.49,0,.74S157.41,41.66,157.4,41.91Z" transform="translate(-14.66 -7.48)"/><path id="STROKE_0c7549d3-11c9-444e-b981-4bb1197a0c97" data-name="STROKE 0c7549d3-11c9-444e-b981-4bb1197a0c97" class="cls-52" d="M24,73.29l-.18,33.49" transform="translate(-14.66 -7.48)"/><path id="STROKE_b39b7e8f-aa3f-45a9-9879-ea8f924074af" data-name="STROKE b39b7e8f-aa3f-45a9-9879-ea8f924074af" class="cls-53" d="M23.66,106.59l34,.13" transform="translate(-14.66 -7.48)"/><path id="STROKE_327a27f2-2de1-45cb-9bd2-d7fc082aff6c" data-name="STROKE 327a27f2-2de1-45cb-9bd2-d7fc082aff6c" class="cls-54" d="M57.63,107.23l-.07-34.49" transform="translate(-14.66 -7.48)"/><path id="STROKE_5e0d89f2-7e1e-49a1-b95f-2f6d359ba597" data-name="STROKE 5e0d89f2-7e1e-49a1-b95f-2f6d359ba597" class="cls-55" d="M57.59,73.23,23.39,73" transform="translate(-14.66 -7.48)"/><path id="STROKE_8b845819-525a-4598-a834-83d899b2ef0f" data-name="STROKE 8b845819-525a-4598-a834-83d899b2ef0f" class="cls-56" d="M40.62,73.16l.25,33.28" transform="translate(-14.66 -7.48)"/><path id="STROKE_f546fc1c-6525-4b27-ba23-34f3d9277a29" data-name="STROKE f546fc1c-6525-4b27-ba23-34f3d9277a29" class="cls-57" d="M24.3,89.72,57.12,90" transform="translate(-14.66 -7.48)"/><path id="STROKE_1607cbcb-c459-43a1-a9fe-a40cbba917ae" data-name="STROKE 1607cbcb-c459-43a1-a9fe-a40cbba917ae" class="cls-58" d="M31.86,73.7l0,32.68" transform="translate(-14.66 -7.48)"/><path id="STROKE_0315ffc4-16dc-403b-9a41-19078a3d7e5e" data-name="STROKE 0315ffc4-16dc-403b-9a41-19078a3d7e5e" class="cls-59" d="M49,73.14l-.19,33.47" transform="translate(-14.66 -7.48)"/><path id="STROKE_a48729a2-e671-4dda-8a4e-345fe206dd11" data-name="STROKE a48729a2-e671-4dda-8a4e-345fe206dd11" class="cls-60" d="M24.31,81.85l33,0" transform="translate(-14.66 -7.48)"/><path id="STROKE_e40d6d8f-47ad-4c97-907e-944bdb368a54" data-name="STROKE e40d6d8f-47ad-4c97-907e-944bdb368a54" class="cls-61" d="M23.84,98.12l33.58.15" transform="translate(-14.66 -7.48)"/><path id="STROKE_4eb1e9b5-9e37-4c24-b082-61063b65ae28" data-name="STROKE 4eb1e9b5-9e37-4c24-b082-61063b65ae28" class="cls-62" d="M32.17,84.29l2.08-2.16" transform="translate(-14.66 -7.48)"/><path id="STROKE_bc21580d-77e6-454f-aafc-3760d46ddda1" data-name="STROKE bc21580d-77e6-454f-aafc-3760d46ddda1" class="cls-63" d="M32.07,86.48,36.46,82" transform="translate(-14.66 -7.48)"/><path id="STROKE_4a574864-1d82-4a95-8627-ac5844fe5d5a" data-name="STROKE 4a574864-1d82-4a95-8627-ac5844fe5d5a" class="cls-64" d="M32.09,88.54l6.15-6.26" transform="translate(-14.66 -7.48)"/><path id="STROKE_b83a4a3f-139e-44a1-be48-dbb6093a4ab0" data-name="STROKE b83a4a3f-139e-44a1-be48-dbb6093a4ab0" class="cls-65" d="M33.22,90l7.25-7.66" transform="translate(-14.66 -7.48)"/><path id="STROKE_859c3fa9-ba9e-4df1-919e-3d2c628c76fd" data-name="STROKE 859c3fa9-ba9e-4df1-919e-3d2c628c76fd" class="cls-66" d="M35.41,89.91l4.71-5.18" transform="translate(-14.66 -7.48)"/><path id="STROKE_1fc838ba-59a3-41d3-b0d3-b149bd41c46a" data-name="STROKE 1fc838ba-59a3-41d3-b0d3-b149bd41c46a" class="cls-67" d="M37.79,89.83l2.62-3.31" transform="translate(-14.66 -7.48)"/><path id="STROKE_16d51efe-3044-498b-91a9-fef4d2778e43" data-name="STROKE 16d51efe-3044-498b-91a9-fef4d2778e43" class="cls-68" d="M39.82,89.42l.85-1.08" transform="translate(-14.66 -7.48)"/><path id="STROKE_3e62ec3f-9a05-4712-b926-efa11f4383cc" data-name="STROKE 3e62ec3f-9a05-4712-b926-efa11f4383cc" class="cls-69" d="M40.85,83.8l1.88-2" transform="translate(-14.66 -7.48)"/><path id="STROKE_ee1b49d3-0bae-41b1-b825-cb2ec9252a44" data-name="STROKE ee1b49d3-0bae-41b1-b825-cb2ec9252a44" class="cls-70" d="M40.83,85.46l3.36-3.33" transform="translate(-14.66 -7.48)"/><path id="STROKE_830d2795-45e0-4333-9ae1-5f090699db06" data-name="STROKE 830d2795-45e0-4333-9ae1-5f090699db06" class="cls-71" d="M40.94,87l4.62-4.6" transform="translate(-14.66 -7.48)"/><path id="STROKE_c8f0387e-2aef-4d8f-90a0-b109a8689dae" data-name="STROKE c8f0387e-2aef-4d8f-90a0-b109a8689dae" class="cls-72" d="M41.15,88.45l6.11-6.17" transform="translate(-14.66 -7.48)"/><path id="STROKE_c53cf018-874f-4024-8394-deb8bd69d561" data-name="STROKE c53cf018-874f-4024-8394-deb8bd69d561" class="cls-73" d="M41.69,89.48l6.77-7.07" transform="translate(-14.66 -7.48)"/><path id="STROKE_b1a4f3fb-293e-4f6a-a2bf-09e8effff331" data-name="STROKE b1a4f3fb-293e-4f6a-a2bf-09e8effff331" class="cls-74" d="M42.92,89.62l5.59-5.78" transform="translate(-14.66 -7.48)"/><path id="STROKE_8977a122-6d1d-4728-8045-cc6cd62d3d52" data-name="STROKE 8977a122-6d1d-4728-8045-cc6cd62d3d52" class="cls-75" d="M44.79,89.78l4.28-4.33" transform="translate(-14.66 -7.48)"/><path id="STROKE_d9ee5cdb-3c05-4455-8940-f51e3a56a298" data-name="STROKE d9ee5cdb-3c05-4455-8940-f51e3a56a298" class="cls-76" d="M47.65,89.06l1.49-1.72" transform="translate(-14.66 -7.48)"/><path id="STROKE_a1046083-0290-493f-9f86-6520568ae611" data-name="STROKE a1046083-0290-493f-9f86-6520568ae611" class="cls-77" d="M31.92,91.91l1.87-1.79" transform="translate(-14.66 -7.48)"/><path id="STROKE_b269a298-921c-4c60-a5fe-33bd089d2a1f" data-name="STROKE b269a298-921c-4c60-a5fe-33bd089d2a1f" class="cls-78" d="M32,94.7l4-4.22" transform="translate(-14.66 -7.48)"/><path id="STROKE_cdeb7d2c-a6bc-4aa9-bbf9-c691af54e590" data-name="STROKE cdeb7d2c-a6bc-4aa9-bbf9-c691af54e590" class="cls-79" d="M32.05,96.78l6.14-6.38" transform="translate(-14.66 -7.48)"/><path id="STROKE_e2ddec81-04c3-4429-b2fc-1a0f1500635e" data-name="STROKE e2ddec81-04c3-4429-b2fc-1a0f1500635e" class="cls-80" d="M32.52,97.51l6.83-7.14" transform="translate(-14.66 -7.48)"/><path id="STROKE_7d79f7d1-cdc0-4146-b871-f60dcea4ad4d" data-name="STROKE 7d79f7d1-cdc0-4146-b871-f60dcea4ad4d" class="cls-81" d="M32,92.91l3.48-3.1" transform="translate(-14.66 -7.48)"/><path id="STROKE_bf363a07-2e8b-4008-82d3-2d3f0b8d1d59" data-name="STROKE bf363a07-2e8b-4008-82d3-2d3f0b8d1d59" class="cls-82" d="M33.55,97.57l6.82-6.95" transform="translate(-14.66 -7.48)"/><path id="STROKE_89753063-ff2d-4e93-86ae-4664e84994ba" data-name="STROKE 89753063-ff2d-4e93-86ae-4664e84994ba" class="cls-83" d="M35.68,97.86,41.15,92" transform="translate(-14.66 -7.48)"/><path id="STROKE_8fcb8b17-4499-4997-9c41-584898e1e5fb" data-name="STROKE 8fcb8b17-4499-4997-9c41-584898e1e5fb" class="cls-84" d="M38,97.48l2.53-2.83" transform="translate(-14.66 -7.48)"/><path id="STROKE_f0774044-9cbd-4bc6-8eb0-239137dbcd93" data-name="STROKE f0774044-9cbd-4bc6-8eb0-239137dbcd93" class="cls-85" d="M39.75,97.9l1.32-1.84" transform="translate(-14.66 -7.48)"/><path id="STROKE_b2bdcafc-f3be-45c8-8346-60f98f8e2f2a" data-name="STROKE b2bdcafc-f3be-45c8-8346-60f98f8e2f2a" class="cls-86" d="M41.27,92.39l2.07-2.16" transform="translate(-14.66 -7.48)"/><path id="STROKE_810d48b2-3935-4c88-80ae-8133d7c7ea15" data-name="STROKE 810d48b2-3935-4c88-80ae-8133d7c7ea15" class="cls-87" d="M40.69,95l4.79-5.3" transform="translate(-14.66 -7.48)"/><path id="STROKE_1ffa6167-ea3c-4836-aaae-042e3afd9f30" data-name="STROKE 1ffa6167-ea3c-4836-aaae-042e3afd9f30" class="cls-88" d="M41,97.07l4.93-6.58" transform="translate(-14.66 -7.48)"/><path id="STROKE_5403cea8-70a7-4a70-8673-54386a3087e6" data-name="STROKE 5403cea8-70a7-4a70-8673-54386a3087e6" class="cls-89" d="M40.94,98.11l6.53-7.58" transform="translate(-14.66 -7.48)"/><path id="STROKE_b6d3c81b-b82a-45e1-88ae-d5a524067602" data-name="STROKE b6d3c81b-b82a-45e1-88ae-d5a524067602" class="cls-90" d="M42.36,98.31l6.19-7" transform="translate(-14.66 -7.48)"/><path id="STROKE_b34a7f20-4d92-4058-853e-6e5cb67be25e" data-name="STROKE b34a7f20-4d92-4058-853e-6e5cb67be25e" class="cls-75" d="M44.71,97.32,48.48,93" transform="translate(-14.66 -7.48)"/><path id="STROKE_36fc0201-0ebf-4cd8-ade3-8ae9836e3605" data-name="STROKE 36fc0201-0ebf-4cd8-ade3-8ae9836e3605" class="cls-91" d="M46.06,97.54l2.53-3.21" transform="translate(-14.66 -7.48)"/><path id="STROKE_9671d8fd-e543-4066-bcca-9089974f0fd2" data-name="STROKE 9671d8fd-e543-4066-bcca-9089974f0fd2" class="cls-92" d="M47.45,97.79l1.78-1.94" transform="translate(-14.66 -7.48)"/><path id="STROKE_8abde704-5297-491e-9055-65dbdd372265" data-name="STROKE 8abde704-5297-491e-9055-65dbdd372265" class="cls-93" d="M66.13,73.12,65.87,90" transform="translate(-14.66 -7.48)"/><path id="STROKE_d1d7f68d-e32d-4cdc-ae25-fadfc5151dde" data-name="STROKE d1d7f68d-e32d-4cdc-ae25-fadfc5151dde" class="cls-94" d="M65.74,90.13l8.23.11" transform="translate(-14.66 -7.48)"/><path id="STROKE_766049c4-be95-46de-a9c2-01bc2adce9ea" data-name="STROKE 766049c4-be95-46de-a9c2-01bc2adce9ea" class="cls-95" d="M74.15,90.59,74.42,73" transform="translate(-14.66 -7.48)"/><path id="STROKE_77d396ae-730e-4b19-89fd-4fc2e81b8560" data-name="STROKE 77d396ae-730e-4b19-89fd-4fc2e81b8560" class="cls-96" d="M66.35,86l7.51,0" transform="translate(-14.66 -7.48)"/><path id="STROKE_5c38371c-bc3d-4a88-99e9-951a201fa316" data-name="STROKE 5c38371c-bc3d-4a88-99e9-951a201fa316" class="cls-97" d="M66,81.57l8,0" transform="translate(-14.66 -7.48)"/><path id="STROKE_9a19dc39-6a5d-40ab-bda6-5c8da21de437" data-name="STROKE 9a19dc39-6a5d-40ab-bda6-5c8da21de437" class="cls-98" d="M66.35,82.05l3.77,1.81" transform="translate(-14.66 -7.48)"/><path id="STROKE_89ba8b76-e25f-4425-8569-e80b21f74a7f" data-name="STROKE 89ba8b76-e25f-4425-8569-e80b21f74a7f" class="cls-96" d="M69.8,84.15l4.29-2.48" transform="translate(-14.66 -7.48)"/><path id="STROKE_913314eb-f8e2-4871-98a7-25a19dabb76a" data-name="STROKE 913314eb-f8e2-4871-98a7-25a19dabb76a" class="cls-99" d="M66.33,86.37l4,1.75" transform="translate(-14.66 -7.48)"/><path id="STROKE_01a87721-e64a-4c8d-a1fe-44eb4af9a5a3" data-name="STROKE 01a87721-e64a-4c8d-a1fe-44eb4af9a5a3" class="cls-100" d="M69.94,88.47l4.12-2.53" transform="translate(-14.66 -7.48)"/><path id="STROKE_8bcedcaf-ab5b-4da1-8fde-3714e37beac3" data-name="STROKE 8bcedcaf-ab5b-4da1-8fde-3714e37beac3" class="cls-101" d="M80.77,91.5c0,.24,0,.49,0,.74s0,.49,0,.74,0,.5-.07.74l-.09.74c0,.25-.07.5-.11.74s-.07.49-.11.74-.09.48-.14.73L80,97.4c-.06.24-.12.48-.17.72s-.13.48-.19.72-.13.48-.2.72-.15.48-.22.71L79,101c-.08.23-.16.47-.25.7s-.17.47-.26.7l-.28.69-.3.68c-.1.23-.21.45-.31.68l-.33.66c-.11.23-.23.45-.35.67l-.35.65c-.12.22-.25.43-.38.64s-.25.43-.38.64l-.4.63-.42.62-.43.6c-.14.21-.29.41-.44.6s-.3.4-.46.59-.31.39-.47.58-.32.38-.48.57l-.49.56-.51.54-.52.53-.53.53-.55.51-.55.49-.57.49-.57.47-.59.46-.6.44-.61.43c-.2.15-.4.28-.61.42l-.63.4q-.31.21-.63.39l-.65.38-.65.36-.66.34-.67.34-.67.31-.68.3-.69.28q-.34.15-.69.27l-.71.26-.7.23-.71.22-.72.21-.72.19-.73.17-.72.16-.73.14-.74.12-.74.1c-.24,0-.49.07-.74.09l-.74.08-.74,0-.74,0-.75,0H47l-.74,0-.75,0-.74-.07L44,123l-.74-.1-.73-.11-.74-.13-.73-.14-.73-.17-.72-.17-.72-.2-.71-.21-.71-.22-.71-.25-.7-.26c-.23-.08-.46-.18-.69-.27l-.68-.29-.68-.3-.68-.32-.66-.34-.66-.35-.65-.37-.64-.37-.63-.4-.62-.41-.62-.42-.6-.44q-.3-.21-.6-.45l-.58-.46-.57-.47-.56-.49-.55-.5c-.19-.17-.37-.34-.54-.52l-.53-.52-.52-.54-.5-.55c-.17-.18-.33-.37-.49-.56l-.48-.57c-.16-.19-.31-.39-.46-.58l-.46-.59c-.14-.2-.29-.4-.43-.61s-.29-.4-.43-.61l-.41-.62-.4-.63-.38-.64-.36-.65c-.13-.22-.24-.44-.36-.66l-.34-.66c-.11-.22-.21-.44-.32-.67s-.21-.45-.31-.68l-.29-.68c-.09-.23-.19-.46-.28-.7l-.26-.69-.24-.71c-.08-.23-.16-.47-.23-.71l-.21-.71c-.07-.24-.14-.48-.2-.72l-.18-.72c-.06-.24-.11-.48-.16-.73s-.11-.48-.15-.73-.09-.48-.13-.73L15.22,95c0-.25-.07-.5-.1-.74s0-.5-.08-.74L15,92.73c0-.24,0-.49-.05-.74l0-.74c0-.25,0-.5,0-.75s0-.5,0-.74,0-.5,0-.75l0-.74.06-.75c0-.24,0-.49.07-.74s0-.49.08-.74.07-.49.11-.73.07-.49.12-.74.09-.49.14-.73.09-.49.15-.73.11-.48.17-.73l.18-.72.21-.71.21-.71.24-.71c.08-.24.16-.47.25-.7s.17-.47.27-.7.18-.46.28-.69.19-.46.29-.68l.32-.68c.1-.22.21-.45.33-.67s.22-.44.34-.66.23-.44.36-.65l.37-.65c.13-.21.25-.42.39-.63s.26-.42.4-.63.27-.41.41-.62l.43-.61.44-.6.46-.59.47-.57.48-.57c.16-.19.33-.37.5-.56l.5-.54.52-.54.54-.52.54-.51.55-.49.57-.49c.19-.16.38-.32.58-.47l.58-.46.6-.45.61-.43.61-.41.63-.41.64-.39.64-.37.65-.36.66-.35.67-.33.67-.31.69-.3.68-.29.7-.27.7-.25.71-.24.71-.22.71-.2.72-.19.73-.17.73-.16.73-.14.73-.12.74-.11.74-.09.74-.07.74-.06.75,0,.74,0h1.49q.38,0,.75,0l.74,0,.74.06.74.08.74.1.74.11.73.13.73.14.73.16.72.18.72.19.71.22.71.22.71.25.7.25.69.28L61,60l.68.3.67.32L63,61l.66.35.65.36.64.38.63.4.63.4.61.43.6.43.6.45.58.46.58.48.56.49.55.5.54.51.53.53.51.54c.17.18.34.36.5.55s.33.37.49.56.33.38.48.57l.47.58.45.59.44.6.42.62c.14.2.28.41.41.62s.27.42.4.63.26.42.38.64.25.43.37.65.24.43.35.65.23.44.34.67.22.44.32.67.21.45.31.68.2.45.29.68.19.46.28.69.17.47.26.7l.24.7c.08.24.16.48.23.71s.15.48.22.72.13.47.19.71.13.49.18.73.12.48.17.72l.15.73c0,.25.09.49.13.74s.08.49.11.73.07.5.1.74.06.5.08.74,0,.5.07.74,0,.5,0,.75,0,.49,0,.74,0,.5,0,.75,0,.49,0,.74S80.78,91.25,80.77,91.5Z" transform="translate(-14.66 -7.48)"/><path id="STROKE_845c5fbc-b8c4-4115-87ec-4cc11eed7f63" data-name="STROKE 845c5fbc-b8c4-4115-87ec-4cc11eed7f63" class="cls-101" d="M80.77,91.5c0,.24,0,.49,0,.74s0,.49,0,.74,0,.5-.07.74l-.09.74c0,.25-.07.5-.11.74s-.07.49-.11.74-.09.48-.14.73L80,97.4c-.06.24-.12.48-.17.72s-.13.48-.19.72-.13.48-.2.72-.15.48-.22.71L79,101c-.08.23-.16.47-.25.7s-.17.47-.26.7l-.28.69-.3.68c-.1.23-.21.45-.31.68l-.33.66c-.11.23-.23.45-.35.67l-.35.65c-.12.22-.25.43-.38.64s-.25.43-.38.64l-.4.63-.42.62-.43.6c-.14.21-.29.41-.44.6s-.3.4-.46.59-.31.39-.47.58-.32.38-.48.57l-.49.56-.51.54-.52.53-.53.53-.55.51-.55.49-.57.49-.57.47-.59.46-.6.44-.61.43c-.2.15-.4.28-.61.42l-.63.4q-.31.21-.63.39l-.65.38-.65.36-.66.34-.67.34-.67.31-.68.3-.69.28q-.34.15-.69.27l-.71.26-.7.23-.71.22-.72.21-.72.19-.73.17-.72.16-.73.14-.74.12-.74.1c-.24,0-.49.07-.74.09l-.74.08-.74,0-.74,0-.75,0H47l-.74,0-.75,0-.74-.07L44,123l-.74-.1-.73-.11-.74-.13-.73-.14-.73-.17-.72-.17-.72-.2-.71-.21-.71-.22-.71-.25-.7-.26c-.23-.08-.46-.18-.69-.27l-.68-.29-.68-.3-.68-.32-.66-.34-.66-.35-.65-.37-.64-.37-.63-.4-.62-.41-.62-.42-.6-.44q-.3-.21-.6-.45l-.58-.46-.57-.47-.56-.49-.55-.5c-.19-.17-.37-.34-.54-.52l-.53-.52-.52-.54-.5-.55c-.17-.18-.33-.37-.49-.56l-.48-.57c-.16-.19-.31-.39-.46-.58l-.46-.59c-.14-.2-.29-.4-.43-.61s-.29-.4-.43-.61l-.41-.62-.4-.63-.38-.64-.36-.65c-.13-.22-.24-.44-.36-.66l-.34-.66c-.11-.22-.21-.44-.32-.67s-.21-.45-.31-.68l-.29-.68c-.09-.23-.19-.46-.28-.7l-.26-.69-.24-.71c-.08-.23-.16-.47-.23-.71l-.21-.71c-.07-.24-.14-.48-.2-.72l-.18-.72c-.06-.24-.11-.48-.16-.73s-.11-.48-.15-.73-.09-.48-.13-.73L15.22,95c0-.25-.07-.5-.1-.74s0-.5-.08-.74L15,92.73c0-.24,0-.49-.05-.74l0-.74c0-.25,0-.5,0-.75s0-.5,0-.74,0-.5,0-.75l0-.74.06-.75c0-.24,0-.49.07-.74s0-.49.08-.74.07-.49.11-.73.07-.49.12-.74.09-.49.14-.73.09-.49.15-.73.11-.48.17-.73l.18-.72.21-.71.21-.71.24-.71c.08-.24.16-.47.25-.7s.17-.47.27-.7.18-.46.28-.69.19-.46.29-.68l.32-.68c.1-.22.21-.45.33-.67s.22-.44.34-.66.23-.44.36-.65l.37-.65c.13-.21.25-.42.39-.63s.26-.42.4-.63.27-.41.41-.62l.43-.61.44-.6.46-.59.47-.57.48-.57c.16-.19.33-.37.5-.56l.5-.54.52-.54.54-.52.54-.51.55-.49.57-.49c.19-.16.38-.32.58-.47l.58-.46.6-.45.61-.43.61-.41.63-.41.64-.39.64-.37.65-.36.66-.35.67-.33.67-.31.69-.3.68-.29.7-.27.7-.25.71-.24.71-.22.71-.2.72-.19.73-.17.73-.16.73-.14.73-.12.74-.11.74-.09.74-.07.74-.06.75,0,.74,0h1.49q.38,0,.75,0l.74,0,.74.06.74.08.74.1.74.11.73.13.73.14.73.16.72.18.72.19.71.22.71.22.71.25.7.25.69.28L61,60l.68.3.67.32L63,61l.66.35.65.36.64.38.63.4.63.4.61.43.6.43.6.45.58.46.58.48.56.49.55.5.54.51.53.53.51.54c.17.18.34.36.5.55s.33.37.49.56.33.38.48.57l.47.58.45.59.44.6.42.62c.14.2.28.41.41.62s.27.42.4.63.26.42.38.64.25.43.37.65.24.43.35.65.23.44.34.67.22.44.32.67.21.45.31.68.2.45.29.68.19.46.28.69.17.47.26.7l.24.7c.08.24.16.48.23.71s.15.48.22.72.13.47.19.71.13.49.18.73.12.48.17.72l.15.73c0,.25.09.49.13.74s.08.49.11.73.07.5.1.74.06.5.08.74,0,.5.07.74,0,.5,0,.75,0,.49,0,.74,0,.5,0,.75,0,.49,0,.74S80.78,91.25,80.77,91.5Z" transform="translate(-14.66 -7.48)"/><path id="STROKE_064db737-5ea0-477c-93b7-973f7c9978a3" data-name="STROKE 064db737-5ea0-477c-93b7-973f7c9978a3" class="cls-102" d="M77.35,107.78,92.56,116" transform="translate(-14.66 -7.48)"/><path id="STROKE_e3bc8859-4b94-4d13-94ff-d970c7752511" data-name="STROKE e3bc8859-4b94-4d13-94ff-d970c7752511" class="cls-103" d="M133.68,72.68l1.51,14.81" transform="translate(-14.66 -7.48)"/><path id="STROKE_99ccb7ac-9331-4ede-93f6-60af4ac50b45" data-name="STROKE 99ccb7ac-9331-4ede-93f6-60af4ac50b45" class="cls-104" d="M74.27,68.87,93.14,55.55" transform="translate(-14.66 -7.48)"/></svg>