<svg id="Layer_1" data-name="Layer 1" xmlns="http://www.w3.org/2000/svg" viewBox="0 0 15.25 138.7"><defs><style>.cls-1,.cls-2,.cls-3{fill:none;stroke:#fff000;stroke-linecap:round;stroke-linejoin:round;isolation:isolate;opacity:0.75;}.cls-1{stroke-width:1.42px;}.cls-2{stroke-width:1.48px;}.cls-3{stroke-width:1.33px;}</style></defs><path id="STROKE_2e289b38-e6a5-42d3-9f08-ba2995feaa31" data-name="STROKE 2e289b38-e6a5-42d3-9f08-ba2995feaa31" class="cls-1" d="M107.3,83.17l.13-.06a.84.84,0,0,1,.56.09,1.67,1.67,0,0,1,.64.64,6,6,0,0,1,.57,1.22,3,3,0,0,1,0,2.09,2.23,2.23,0,0,1-.54.7,3.32,3.32,0,0,1-1.52.61,9.26,9.26,0,0,1-2.62.06,19.89,19.89,0,0,1-2.82-.44,12.41,12.41,0,0,1-2.21-.74,12.09,12.09,0,0,1-1.71-1,6,6,0,0,1-1.21-1,4.09,4.09,0,0,1-.55-.81,2.83,2.83,0,0,1-.2-.64,1.19,1.19,0,0,1,0-.57,1.4,1.4,0,0,1,.19-.41,1.06,1.06,0,0,1,.66-.3,1.81,1.81,0,0,1,.83,0,1.78,1.78,0,0,1,.48.22,1.57,1.57,0,0,1,.38.5,3.84,3.84,0,0,1,.27,1.49A4.61,4.61,0,0,1,98.33,87a7.77,7.77,0,0,1-1,1.76,4.5,4.5,0,0,0-.68,1.14,2.62,2.62,0,0,0-.15.63" transform="translate(-95.13 -81.84)"/><path id="STROKE_f3847b7b-6e0b-4cfc-b930-6c7e1b1dda09" data-name="STROKE f3847b7b-6e0b-4cfc-b930-6c7e1b1dda09" class="cls-2" d="M107.31,149.68a5,5,0,0,1,.46-1c.12-.06.37,0,.76.28a2.44,2.44,0,0,1,.77.69,2.27,2.27,0,0,1,.28.74,2.17,2.17,0,0,1,0,.75c0,.23-.07.41-.1.56a2.31,2.31,0,0,1-.42.7,2.18,2.18,0,0,1-1.16.73,5.3,5.3,0,0,1-1.4.26,10,10,0,0,1-1.67-.15,7.92,7.92,0,0,1-1.88-.49,5.47,5.47,0,0,1-1.42-.83,4.26,4.26,0,0,1-.94-1,4.35,4.35,0,0,1-.41-.84,2.66,2.66,0,0,1-.06-.73,1.18,1.18,0,0,1,.13-.63.58.58,0,0,1,.27-.27.71.71,0,0,1,.28-.06h.21l.22.07c.1,0,.24.35.41,1a10.94,10.94,0,0,1,.36,2.23,19.34,19.34,0,0,1,0,2.52,6.65,6.65,0,0,1-.26,1.87c-.14.41-.25.71-.32.87" transform="translate(-95.13 -81.84)"/><path id="STROKE_aa6f6168-ec8d-4e41-9645-d0ede5112ab0" data-name="STROKE aa6f6168-ec8d-4e41-9645-d0ede5112ab0" class="cls-3" d="M106.62,213.21a2.27,2.27,0,0,1,.39-.37,1.61,1.61,0,0,1,.49-.11,1.26,1.26,0,0,1,.74.13,1.38,1.38,0,0,1,.52.41,2.06,2.06,0,0,1,.29.72,2.65,2.65,0,0,1,0,1.06,4.22,4.22,0,0,1-.18.81,3.53,3.53,0,0,1-.57.78,3.92,3.92,0,0,1-1.15.92,6.31,6.31,0,0,1-1.28.51,4.89,4.89,0,0,1-1.59.09,6.27,6.27,0,0,1-1.62-.32,5.85,5.85,0,0,1-1-.47,3.81,3.81,0,0,1-.82-.75,5.48,5.48,0,0,1-.72-1,3.79,3.79,0,0,1-.38-1.24,3.13,3.13,0,0,1,0-1.27,1,1,0,0,1,.33-.6,1,1,0,0,1,.41-.14,1.14,1.14,0,0,1,.37,0,.91.91,0,0,1,.35.23,1.22,1.22,0,0,1,.27.38c0,.13.12.38.22.73a8.94,8.94,0,0,1,0,2.23,13,13,0,0,1-.85,3.66v.25" transform="translate(-95.13 -81.84)"/></svg>