<svg id="Layer_1" data-name="Layer 1" xmlns="http://www.w3.org/2000/svg" viewBox="0 0 12.53 136.54"><defs><style>.cls-1,.cls-2,.cls-3{fill:none;stroke:#fff000;stroke-linecap:round;stroke-linejoin:round;isolation:isolate;opacity:0.75;}.cls-1{stroke-width:1.22px;}.cls-2{stroke-width:1.19px;}.cls-3{stroke-width:1.14px;}</style></defs><path id="STROKE_4e0a3ad1-8f88-4b8a-864c-8e3d378d3ebf" data-name="STROKE 4e0a3ad1-8f88-4b8a-864c-8e3d378d3ebf" class="cls-1" d="M16.13,88s.19-1.11.54-3.26c0,0-1.68,0-5,0a2,2,0,0,0,.25.37,6.24,6.24,0,0,1,.5.93,2.18,2.18,0,0,1,.22,1.07,1.12,1.12,0,0,1-.48.77,2.53,2.53,0,0,1-1,.46,3.11,3.11,0,0,1-1.32,0,2.12,2.12,0,0,1-1.1-.63,6.78,6.78,0,0,1-.6-.76,4.43,4.43,0,0,1-.31-1.21,2.4,2.4,0,0,1,.61-1.88l.38.06" transform="translate(-7.11 -83.24)"/><path id="STROKE_90fb218c-2d0f-4181-8ddb-a38237424c50" data-name="STROKE 90fb218c-2d0f-4181-8ddb-a38237424c50" class="cls-2" d="M16.25,152.62a8.3,8.3,0,0,1,.29-1.3c.21-.82.48-1.95.81-3.38l-.21-.16s-1.38-.06-4.13-.07c-.1,0-.06.14.14.42a7.82,7.82,0,0,1,.5.81,2.71,2.71,0,0,1,.24.57,2.54,2.54,0,0,1,0,.34,1.35,1.35,0,0,1,0,.22,2.6,2.6,0,0,1,0,.28,1.43,1.43,0,0,1-.39.59,2.11,2.11,0,0,1-.9.57,4,4,0,0,1-.95.2,1.47,1.47,0,0,1-.87-.26,3.41,3.41,0,0,1-.75-.64,3.35,3.35,0,0,1-.55-1.08,3.6,3.6,0,0,1-.22-1.42,1.33,1.33,0,0,1,.39-1l.32.13" transform="translate(-7.11 -83.24)"/><path id="STROKE_c21bc1ee-a02d-4a90-a634-940567831c50" data-name="STROKE c21bc1ee-a02d-4a90-a634-940567831c50" class="cls-3" d="M18,219.21a3.63,3.63,0,0,0,.29-.65c0-.07.29-1.54.81-4.42-.11-.1-.18-.19-.18-.25a24.69,24.69,0,0,0-3.29,1c-.05.06-.06.22,0,.47s.07.51.1.78a2.24,2.24,0,0,1,0,.69,1.52,1.52,0,0,1-.13.46.61.61,0,0,1-.12.19.44.44,0,0,0-.08.11,2.27,2.27,0,0,1-.53.35,2.44,2.44,0,0,1-1.1.32,2.64,2.64,0,0,1-.88-.06,1.64,1.64,0,0,1-.33-.13s-.26-.22-.65-.59a2.31,2.31,0,0,1-.71-1.22,3.3,3.3,0,0,1,0-1.21.87.87,0,0,1,.64-.7l.38.13" transform="translate(-7.11 -83.24)"/></svg>