<svg id="Layer_1" data-name="Layer 1" xmlns="http://www.w3.org/2000/svg" viewBox="0 0 14.99 9.34"><defs><style>.cls-1{fill:none;stroke:#fff000;stroke-linecap:round;stroke-linejoin:round;stroke-width:1.42px;isolation:isolate;opacity:0.75;}</style></defs><path id="STROKE_2e289b38-e6a5-42d3-9f08-ba2995feaa31" data-name="STROKE 2e289b38-e6a5-42d3-9f08-ba2995feaa31" class="cls-1" d="M107.3,83.17l.13-.06a.84.84,0,0,1,.56.09,1.67,1.67,0,0,1,.64.64,6,6,0,0,1,.57,1.22,3,3,0,0,1,0,2.09,2.23,2.23,0,0,1-.54.7,3.32,3.32,0,0,1-1.52.61,9.26,9.26,0,0,1-2.62.06,19.89,19.89,0,0,1-2.82-.44,12.41,12.41,0,0,1-2.21-.74,12.09,12.09,0,0,1-1.71-1,6,6,0,0,1-1.21-1,4.09,4.09,0,0,1-.55-.81,2.83,2.83,0,0,1-.2-.64,1.19,1.19,0,0,1,0-.57,1.4,1.4,0,0,1,.19-.41,1.06,1.06,0,0,1,.66-.3,1.81,1.81,0,0,1,.83,0,1.78,1.78,0,0,1,.48.22,1.57,1.57,0,0,1,.38.5,3.84,3.84,0,0,1,.27,1.49A4.61,4.61,0,0,1,98.33,87a7.77,7.77,0,0,1-1,1.76,4.5,4.5,0,0,0-.68,1.14,2.62,2.62,0,0,0-.15.63" transform="translate(-95.13 -81.84)"/></svg>