<svg id="Layer_1" data-name="Layer 1" xmlns="http://www.w3.org/2000/svg" viewBox="0 0 15.02 140.98"><defs><style>.cls-1,.cls-2,.cls-3{fill:none;stroke:#fff000;stroke-linecap:round;stroke-linejoin:round;isolation:isolate;opacity:0.75;}.cls-1{stroke-width:1.23px;}.cls-2{stroke-width:1.29px;}.cls-3{stroke-width:1.38px;}</style></defs><path id="STROKE_888cea83-f515-4384-bacb-2ece43d2305a" data-name="STROKE 888cea83-f515-4384-bacb-2ece43d2305a" class="cls-1" d="M153.5,86c-.17-.28-.34-.54-.51-.8a5,5,0,0,1-.35-.61,2.46,2.46,0,0,1-.16-.48,1.78,1.78,0,0,1,0-.43c0-.12,0-.28.08-.5a1.29,1.29,0,0,1,.32-.58,2.7,2.7,0,0,1,.7-.51,4.06,4.06,0,0,1,1.55-.35,9.25,9.25,0,0,1,1.8,0c.46,0,.83.1,1.1.15a7.62,7.62,0,0,1,.79.2,6.19,6.19,0,0,1,1.32.7,7.46,7.46,0,0,1,1.52,1.2,3.34,3.34,0,0,1,.82,1.36,4.35,4.35,0,0,1,.19,1.28,3.13,3.13,0,0,1-.28,1.11A3.5,3.5,0,0,1,161.08,89a7.23,7.23,0,0,1-2,1,7.39,7.39,0,0,1-1.6.37c-.42,0-.73.06-.91.06a9.94,9.94,0,0,1-1-.09,5.59,5.59,0,0,1-1.34-.31A5.24,5.24,0,0,1,153,89.3a3.17,3.17,0,0,1-1-1.38,5.19,5.19,0,0,1-.4-1.56,9.2,9.2,0,0,1,0-1.47,4.32,4.32,0,0,1,.29-1.3,3.12,3.12,0,0,1,.4-.74,1.19,1.19,0,0,1,.39-.33.54.54,0,0,1,.45,0l.36.17" transform="translate(-148.22 -81.07)"/><path id="STROKE_80c872ac-fb0f-4ae4-a2cc-99384d09b548" data-name="STROKE 80c872ac-fb0f-4ae4-a2cc-99384d09b548" class="cls-2" d="M152.33,150.36l0-.26a1.25,1.25,0,0,1,0-.38,1.69,1.69,0,0,1,.1-.55.87.87,0,0,1,.22-.34l.13-.12.19-.12a7.79,7.79,0,0,1,1.1-.4,7,7,0,0,1,2.43-.22,12.61,12.61,0,0,1,2.25.25,4,4,0,0,1,1.2.43,4.49,4.49,0,0,1,.72.53,4.9,4.9,0,0,1,.72.87,3.29,3.29,0,0,1,.47,1.75,8.56,8.56,0,0,1,0,1.76,3.67,3.67,0,0,1-.64,1.42,4.47,4.47,0,0,1-1.27,1.29,8.34,8.34,0,0,1-1.69.85,8.13,8.13,0,0,1-2.12.46,5.82,5.82,0,0,1-2.37-.33,9.19,9.19,0,0,1-1.64-.71,5.28,5.28,0,0,1-.9-.81,3.47,3.47,0,0,1-.73-1.23,4.47,4.47,0,0,1-.25-1.53,10.24,10.24,0,0,1,.14-1.66,5.73,5.73,0,0,1,.29-1.16,1.44,1.44,0,0,1,.56-.61,2.51,2.51,0,0,1,1.43-.21" transform="translate(-148.22 -81.07)"/><path id="STROKE_5a69062f-f22c-4aca-b5c7-b1607dc2b5e7" data-name="STROKE 5a69062f-f22c-4aca-b5c7-b1607dc2b5e7" class="cls-3" d="M151.83,214.3c0-.05,0-.17-.07-.35a2.43,2.43,0,0,1,0-.61,1.17,1.17,0,0,1,.28-.65,2.54,2.54,0,0,1,1-.58,5.14,5.14,0,0,1,1.3-.33,6.58,6.58,0,0,1,1.18,0,14.63,14.63,0,0,1,1.5.19,10.67,10.67,0,0,1,1.62.39,5.71,5.71,0,0,1,2.8,2.29,5.85,5.85,0,0,1,.61,1.28,5.29,5.29,0,0,1,.16,1.39,6.68,6.68,0,0,1-.12,1.47,2.43,2.43,0,0,1-.33.84,2.78,2.78,0,0,1-.42.48,3.1,3.1,0,0,1-.36.3l-.45.27a7.1,7.1,0,0,1-1.33.46,8.42,8.42,0,0,1-2.41.22,9.9,9.9,0,0,1-2.61-.41,10.12,10.12,0,0,1-2.06-.83A8.18,8.18,0,0,1,150.6,219a5.11,5.11,0,0,1-1.1-1.42,5.53,5.53,0,0,1-.55-2.06,8.35,8.35,0,0,1,.06-2.16,4.56,4.56,0,0,1,.41-1.33,2.13,2.13,0,0,1,.63-.71.89.89,0,0,1,1-.05,4.27,4.27,0,0,1,.82.47" transform="translate(-148.22 -81.07)"/></svg>