<svg id="Layer_1" data-name="Layer 1" xmlns="http://www.w3.org/2000/svg" viewBox="0 0 16.62 129.7"><defs><style>.cls-1,.cls-2,.cls-3{fill:none;stroke:#fff000;stroke-linecap:round;stroke-linejoin:round;isolation:isolate;opacity:0.75;}.cls-1{stroke-width:1.27px;}.cls-2{stroke-width:1.28px;}.cls-3{stroke-width:1.3px;}</style></defs><path id="STROKE_d2ce1f13-02cc-4146-984b-cab02be172b9" data-name="STROKE d2ce1f13-02cc-4146-984b-cab02be172b9" class="cls-1" d="M136.8,86.62l.11.08-.2,0c-.19,0-1.07.09-2.64.28s-3,.33-4.38.39l-3,.13a17.16,17.16,0,0,1-1.9,0l-1.31-.11-.43,0h-.44a.2.2,0,0,0-.13.08" transform="translate(-121.83 -85.99)"/><path id="STROKE_f2d82fa1-68f2-48cd-a138-b6ebb293d3df" data-name="STROKE f2d82fa1-68f2-48cd-a138-b6ebb293d3df" class="cls-2" d="M136.47,151l.21-.17c.1-.06-.14-.09-.71-.1s-1.27,0-2.09,0l-1.8.09-2.57.15c-1.34.07-2.46.13-3.36.16l-1.91.07a8.76,8.76,0,0,0-.88.05,7.69,7.69,0,0,0-.88.15,4.24,4.24,0,0,0,.54.39" transform="translate(-121.83 -85.99)"/><path id="STROKE_d2721ffc-cb80-4934-bb11-d94182fed580" data-name="STROKE d2721ffc-cb80-4934-bb11-d94182fed580" class="cls-3" d="M137.81,214.54s-.8,0-2.35-.1-2.8-.15-3.76-.24-1.66-.12-2.09-.11l-1,0-.66,0-.43,0h-.17l-.32.07c-.21,0-.41.1-.63.16a4.71,4.71,0,0,1-.46.14l-.6.15c-.3.07-.86.17-1.67.29l-.26.07" transform="translate(-121.83 -85.99)"/></svg>