<svg id="Layer_1" data-name="Layer 1" xmlns="http://www.w3.org/2000/svg" viewBox="0 0 6.36 4.28"><defs><style>.cls-1,.cls-10,.cls-2,.cls-3,.cls-4,.cls-5,.cls-6,.cls-7,.cls-8,.cls-9{fill:none;stroke-linecap:round;stroke-linejoin:round;isolation:isolate;}.cls-1,.cls-2,.cls-3,.cls-4{stroke:#fff3e3;opacity:0.55;}.cls-1{stroke-width:0.15px;}.cls-2{stroke-width:0.14px;}.cls-3{stroke-width:0.14px;}.cls-4{stroke-width:0.14px;}.cls-10,.cls-5,.cls-6,.cls-7,.cls-8,.cls-9{stroke:#f9642d;opacity:0.83;}.cls-5{stroke-width:0.06px;}.cls-6{stroke-width:0.06px;}.cls-7{stroke-width:0.04px;}.cls-8{stroke-width:0.06px;}.cls-9{stroke-width:0.05px;}.cls-10{stroke-width:0.08px;}</style></defs><path id="STROKE_5cc53618-2a86-4408-9823-498dc5c72da1" data-name="STROKE 5cc53618-2a86-4408-9823-498dc5c72da1" class="cls-1" d="M72.86.67l-.23,3.46" transform="translate(-72.55 -0.49)"/><path id="STROKE_c613c13d-1985-4f73-83e9-996b3b29b0ac" data-name="STROKE c613c13d-1985-4f73-83e9-996b3b29b0ac" class="cls-2" d="M72.9.56l5.76.4" transform="translate(-72.55 -0.49)"/><path id="STROKE_7135cdce-87c1-4f7a-ade7-62e6d809fd45" data-name="STROKE 7135cdce-87c1-4f7a-ade7-62e6d809fd45" class="cls-3" d="M78.77,1l-.21,3.65" transform="translate(-72.55 -0.49)"/><path id="STROKE_01f03bc8-678d-4f3b-bfbb-97e2a4e6f400" data-name="STROKE 01f03bc8-678d-4f3b-bfbb-97e2a4e6f400" class="cls-2" d="M78.66,4.7l-6-.5" transform="translate(-72.55 -0.49)"/><path id="STROKE_eddda4ae-a410-4a3c-a950-7716f21d5a27" data-name="STROKE eddda4ae-a410-4a3c-a950-7716f21d5a27" class="cls-1" d="M73,.61l2.44,2.23" transform="translate(-72.55 -0.49)"/><path id="STROKE_990fa759-2d76-431f-bfea-abc3ab8bf84b" data-name="STROKE 990fa759-2d76-431f-bfea-abc3ab8bf84b" class="cls-4" d="M75.57,2.87l3.27-1.7" transform="translate(-72.55 -0.49)"/><path id="STROKE_6e0ac844-5f14-4bd7-9325-9ffaaef4de4f" data-name="STROKE 6e0ac844-5f14-4bd7-9325-9ffaaef4de4f" class="cls-5" d="M75.89,3.11l-.1,1.08" transform="translate(-72.55 -0.49)"/><path id="STROKE_8558f65c-d6dc-4e0d-b3c1-9ae82f9480e6" data-name="STROKE 8558f65c-d6dc-4e0d-b3c1-9ae82f9480e6" class="cls-6" d="M75.93,3.17l.79.05" transform="translate(-72.55 -0.49)"/><path id="STROKE_e19e1b46-0e0d-4edd-b3a7-52c0e5d61cee" data-name="STROKE e19e1b46-0e0d-4edd-b3a7-52c0e5d61cee" class="cls-7" d="M76.72,3.23l-.07,1.05" transform="translate(-72.55 -0.49)"/><path id="STROKE_b748ef24-3727-40d3-ab66-59c4c19195db" data-name="STROKE b748ef24-3727-40d3-ab66-59c4c19195db" class="cls-8" d="M76.67,4.32l-.87-.11" transform="translate(-72.55 -0.49)"/><path id="STROKE_90e982db-ef1e-4b99-a77f-1eb35257d91c" data-name="STROKE 90e982db-ef1e-4b99-a77f-1eb35257d91c" class="cls-9" d="M77.22,4.27l.49-.9" transform="translate(-72.55 -0.49)"/><path id="STROKE_900c0821-ecb7-43ff-96b5-3866d8ea7412" data-name="STROKE 900c0821-ecb7-43ff-96b5-3866d8ea7412" class="cls-9" d="M77.73,3.37l.41,1" transform="translate(-72.55 -0.49)"/><path id="STROKE_8c5d0b56-7540-4149-b62c-b0e1d77b28ee" data-name="STROKE 8c5d0b56-7540-4149-b62c-b0e1d77b28ee" class="cls-10" d="M78.18,4.34l-.92,0" transform="translate(-72.55 -0.49)"/></svg>