<svg id="Layer_1" data-name="Layer 1" xmlns="http://www.w3.org/2000/svg" viewBox="0 0 595 253.5"><defs><style>.cls-1{fill:#fbd8e7;}.cls-11,.cls-2,.cls-4,.cls-6,.cls-9{fill:none;}.cls-2{stroke:#010101;}.cls-2,.cls-4,.cls-6,.cls-9{stroke-linecap:round;stroke-linejoin:round;}.cls-3{font-size:12px;font-family:Helvetica;}.cls-4{stroke:#000;}.cls-5{fill:#f499c1;}.cls-6{stroke:#525252;stroke-width:2px;}.cls-7,.cls-8{font-size:17px;font-family:Helvetica-Bold, Helvetica;font-weight:700;}.cls-7{fill:#262626;}.cls-8{fill:#272727;}.cls-11,.cls-12,.cls-9{stroke:#fff;}.cls-10,.cls-12{fill:#fff;}.cls-11,.cls-12{stroke-miterlimit:10;}.cls-13{fill:#010101;}</style></defs><path class="cls-1" d="M5.25-265.86h108a18,18,0,0,1,18,18,18,18,0,0,1-18,18H5.25a18,18,0,0,1-18-18A18,18,0,0,1,5.25-265.86Z" transform="translate(13.25 338.86)"/><path class="cls-2" d="M5.25-265.86h108a18,18,0,0,1,18,18,18,18,0,0,1-18,18H5.25a18,18,0,0,1-18-18A18,18,0,0,1,5.25-265.86Z" transform="translate(13.25 338.86)"/><text class="cls-3" transform="translate(58.49 95)">Band</text><path class="cls-1" d="M212.25-121.86h108a18,18,0,0,1,18,18,18,18,0,0,1-18,18h-108a18,18,0,0,1-18-18A18,18,0,0,1,212.25-121.86Z" transform="translate(13.25 338.86)"/><path class="cls-2" d="M212.25-121.86h108a18,18,0,0,1,18,18,18,18,0,0,1-18,18h-108a18,18,0,0,1-18-18A18,18,0,0,1,212.25-121.86Z" transform="translate(13.25 338.86)"/><text class="cls-3" transform="translate(226.13 239)">BoundedSemilattice</text><path class="cls-1" d="M392.25-121.86h108a18,18,0,0,1,18,18,18,18,0,0,1-18,18h-108a18,18,0,0,1-18-18A18,18,0,0,1,392.25-121.86Z" transform="translate(13.25 338.86)"/><path class="cls-2" d="M392.25-121.86h108a18,18,0,0,1,18,18,18,18,0,0,1-18,18h-108a18,18,0,0,1-18-18A18,18,0,0,1,392.25-121.86Z" transform="translate(13.25 338.86)"/><text class="cls-3" transform="translate(407.48 239)">CommutativeGroup</text><path class="cls-1" d="M275.25-193.86h108a18,18,0,0,1,18,18,18,18,0,0,1-18,18h-108a18,18,0,0,1-18-18A18,18,0,0,1,275.25-193.86Z" transform="translate(13.25 338.86)"/><path class="cls-2" d="M275.25-193.86h108a18,18,0,0,1,18,18,18,18,0,0,1-18,18h-108a18,18,0,0,1-18-18A18,18,0,0,1,275.25-193.86Z" transform="translate(13.25 338.86)"/><text class="cls-3" transform="translate(287.48 167)">CommutativeMonoid</text><path class="cls-1" d="M176.25-265.86h108a18,18,0,0,1,18,18,18,18,0,0,1-18,18h-108a18,18,0,0,1-18-18A18,18,0,0,1,176.25-265.86Z" transform="translate(13.25 338.86)"/><path class="cls-2" d="M176.25-265.86h108a18,18,0,0,1,18,18,18,18,0,0,1-18,18h-108a18,18,0,0,1-18-18A18,18,0,0,1,176.25-265.86Z" transform="translate(13.25 338.86)"/><text class="cls-3" transform="translate(179.14 95)">CommutativeSemigroup</text><path class="cls-1" d="M455.25-193.86h108a18,18,0,0,1,18,18,18,18,0,0,1-18,18h-108a18,18,0,0,1-18-18A18,18,0,0,1,455.25-193.86Z" transform="translate(13.25 338.86)"/><path class="cls-4" d="M455.25-193.86h108a18,18,0,0,1,18,18,18,18,0,0,1-18,18h-108a18,18,0,0,1-18-18A18,18,0,0,1,455.25-193.86Z" transform="translate(13.25 338.86)"/><text class="cls-3" transform="translate(505.82 167)">Group</text><path class="cls-5" d="M176.25-337.86h108a18,18,0,0,1,18,18,18,18,0,0,1-18,18h-108a18,18,0,0,1-18-18A18,18,0,0,1,176.25-337.86Z" transform="translate(13.25 338.86)"/><path class="cls-6" d="M176.25-337.86h108a18,18,0,0,1,18,18,18,18,0,0,1-18,18h-108a18,18,0,0,1-18-18A18,18,0,0,1,176.25-337.86Z" transform="translate(13.25 338.86)"/><text class="cls-7" transform="translate(199.11 25)">Semigroup</text><path class="cls-5" d="M356.25-265.86h108a18,18,0,0,1,18,18,18,18,0,0,1-18,18h-108a18,18,0,0,1-18-18A18,18,0,0,1,356.25-265.86Z" transform="translate(13.25 338.86)"/><path class="cls-6" d="M356.25-265.86h108a18,18,0,0,1,18,18,18,18,0,0,1-18,18h-108a18,18,0,0,1-18-18A18,18,0,0,1,356.25-265.86Z" transform="translate(13.25 338.86)"/><text class="cls-8" transform="translate(393.29 97)">Monoid</text><path class="cls-1" d="M95.25-193.86h108a18,18,0,0,1,18,18,18,18,0,0,1-18,18h-108a18,18,0,0,1-18-18A18,18,0,0,1,95.25-193.86Z" transform="translate(13.25 338.86)"/><path class="cls-2" d="M95.25-193.86h108a18,18,0,0,1,18,18,18,18,0,0,1-18,18h-108a18,18,0,0,1-18-18A18,18,0,0,1,95.25-193.86Z" transform="translate(13.25 338.86)"/><text class="cls-3" transform="translate(133.16 167)">Semilattice</text><polyline class="cls-9" points="93.63 73 153.5 22 161.26 21.74"/><polygon class="cls-10" points="169.26 21.48 161.16 18.74 161.36 24.74 169.26 21.48"/><polygon class="cls-11" points="169.26 21.48 161.16 18.74 161.36 24.74 169.26 21.48"/><line class="cls-9" x1="250.25" y1="217" x2="200.18" y2="186.19"/><polygon class="cls-12" points="193.37 182 198.61 188.74 201.75 183.63 193.37 182"/><polygon class="cls-11" points="193.37 182 198.61 188.74 201.75 183.63 193.37 182"/><line class="cls-9" x1="295.25" y1="217" x2="320.23" y2="188.45"/><polygon class="cls-13" points="325.5 182.43 317.97 186.47 322.49 190.43 325.5 182.43"/><polygon class="cls-12" points="325.5 182.43 317.97 186.47 322.49 190.43 325.5 182.43"/><line class="cls-9" x1="475.25" y1="217" x2="500.23" y2="188.45"/><polygon class="cls-12" points="505.5 182.43 497.97 186.47 502.49 190.43 505.5 182.43"/><polygon class="cls-11" points="505.5 182.43 497.97 186.47 502.49 190.43 505.5 182.43"/><line class="cls-9" x1="430.25" y1="217" x2="380.18" y2="186.19"/><polygon class="cls-12" points="373.37 182 378.61 188.74 381.75 183.63 373.37 182"/><polygon class="cls-11" points="373.37 182 378.61 188.74 381.75 183.63 373.37 182"/><line class="cls-9" x1="362.75" y1="145" x2="395.29" y2="116.08"/><polygon class="cls-12" points="401.27 110.76 393.3 113.83 397.28 118.32 401.27 110.76"/><polygon class="cls-11" points="401.27 110.76 393.3 113.83 397.28 118.32 401.27 110.76"/><line class="cls-9" x1="317.75" y1="145" x2="276.26" y2="114.82"/><polygon class="cls-10" points="269.79 110.12 274.49 117.25 278.02 112.4 269.79 110.12"/><polygon class="cls-11" points="269.79 110.12 274.49 117.25 278.02 112.4 269.79 110.12"/><line class="cls-9" x1="243.5" y1="73" x2="243.5" y2="47.4"/><polygon class="cls-10" points="243.5 39.4 240.5 47.4 246.5 47.4 243.5 39.4"/><polygon class="cls-11" points="243.5 39.4 240.5 47.4 246.5 47.4 243.5 39.4"/><line class="cls-9" x1="497.75" y1="145" x2="456.94" y2="115.32"/><polygon class="cls-13" points="450.47 110.62 455.18 117.75 458.71 112.9 450.47 110.62"/><polygon class="cls-12" points="450.47 110.62 455.18 117.75 458.71 112.9 450.47 110.62"/><polyline class="cls-9" points="400.02 73 333.5 22 325.74 21.74"/><polygon class="cls-10" points="317.74 21.48 325.64 24.74 325.84 18.74 317.74 21.48"/><polygon class="cls-11" points="317.74 21.48 325.64 24.74 325.84 18.74 317.74 21.48"/><line class="cls-9" x1="140" y1="145" x2="102.73" y2="115.18"/><polygon class="cls-12" points="96.48 110.19 100.86 117.53 104.61 112.84 96.48 110.19"/><polygon class="cls-11" points="96.48 110.19 100.86 117.53 104.61 112.84 96.48 110.19"/><line class="cls-9" x1="182.75" y1="145" x2="215.85" y2="115.58"/><polygon class="cls-12" points="221.83 110.26 213.86 113.33 217.84 117.82 221.83 110.26"/><polygon class="cls-11" points="221.83 110.26 213.86 113.33 217.84 117.82 221.83 110.26"/></svg>