<svg id="Layer_1" data-name="Layer 1" xmlns="http://www.w3.org/2000/svg" viewBox="0 0 126.06 126.06"><defs><style>.cls-1,.cls-10,.cls-11,.cls-12,.cls-13,.cls-14,.cls-15,.cls-16,.cls-17,.cls-18,.cls-19,.cls-2,.cls-20,.cls-21,.cls-22,.cls-23,.cls-24,.cls-25,.cls-26,.cls-27,.cls-28,.cls-29,.cls-3,.cls-30,.cls-31,.cls-32,.cls-33,.cls-34,.cls-35,.cls-36,.cls-37,.cls-38,.cls-39,.cls-4,.cls-40,.cls-41,.cls-42,.cls-43,.cls-44,.cls-45,.cls-46,.cls-47,.cls-48,.cls-49,.cls-5,.cls-50,.cls-51,.cls-6,.cls-7,.cls-8,.cls-9{fill:none;stroke-linecap:round;stroke-linejoin:round;isolation:isolate;}.cls-1,.cls-10,.cls-2,.cls-3,.cls-4,.cls-5,.cls-6,.cls-7,.cls-8,.cls-9{stroke:#f9642d;opacity:0.83;}.cls-1{stroke-width:1.27px;}.cls-2{stroke-width:1.23px;}.cls-3{stroke-width:1.34px;}.cls-15,.cls-4,.cls-43{stroke-width:1.3px;}.cls-5{stroke-width:0.28px;}.cls-6{stroke-width:0.26px;}.cls-7{stroke-width:0.27px;}.cls-8{stroke-width:0.28px;}.cls-9{stroke-width:0.26px;}.cls-10{stroke-width:0.28px;}.cls-11,.cls-12,.cls-13,.cls-14,.cls-15,.cls-16,.cls-17,.cls-18,.cls-19,.cls-20,.cls-21,.cls-22,.cls-23,.cls-24,.cls-25,.cls-26,.cls-27,.cls-28,.cls-29,.cls-30,.cls-31,.cls-32,.cls-33,.cls-34,.cls-35,.cls-36,.cls-37,.cls-38,.cls-39,.cls-40,.cls-41{stroke:#6cba4b;}.cls-11{stroke-width:1.48px;}.cls-11,.cls-12,.cls-13,.cls-14,.cls-15,.cls-16,.cls-17,.cls-18,.cls-19,.cls-20,.cls-21,.cls-22,.cls-23,.cls-24,.cls-25,.cls-26,.cls-27,.cls-28,.cls-29,.cls-30,.cls-31,.cls-32,.cls-33,.cls-34,.cls-35,.cls-36,.cls-37,.cls-38,.cls-39,.cls-40,.cls-41,.cls-42,.cls-43,.cls-44,.cls-45,.cls-46,.cls-47,.cls-48,.cls-49,.cls-50{opacity:0.75;}.cls-12{stroke-width:1.43px;}.cls-13{stroke-width:1.41px;}.cls-14{stroke-width:1.3px;}.cls-16{stroke-width:1.31px;}.cls-17{stroke-width:1.33px;}.cls-18{stroke-width:1.39px;}.cls-19{stroke-width:1.32px;}.cls-20{stroke-width:1.41px;}.cls-21{stroke-width:1.36px;}.cls-22{stroke-width:1.37px;}.cls-23{stroke-width:1.28px;}.cls-24{stroke-width:1.27px;}.cls-25{stroke-width:1.29px;}.cls-26{stroke-width:1.58px;}.cls-27{stroke-width:1.61px;}.cls-28{stroke-width:1.58px;}.cls-29{stroke-width:1.35px;}.cls-30{stroke-width:1.55px;}.cls-31{stroke-width:1.43px;}.cls-32{stroke-width:1.45px;}.cls-33{stroke-width:1.49px;}.cls-34{stroke-width:1.37px;}.cls-35{stroke-width:1.33px;}.cls-36{stroke-width:1.31px;}.cls-37{stroke-width:1.32px;}.cls-38{stroke-width:1.26px;}.cls-39{stroke-width:1.34px;}.cls-40{stroke-width:1.25px;}.cls-41{stroke-width:1.17px;}.cls-42,.cls-43,.cls-44,.cls-45,.cls-46,.cls-47,.cls-48,.cls-49,.cls-50{stroke:#bd8ae6;}.cls-42{stroke-width:1.37px;}.cls-44{stroke-width:1.28px;}.cls-45{stroke-width:0.28px;}.cls-46{stroke-width:0.29px;}.cls-47{stroke-width:0.28px;}.cls-48{stroke-width:0.28px;}.cls-49{stroke-width:0.29px;}.cls-50{stroke-width:0.27px;}.cls-51{stroke:#00a0c8;stroke-width:0.84px;opacity:0.65;}</style></defs><path id="STROKE_1fbadfdb-b7a0-411c-b5ac-ce42821c5350" data-name="STROKE 1fbadfdb-b7a0-411c-b5ac-ce42821c5350" class="cls-1" d="M102.83,117.27l-.09,63.62" transform="translate(-85.25 -86.27)"/><path id="STROKE_29945d61-ee9d-4729-baea-1f764e44ac1b" data-name="STROKE 29945d61-ee9d-4729-baea-1f764e44ac1b" class="cls-2" d="M102.47,180.53l64.54,0" transform="translate(-85.25 -86.27)"/><path id="STROKE_dbeeb414-f499-4f74-a347-0b2cdf3b9b6b" data-name="STROKE dbeeb414-f499-4f74-a347-0b2cdf3b9b6b" class="cls-3" d="M167,181.47,166.6,116" transform="translate(-85.25 -86.27)"/><path id="STROKE_0d99e589-9d75-4d4b-9b40-03bade7f3eca" data-name="STROKE 0d99e589-9d75-4d4b-9b40-03bade7f3eca" class="cls-4" d="M166.68,116.88l-65-.21" transform="translate(-85.25 -86.27)"/><path id="STROKE_387a177e-cbbd-43dd-a826-0fdd1912bb65" data-name="STROKE 387a177e-cbbd-43dd-a826-0fdd1912bb65" class="cls-5" d="M134.42,116.88l.75,63.24" transform="translate(-85.25 -86.27)"/><path id="STROKE_e6eb66f9-678b-4b5f-924d-d32cf0aa202e" data-name="STROKE e6eb66f9-678b-4b5f-924d-d32cf0aa202e" class="cls-6" d="M103.56,148.47l62.35.28" transform="translate(-85.25 -86.27)"/><path id="STROKE_e9a7fee7-059d-4be3-86fe-6dae1d22327e" data-name="STROKE e9a7fee7-059d-4be3-86fe-6dae1d22327e" class="cls-7" d="M117.8,118l.32,62.09" transform="translate(-85.25 -86.27)"/><path id="STROKE_47ec146f-8d34-450c-90ac-969cbc13f87f" data-name="STROKE 47ec146f-8d34-450c-90ac-969cbc13f87f" class="cls-8" d="M150.33,116.79l-.09,63.59" transform="translate(-85.25 -86.27)"/><path id="STROKE_d652bf96-4a54-495d-bed9-c4a39bd138b1" data-name="STROKE d652bf96-4a54-495d-bed9-c4a39bd138b1" class="cls-9" d="M103.52,133.53l62.77-.31" transform="translate(-85.25 -86.27)"/><path id="STROKE_d88126ea-d658-4312-ac2b-53efac7d00b6" data-name="STROKE d88126ea-d658-4312-ac2b-53efac7d00b6" class="cls-10" d="M102.75,164.44h63.79" transform="translate(-85.25 -86.27)"/><path id="STROKE_43398351-662a-4d93-9a8a-e9df6aa03292" data-name="STROKE 43398351-662a-4d93-9a8a-e9df6aa03292" class="cls-11" d="M118.47,138.09,122.4,134" transform="translate(-85.25 -86.27)"/><path id="STROKE_4f69a78c-b0c7-40c1-b7a1-52af4592c5a2" data-name="STROKE 4f69a78c-b0c7-40c1-b7a1-52af4592c5a2" class="cls-12" d="M118.29,142.27l8.32-8.48" transform="translate(-85.25 -86.27)"/><path id="STROKE_5166813c-e833-46d8-b2f8-e4b27f04755f" data-name="STROKE 5166813c-e833-46d8-b2f8-e4b27f04755f" class="cls-13" d="M118.35,146.17,130,134.24" transform="translate(-85.25 -86.27)"/><path id="STROKE_8f49a6a0-9907-4100-a6ab-7ee64a1d3967" data-name="STROKE 8f49a6a0-9907-4100-a6ab-7ee64a1d3967" class="cls-14" d="M120.52,149l13.69-14.6" transform="translate(-85.25 -86.27)"/><path id="STROKE_5fb02767-b053-4d32-9002-afb001782650" data-name="STROKE 5fb02767-b053-4d32-9002-afb001782650" class="cls-15" d="M124.67,148.74l8.9-9.86" transform="translate(-85.25 -86.27)"/><path id="STROKE_f6faf99d-5251-41b3-8134-003c82384806" data-name="STROKE f6faf99d-5251-41b3-8134-003c82384806" class="cls-16" d="M129.19,148.59l4.94-6.31" transform="translate(-85.25 -86.27)"/><path id="STROKE_90ff0245-eafb-4818-a82a-d7a198daec25" data-name="STROKE 90ff0245-eafb-4818-a82a-d7a198daec25" class="cls-17" d="M133,147.78l1.62-2.06" transform="translate(-85.25 -86.27)"/><path id="STROKE_81ab3940-a674-4367-8296-8150f91e4473" data-name="STROKE 81ab3940-a674-4367-8296-8150f91e4473" class="cls-18" d="M135,137.1l3.55-3.91" transform="translate(-85.25 -86.27)"/><path id="STROKE_e0f8c826-a3b3-46f8-a290-b2f28262ab8b" data-name="STROKE e0f8c826-a3b3-46f8-a290-b2f28262ab8b" class="cls-19" d="M134.94,140.25l6.35-6.35" transform="translate(-85.25 -86.27)"/><path id="STROKE_efc87ea1-cf6b-4764-ac1b-0e112b38b32e" data-name="STROKE efc87ea1-cf6b-4764-ac1b-0e112b38b32e" class="cls-20" d="M135.15,143.16l8.75-8.78" transform="translate(-85.25 -86.27)"/><path id="STROKE_2a7e768d-b696-41a2-a0a0-bde3590a9d6d" data-name="STROKE 2a7e768d-b696-41a2-a0a0-bde3590a9d6d" class="cls-21" d="M135.57,145.93l11.55-11.77" transform="translate(-85.25 -86.27)"/><path id="STROKE_c4fed58d-48f4-4d98-a7c6-02f5a5ccb18b" data-name="STROKE c4fed58d-48f4-4d98-a7c6-02f5a5ccb18b" class="cls-22" d="M136.59,147.88l12.82-13.47" transform="translate(-85.25 -86.27)"/><path id="STROKE_21bce556-1047-4a8e-a567-f5bf578e68ce" data-name="STROKE 21bce556-1047-4a8e-a567-f5bf578e68ce" class="cls-23" d="M138.94,148.15l10.56-11" transform="translate(-85.25 -86.27)"/><path id="STROKE_b9c3e880-706c-4e22-9d45-a0c8298d351f" data-name="STROKE b9c3e880-706c-4e22-9d45-a0c8298d351f" class="cls-24" d="M142.49,148.42l8.09-8.25" transform="translate(-85.25 -86.27)"/><path id="STROKE_dac5fc3f-10b2-426a-b054-08bcfe133cf4" data-name="STROKE dac5fc3f-10b2-426a-b054-08bcfe133cf4" class="cls-25" d="M147.91,147.05l2.81-3.29" transform="translate(-85.25 -86.27)"/><path id="STROKE_628d1081-b442-4dff-9af9-987c7e11b86f" data-name="STROKE 628d1081-b442-4dff-9af9-987c7e11b86f" class="cls-26" d="M118.05,152.58l3.53-3.41" transform="translate(-85.25 -86.27)"/><path id="STROKE_d52f24e8-44b4-4962-ab11-c75daa4f3911" data-name="STROKE d52f24e8-44b4-4962-ab11-c75daa4f3911" class="cls-27" d="M118.29,157.88l7.55-8.06" transform="translate(-85.25 -86.27)"/><path id="STROKE_1b023887-0aac-478f-8a01-9a4ca2ab10d5" data-name="STROKE 1b023887-0aac-478f-8a01-9a4ca2ab10d5" class="cls-28" d="M118.34,161.83,130,149.66" transform="translate(-85.25 -86.27)"/><path id="STROKE_d3127fbe-c96a-4237-9c23-3936a69122ed" data-name="STROKE d3127fbe-c96a-4237-9c23-3936a69122ed" class="cls-29" d="M119.24,163.22l12.91-13.62" transform="translate(-85.25 -86.27)"/><path id="STROKE_b0aeef83-1671-4b2a-80eb-81f22f6a9c16" data-name="STROKE b0aeef83-1671-4b2a-80eb-81f22f6a9c16" class="cls-30" d="M118.16,154.47l6.58-5.91" transform="translate(-85.25 -86.27)"/><path id="STROKE_0284883d-c7c2-4824-a76b-14700fa938f4" data-name="STROKE 0284883d-c7c2-4824-a76b-14700fa938f4" class="cls-31" d="M121.19,163.33l12.91-13.27" transform="translate(-85.25 -86.27)"/><path id="STROKE_6434bbf5-f37c-41af-8a93-f8169b791cc5" data-name="STROKE 6434bbf5-f37c-41af-8a93-f8169b791cc5" class="cls-32" d="M125.23,163.85l10.35-11.22" transform="translate(-85.25 -86.27)"/><path id="STROKE_d7dd161e-2568-49ee-88b3-21eea1916e6b" data-name="STROKE d7dd161e-2568-49ee-88b3-21eea1916e6b" class="cls-33" d="M129.69,163.11l4.79-5.4" transform="translate(-85.25 -86.27)"/><path id="STROKE_f7dc167c-42b0-4a75-9dff-147d578935d4" data-name="STROKE f7dc167c-42b0-4a75-9dff-147d578935d4" class="cls-34" d="M133,163.9l2.49-3.51" transform="translate(-85.25 -86.27)"/><path id="STROKE_02008cdf-68e4-4b89-861a-63d4f84c8a01" data-name="STROKE 02008cdf-68e4-4b89-861a-63d4f84c8a01" class="cls-35" d="M135.81,153.41l3.93-4.12" transform="translate(-85.25 -86.27)"/><path id="STROKE_32ee318b-6c56-462d-a18c-c23c5abcaffa" data-name="STROKE 32ee318b-6c56-462d-a18c-c23c5abcaffa" class="cls-36" d="M134.74,158.29l9-10.1" transform="translate(-85.25 -86.27)"/><path id="STROKE_1fbfad6f-543a-4123-ae55-0a90e20985ce" data-name="STROKE 1fbfad6f-543a-4123-ae55-0a90e20985ce" class="cls-37" d="M135.28,162.31l9.33-12.55" transform="translate(-85.25 -86.27)"/><path id="STROKE_27dd09a7-5058-4aad-8492-285d833163c4" data-name="STROKE 27dd09a7-5058-4aad-8492-285d833163c4" class="cls-38" d="M135.23,164.29l12.35-14.46" transform="translate(-85.25 -86.27)"/><path id="STROKE_b4605277-a493-4e6c-9db6-633aa9adb202" data-name="STROKE b4605277-a493-4e6c-9db6-633aa9adb202" class="cls-39" d="M137.94,164.65l11.69-13.32" transform="translate(-85.25 -86.27)"/><path id="STROKE_b22937ed-e5dd-413c-9bb6-d4c4540d9973" data-name="STROKE b22937ed-e5dd-413c-9bb6-d4c4540d9973" class="cls-24" d="M142.39,162.76l7.13-8.28" transform="translate(-85.25 -86.27)"/><path id="STROKE_018223ec-3ca7-4c35-84d0-d9bd227ce94b" data-name="STROKE 018223ec-3ca7-4c35-84d0-d9bd227ce94b" class="cls-40" d="M145,163.16l4.79-6.11" transform="translate(-85.25 -86.27)"/><path id="STROKE_6740a727-0802-4eeb-a4d5-1afb846e7c55" data-name="STROKE 6740a727-0802-4eeb-a4d5-1afb846e7c55" class="cls-41" d="M147.6,163.63l3.37-3.7" transform="translate(-85.25 -86.27)"/><path id="STROKE_0d5d022b-4b73-420e-ab40-a39450de6901" data-name="STROKE 0d5d022b-4b73-420e-ab40-a39450de6901" class="cls-42" d="M182.89,116.61l-.36,32" transform="translate(-85.25 -86.27)"/><path id="STROKE_f5f6cd23-03f9-41cb-866f-a7c57bf3483c" data-name="STROKE f5f6cd23-03f9-41cb-866f-a7c57bf3483c" class="cls-43" d="M182.29,148.92l15.63.16" transform="translate(-85.25 -86.27)"/><path id="STROKE_0e232b0d-ebcd-434c-968f-cc83c44a64e9" data-name="STROKE 0e232b0d-ebcd-434c-968f-cc83c44a64e9" class="cls-44" d="M198.26,149.74l.38-33.43" transform="translate(-85.25 -86.27)"/><path id="STROKE_81be8071-dbc5-4119-9626-c2bf39519b9d" data-name="STROKE 81be8071-dbc5-4119-9626-c2bf39519b9d" class="cls-45" d="M183.41,141.13l14.28,0" transform="translate(-85.25 -86.27)"/><path id="STROKE_2501a24d-aa19-4db2-8fb1-c3b06ba1d37c" data-name="STROKE 2501a24d-aa19-4db2-8fb1-c3b06ba1d37c" class="cls-46" d="M182.76,132.67l15.14-.12" transform="translate(-85.25 -86.27)"/><path id="STROKE_beb61591-c721-44c3-8e71-0335c27076a2" data-name="STROKE beb61591-c721-44c3-8e71-0335c27076a2" class="cls-47" d="M183.38,133.57l7.19,3.42" transform="translate(-85.25 -86.27)"/><path id="STROKE_d97977ff-9991-4406-aa32-857ee362e5de" data-name="STROKE d97977ff-9991-4406-aa32-857ee362e5de" class="cls-48" d="M190,137.54l8.12-4.74" transform="translate(-85.25 -86.27)"/><path id="STROKE_dbb012f0-901f-4ba5-acb9-16ab0ff4c6b5" data-name="STROKE dbb012f0-901f-4ba5-acb9-16ab0ff4c6b5" class="cls-49" d="M183.38,141.78l7.6,3.3" transform="translate(-85.25 -86.27)"/><path id="STROKE_7e5f50ca-cf2c-47c2-9992-e74deb20e923" data-name="STROKE 7e5f50ca-cf2c-47c2-9992-e74deb20e923" class="cls-50" d="M190.25,145.75l7.81-4.85" transform="translate(-85.25 -86.27)"/><path id="STROKE_f5fb28f4-aacc-43d3-b4bc-fcf0670f9520" data-name="STROKE f5fb28f4-aacc-43d3-b4bc-fcf0670f9520" class="cls-51" d="M210.86,151.4l-.06,1.42c0,.47-.06.94-.1,1.41l-.12,1.41c-.05.47-.11.94-.16,1.4s-.13.94-.19,1.41-.15.93-.23,1.39-.16.93-.25,1.4-.19.92-.29,1.38-.2.92-.31,1.38-.23.92-.35,1.37-.25.91-.38,1.37-.27.9-.41,1.35-.29.9-.44,1.35-.31.89-.47,1.33-.33.89-.5,1.32-.35.88-.53,1.32-.37.87-.56,1.3-.39.86-.59,1.28-.4.85-.61,1.28-.43.84-.65,1.25-.45.84-.68,1.25-.46.82-.7,1.23-.48.81-.73,1.21-.5.8-.76,1.19-.51.79-.78,1.18-.53.78-.81,1.16-.55.77-.84,1.14-.57.76-.86,1.13-.58.74-.88,1.1l-.92,1.08c-.3.36-.62.71-.93,1.06l-1,1-1,1c-.34.33-.67.67-1,1s-.68.66-1,1l-1,.95-1.07.92c-.36.31-.72.6-1.09.9l-1.11.88c-.38.28-.75.57-1.14.85s-.76.55-1.14.82l-1.17.8-1.19.77-1.2.75-1.22.71c-.41.24-.82.47-1.24.69s-.83.45-1.25.66l-1.27.64-1.27.6-1.3.58-1.3.54-1.32.52c-.44.16-.88.33-1.33.48l-1.34.46-1.35.43-1.36.39-1.37.37-1.37.33-1.38.3c-.46.1-.93.19-1.39.27s-.93.17-1.4.24l-1.4.21-1.4.17-1.41.15-1.41.11-1.41.08-1.41.05-1.42,0-1.41,0-1.42-.05-1.41-.08-1.41-.11-1.41-.14c-.47-.05-.94-.11-1.4-.18l-1.4-.2-1.4-.24-1.39-.27-1.38-.3L132.9,210l-1.36-.37c-.46-.12-.91-.25-1.36-.39l-1.35-.43c-.45-.14-.9-.29-1.34-.45l-1.33-.49-1.32-.51-1.31-.55-1.29-.57-1.28-.6-1.27-.63-1.25-.67-1.23-.68-1.22-.72c-.41-.24-.81-.49-1.21-.74l-1.18-.77c-.4-.27-.79-.53-1.17-.8s-.77-.55-1.15-.83l-1.14-.84-1.11-.88c-.37-.29-.73-.59-1.09-.9l-1.07-.92c-.36-.31-.71-.63-1.05-.95l-1-1c-.34-.33-.68-.66-1-1s-.66-.67-1-1-.65-.69-1-1-.63-.71-.94-1.06l-.91-1.08L99.1,188c-.29-.37-.58-.74-.86-1.12s-.57-.75-.84-1.14-.55-.77-.81-1.16l-.79-1.17-.76-1.2c-.24-.4-.49-.8-.73-1.21l-.7-1.23c-.23-.41-.45-.83-.67-1.24s-.44-.84-.65-1.26-.42-.85-.62-1.27-.4-.86-.59-1.29-.38-.86-.56-1.3-.36-.87-.53-1.31-.34-.88-.5-1.32-.32-.89-.47-1.34-.3-.89-.44-1.34-.28-.9-.41-1.36-.26-.9-.38-1.36-.24-.91-.35-1.37-.22-.92-.32-1.38-.2-.92-.29-1.39-.17-.92-.25-1.39-.16-.93-.23-1.4-.13-.93-.19-1.4-.11-.93-.16-1.4-.09-.94-.13-1.41-.07-.94-.09-1.41,0-1-.07-1.42l0-1.41c0-.47,0-.95,0-1.42l0-1.41.06-1.42c0-.47.06-.94.1-1.41s.08-.94.13-1.41.1-.93.16-1.4.12-.94.19-1.41.14-.93.22-1.39.16-.93.25-1.4.19-.92.29-1.38.21-.92.32-1.38.22-.92.34-1.37.25-.91.38-1.37.27-.9.41-1.35.29-.9.44-1.34.31-.9.47-1.34.33-.88.5-1.32.35-.88.53-1.31.37-.87.56-1.3.39-.86.59-1.29.41-.85.62-1.28.42-.84.64-1.25.45-.84.68-1.25.46-.82.7-1.23.48-.81.73-1.21.5-.8.76-1.19.52-.79.78-1.18l.81-1.16c.28-.39.55-.77.84-1.14s.57-.75.86-1.13.59-.73.89-1.1l.91-1.08c.31-.36.62-.71.94-1.06s.63-.7,1-1l1-1c.33-.33.66-.67,1-1l1-1,1-.94c.36-.32.71-.63,1.07-.93l1.09-.9,1.12-.88,1.13-.85,1.15-.82c.38-.27.77-.54,1.17-.8s.78-.52,1.18-.77l1.2-.74q.61-.37,1.23-.72c.4-.24.82-.47,1.23-.69s.83-.45,1.25-.66l1.27-.64,1.28-.6q.64-.3,1.29-.57l1.3-.55,1.32-.52,1.33-.48,1.34-.46c.45-.14.9-.29,1.35-.42l1.36-.4c.45-.13.91-.25,1.37-.36l1.37-.34,1.39-.3,1.38-.27,1.4-.24,1.4-.21,1.4-.17,1.41-.15,1.41-.11,1.41-.08,1.42-.05h2.83l1.41.05,1.41.08,1.42.11,1.4.14,1.41.18,1.4.2,1.39.24,1.39.27,1.38.3,1.38.33L165,89l1.36.39,1.35.43,1.33.45,1.34.49c.44.16.88.34,1.31.51l1.31.55q.65.27,1.29.57l1.28.6,1.27.64c.42.21.84.43,1.25.66s.83.45,1.24.69l1.22.71,1.2.74,1.19.78,1.17.79,1.15.83c.38.28.76.56,1.13.85s.74.57,1.11.87l1.09.9,1.08.92,1,1,1,1c.34.33.68.66,1,1s.66.67,1,1,.65.69,1,1,.63.71.94,1.06.62.72.91,1.09.6.73.89,1.1.58.74.86,1.12.57.76.84,1.14.55.77.81,1.16.53.78.79,1.18.51.79.76,1.19.49.81.73,1.21.47.82.7,1.23l.68,1.24.65,1.26c.21.42.41.85.61,1.28s.4.85.59,1.28.38.87.56,1.3.36.87.53,1.31.34.88.5,1.33.32.88.48,1.33.3.9.44,1.35.28.9.41,1.35.26.91.38,1.36.23.92.35,1.37.21.92.31,1.38.2.93.29,1.39.18.93.26,1.39.15.93.22,1.4.13.93.19,1.4.11.94.16,1.41.09.93.13,1.4.07.95.09,1.42.05.94.07,1.41,0,.94,0,1.41,0,1,0,1.42S210.88,150.93,210.86,151.4Z" transform="translate(-85.25 -86.27)"/><path id="STROKE_74c2b247-3efc-41ed-b0c4-63f60013798d" data-name="STROKE 74c2b247-3efc-41ed-b0c4-63f60013798d" class="cls-51" d="M210.86,151.4l-.06,1.42c0,.47-.06.94-.1,1.41l-.12,1.41c-.05.47-.11.94-.16,1.4s-.13.94-.19,1.41-.15.93-.23,1.39-.16.93-.25,1.4-.19.92-.29,1.38-.2.92-.31,1.38-.23.92-.35,1.37-.25.91-.38,1.37-.27.9-.41,1.35-.29.9-.44,1.35-.31.89-.47,1.33-.33.89-.5,1.32-.35.88-.53,1.32-.37.87-.56,1.3-.39.86-.59,1.28-.4.85-.61,1.28-.43.84-.65,1.25-.45.84-.68,1.25-.46.82-.7,1.23-.48.81-.73,1.21-.5.8-.76,1.19-.51.79-.78,1.18-.53.78-.81,1.16-.55.77-.84,1.14-.57.76-.86,1.13-.58.74-.88,1.1l-.92,1.08c-.3.36-.62.71-.93,1.06l-1,1-1,1c-.34.33-.67.67-1,1s-.68.66-1,1l-1,.95-1.07.92c-.36.31-.72.6-1.09.9l-1.11.88c-.38.28-.75.57-1.14.85s-.76.55-1.14.82l-1.17.8-1.19.77-1.2.75-1.22.71c-.41.24-.82.47-1.24.69s-.83.45-1.25.66l-1.27.64-1.27.6-1.3.58-1.3.54-1.32.52c-.44.16-.88.33-1.33.48l-1.34.46-1.35.43-1.36.39-1.37.37-1.37.33-1.38.3c-.46.1-.93.19-1.39.27s-.93.17-1.4.24l-1.4.21-1.4.17-1.41.15-1.41.11-1.41.08-1.41.05-1.42,0-1.41,0-1.42-.05-1.41-.08-1.41-.11-1.41-.14c-.47-.05-.94-.11-1.4-.18l-1.4-.2-1.4-.24-1.39-.27-1.38-.3L132.9,210l-1.36-.37c-.46-.12-.91-.25-1.36-.39l-1.35-.43c-.45-.14-.9-.29-1.34-.45l-1.33-.49-1.32-.51-1.31-.55-1.29-.57-1.28-.6-1.27-.63-1.25-.67-1.23-.68-1.22-.72c-.41-.24-.81-.49-1.21-.74l-1.18-.77c-.4-.27-.79-.53-1.17-.8s-.77-.55-1.15-.83l-1.14-.84-1.11-.88c-.37-.29-.73-.59-1.09-.9l-1.07-.92c-.36-.31-.71-.63-1.05-.95l-1-1c-.34-.33-.68-.66-1-1s-.66-.67-1-1-.65-.69-1-1-.63-.71-.94-1.06l-.91-1.08L99.1,188c-.29-.37-.58-.74-.86-1.12s-.57-.75-.84-1.14-.55-.77-.81-1.16l-.79-1.17-.76-1.2c-.24-.4-.49-.8-.73-1.21l-.7-1.23c-.23-.41-.45-.83-.67-1.24s-.44-.84-.65-1.26-.42-.85-.62-1.27-.4-.86-.59-1.29-.38-.86-.56-1.3-.36-.87-.53-1.31-.34-.88-.5-1.32-.32-.89-.47-1.34-.3-.89-.44-1.34-.28-.9-.41-1.36-.26-.9-.38-1.36-.24-.91-.35-1.37-.22-.92-.32-1.38-.2-.92-.29-1.39-.17-.92-.25-1.39-.16-.93-.23-1.4-.13-.93-.19-1.4-.11-.93-.16-1.4-.09-.94-.13-1.41-.07-.94-.09-1.41,0-1-.07-1.42l0-1.41c0-.47,0-.95,0-1.42l0-1.41.06-1.42c0-.47.06-.94.1-1.41s.08-.94.13-1.41.1-.93.16-1.4.12-.94.19-1.41.14-.93.22-1.39.16-.93.25-1.4.19-.92.29-1.38.21-.92.32-1.38.22-.92.34-1.37.25-.91.38-1.37.27-.9.41-1.35.29-.9.44-1.34.31-.9.47-1.34.33-.88.5-1.32.35-.88.53-1.31.37-.87.56-1.3.39-.86.59-1.29.41-.85.62-1.28.42-.84.64-1.25.45-.84.68-1.25.46-.82.7-1.23.48-.81.73-1.21.5-.8.76-1.19.52-.79.78-1.18l.81-1.16c.28-.39.55-.77.84-1.14s.57-.75.86-1.13.59-.73.89-1.1l.91-1.08c.31-.36.62-.71.94-1.06s.63-.7,1-1l1-1c.33-.33.66-.67,1-1l1-1,1-.94c.36-.32.71-.63,1.07-.93l1.09-.9,1.12-.88,1.13-.85,1.15-.82c.38-.27.77-.54,1.17-.8s.78-.52,1.18-.77l1.2-.74q.61-.37,1.23-.72c.4-.24.82-.47,1.23-.69s.83-.45,1.25-.66l1.27-.64,1.28-.6q.64-.3,1.29-.57l1.3-.55,1.32-.52,1.33-.48,1.34-.46c.45-.14.9-.29,1.35-.42l1.36-.4c.45-.13.91-.25,1.37-.36l1.37-.34,1.39-.3,1.38-.27,1.4-.24,1.4-.21,1.4-.17,1.41-.15,1.41-.11,1.41-.08,1.42-.05h2.83l1.41.05,1.41.08,1.42.11,1.4.14,1.41.18,1.4.2,1.39.24,1.39.27,1.38.3,1.38.33L165,89l1.36.39,1.35.43,1.33.45,1.34.49c.44.16.88.34,1.31.51l1.31.55q.65.27,1.29.57l1.28.6,1.27.64c.42.21.84.43,1.25.66s.83.45,1.24.69l1.22.71,1.2.74,1.19.78,1.17.79,1.15.83c.38.28.76.56,1.13.85s.74.57,1.11.87l1.09.9,1.08.92,1,1,1,1c.34.33.68.66,1,1s.66.67,1,1,.65.69,1,1,.63.71.94,1.06.62.72.91,1.09.6.73.89,1.1.58.74.86,1.12.57.76.84,1.14.55.77.81,1.16.53.78.79,1.18.51.79.76,1.19.49.81.73,1.21.47.82.7,1.23l.68,1.24.65,1.26c.21.42.41.85.61,1.28s.4.85.59,1.28.38.87.56,1.3.36.87.53,1.31.34.88.5,1.33.32.88.48,1.33.3.9.44,1.35.28.9.41,1.35.26.91.38,1.36.23.92.35,1.37.21.92.31,1.38.2.93.29,1.39.18.93.26,1.39.15.93.22,1.4.13.93.19,1.4.11.94.16,1.41.09.93.13,1.4.07.95.09,1.42.05.94.07,1.41,0,.94,0,1.41,0,1,0,1.42S210.88,150.93,210.86,151.4Z" transform="translate(-85.25 -86.27)"/></svg>