<svg id="Layer_1" data-name="Layer 1" xmlns="http://www.w3.org/2000/svg" viewBox="0 0 108.9 109.29"><defs><style>.cls-1,.cls-10,.cls-11,.cls-12,.cls-13,.cls-14,.cls-15,.cls-16,.cls-17,.cls-18,.cls-19,.cls-2,.cls-20,.cls-3,.cls-4,.cls-5,.cls-6,.cls-7,.cls-8,.cls-9{fill:none;stroke-linecap:round;stroke-linejoin:round;isolation:isolate;}.cls-1{stroke:#00a0c8;stroke-width:0.95px;opacity:0.65;}.cls-10,.cls-11,.cls-12,.cls-13,.cls-14,.cls-15,.cls-16,.cls-17,.cls-18,.cls-19,.cls-2,.cls-3,.cls-4,.cls-5,.cls-6,.cls-7,.cls-8,.cls-9{stroke:#6cba4b;}.cls-2{stroke-width:0.33px;}.cls-10,.cls-11,.cls-12,.cls-13,.cls-14,.cls-15,.cls-16,.cls-17,.cls-18,.cls-19,.cls-2,.cls-20,.cls-3,.cls-4,.cls-5,.cls-6,.cls-7,.cls-8,.cls-9{opacity:0.75;}.cls-3{stroke-width:0.4px;}.cls-4{stroke-width:0.55px;}.cls-5{stroke-width:0.61px;}.cls-6{stroke-width:0.5px;}.cls-7{stroke-width:0.43px;}.cls-8{stroke-width:0.42px;}.cls-9{stroke-width:0.33px;}.cls-10{stroke-width:0.28px;}.cls-11{stroke-width:0.28px;}.cls-12{stroke-width:0.31px;}.cls-13{stroke-width:0.4px;}.cls-14{stroke-width:0.3px;}.cls-15{stroke-width:0.38px;}.cls-16{stroke-width:0.29px;}.cls-17{stroke-width:0.28px;}.cls-18{stroke-width:0.35px;}.cls-19{stroke-width:0.53px;}.cls-20{stroke:#fff000;stroke-width:0.92px;}</style></defs><g id="Pen"><path id="STROKE_c18fcdc7-d22d-4d09-87f1-24cc8389deea" data-name="STROKE c18fcdc7-d22d-4d09-87f1-24cc8389deea" class="cls-1" d="M49.15,38.07v.36c0,.13,0,.25,0,.37s0,.24,0,.36,0,.24,0,.36,0,.24,0,.36,0,.24,0,.36,0,.24-.05.36,0,.24,0,.35-.05.24-.07.36-.05.24-.07.35l-.09.36a2.58,2.58,0,0,1-.09.35l-.09.34c0,.12-.07.24-.11.35a3.38,3.38,0,0,1-.11.34l-.12.34c-.05.12-.09.23-.13.34s-.09.23-.14.34l-.14.33-.15.33c-.06.11-.11.22-.16.32s-.11.22-.17.32a3.24,3.24,0,0,1-.17.32l-.18.32c-.06.1-.13.2-.19.31l-.19.3c-.07.1-.14.2-.2.3l-.21.3-.22.29-.22.29-.23.28-.23.27L45,49l-.25.27-.25.26-.26.25L44,50l-.27.24-.27.24a3.11,3.11,0,0,0-.28.23l-.29.22-.29.22-.29.2-.3.21-.31.2-.3.18-.32.19-.31.17-.32.17-.33.16-.32.15-.33.15-.34.14-.34.13-.34.12-.34.12-.34.11-.35.1-.35.09-.35.08-.36.08L36,54l-.36.06-.36,0-.36,0-.36,0-.36,0-.36,0H32.75l-.36,0-.37,0-.36,0-.36,0-.35,0-.36,0L30.23,54l-.35-.06-.36-.08-.35-.09-.35-.09-.34-.11-.35-.1-.34-.12-.34-.13L27.11,53l-.33-.14-.33-.15-.33-.15-.32-.16-.32-.17-.32-.18-.31-.19-.31-.19-.3-.19-.3-.21-.29-.21-.29-.22-.28-.22-.28-.23-.28-.24L22.26,50,22,49.7l-.26-.26a3.07,3.07,0,0,1-.25-.26l-.25-.26L21,48.65a3.11,3.11,0,0,0-.23-.28c-.07-.1-.15-.19-.23-.29l-.21-.28-.22-.29c-.07-.1-.14-.2-.2-.3s-.14-.2-.2-.3l-.2-.31-.18-.31L19.15,46,19,45.66c-.06-.11-.11-.22-.17-.32s-.1-.22-.16-.33l-.15-.33c0-.11-.09-.22-.14-.33L18.23,44a3.42,3.42,0,0,1-.13-.34L18,43.33c0-.11-.08-.23-.11-.34s-.07-.23-.1-.35a3.57,3.57,0,0,1-.1-.35l-.09-.35c0-.11,0-.23-.08-.35s-.05-.24-.07-.35-.05-.24-.07-.36,0-.24-.05-.36,0-.24,0-.36,0-.24,0-.36l0-.36,0-.36c0-.12,0-.24,0-.36s0-.24,0-.36V38c0-.12,0-.24,0-.36s0-.25,0-.37,0-.24,0-.36,0-.24,0-.36,0-.24,0-.36,0-.23.05-.35l.06-.36.06-.36c0-.11,0-.23.08-.35a3.59,3.59,0,0,1,.08-.35l.09-.35a3.57,3.57,0,0,1,.1-.35c0-.12.06-.23.1-.35S18,33.14,18,33a3.42,3.42,0,0,1,.13-.34l.12-.34.14-.33.15-.34a2.41,2.41,0,0,1,.15-.33c0-.1.1-.21.16-.32a3.18,3.18,0,0,1,.16-.32c.06-.11.12-.21.17-.32s.12-.21.19-.31l.18-.31.2-.31c.06-.1.13-.2.2-.3l.21-.29.21-.3.22-.28.23-.28.23-.28.24-.27.25-.26.25-.26.26-.26.26-.25.27-.24a3.11,3.11,0,0,1,.28-.23,3.11,3.11,0,0,1,.28-.23l.28-.22.29-.22.29-.21a3.28,3.28,0,0,1,.31-.2,3.13,3.13,0,0,1,.3-.2l.31-.19.31-.18.31-.18.33-.17.32-.16.33-.15.33-.15.33-.14.34-.13.34-.12L28.2,23l.35-.1.35-.1.35-.1.35-.08.35-.08.36-.07.35-.06.36,0,.36,0,.36,0,.36,0h.36l.36,0h1.09l.36,0,.36,0,.36,0,.36,0,.36.06.35.06.36.07.35.08.35.08.35.1.35.1.34.11a2,2,0,0,1,.34.12l.35.12.33.13.34.14.33.15.32.15.33.17.31.17.32.17.31.19.31.19.3.2.3.2.29.21.29.22.29.22.27.24a3.11,3.11,0,0,1,.28.23l.27.25.26.24.26.26.25.26.24.27.24.27a3.11,3.11,0,0,1,.23.28l.23.28.22.29.21.29.21.29.2.31.19.3.19.31.18.32.17.31.16.33a3.18,3.18,0,0,1,.16.32l.15.33c.05.11.1.22.14.33s.09.23.14.34l.12.34.12.34c0,.11.08.23.11.34s.07.24.11.35l.09.35.09.35c0,.12.06.24.08.35s.05.24.08.36l.06.35c0,.12,0,.24,0,.36s0,.24.05.36,0,.24,0,.36a2.19,2.19,0,0,1,0,.36l0,.36c0,.12,0,.24,0,.36S49.15,38,49.15,38.07Z" transform="translate(-16.67 -20.26)"/><path id="STROKE_ce333ccb-0df4-4e5c-a33d-4d93fc3896b5" data-name="STROKE ce333ccb-0df4-4e5c-a33d-4d93fc3896b5" class="cls-1" d="M125.09,49.64V50c0,.12,0,.24,0,.36s0,.24,0,.36,0,.24,0,.36,0,.24,0,.36,0,.24,0,.36,0,.24,0,.36l-.06.36-.06.36c0,.11-.05.23-.08.35s0,.23-.08.35l-.09.35c0,.12-.06.23-.1.35s-.06.23-.1.35-.07.23-.11.34-.08.23-.13.34l-.12.34-.14.33c0,.11-.1.23-.14.34a3.18,3.18,0,0,1-.16.32l-.15.33-.17.32c-.06.11-.12.21-.17.32l-.18.31-.19.31-.2.31-.2.3c-.07.1-.13.19-.21.29l-.21.29-.22.29-.23.28-.23.28-.24.27-.25.26-.25.26-.26.26-.26.24-.27.25-.28.23a3.11,3.11,0,0,1-.28.23l-.28.22-.29.22-.29.21-.3.2-.31.2-.31.19-.31.18-.31.18-.32.17-.33.16-.33.15-.33.15-.33.14-.34.13-.34.12L114,65l-.35.1-.35.1a3.58,3.58,0,0,1-.35.09l-.35.09-.35.07-.35.07-.36.06-.36.06-.36,0-.36,0-.36,0-.36,0h-1.45l-.36,0-.36,0-.36,0-.36,0-.36-.06-.35-.06-.36-.07-.35-.08-.35-.08-.35-.1-.35-.1-.34-.11-.34-.12-.34-.12-.34-.13-.33-.14-.33-.15-.33-.16-.33-.16-.31-.17-.32-.18-.31-.18-.31-.19-.3-.2-.3-.2-.29-.21-.29-.22L99,62.22a3.11,3.11,0,0,1-.28-.23l-.28-.23-.27-.25-.26-.25L97.68,61l-.25-.26-.25-.27-.24-.27-.23-.28-.23-.28-.22-.29-.21-.29-.21-.3-.2-.3-.19-.3c-.06-.11-.13-.21-.19-.31l-.18-.32-.17-.32c0-.1-.11-.21-.16-.32s-.11-.22-.16-.33l-.15-.32c0-.11-.09-.22-.14-.34l-.14-.33L94,55.24l-.12-.34c0-.12-.08-.23-.11-.35s-.08-.23-.11-.34l-.09-.35-.09-.35c0-.12-.06-.24-.08-.36s0-.23-.07-.35-.05-.24-.07-.36,0-.23,0-.35,0-.24,0-.36,0-.24,0-.36,0-.24,0-.36,0-.24,0-.36,0-.24,0-.36,0-.24,0-.37v-.36c0-.12,0-.24,0-.36s0-.24,0-.36,0-.24,0-.36,0-.24,0-.36,0-.24,0-.36,0-.24.05-.36,0-.24,0-.36,0-.23.07-.35.05-.24.07-.36l.09-.35c0-.12,0-.23.08-.35a3.57,3.57,0,0,0,.1-.35c0-.11.07-.23.11-.34l.11-.35.12-.34c0-.11.09-.22.13-.34l.14-.33c0-.11.09-.22.14-.33l.15-.33c.06-.11.11-.22.16-.33s.11-.21.17-.32l.17-.31.18-.32.19-.31.19-.3.21-.3.2-.3.22-.29.22-.29.23-.28L97,39.3l.24-.27.25-.27.25-.26.26-.25a3.07,3.07,0,0,1,.26-.25l.27-.24.27-.24.28-.23.29-.22.29-.22.29-.21.3-.2.31-.2.3-.19.32-.18.31-.17.32-.17.33-.16.32-.16.34-.14.33-.14.34-.13.34-.13.34-.11.34-.11.35-.1.35-.09.35-.09.36-.07.35-.07.36-.06.36,0,.36-.05.36,0,.36,0,.36,0h1.45l.36,0,.36,0,.36,0,.36,0,.35,0L112,34l.35.07.36.08.35.09.35.09.35.1.34.11.34.12.34.12.34.14.33.14.33.14.33.16.32.16.32.17.32.18.31.18.31.19.3.2.3.21.29.21.29.22.28.22.28.23.28.24.26.24.26.25.26.25.25.27a3.07,3.07,0,0,1,.25.26l.24.27a3.11,3.11,0,0,0,.23.28l.23.28.22.29.21.29.21.3.19.3.2.31.18.31.18.31c.06.11.12.21.17.32s.12.21.17.32.1.22.16.33l.15.33c0,.11.09.22.14.33s.09.22.13.34.09.22.13.33l.12.35a3.38,3.38,0,0,1,.11.34l.11.35.09.34.09.36c0,.11,0,.23.08.35s0,.23.07.35,0,.24.07.36,0,.24,0,.36,0,.24,0,.35,0,.24,0,.36,0,.24,0,.36l0,.37c0,.12,0,.24,0,.36S125.09,49.52,125.09,49.64Z" transform="translate(-16.67 -20.26)"/><path id="STROKE_44e480aa-75bd-45f2-942f-dfd04a14093f" data-name="STROKE 44e480aa-75bd-45f2-942f-dfd04a14093f" class="cls-1" d="M78.83,112.92v.36c0,.12,0,.24,0,.36s0,.25,0,.37,0,.24,0,.36,0,.24,0,.36,0,.24,0,.35,0,.24,0,.36l-.06.36-.06.36c0,.12,0,.23-.08.35a3.59,3.59,0,0,1-.08.35l-.09.35a3.57,3.57,0,0,1-.1.35c0,.12-.06.23-.1.35l-.12.34a2.3,2.3,0,0,1-.12.34,3.42,3.42,0,0,1-.13.34c0,.11-.09.22-.13.34l-.15.33a2.41,2.41,0,0,1-.15.33c0,.1-.1.21-.16.32a3.18,3.18,0,0,1-.16.32c-.06.11-.12.21-.17.32s-.12.21-.19.31l-.18.31-.2.31c-.06.1-.13.2-.2.3l-.21.29-.21.29-.22.29-.23.28-.23.28-.24.27-.25.26-.25.26-.26.26-.26.24-.27.25a11506905014211,11506905014211,0,0,0-.56.46l-.28.22-.29.22-.3.21-.29.2-.31.2-.31.19-.31.18-.32.18-.32.17-.32.16-.33.15-.33.15-.33.14-.34.13-.34.12-.34.12-.35.1-.34.1-.35.1-.36.08-.35.08-.36.06-.35.07-.36.05-.36,0-.36,0-.36,0-.36,0-.36,0H62.06l-.36,0-.36,0L61,129l-.36,0-.36-.06-.35-.06-.36-.07-.35-.08-.35-.08-.35-.1-.35-.1-.34-.11-.35-.11-.34-.13-.33-.13-.33-.14-.34-.15-.32-.16a3.18,3.18,0,0,1-.32-.16l-.32-.17-.32-.17-.31-.19-.31-.19-.3-.2-.3-.2-.29-.21-.29-.22-.29-.22-.27-.24a3.11,3.11,0,0,1-.28-.23l-.27-.25-.26-.25-.25-.25-.26-.26-.24-.27-.24-.27a3.11,3.11,0,0,1-.23-.28l-.23-.28-.22-.28-.21-.3-.21-.3c-.07-.09-.13-.19-.2-.3l-.19-.3-.19-.31-.18-.32-.17-.31-.16-.33c-.05-.11-.11-.21-.16-.32l-.15-.33a3.45,3.45,0,0,1-.14-.34l-.14-.33-.12-.34c-.05-.11-.08-.23-.12-.34l-.12-.35c0-.11-.07-.22-.1-.34l-.09-.35c0-.12-.06-.23-.09-.35s-.06-.24-.08-.35,0-.24-.08-.36l-.06-.35-.06-.36c0-.12,0-.24,0-.36s0-.24,0-.36,0-.24,0-.36,0-.24,0-.36,0-.24,0-.36,0-.24,0-.36v-.37c0-.12,0-.24,0-.36s0-.24,0-.36,0-.24,0-.36l0-.36c0-.12,0-.24.05-.36s0-.24,0-.36,0-.24,0-.35.05-.24.07-.36.05-.24.07-.35.06-.24.08-.36.06-.23.1-.35l.09-.35c0-.11.07-.23.11-.34a3.38,3.38,0,0,1,.11-.34l.12-.35.13-.33c0-.12.09-.23.14-.34s.09-.22.14-.33l.15-.33c0-.11.11-.22.16-.32l.17-.33.17-.31.18-.32c.06-.1.13-.2.19-.31l.19-.3c.07-.1.14-.2.2-.3l.21-.3.22-.29a3,3,0,0,1,.22-.28c.07-.1.15-.19.23-.29l.23-.27.24-.27.25-.27.25-.26.26-.25.26-.25.27-.24.27-.24.28-.23.29-.22.29-.21a3.15,3.15,0,0,1,.29-.22l.3-.2.31-.2.3-.18.32-.19.31-.17.32-.17.33-.16.32-.16.33-.14.34-.14.34-.13.34-.12.34-.12.34-.11.35-.1.35-.09.35-.08.36-.08.35-.07.36-.06.36,0,.36,0,.36,0,.36,0,.36,0h1.08l.36,0,.37,0,.36,0,.36,0,.35,0,.36.05.36.06.35.08.36.07.35.09.35.09.35.11.34.1.34.12.34.13.34.13.33.14.33.15.33.15.32.16.32.17.32.18.31.19.31.19.3.19.3.21.29.21.29.22.28.22.28.23.27.24.27.24.27.25.25.26a3.07,3.07,0,0,1,.25.26l.25.26.24.28.23.27a3.11,3.11,0,0,0,.23.28l.21.29.22.29.2.3c.07.1.14.2.2.3l.2.31.18.31.18.31.17.32c.06.11.11.22.17.32l.15.33c.06.11.11.22.16.33s.09.22.14.33l.13.34a3.42,3.42,0,0,1,.13.34L78,108c0,.11.07.23.11.34l.11.35.09.35.09.35c0,.12,0,.23.08.35s0,.24.07.35,0,.24.06.36a2.25,2.25,0,0,1,.06.36c0,.12,0,.24,0,.36s0,.24,0,.36l0,.36,0,.36c0,.12,0,.24,0,.36S78.83,112.8,78.83,112.92Z" transform="translate(-16.67 -20.26)"/><path id="STROKE_194c3627-1e82-4910-8b9c-6b912eeacbbb" data-name="STROKE 194c3627-1e82-4910-8b9c-6b912eeacbbb" class="cls-2" d="M30.1,58.14c0,.16,0,.4,0,.73s0,1,0,2,0,1.8.06,2.34.09,1.5.2,2.88.37,3.36.79,5.92a64.86,64.86,0,0,0,1.39,6.62q.75,2.77,1.54,5A40.09,40.09,0,0,0,36,88.1a32.94,32.94,0,0,0,2,3.56c.56.82,1,1.44,1.34,1.84s.68.82,1.06,1.23.82.85,1.3,1.3.95.84,1.39,1.18.77.58,1,.74.43.29.6.42l.7.49.69.44.4.24.55.35.88.53" transform="translate(-16.67 -20.26)"/><path id="STROKE_a6af6252-2afb-4c9b-841c-ed5de46d3f5e" data-name="STROKE a6af6252-2afb-4c9b-841c-ed5de46d3f5e" class="cls-3" d="M48.12,52.16l.23.24c.13.17.47.56,1,1.19s1,1.26,1.56,1.89.92,1.16,1.24,1.59.79,1.11,1.39,2,1.09,1.69,1.45,2.33.67,1.19.91,1.65.54,1,.88,1.77.66,1.42.95,2.11.59,1.51.9,2.45.58,1.83.8,2.66.38,1.46.48,1.87.26,1.12.48,2.12.41,2,.6,3,.33,1.82.43,2.41.16,1,.19,1.3.07.52.09.76.07.62.14,1.14.12.92.16,1.2.06.62.08,1,0,.88.07,1.48.06,1,.08,1.32,0,.56.05.83,0,.44,0,.51,0,.26,0,.56v.55q0,.11,0,.81" transform="translate(-16.67 -20.26)"/><path id="STROKE_75b1bca5-3810-4b45-a62d-0500a7f0eacf" data-name="STROKE 75b1bca5-3810-4b45-a62d-0500a7f0eacf" class="cls-4" d="M49.91,24.37l.41-.14c.22-.09.63-.23,1.22-.42l2-.63c.75-.23,1.69-.49,2.81-.79s2.58-.62,4.37-1,3.1-.55,3.92-.64,1.62-.15,2.41-.19,1.51-.06,2.14-.06,1.6,0,2.92.12,2.66.2,4,.36,2.73.37,4.15.64,2.5.48,3.24.66,1.49.39,2.27.62,1.53.49,2.25.76,1.39.52,2,.79,1.24.55,1.88.87,1.11.57,1.4.73l.94.54.76.42c.17.09.66.41,1.47.94s1.53,1,2.12,1.41,1,.68,1.19.83.53.37,1,.69" transform="translate(-16.67 -20.26)"/><path id="STROKE_ba76d490-5459-46ca-8465-3ecd1c3d8d59" data-name="STROKE ba76d490-5459-46ca-8465-3ecd1c3d8d59" class="cls-5" d="M53.17,37l2.29.66c1.35.4,2.95.84,4.78,1.32s3.52.91,5.05,1.27,2.77.63,3.75.83,1.75.34,2.34.44l1.43.23,1,.13,1.95.17c1,.08,2.16.14,3.46.19s2.3.06,3,.06l2,0c.6,0,1.07,0,1.42,0l1.11,0,1.09-.07,1.8-.09,2.69-.11" transform="translate(-16.67 -20.26)"/><path id="STROKE_5cda7da2-4eca-4a5a-8956-a1f4c512bfaf" data-name="STROKE 5cda7da2-4eca-4a5a-8956-a1f4c512bfaf" class="cls-6" d="M74.18,95.32c0-.19.08-.38.1-.55.07-.38.24-1.17.53-2.37s.58-2.29.89-3.28.65-1.93,1-2.82.73-1.73,1.11-2.51.76-1.47,1.13-2.1.84-1.33,1.4-2.11a29.55,29.55,0,0,1,2.25-2.7,31.28,31.28,0,0,1,2.27-2.3c.59-.51,1.11-1,1.58-1.31s1.19-.85,2.16-1.46,1.71-1,2.23-1.33.91-.49,1.18-.62.65-.31,1.16-.54l1.37-.6,1-.48.71-.33,1-.43.58-.22" transform="translate(-16.67 -20.26)"/><path id="STROKE_6ec8744b-f964-43a7-937e-65f720e20548" data-name="STROKE 6ec8744b-f964-43a7-937e-65f720e20548" class="cls-7" d="M82.46,108.2l.87-.47q.77-.41,2.49-1.44c1.16-.69,2.19-1.35,3.1-2s1.77-1.24,2.56-1.85,1.68-1.35,2.64-2.2,1.9-1.73,2.81-2.67,1.67-1.79,2.29-2.54,1.1-1.36,1.44-1.83.93-1.38,1.75-2.73a44.61,44.61,0,0,0,2.16-3.91c.61-1.26,1.08-2.29,1.39-3.08s.62-1.62.89-2.47.61-2,1-3.57.62-2.54.71-3,.15-.74.16-.87.06-.33.12-.61.14-.71.27-1.29" transform="translate(-16.67 -20.26)"/><path id="STROKE_71f09fea-0a1f-4945-87bb-0be28aaf02df" data-name="STROKE 71f09fea-0a1f-4945-87bb-0be28aaf02df" class="cls-8" d="M98.07,66.91l-.46-.22a.23.23,0,0,0-.11,0l-1.08-.42-1.6-.63c-.39-.15-.79-.33-1.2-.53" transform="translate(-16.67 -20.26)"/><path id="STROKE_15da9479-1922-4da7-9863-09040f52edb2" data-name="STROKE 15da9479-1922-4da7-9863-09040f52edb2" class="cls-9" d="M98.46,67.26q-.13.19-1,2l-.49.94" transform="translate(-16.67 -20.26)"/><path id="STROKE_1d5a8ca7-802c-4ea3-a0db-887da9ac1810" data-name="STROKE 1d5a8ca7-802c-4ea3-a0db-887da9ac1810" class="cls-10" d="M83.29,106.73l.17-.25,0,0c0-.08.41-1,1.19-2.76a1.26,1.26,0,0,0,.18-.32" transform="translate(-16.67 -20.26)"/><path id="STROKE_6fbf1cbe-6246-48df-9e6d-03c63489d204" data-name="STROKE 6fbf1cbe-6246-48df-9e6d-03c63489d204" class="cls-11" d="M83.16,108.17a5.35,5.35,0,0,0,.62.1,8.33,8.33,0,0,1,1.12.41c.66.27,1,.42,1.09.46a3.72,3.72,0,0,0,.6.22,5.42,5.42,0,0,0,1.11.23" transform="translate(-16.67 -20.26)"/><path id="STROKE_8404281d-f73e-4b67-9c1a-7f7cc814a1ae" data-name="STROKE 8404281d-f73e-4b67-9c1a-7f7cc814a1ae" class="cls-12" d="M62.53,93.63c.14-.23.34-.54.59-.92s.61-.92,1.06-1.62,1-1.48,1.54-2.34" transform="translate(-16.67 -20.26)"/><path id="STROKE_b2053ad9-eabb-4ab5-a0a1-0c45116b5c49" data-name="STROKE b2053ad9-eabb-4ab5-a0a1-0c45116b5c49" class="cls-13" d="M62.36,93.18l-1.45-.65-1.53-.68-1.63-.74-.56-.3" transform="translate(-16.67 -20.26)"/><path id="STROKE_d8e13a96-4c66-466b-939e-760ca0ff0804" data-name="STROKE d8e13a96-4c66-466b-939e-760ca0ff0804" class="cls-14" d="M30.2,58.46a9.05,9.05,0,0,0,1,.74q.57.39,1.14.81c.38.27.74.54,1.08.8s.66.5.94.69" transform="translate(-16.67 -20.26)"/><path id="STROKE_2fd194ce-8ae3-41a5-9eb4-42a8420b75f3" data-name="STROKE 2fd194ce-8ae3-41a5-9eb4-42a8420b75f3" class="cls-15" d="M29.56,57.9a9.42,9.42,0,0,0-.72,1l-1,1.54c-.43.63-.76,1.1-1,1.41a4.28,4.28,0,0,1-.42.56c-.06.06-.18.22-.38.48" transform="translate(-16.67 -20.26)"/><path id="STROKE_f9a0cf89-641d-4209-b1df-5054958bd79a" data-name="STROKE f9a0cf89-641d-4209-b1df-5054958bd79a" class="cls-16" d="M53.4,37.16l.85-.52,2-1.29q1.44-.93,1.56-1l1.46-.84" transform="translate(-16.67 -20.26)"/><path id="STROKE_a175dda1-5c53-4506-9f37-a89f372a9c7c" data-name="STROKE a175dda1-5c53-4506-9f37-a89f372a9c7c" class="cls-17" d="M53.54,37.61a3.27,3.27,0,0,0,.26.38q.09.1.6.93c.34.54.6,1,.77,1.25s.26.47.29.52l.81,1.14" transform="translate(-16.67 -20.26)"/><path id="STROKE_855c6c82-25f9-4ec9-bc92-bd5ab567fa0c" data-name="STROKE 855c6c82-25f9-4ec9-bc92-bd5ab567fa0c" class="cls-18" d="M100.5,31.42c0-.15,0-.28,0-.37s-.07-.44-.16-1-.18-1.21-.29-1.84-.18-1.07-.22-1.33" transform="translate(-16.67 -20.26)"/><path id="STROKE_4564b6e0-3bb7-47fb-a2da-9f37fdaf008c" data-name="STROKE 4564b6e0-3bb7-47fb-a2da-9f37fdaf008c" class="cls-19" d="M101.8,31.44a5.1,5.1,0,0,1-.77.09l-.66,0-.7.06-1.39.15a9.44,9.44,0,0,1-1,.08c-.09,0-.49,0-1.22.13" transform="translate(-16.67 -20.26)"/><path id="STROKE_76cc3e09-5177-47b3-afcc-f0c0b189a881" data-name="STROKE 76cc3e09-5177-47b3-afcc-f0c0b189a881" class="cls-20" d="M48,38v.34c0,.11,0,.22,0,.34s0,.22,0,.33,0,.23,0,.34l0,.33c0,.12,0,.23,0,.34s0,.22,0,.33,0,.22-.05.33L47.7,41l-.06.32c0,.11,0,.22-.08.33s-.05.22-.08.33l-.09.32c0,.11-.07.22-.1.33s-.07.21-.1.32l-.12.31c0,.11-.07.21-.11.32s-.09.21-.13.31l-.13.31a2.92,2.92,0,0,0-.14.31l-.15.3-.15.3-.16.29-.17.3-.17.28-.18.29-.19.28c-.06.09-.13.18-.19.28l-.2.27-.21.27-.21.26-.21.25-.23.26-.22.24-.24.25-.24.23-.24.23-.25.23-.25.22a2.75,2.75,0,0,0-.26.22l-.27.2-.27.21-.27.19-.28.19-.28.19-.29.17-.29.17-.29.17-.3.16-.3.15-.3.14-.31.14-.31.13-.31.12-.32.12-.32.1-.32.11-.32.09-.33.09-.32.08-.33.07-.33.06-.33.06-.34,0-.33,0-.34,0-.33,0-.34,0h-1l-.33,0h-.34l-.34,0-.33,0-.33,0-.34,0-.33-.06-.33-.06-.33-.08-.33-.08-.32-.08-.32-.09-.33-.11-.31-.1-.32-.12L27.52,52l-.31-.13-.31-.14-.31-.14-.3-.15a2.69,2.69,0,0,1-.29-.16l-.3-.16-.29-.17-.29-.18-.28-.18-.28-.19-.27-.2L24,50l-.27-.2-.25-.22a2.75,2.75,0,0,1-.26-.22L23,49.13l-.24-.23a2.72,2.72,0,0,1-.24-.24l-.24-.24L22,48.17l-.22-.25-.22-.26-.21-.26-.2-.27-.2-.27-.2-.27-.18-.28L20.43,46l-.18-.29c-.06-.09-.11-.19-.17-.29l-.16-.29-.15-.3-.15-.3c-.05-.11-.09-.21-.14-.31l-.13-.31c-.05-.1-.09-.21-.13-.31l-.12-.32c0-.1-.07-.21-.11-.31s-.07-.22-.1-.32-.07-.22-.1-.33L18.7,42l-.09-.33c0-.1-.05-.21-.07-.32s-.05-.22-.07-.33l-.06-.33-.06-.33c0-.12,0-.23,0-.34s0-.22,0-.33l0-.34c0-.11,0-.22,0-.33s0-.23,0-.34,0-.22,0-.34V38c0-.12,0-.23,0-.34s0-.22,0-.34l0-.33,0-.34c0-.11,0-.22,0-.33s0-.22,0-.33,0-.23,0-.34l.06-.33c0-.11.05-.22.07-.33s0-.22.07-.33l.09-.32.09-.33c0-.1.06-.21.1-.32s.06-.21.1-.32.07-.21.11-.32l.12-.31a2.88,2.88,0,0,1,.13-.31,2.88,2.88,0,0,1,.13-.31c0-.1.09-.21.14-.31s.1-.2.14-.3.11-.2.16-.3.1-.2.16-.3l.16-.29.18-.29.18-.28.18-.28.2-.28.2-.27.2-.27.21-.26.22-.26.22-.25.23-.25.23-.24.24-.24.25-.23.25-.22.25-.22.26-.22.26-.21.27-.2.28-.2.27-.19.29-.18.28-.18.29-.17.3-.16.29-.16.3-.15.31-.14.31-.14.31-.13.31-.12.32-.12.31-.11.32-.1.33-.09.32-.09.33-.08.33-.07.33-.07.33-.05.33-.05.34,0,.33,0,.34,0,.33,0h1.35l.34,0,.33,0,.34,0,.33,0,.33,0,.34.06.33.06.32.07.33.08.33.09.32.09.32.1.32.11.32.12.31.12.31.13.31.13.3.15.3.15.3.15.29.17.3.17.28.17.28.19.28.19.28.19.27.2.26.21.26.22.26.22.25.22.24.23.24.24.23.24a2.73,2.73,0,0,1,.23.25l.23.25.21.26.21.26.21.26.2.27c.06.1.13.19.19.28s.13.19.19.28l.18.28.17.29.17.29c.06.1.11.2.16.3l.16.3c.05.1.1.2.14.3s.1.21.14.31.09.2.14.31l.12.31.12.31.12.32c0,.11.07.21.1.32s.07.21.1.32l.09.33a3,3,0,0,1,.08.32c0,.11.05.22.08.33s0,.22.07.33l.06.33c0,.11,0,.22.05.33s0,.23,0,.34l0,.33c0,.11,0,.22,0,.34s0,.22,0,.33,0,.23,0,.34S48,37.88,48,38Z" transform="translate(-16.67 -20.26)"/></g></svg>