<svg id="Layer_1" data-name="Layer 1" xmlns="http://www.w3.org/2000/svg" viewBox="0 0 126.06 126.06"><defs><style>.cls-1,.cls-10,.cls-2,.cls-3,.cls-4,.cls-5,.cls-6,.cls-7,.cls-8,.cls-9{fill:none;stroke-linecap:round;stroke-linejoin:round;isolation:isolate;}.cls-1,.cls-2,.cls-3,.cls-4,.cls-5,.cls-6,.cls-7,.cls-8,.cls-9{stroke:#bd8ae6;opacity:0.75;}.cls-1{stroke-width:1.37px;}.cls-2{stroke-width:1.3px;}.cls-3{stroke-width:1.28px;}.cls-4{stroke-width:0.28px;}.cls-5{stroke-width:0.29px;}.cls-6{stroke-width:0.28px;}.cls-7{stroke-width:0.28px;}.cls-8{stroke-width:0.29px;}.cls-9{stroke-width:0.27px;}.cls-10{stroke:#00a0c8;stroke-width:0.84px;opacity:0.65;}</style></defs><path id="STROKE_9c979fe5-f4e6-4018-a72a-6c117a9951ce" data-name="STROKE 9c979fe5-f4e6-4018-a72a-6c117a9951ce" class="cls-1" d="M230.53,35.78l-.36,32" transform="translate(-132.9 -5.44)"/><path id="STROKE_5a3eb4b0-db1b-4086-87aa-58a59fc3d8ec" data-name="STROKE 5a3eb4b0-db1b-4086-87aa-58a59fc3d8ec" class="cls-2" d="M229.93,68.08l15.64.16" transform="translate(-132.9 -5.44)"/><path id="STROKE_50e73bfe-2c35-4206-8af3-29466c6d4c93" data-name="STROKE 50e73bfe-2c35-4206-8af3-29466c6d4c93" class="cls-3" d="M245.9,68.9l.39-33.42" transform="translate(-132.9 -5.44)"/><path id="STROKE_803cffc2-57ae-4e5a-947f-cd1873d5b52c" data-name="STROKE 803cffc2-57ae-4e5a-947f-cd1873d5b52c" class="cls-4" d="M231.06,60.29l14.27,0" transform="translate(-132.9 -5.44)"/><path id="STROKE_7aad8870-84bc-4269-bf4b-aca4bd871ddf" data-name="STROKE 7aad8870-84bc-4269-bf4b-aca4bd871ddf" class="cls-5" d="M230.4,51.83l15.14-.12" transform="translate(-132.9 -5.44)"/><path id="STROKE_ecb321cb-ef1f-4dc0-81b7-957ce34cec1f" data-name="STROKE ecb321cb-ef1f-4dc0-81b7-957ce34cec1f" class="cls-6" d="M231,52.73l7.18,3.42" transform="translate(-132.9 -5.44)"/><path id="STROKE_65bf530e-3a63-4a86-b542-adbe82680afc" data-name="STROKE 65bf530e-3a63-4a86-b542-adbe82680afc" class="cls-7" d="M237.6,56.7,245.72,52" transform="translate(-132.9 -5.44)"/><path id="STROKE_56276729-9765-4062-bb08-cd12ff7a2839" data-name="STROKE 56276729-9765-4062-bb08-cd12ff7a2839" class="cls-8" d="M231,60.94l7.59,3.3" transform="translate(-132.9 -5.44)"/><path id="STROKE_4923fd0e-ce96-475d-bb17-6ec59115c531" data-name="STROKE 4923fd0e-ce96-475d-bb17-6ec59115c531" class="cls-9" d="M237.9,64.91l7.8-4.84" transform="translate(-132.9 -5.44)"/><path id="STROKE_3fc4b4f6-4a2e-443d-9636-666dea5fa8b5" data-name="STROKE 3fc4b4f6-4a2e-443d-9636-666dea5fa8b5" class="cls-10" d="M258.51,70.57c0,.47,0,.94-.07,1.41s-.06.94-.09,1.41-.08.94-.13,1.41-.1.94-.16,1.41-.12.93-.19,1.4-.14.93-.22,1.4-.17.93-.26,1.39-.18.92-.28,1.38-.21.93-.32,1.38-.22.92-.35,1.38-.24.91-.37,1.36-.27.9-.41,1.35-.29.9-.44,1.35-.31.89-.47,1.33-.33.89-.5,1.33l-.53,1.31c-.19.43-.37.87-.56,1.3s-.39.86-.59,1.29-.41.85-.62,1.27-.43.84-.65,1.26-.44.83-.67,1.24-.46.82-.7,1.23-.48.81-.73,1.21-.5.8-.76,1.2l-.78,1.18-.81,1.16-.84,1.14-.86,1.12c-.29.37-.59.74-.89,1.1s-.6.73-.91,1.08-.62.71-.94,1.06-.63.7-1,1-.65.69-1,1-.67.67-1,1l-1,1-1.05,1c-.36.31-.71.62-1.08.92s-.72.61-1.09.9-.73.59-1.11.88-.75.57-1.13.85l-1.15.82-1.17.8-1.18.77c-.4.26-.8.5-1.21.75l-1.22.72-1.23.68-1.25.67-1.27.63c-.42.21-.85.41-1.28.6l-1.29.58c-.44.19-.87.37-1.31.54l-1.32.52-1.32.49-1.34.45-1.35.43-1.36.39-1.37.37-1.37.33c-.46.11-.93.21-1.39.3s-.92.19-1.39.27-.93.17-1.39.24-.93.15-1.4.21l-1.4.18-1.41.14-1.41.11-1.42.08-1.41.05-1.41,0-1.42,0c-.47,0-.94,0-1.41-.05l-1.42-.07c-.47,0-.94-.07-1.41-.12l-1.4-.14-1.41-.17-1.4-.21c-.47-.07-.93-.15-1.39-.24s-.93-.17-1.39-.27-.93-.19-1.39-.3-.91-.21-1.37-.33l-1.37-.36-1.36-.4-1.35-.42-1.34-.46L173.8,127l-1.31-.52c-.44-.17-.88-.36-1.31-.54s-.87-.38-1.29-.58-.86-.39-1.28-.6l-1.27-.63-1.25-.66-1.24-.69c-.41-.23-.81-.47-1.22-.72l-1.2-.74-1.19-.77-1.17-.8-1.15-.82c-.38-.28-.76-.56-1.13-.85s-.75-.58-1.11-.88-.73-.59-1.1-.9l-1.07-.92-1-1-1-1-1-1c-.34-.34-.66-.68-1-1l-1-1c-.31-.35-.63-.7-.93-1.06l-.92-1.08c-.3-.36-.59-.73-.89-1.1l-.86-1.12-.84-1.15-.81-1.15-.78-1.18c-.26-.4-.51-.8-.76-1.2s-.49-.8-.73-1.21-.47-.81-.7-1.23-.46-.82-.68-1.24-.44-.84-.65-1.26-.41-.84-.62-1.27l-.59-1.29c-.19-.43-.37-.86-.55-1.3s-.36-.87-.54-1.31l-.5-1.32c-.16-.44-.32-.89-.47-1.34s-.3-.89-.44-1.34-.28-.9-.41-1.35-.26-.91-.38-1.37-.24-.91-.35-1.37-.21-.92-.32-1.38-.19-.92-.28-1.38-.18-.93-.26-1.4-.15-.93-.22-1.39-.13-.94-.19-1.4-.11-.94-.16-1.41-.09-.94-.13-1.41-.07-.94-.1-1.41,0-.94-.06-1.42,0-.94,0-1.41,0-.94,0-1.41,0-1,0-1.42,0-.94.06-1.41.06-.94.1-1.41.07-.94.12-1.41.1-.94.16-1.41.12-.94.19-1.4.15-.93.22-1.4.17-.93.26-1.39.18-.93.28-1.39.21-.92.32-1.38.23-.91.35-1.37.25-.91.38-1.36.26-.91.41-1.36.28-.89.44-1.34.3-.89.47-1.34.32-.88.5-1.32.34-.88.53-1.31.36-.87.56-1.3.38-.86.58-1.29.41-.85.62-1.27.43-.84.65-1.26.44-.83.67-1.24.47-.83.71-1.23.48-.81.73-1.22.5-.79.75-1.19.52-.79.79-1.18.53-.77.81-1.16l.83-1.14.86-1.12c.3-.37.59-.74.89-1.1s.61-.73.91-1.09.62-.71.94-1.06l1-1,1-1,1-1,1-1c.34-.32.69-.64,1-.95l1.07-.93,1.09-.9,1.11-.87c.37-.29.75-.57,1.13-.85l1.15-.83,1.17-.79c.39-.27.79-.52,1.19-.78l1.2-.74,1.22-.72,1.24-.69,1.25-.66q.63-.33,1.26-.63l1.28-.61,1.29-.57,1.31-.55,1.32-.51,1.33-.49L176.43,9l1.35-.42,1.35-.4,1.37-.36q.69-.18,1.38-.33l1.38-.31,1.39-.27L186,6.64l1.4-.2q.7-.11,1.41-.18l1.4-.14L191.67,6l1.41-.08,1.41,0c.47,0,.95,0,1.42,0s.94,0,1.41,0l1.42,0,1.41.08,1.41.11,1.41.15,1.4.17c.47.06.94.13,1.4.21s.93.15,1.4.24l1.39.26,1.38.31c.46.1.92.21,1.37.33s.92.24,1.37.36l1.36.4q.68.2,1.35.42l1.34.45,1.33.49,1.32.51,1.3.55,1.3.57,1.28.61q.63.3,1.26.63c.42.21.84.43,1.25.66s.83.45,1.24.69l1.22.71,1.21.75,1.18.77,1.17.8,1.15.82c.38.28.76.56,1.13.85l1.12.87,1.09.9c.36.31.72.61,1.07.93l1.05.94c.35.32.69.65,1,1s.67.66,1,1l1,1,1,1c.32.35.63.7.94,1.06s.61.71.91,1.08.6.73.89,1.1l.86,1.12.84,1.14.81,1.16c.27.39.53.78.79,1.18l.75,1.19.73,1.22c.24.4.48.81.71,1.22l.67,1.25c.22.41.44.83.65,1.26s.42.84.62,1.27.4.85.59,1.28.38.87.56,1.3.36.88.53,1.32.34.88.5,1.32.32.89.47,1.33.3.9.44,1.35.28.9.41,1.35.26.91.38,1.37.24.91.35,1.37.22.92.32,1.38.19.92.28,1.38.18.93.26,1.39.15.93.22,1.4.14.93.19,1.4.12.94.16,1.41.1.94.13,1.41.07.94.1,1.41.05.94.06,1.41,0,1,0,1.42v1.41Z" transform="translate(-132.9 -5.44)"/><path id="STROKE_79cb5e67-c82c-4000-8965-f8be69855ef6" data-name="STROKE 79cb5e67-c82c-4000-8965-f8be69855ef6" class="cls-10" d="M258.51,70.57c0,.47,0,.94-.07,1.41s-.06.94-.09,1.41-.08.94-.13,1.41-.1.94-.16,1.41-.12.93-.19,1.4-.14.93-.22,1.4-.17.93-.26,1.39-.18.92-.28,1.38-.21.93-.32,1.38-.22.92-.35,1.38-.24.91-.37,1.36-.27.9-.41,1.35-.29.9-.44,1.35-.31.89-.47,1.33-.33.89-.5,1.33l-.53,1.31c-.19.43-.37.87-.56,1.3s-.39.86-.59,1.29-.41.85-.62,1.27-.43.84-.65,1.26-.44.83-.67,1.24-.46.82-.7,1.23-.48.81-.73,1.21-.5.8-.76,1.2l-.78,1.18-.81,1.16-.84,1.14-.86,1.12c-.29.37-.59.74-.89,1.1s-.6.73-.91,1.08-.62.71-.94,1.06-.63.7-1,1-.65.69-1,1-.67.67-1,1l-1,1-1.05,1c-.36.31-.71.62-1.08.92s-.72.61-1.09.9-.73.59-1.11.88-.75.57-1.13.85l-1.15.82-1.17.8-1.18.77c-.4.26-.8.5-1.21.75l-1.22.72-1.23.68-1.25.67-1.27.63c-.42.21-.85.41-1.28.6l-1.29.58c-.44.19-.87.37-1.31.54l-1.32.52-1.32.49-1.34.45-1.35.43-1.36.39-1.37.37-1.37.33c-.46.11-.93.21-1.39.3s-.92.19-1.39.27-.93.17-1.39.24-.93.15-1.4.21l-1.4.18-1.41.14-1.41.11-1.42.08-1.41.05-1.41,0-1.42,0c-.47,0-.94,0-1.41-.05l-1.42-.07c-.47,0-.94-.07-1.41-.12l-1.4-.14-1.41-.17-1.4-.21c-.47-.07-.93-.15-1.39-.24s-.93-.17-1.39-.27-.93-.19-1.39-.3-.91-.21-1.37-.33l-1.37-.36-1.36-.4-1.35-.42-1.34-.46L173.8,127l-1.31-.52c-.44-.17-.88-.36-1.31-.54s-.87-.38-1.29-.58-.86-.39-1.28-.6l-1.27-.63-1.25-.66-1.24-.69c-.41-.23-.81-.47-1.22-.72l-1.2-.74-1.19-.77-1.17-.8-1.15-.82c-.38-.28-.76-.56-1.13-.85s-.75-.58-1.11-.88-.73-.59-1.1-.9l-1.07-.92-1-1-1-1-1-1c-.34-.34-.66-.68-1-1l-1-1c-.31-.35-.63-.7-.93-1.06l-.92-1.08c-.3-.36-.59-.73-.89-1.1l-.86-1.12-.84-1.15-.81-1.15-.78-1.18c-.26-.4-.51-.8-.76-1.2s-.49-.8-.73-1.21-.47-.81-.7-1.23-.46-.82-.68-1.24-.44-.84-.65-1.26-.41-.84-.62-1.27l-.59-1.29c-.19-.43-.37-.86-.55-1.3s-.36-.87-.54-1.31l-.5-1.32c-.16-.44-.32-.89-.47-1.34s-.3-.89-.44-1.34-.28-.9-.41-1.35-.26-.91-.38-1.37-.24-.91-.35-1.37-.21-.92-.32-1.38-.19-.92-.28-1.38-.18-.93-.26-1.4-.15-.93-.22-1.39-.13-.94-.19-1.4-.11-.94-.16-1.41-.09-.94-.13-1.41-.07-.94-.1-1.41,0-.94-.06-1.42,0-.94,0-1.41,0-.94,0-1.41,0-1,0-1.42,0-.94.06-1.41.06-.94.1-1.41.07-.94.12-1.41.1-.94.16-1.41.12-.94.19-1.4.15-.93.22-1.4.17-.93.26-1.39.18-.93.28-1.39.21-.92.32-1.38.23-.91.35-1.37.25-.91.38-1.36.26-.91.41-1.36.28-.89.44-1.34.3-.89.47-1.34.32-.88.5-1.32.34-.88.53-1.31.36-.87.56-1.3.38-.86.58-1.29.41-.85.62-1.27.43-.84.65-1.26.44-.83.67-1.24.47-.83.71-1.23.48-.81.73-1.22.5-.79.75-1.19.52-.79.79-1.18.53-.77.81-1.16l.83-1.14.86-1.12c.3-.37.59-.74.89-1.1s.61-.73.91-1.09.62-.71.94-1.06l1-1,1-1,1-1,1-1c.34-.32.69-.64,1-.95l1.07-.93,1.09-.9,1.11-.87c.37-.29.75-.57,1.13-.85l1.15-.83,1.17-.79c.39-.27.79-.52,1.19-.78l1.2-.74,1.22-.72,1.24-.69,1.25-.66q.63-.33,1.26-.63l1.28-.61,1.29-.57,1.31-.55,1.32-.51,1.33-.49L176.43,9l1.35-.42,1.35-.4,1.37-.36q.69-.18,1.38-.33l1.38-.31,1.39-.27L186,6.64l1.4-.2q.7-.11,1.41-.18l1.4-.14L191.67,6l1.41-.08,1.41,0c.47,0,.95,0,1.42,0s.94,0,1.41,0l1.42,0,1.41.08,1.41.11,1.41.15,1.4.17c.47.06.94.13,1.4.21s.93.15,1.4.24l1.39.26,1.38.31c.46.1.92.21,1.37.33s.92.24,1.37.36l1.36.4q.68.2,1.35.42l1.34.45,1.33.49,1.32.51,1.3.55,1.3.57,1.28.61q.63.3,1.26.63c.42.21.84.43,1.25.66s.83.45,1.24.69l1.22.71,1.21.75,1.18.77,1.17.8,1.15.82c.38.28.76.56,1.13.85l1.12.87,1.09.9c.36.31.72.61,1.07.93l1.05.94c.35.32.69.65,1,1s.67.66,1,1l1,1,1,1c.32.35.63.7.94,1.06s.61.71.91,1.08.6.73.89,1.1l.86,1.12.84,1.14.81,1.16c.27.39.53.78.79,1.18l.75,1.19.73,1.22c.24.4.48.81.71,1.22l.67,1.25c.22.41.44.83.65,1.26s.42.84.62,1.27.4.85.59,1.28.38.87.56,1.3.36.88.53,1.32.34.88.5,1.32.32.89.47,1.33.3.9.44,1.35.28.9.41,1.35.26.91.38,1.37.24.91.35,1.37.22.92.32,1.38.19.92.28,1.38.18.93.26,1.39.15.93.22,1.4.14.93.19,1.4.12.94.16,1.41.1.94.13,1.41.07.94.1,1.41.05.94.06,1.41,0,1,0,1.42v1.41Z" transform="translate(-132.9 -5.44)"/></svg>