<svg id="Layer_1" data-name="Layer 1" xmlns="http://www.w3.org/2000/svg" viewBox="0 0 17.2 138.96"><defs><style>.cls-1,.cls-2,.cls-3,.cls-4,.cls-5,.cls-6{fill:none;stroke:#fff000;stroke-linecap:round;stroke-linejoin:round;isolation:isolate;opacity:0.75;}.cls-1{stroke-width:1.35px;}.cls-2{stroke-width:1.25px;}.cls-3{stroke-width:1.02px;}.cls-4{stroke-width:0.99px;}.cls-5{stroke-width:1.25px;}.cls-6{stroke-width:1.24px;}</style></defs><path id="STROKE_3c5d5b5a-4fe6-427c-9f51-086875d498e7" data-name="STROKE 3c5d5b5a-4fe6-427c-9f51-086875d498e7" class="cls-1" d="M49.19,83.68l1-.05v0a13.64,13.64,0,0,0-2.07-.35c-1.32-.18-2.4-.3-3.23-.35a9.78,9.78,0,0,0-1.75,0,2.58,2.58,0,0,0-.68.16.71.71,0,0,0-.26.2.68.68,0,0,0-.08.4,1.28,1.28,0,0,0,.09.5l.16.35c0,.09.09.18.14.27l.16.31c0,.12.12.25.2.4a14.27,14.27,0,0,1,.48,2c.25,1.19.4,1.86.45,2" transform="translate(-34.78 -82.19)"/><path id="STROKE_bd6068f9-29f0-4f31-929d-2c6140312c49" data-name="STROKE bd6068f9-29f0-4f31-929d-2c6140312c49" class="cls-2" d="M50,87.23a7.63,7.63,0,0,0-2.26-.55,30.62,30.62,0,0,0-4.93-.4c-1.86,0-3.26,0-4.19,0a13.45,13.45,0,0,0-2.12.2,3,3,0,0,0-.85.24.32.32,0,0,0-.14.18,1.92,1.92,0,0,0-.06.3" transform="translate(-34.78 -82.19)"/><path id="STROKE_020aefa5-2170-439e-8318-d9d3cc51268e" data-name="STROKE 020aefa5-2170-439e-8318-d9d3cc51268e" class="cls-3" d="M51.47,148.88a4.79,4.79,0,0,0-1.41-.36,10.5,10.5,0,0,0-2.34-.19c-.69,0-1.18.06-1.49.1a2.84,2.84,0,0,0-.7.14,1.5,1.5,0,0,0-.33.18c-.06.06,0,.45.16,1.17s.29,1.3.38,1.73.19.84.3,1.21a7.31,7.31,0,0,0,.28.84,1.85,1.85,0,0,0,.19.35l.19.23" transform="translate(-34.78 -82.19)"/><path id="STROKE_36abcd76-3fb0-47c9-8f5e-fe2074db4172" data-name="STROKE 36abcd76-3fb0-47c9-8f5e-fe2074db4172" class="cls-4" d="M50.84,152.51a.57.57,0,0,1,0-.18.5.5,0,0,0-.28-.34,1.45,1.45,0,0,0-.43-.22l-.38-.08a22.27,22.27,0,0,0-2.64.22c-1.62.18-2.75.29-3.38.34L42,152.4c-.49,0-1,.12-1.46.19a2.37,2.37,0,0,0-1.12.44c0,.05,0,.12,0,.21" transform="translate(-34.78 -82.19)"/><path id="STROKE_6acebeba-b3a7-40e1-b88f-0866ab01745e" data-name="STROKE 6acebeba-b3a7-40e1-b88f-0866ab01745e" class="cls-5" d="M46.43,213.35s0,0,.11-.12l-.26-.18a43.25,43.25,0,0,0-4.91-.15c-.11.06-.08.42.11,1.07a26,26,0,0,0,1,2.6,24,24,0,0,1,1.14,3.82l.06.14" transform="translate(-34.78 -82.19)"/><path id="STROKE_e5b5a90d-8066-4d4b-9478-6edc318851de" data-name="STROKE e5b5a90d-8066-4d4b-9478-6edc318851de" class="cls-6" d="M47.29,218.29a1.6,1.6,0,0,0-.11-.25c0-.09-.07-.14-.09-.14l-.1-.06a2.58,2.58,0,0,0-.57-.19,11.27,11.27,0,0,0-2.24-.13l-3.48,0a13.53,13.53,0,0,0-2.81.24l-1.25.27" transform="translate(-34.78 -82.19)"/></svg>