<svg id="Layer_1" data-name="Layer 1" xmlns="http://www.w3.org/2000/svg" viewBox="0 0 354.12 167.6"><defs><style>.cls-1,.cls-10,.cls-11,.cls-12,.cls-13,.cls-14,.cls-15,.cls-16,.cls-17,.cls-18,.cls-19,.cls-2,.cls-20,.cls-21,.cls-22,.cls-23,.cls-24,.cls-25,.cls-3,.cls-4,.cls-5,.cls-6,.cls-7,.cls-8,.cls-9{fill:none;stroke-linecap:round;stroke-linejoin:round;isolation:isolate;}.cls-1,.cls-2,.cls-3{stroke:#f9642d;opacity:0.83;}.cls-1{stroke-width:2.07px;}.cls-2{stroke-width:2.16px;}.cls-3{stroke-width:2.34px;}.cls-4{stroke:#00a0c8;stroke-width:1.32px;opacity:0.65;}.cls-10,.cls-11,.cls-12,.cls-13,.cls-14,.cls-15,.cls-16,.cls-17,.cls-18,.cls-19,.cls-20,.cls-21,.cls-22,.cls-23,.cls-24,.cls-25,.cls-5,.cls-6,.cls-7,.cls-8,.cls-9{stroke:#fff000;opacity:0.75;}.cls-5{stroke-width:1.22px;}.cls-6{stroke-width:1.37px;}.cls-7{stroke-width:1.3px;}.cls-8{stroke-width:1.19px;}.cls-9{stroke-width:1.24px;}.cls-10{stroke-width:1.22px;}.cls-11{stroke-width:1.4px;}.cls-12{stroke-width:1.36px;}.cls-13{stroke-width:1.27px;}.cls-14{stroke-width:1.55px;}.cls-15{stroke-width:1.48px;}.cls-16{stroke-width:1.47px;}.cls-17{stroke-width:1.47px;}.cls-18{stroke-width:1.33px;}.cls-19{stroke-width:1.29px;}.cls-20{stroke-width:1.21px;}.cls-21{stroke-width:1.19px;}.cls-22{stroke-width:0.24px;}.cls-23{stroke-width:1.23px;}.cls-24{stroke-width:1.2px;}.cls-25{stroke-width:1.13px;}</style></defs><path id="STROKE_b28dc1f9-6043-49ef-8f98-2ad90b9c6c4e" data-name="STROKE b28dc1f9-6043-49ef-8f98-2ad90b9c6c4e" class="cls-1" d="M224.08,86.71,538.31,87" transform="translate(-185.6 -64.69)"/><path id="STROKE_6efac473-5767-48be-a810-9acd1993c889" data-name="STROKE 6efac473-5767-48be-a810-9acd1993c889" class="cls-2" d="M225.36,151.44l313.28-.37" transform="translate(-185.6 -64.69)"/><path id="STROKE_9a5f3f50-e9e5-465f-9cfd-86a7d22c47d3" data-name="STROKE 9a5f3f50-e9e5-465f-9cfd-86a7d22c47d3" class="cls-3" d="M224.35,213.21,538,215.11" transform="translate(-185.6 -64.69)"/><path id="STROKE_b9158ff9-459c-49c9-8e9b-a02a45eb37ac" data-name="STROKE b9158ff9-459c-49c9-8e9b-a02a45eb37ac" class="cls-4" d="M223.41,83.23v.41c0,.14,0,.28,0,.41s0,.28,0,.42l0,.41,0,.4c0,.14,0,.28-.05.41s0,.28-.05.41l-.06.41c0,.13,0,.27-.08.4s-.05.27-.08.41,0,.26-.09.4-.06.26-.1.4-.07.26-.1.39l-.12.4c0,.13-.08.26-.13.39s-.08.26-.13.39l-.14.38c0,.13-.1.26-.16.38s-.1.26-.16.38-.11.25-.16.38l-.18.37c-.06.12-.12.24-.19.36s-.13.25-.19.37-.13.24-.2.35l-.21.36c-.08.11-.15.23-.22.35l-.23.34-.23.34-.24.33-.25.33-.26.32c-.08.11-.17.21-.26.32l-.27.3a4.12,4.12,0,0,1-.28.31l-.28.3c-.1.09-.19.19-.29.29l-.3.28-.3.28-.31.27-.32.26-.32.26-.33.25-.33.24-.34.23-.34.23-.35.22-.35.21-.36.2-.36.19-.37.19-.37.18-.38.17-.37.16-.39.15-.38.14-.39.14-.39.12-.4.12-.39.11-.4.1-.4.09-.41.08-.4.07-.41.06-.4,0-.41.05-.41,0-.41,0H204.5l-.41,0-.41,0-.41,0-.4,0-.41-.06-.41-.07-.4-.07-.4-.09-.4-.09-.4-.1-.4-.12-.39-.12-.39-.13-.39-.14-.38-.14-.38-.16-.38-.17-.37-.17-.37-.18-.36-.19-.36-.2c-.12-.07-.24-.13-.36-.21s-.23-.14-.35-.21l-.35-.22-.34-.23-.33-.24-.33-.24-.33-.26-.31-.26-.32-.26L193,97a2.68,2.68,0,0,1-.3-.28l-.3-.28-.29-.3-.28-.3-.27-.3-.27-.32c-.09-.1-.17-.21-.26-.32l-.25-.32-.24-.33a2.62,2.62,0,0,1-.24-.34,4,4,0,0,1-.23-.34c-.08-.11-.15-.23-.22-.34l-.22-.35c-.07-.12-.14-.24-.2-.36s-.14-.24-.2-.36-.13-.24-.19-.36l-.18-.37-.18-.38-.16-.37c-.06-.13-.11-.25-.16-.38l-.15-.39c0-.12-.09-.25-.14-.38s-.08-.26-.13-.39l-.12-.39c0-.14-.07-.27-.11-.4s-.07-.27-.1-.4-.07-.26-.1-.4-.06-.27-.08-.4-.06-.27-.08-.4-.05-.27-.07-.41,0-.27-.05-.41,0-.27-.05-.4,0-.28,0-.41l0-.41c0-.14,0-.28,0-.42s0-.27,0-.41v-.41c0-.13,0-.27,0-.41s0-.27,0-.41,0-.27,0-.41,0-.27,0-.41,0-.27,0-.41,0-.27.05-.4l.06-.41c0-.14,0-.27.08-.41s.05-.26.08-.4l.09-.4c0-.13.06-.27.1-.4s.07-.26.1-.4l.12-.39c0-.13.08-.26.13-.39s.08-.26.13-.39l.14-.39c0-.12.1-.25.16-.38s.1-.25.16-.38.11-.25.17-.37.11-.25.17-.37l.19-.37.19-.36.21-.36c.06-.12.13-.23.2-.35l.22-.35.23-.34a4,4,0,0,1,.23-.34l.24-.33.25-.33c.09-.11.17-.22.26-.32l.26-.32.27-.31.28-.3.28-.3.29-.29.3-.28.3-.28.31-.27.32-.27.32-.25.33-.25.33-.24.34-.23.34-.23.35-.22.35-.21.36-.2.36-.2.37-.18.37-.18.38-.17.38-.16.38-.15.38-.15.39-.13.39-.13.4-.11.39-.11.4-.1.4-.09.41-.08.4-.07.41-.06.4-.06.41,0,.41,0,.41,0,.41,0h.41c.14,0,.28,0,.42,0h.41l.41,0,.41,0,.41,0,.41.05c.13,0,.27,0,.4.06l.41.06.4.08.4.08.4.1.4.1.4.11.39.13.39.13.39.13.38.15.38.16.38.16.37.18.37.18.36.19.36.2.36.2.35.22.35.22.34.23.33.24c.11.07.22.16.33.24l.33.25.32.26.31.27.31.27.3.28.29.29.29.29.28.3.27.31.27.31c.09.11.17.22.26.32l.25.33.25.33.23.33.23.34.23.35.21.35.21.36.19.36c.07.12.13.24.19.36s.13.25.19.37.11.25.17.37.11.25.16.38.11.25.16.38l.15.38.14.39c0,.13.08.26.13.39l.12.39c0,.13.07.27.11.4s.07.26.1.39.07.27.1.41.06.26.08.4.06.27.08.4.05.27.07.41,0,.27.05.4,0,.28.05.41,0,.27,0,.41,0,.27,0,.41,0,.27,0,.41S223.4,83.1,223.41,83.23Z" transform="translate(-185.6 -64.69)"/><path id="STROKE_41fc0b90-93ef-414a-b871-d6dc121229e9" data-name="STROKE 41fc0b90-93ef-414a-b871-d6dc121229e9" class="cls-4" d="M222.64,148.57V149c0,.14,0,.27,0,.41s0,.27,0,.41l0,.41,0,.41c0,.14,0,.27-.05.41s0,.27,0,.41l-.06.4c0,.14-.05.27-.07.41s-.06.27-.08.4l-.09.4c0,.14-.07.27-.1.4s-.07.27-.11.4l-.12.39-.12.39-.14.39c0,.13-.09.26-.14.39l-.15.38c-.05.13-.11.25-.16.38s-.11.25-.17.37l-.18.37c-.06.13-.12.25-.19.37s-.12.24-.19.36l-.2.36-.21.35-.22.35c-.07.12-.15.23-.23.35l-.23.33-.24.34a3.92,3.92,0,0,1-.25.32l-.26.33-.26.31L218,161l-.28.3-.28.3c-.1.1-.19.2-.29.29l-.3.29-.3.28-.31.27-.32.26-.32.25a4.08,4.08,0,0,1-.33.25,2.52,2.52,0,0,1-.33.24l-.34.24-.34.22c-.11.08-.23.15-.35.22l-.35.21-.36.21-.36.19-.37.19-.37.17-.37.17-.38.16-.38.15-.39.15-.39.13-.39.13-.39.11-.4.11-.4.1-.4.09-.4.08-.41.07-.4.07-.41.05-.41,0-.41,0-.41,0-.41,0h-.82l-.41,0-.41,0-.41,0-.41,0-.41-.05-.41,0-.4-.07-.41-.08-.4-.08-.4-.1-.4-.1-.39-.11-.4-.12-.39-.13-.38-.14-.39-.15-.38-.15-.37-.17-.38-.17-.37-.18-.36-.2-.36-.19-.36-.21-.35-.21-.34-.22-.34-.23-.34-.24-.33-.25a3.92,3.92,0,0,1-.32-.25l-.32-.26-.31-.27-.31-.27-.3-.28-.3-.29-.28-.29-.28-.3a4.12,4.12,0,0,1-.28-.31l-.27-.31c-.08-.11-.17-.21-.26-.32l-.25-.32-.24-.33-.24-.34-.23-.34-.22-.35c-.08-.11-.15-.23-.22-.35s-.13-.23-.2-.35-.14-.24-.2-.36-.13-.25-.19-.37l-.18-.37-.18-.37c-.05-.12-.11-.25-.16-.38s-.11-.25-.16-.38-.1-.25-.14-.38-.1-.26-.14-.39-.09-.26-.13-.39-.09-.26-.13-.39-.07-.26-.11-.39-.07-.27-.1-.4-.07-.27-.09-.4-.06-.27-.09-.4-.05-.27-.08-.41l-.06-.4c0-.14,0-.28-.06-.41s0-.27,0-.41,0-.27,0-.41l0-.41c0-.13,0-.27,0-.41s0-.27,0-.41,0-.27,0-.41,0-.27,0-.41,0-.28,0-.41,0-.28,0-.41,0-.28,0-.41,0-.27,0-.41,0-.27.05-.41,0-.27.07-.41,0-.27.07-.4,0-.27.08-.4l.09-.4c0-.14.06-.27.1-.4s.07-.27.11-.4.07-.26.11-.39l.13-.39.13-.39.15-.39.15-.38c.05-.13.1-.25.16-.38s.11-.25.17-.37.11-.25.17-.37l.19-.37.19-.36.21-.36.21-.36c.07-.11.14-.23.22-.34l.22-.35a4,4,0,0,0,.23-.34l.25-.33.24-.33c.09-.1.17-.21.26-.32l.26-.31.27-.31c.09-.11.19-.21.28-.31l.29-.29a4,4,0,0,1,.29-.29l.29-.29.31-.28.31-.27.31-.26.32-.26.33-.24.33-.25.34-.23.34-.22.35-.22a3.35,3.35,0,0,1,.36-.21l.35-.21.37-.19.36-.19.37-.17.38-.17.38-.16.38-.16.38-.14.39-.13.39-.13.4-.12.4-.1.39-.1.4-.09.41-.08.4-.08.41-.06.41-.05.41,0,.41,0,.41,0,.41,0h.82l.41,0,.41,0a2.83,2.83,0,0,1,.41,0l.41,0,.41.05.4.06.41.07.4.07.41.09.4.1.39.1.4.11.39.12.39.13.39.14.38.15.38.15.38.17.37.17.37.18.37.19.36.2.35.21.35.21.35.22.34.23.33.24.34.25.32.25.32.26.31.26.31.28.3.28.29.29.29.29.28.3.27.31.27.31c.09.11.18.21.26.32l.25.32.25.33.24.34.23.34.22.35.21.35.21.35.2.36.19.37.18.36.17.38c.06.12.11.25.17.37l.15.38.15.39c.05.13.09.26.14.38s.09.26.13.4l.12.39c0,.13.08.26.11.39s.07.27.11.4l.09.4.09.4c0,.14.05.27.07.41s0,.27.07.4l.06.41c0,.14,0,.27,0,.41s0,.27,0,.41l0,.41c0,.13,0,.27,0,.41S222.64,148.43,222.64,148.57Z" transform="translate(-185.6 -64.69)"/><path id="STROKE_5dba97ee-3a26-446a-9067-1a6cded39ff3" data-name="STROKE 5dba97ee-3a26-446a-9067-1a6cded39ff3" class="cls-4" d="M223,213.14V214c0,.14,0,.27,0,.41s0,.27,0,.41,0,.27,0,.41,0,.27,0,.41l-.06.41-.06.4c0,.14-.05.27-.07.41s-.05.27-.08.4l-.09.4c0,.13-.07.27-.1.4s-.07.26-.11.4-.07.26-.12.39l-.12.39c0,.13-.09.26-.13.39l-.15.39-.15.38c0,.12-.11.25-.16.38s-.11.25-.17.37l-.18.37-.18.37-.2.36c-.06.12-.13.24-.2.36l-.21.35-.22.35c-.07.12-.15.23-.22.34l-.24.34c-.08.11-.16.23-.24.33l-.25.33-.25.32-.27.32a3.74,3.74,0,0,1-.27.31l-.27.3-.29.3a4,4,0,0,1-.29.29l-.3.29-.3.27-.31.27-.31.27-.33.25a3.92,3.92,0,0,1-.32.25l-.34.24-.33.24-.35.22-.34.22-.36.21-.36.2-.36.2-.36.18-.38.18-.37.17-.38.16-.38.15-.39.15-.39.13-.39.13-.39.11-.4.11-.4.1-.4.09-.4.08-.4.07-.41.06-.41.06-.41,0-.41,0-.41,0-.41,0h-1.23l-.41,0-.41,0-.41,0-.41-.05-.41-.06-.4-.06-.41-.08-.4-.08-.4-.1-.4-.1-.39-.11-.39-.13-.39-.13-.39-.13-.38-.15-.38-.16-.38-.16-.37-.18c-.13,0-.25-.12-.37-.18l-.37-.19-.36-.2-.35-.2-.35-.21-.35-.23-.34-.23c-.11-.08-.23-.15-.34-.24l-.33-.24-.32-.25-.32-.26-.31-.27-.31-.27-.3-.28-.29-.29-.29-.29-.28-.3c-.09-.11-.19-.21-.28-.31l-.26-.31c-.09-.11-.18-.21-.26-.32l-.26-.33-.24-.33-.24-.33-.23-.34-.22-.35-.21-.35-.21-.36c-.07-.11-.13-.23-.2-.36l-.19-.36-.18-.37c-.06-.12-.12-.25-.17-.37l-.17-.38-.15-.38-.15-.38c0-.13-.1-.26-.14-.39s-.09-.26-.13-.39l-.12-.39c0-.13-.08-.26-.11-.4s-.08-.26-.11-.39l-.09-.41L187,217c0-.13-.05-.27-.07-.4s-.05-.27-.07-.41l-.06-.4c0-.14,0-.28-.05-.41s0-.27,0-.41l0-.41c0-.14,0-.27,0-.41s0-.27,0-.41v-.82c0-.14,0-.28,0-.42l0-.4,0-.41c0-.14,0-.28,0-.41l.06-.41.06-.41c0-.13.05-.27.07-.4s0-.27.08-.41l.09-.4c0-.13.07-.26.1-.39s.07-.27.11-.4l.12-.4.12-.39c0-.13.09-.26.14-.39s.09-.25.14-.38l.15-.38c.05-.13.11-.26.16-.38l.17-.38.18-.37.18-.36.2-.37a4,4,0,0,1,.2-.35l.21-.36.22-.35.22-.34.24-.34.24-.33.25-.33.25-.32.27-.32.27-.3.27-.31.29-.3.29-.29.3-.28.3-.28.31-.27.31-.26.33-.26.32-.25.34-.24a4,4,0,0,1,.34-.23l.34-.23.35-.22.35-.21.36-.2.36-.19.37-.19.37-.18.37-.17.38-.16.38-.15.39-.14.39-.13.39-.13.39-.12.4-.11.4-.09.4-.1.4-.08.41-.07.4-.06.41-.05.41,0,.41,0,.41,0h1.64l.41,0,.41,0,.41,0,.41,0,.41.06.4.07.41.07.4.09.4.09.4.1.39.12.4.12.39.13.38.14.39.14.38.16.37.17.38.17.36.18.37.19.36.2.35.21.36.21.34.22.34.23.34.24.33.24.32.26.32.26a3.88,3.88,0,0,1,.31.26l.31.28.3.28.29.28.29.3.28.3a4.12,4.12,0,0,1,.28.31,3.88,3.88,0,0,1,.26.31,4,4,0,0,1,.26.32c.09.1.17.21.26.32l.24.33.24.34.23.34.22.34.21.35c.08.12.14.24.21.36l.2.36.19.36.18.37c.06.13.12.25.17.38s.12.25.17.37.1.25.16.38l.14.39c.05.12.1.25.14.38s.09.26.13.39l.12.4.12.39c0,.13.07.27.1.4l.09.4.09.4c0,.14.05.27.08.4l.06.41.06.41c0,.13,0,.27,0,.41s0,.27,0,.4l0,.42c0,.13,0,.27,0,.41S223,213,223,213.14Z" transform="translate(-185.6 -64.69)"/><path id="STROKE_a1427902-ef8e-476c-8470-e2bebebe9849" data-name="STROKE a1427902-ef8e-476c-8470-e2bebebe9849" class="cls-5" d="M225.68,83.25l-.2-.09a1.57,1.57,0,0,1-.18-.34s0-.18-.05-.41a2.35,2.35,0,0,1,.08-.8,2.32,2.32,0,0,1,.33-.74,2.05,2.05,0,0,1,.25-.33.74.74,0,0,1,.23-.1l.2-.06a1.23,1.23,0,0,1,.29.1,1.12,1.12,0,0,1,.51.54,2.88,2.88,0,0,1,.31,1,5.83,5.83,0,0,1,.05,1.1,3,3,0,0,1-.31,1.16,2.28,2.28,0,0,1-.53.79,1,1,0,0,1-.39.22.6.6,0,0,1-.38,0,.77.77,0,0,1-.38-.36,2,2,0,0,1-.18-.52,1.77,1.77,0,0,1,0-.37,2.45,2.45,0,0,1,.29-.61" transform="translate(-185.6 -64.69)"/><path id="STROKE_3d4c6b13-455d-4138-936a-045150ce12b7" data-name="STROKE 3d4c6b13-455d-4138-936a-045150ce12b7" class="cls-6" d="M225.87,149.22a.48.48,0,0,1-.08-.16c0-.06-.1-.24-.22-.54a3.66,3.66,0,0,1-.24-1.24,5.85,5.85,0,0,1,0-1.11,2.41,2.41,0,0,1,.16-.6,1.17,1.17,0,0,1,.23-.41A.56.56,0,0,1,226,145a.92.92,0,0,1,.23,0,1.26,1.26,0,0,1,.37.24,2.29,2.29,0,0,1,.5,1.15,5,5,0,0,1,.19,1.39,2.82,2.82,0,0,1-.12.74.9.9,0,0,1-.29.45,1,1,0,0,1-.54.25,1,1,0,0,1-.51,0,.94.94,0,0,1-.33-.2,1,1,0,0,1-.22-.27l-.07-.18" transform="translate(-185.6 -64.69)"/><path id="STROKE_13db6f97-93a5-4739-ab17-8a198b4979c6" data-name="STROKE 13db6f97-93a5-4739-ab17-8a198b4979c6" class="cls-7" d="M225.34,211l-.28-.15a1.74,1.74,0,0,1-.37-.34,2.13,2.13,0,0,1-.31-.44,1.05,1.05,0,0,0-.12-.22,3.84,3.84,0,0,1-.09-.59,2,2,0,0,1,0-.84,1.31,1.31,0,0,1,.15-.33l.17-.11a.89.89,0,0,1,.26-.11,1.06,1.06,0,0,1,.31,0h.18l.23.14a1.55,1.55,0,0,1,.35.32,2.8,2.8,0,0,1,.19.28,1.22,1.22,0,0,1,.1.23l.07.17a1,1,0,0,1,.06.29,2.21,2.21,0,0,1,0,.44,2.13,2.13,0,0,1-.08.32c0,.1-.08.21-.14.34a4,4,0,0,1-.39.66s0,0-.12,0a.62.62,0,0,1-.21-.35c-.07-.19-.12-.34-.16-.44" transform="translate(-185.6 -64.69)"/><path id="STROKE_6b2fdad5-ba83-448d-87f6-9296cbf6829c" data-name="STROKE 6b2fdad5-ba83-448d-87f6-9296cbf6829c" class="cls-8" d="M287.08,80.52l-.22,0c-.2.12-.26.68-.2,1.67a13.75,13.75,0,0,0,.16,1.75" transform="translate(-185.6 -64.69)"/><path id="STROKE_caf0e021-a235-4cff-8ee5-c7cfbbc1a547" data-name="STROKE caf0e021-a235-4cff-8ee5-c7cfbbc1a547" class="cls-9" d="M287.51,145.45l-.16.3a19.46,19.46,0,0,0,0,2.58l.16.23" transform="translate(-185.6 -64.69)"/><path id="STROKE_ad47f128-4064-4dd4-a4b9-c6cb632cfedd" data-name="STROKE ad47f128-4064-4dd4-a4b9-c6cb632cfedd" class="cls-10" d="M286.53,208.14l-.24.09-.08.28a21.93,21.93,0,0,0,0,2.8l.15.12" transform="translate(-185.6 -64.69)"/><path id="STROKE_9858f5f2-eea7-4dd5-9a53-aeee36e44695" data-name="STROKE 9858f5f2-eea7-4dd5-9a53-aeee36e44695" class="cls-11" d="M350.43,81.12a2.61,2.61,0,0,1,0-.4.66.66,0,0,1,.06-.27.41.41,0,0,1,.21-.22.57.57,0,0,1,.37,0,.77.77,0,0,1,.25.07.15.15,0,0,0,.07,0,2.51,2.51,0,0,1,.22.63,2.15,2.15,0,0,1,.09,1,3.16,3.16,0,0,1-.25.77,2.23,2.23,0,0,1-.43.59,1,1,0,0,1-.64.29s0-.07,0-.23.44-.16,1.24,0a13.07,13.07,0,0,1,1.54.36" transform="translate(-185.6 -64.69)"/><path id="STROKE_6e4b41bf-9d52-43ca-9c95-640d3d63f962" data-name="STROKE 6e4b41bf-9d52-43ca-9c95-640d3d63f962" class="cls-12" d="M350.52,146.05l-.13-.19-.05-.29.05-.35s.07-.06.25-.08a1,1,0,0,1,.81.29l.34.47a2.47,2.47,0,0,1,.55,1.32,2.51,2.51,0,0,1,.05.73,2.39,2.39,0,0,1-.09.38.84.84,0,0,1-.12.23,1.87,1.87,0,0,1-.22.27,1.5,1.5,0,0,1-.52.32s0-.06.12-.12a2.61,2.61,0,0,1,.94,0c.53.06.87.1,1,.13" transform="translate(-185.6 -64.69)"/><path id="STROKE_b65d24b3-3edb-4d1a-ae46-b4576ad8b006" data-name="STROKE b65d24b3-3edb-4d1a-ae46-b4576ad8b006" class="cls-13" d="M349.51,208.88a3.28,3.28,0,0,1-.26-.47.7.7,0,0,1,0-.32.55.55,0,0,1,.26-.42,1.34,1.34,0,0,1,.51-.25.78.78,0,0,1,.43,0c.12.05.27.25.45.62a2.06,2.06,0,0,1,.28.92,1.49,1.49,0,0,1-.13.61,1.54,1.54,0,0,1-.22.34,1.2,1.2,0,0,1-.18.2l-.12.13s.06.07.18.12a9.52,9.52,0,0,0,1.27.26l1.44.26" transform="translate(-185.6 -64.69)"/><path id="STROKE_778b0e10-1657-4669-83ff-3af912bf93c7" data-name="STROKE 778b0e10-1657-4669-83ff-3af912bf93c7" class="cls-14" d="M413.48,79.06s0,0,0,0a.55.55,0,0,1,.16-.12,1.24,1.24,0,0,1,.42-.06,1.56,1.56,0,0,1,.57.11c.18.07.33.33.46.78a3,3,0,0,1,.13,1.14,2.35,2.35,0,0,1-.19.79.89.89,0,0,1-.45.54c-.05,0-.09,0-.1,0s0,0,.14,0a.92.92,0,0,1,.25.08.45.45,0,0,1,.16.19l.09.14s0,.12.05.36a1,1,0,0,1-.1.62,1.16,1.16,0,0,1-.36.45.64.64,0,0,1-.45.16c-.15,0-.26-.12-.32-.31a4.52,4.52,0,0,1-.13-.47" transform="translate(-185.6 -64.69)"/><path id="STROKE_b078172b-5f7b-4cea-8d54-04f2566470d7" data-name="STROKE b078172b-5f7b-4cea-8d54-04f2566470d7" class="cls-15" d="M414.61,146.57l-.24-.19s0-.32,0-.89c0-.05.15,0,.38,0a1.2,1.2,0,0,1,.58.36,1.7,1.7,0,0,1,.27.39.67.67,0,0,0,.06.15s0,.08,0,.22a1.29,1.29,0,0,1,0,.35.5.5,0,0,1-.11.26,1.45,1.45,0,0,1-.22.21l-.16.14-.27.18a2,2,0,0,0,.3.42,2.87,2.87,0,0,1,.49,1.18c.1.5.16.82.17,1" transform="translate(-185.6 -64.69)"/><path id="STROKE_aa037001-ccf2-4425-b8fd-0f635c982ba3" data-name="STROKE aa037001-ccf2-4425-b8fd-0f635c982ba3" class="cls-16" d="M415.77,150.55c-.08.06-.48-.07-1.19-.38l-.28-.19" transform="translate(-185.6 -64.69)"/><path id="STROKE_a77ef2ca-97de-4540-8cbe-a3673b4eb59a" data-name="STROKE a77ef2ca-97de-4540-8cbe-a3673b4eb59a" class="cls-17" d="M414.08,206.84a.83.83,0,0,0-.08-.18,1.76,1.76,0,0,1,.14-.17h.1a.62.62,0,0,1,.23,0,.48.48,0,0,1,.19.09,1.42,1.42,0,0,1,.25.29,1.33,1.33,0,0,1,.22.49,1.26,1.26,0,0,1,0,.35.9.9,0,0,1-.09.26l-.1.21a.77.77,0,0,1-.06.15.46.46,0,0,0,0,.08l.09.1a.64.64,0,0,1,.06.11v0s0,.2,0,.61c-.07.07-.39.31-1,.72l-.14.14" transform="translate(-185.6 -64.69)"/><path id="STROKE_8cad7b59-c724-477b-a503-025d0f3f5ba7" data-name="STROKE 8cad7b59-c724-477b-a503-025d0f3f5ba7" class="cls-18" d="M478.18,80.41a4.33,4.33,0,0,0,.13-.51c0,.07-.06.32-.13.74a3.24,3.24,0,0,0,0,1,3.83,3.83,0,0,0,.13.5.69.69,0,0,0,.19.2.87.87,0,0,0,.3.16,1.19,1.19,0,0,0,.39,0,1.76,1.76,0,0,0,.4-.06l.25-.08.5-.22" transform="translate(-185.6 -64.69)"/><path id="STROKE_e17614fb-e9b1-4b18-b95c-a68fddf59331" data-name="STROKE e17614fb-e9b1-4b18-b95c-a68fddf59331" class="cls-19" d="M480,80.31a5.61,5.61,0,0,0-.12,2.14c0,1.32.08,2.09.12,2.3" transform="translate(-185.6 -64.69)"/><path id="STROKE_5c327700-6ea3-4017-879f-5aaec41a5a96" data-name="STROKE 5c327700-6ea3-4017-879f-5aaec41a5a96" class="cls-20" d="M478.13,146.28l-.15.19a1.36,1.36,0,0,0-.09.18,4.71,4.71,0,0,0-.14.46c-.05.21-.07.32-.08.33s.05.48.17,1.42l.16.09a2.49,2.49,0,0,0,1,0l1.19-.16" transform="translate(-185.6 -64.69)"/><path id="STROKE_4a3987ee-d9a2-49a7-87f9-aeb7e5a0d690" data-name="STROKE 4a3987ee-d9a2-49a7-87f9-aeb7e5a0d690" class="cls-20" d="M479.94,147.27l-.16-.1c-.2-.19-.17.81.08,3l.15.25" transform="translate(-185.6 -64.69)"/><path id="STROKE_08d0e335-1763-4d5b-8557-0a9e799dc064" data-name="STROKE 08d0e335-1763-4d5b-8557-0a9e799dc064" class="cls-21" d="M478.08,206.51a2.49,2.49,0,0,0-.09.52l.14,1.16.09.2a1.93,1.93,0,0,0,.82.24l.42-.06a1.7,1.7,0,0,0,.53-.19l.5-.28" transform="translate(-185.6 -64.69)"/><path id="STROKE_a6dedb24-b0c4-4b44-b8f1-77c666ad1d5e" data-name="STROKE a6dedb24-b0c4-4b44-b8f1-77c666ad1d5e" class="cls-21" d="M479.74,206.68l-.13.48a8.46,8.46,0,0,0-.09,1.05,9.46,9.46,0,0,0,.11,1.93h.16" transform="translate(-185.6 -64.69)"/><path id="STROKE_2b3df3ea-d331-4874-840b-fdb08fd13f6f" data-name="STROKE 2b3df3ea-d331-4874-840b-fdb08fd13f6f" class="cls-22" d="M223.17,83.77v.4c0,.13,0,.27,0,.4s0,.27,0,.41l0,.4c0,.13,0,.26,0,.4s0,.26,0,.4,0,.26-.05.4l-.06.4c0,.13-.05.26-.07.39s-.05.27-.08.4l-.09.39-.09.39c0,.13-.07.26-.11.39s-.07.26-.11.39l-.12.38c0,.13-.09.25-.13.38l-.14.38-.15.37c0,.13-.1.25-.16.37s-.1.25-.16.37-.11.24-.17.37l-.18.35c-.07.12-.13.24-.19.36l-.2.35-.21.35c-.06.11-.14.23-.21.34s-.14.23-.22.34l-.23.33-.23.33-.24.32c-.09.1-.17.21-.25.31l-.26.31-.27.31a2.44,2.44,0,0,1-.27.29l-.27.29c-.1.1-.19.2-.29.29l-.29.28-.3.27-.3.27-.31.26-.31.25-.32.24-.33.24c-.1.08-.22.15-.33.23l-.33.22-.34.22-.35.2-.35.2a3.9,3.9,0,0,1-.35.19l-.36.19-.36.17-.37.17-.37.16-.37.15-.38.14L211,101l-.38.12-.39.12-.39.11-.39.09-.39.09-.4.08-.39.07-.4.07-.4,0-.4,0-.4,0-.4,0-.4,0H204.7l-.4,0-.4,0-.41,0-.4,0-.39,0-.4-.07-.4-.07-.39-.08-.39-.09-.39-.1-.39-.11-.39-.12-.38-.13-.38-.13-.37-.15a3,3,0,0,1-.38-.15l-.37-.16-.36-.17-.36-.17-.36-.19-.35-.19-.35-.2-.35-.21L195.6,99l-.33-.22-.33-.23-.32-.24-.32-.25-.31-.25-.31-.26-.3-.27-.3-.27-.29-.28-.28-.29-.27-.3a2.44,2.44,0,0,1-.27-.29l-.27-.31-.25-.31-.25-.32-.24-.32-.23-.33L190.5,94c-.07-.12-.15-.23-.22-.34l-.21-.34c-.07-.12-.13-.24-.2-.35s-.13-.24-.2-.35l-.18-.36-.18-.36c-.06-.12-.12-.24-.17-.37s-.11-.24-.16-.36-.11-.25-.16-.38-.1-.25-.14-.37-.1-.25-.14-.38-.09-.25-.13-.38l-.12-.39c0-.13-.08-.25-.11-.38s-.07-.26-.1-.39-.07-.26-.1-.4,0-.26-.08-.39-.05-.26-.08-.39l-.06-.4-.06-.4c0-.13,0-.27,0-.4s0-.27,0-.4l0-.4c0-.13,0-.27,0-.4s0-.27,0-.4,0-.27,0-.41,0-.27,0-.4,0-.27,0-.4l0-.4,0-.41c0-.13,0-.26,0-.4s0-.26.05-.4l.06-.39c0-.14,0-.27.07-.4s0-.26.08-.39l.09-.4.09-.39c0-.13.07-.26.11-.39s.07-.26.11-.39l.12-.38.14-.38c0-.13.09-.25.13-.38l.15-.37c0-.13.1-.25.16-.37s.11-.25.16-.37l.18-.36a3,3,0,0,1,.18-.36c.06-.12.12-.24.19-.36l.19-.35.21-.35.21-.34.22-.33.23-.34.23-.32a23008103996038.41,23008103996038.41,0,0,1,.5-.64l.25-.31.27-.3.27-.3a13702627803250.47,13702627803250.47,0,0,0,.56-.58l.29-.28.3-.27.3-.27.31-.25.31-.26.32-.24.33-.24.33-.23.33-.22.34-.21.35-.21.35-.2.35-.19.36-.18.37-.18.36-.16.37-.16.38-.15.37-.14.38-.14.39-.12.38-.12.39-.1.39-.1.39-.09.4-.08.39-.07.4-.06.4-.06.4,0,.4,0,.4,0,.41,0h.8l.4,0h.41l.4,0,.4,0,.4,0,.4,0,.4.07.39.07.39.08.4.1.39.09.38.11.39.12.38.13.38.13.38.15.37.15.37.16L213,68c.13.06.25.11.37.18a3.84,3.84,0,0,1,.35.18l.36.19.34.2.35.21.34.22.33.22.33.23.33.24a3.92,3.92,0,0,0,.32.25l.31.25.3.26.3.27.3.28.29.28.28.28.28.3.27.3.26.3c.08.11.17.21.25.31l.25.32.24.32L220,74l.22.33.22.34.21.35a4,4,0,0,1,.2.35c.07.11.13.23.2.35l.19.35c.06.12.12.24.17.36l.18.37.16.37.15.37.15.37c0,.13.09.26.13.38s.09.26.13.39l.12.38c0,.13.08.26.11.39s.07.26.11.38l.09.4c0,.13.06.26.08.39s.06.26.08.4.05.26.07.39,0,.27,0,.4,0,.27.05.4,0,.27,0,.4l0,.4c0,.14,0,.27,0,.41S223.16,83.63,223.17,83.77Z" transform="translate(-185.6 -64.69)"/><path id="STROKE_c73a2cc8-e897-4033-8bf7-eaa999938870" data-name="STROKE c73a2cc8-e897-4033-8bf7-eaa999938870" class="cls-23" d="M538.2,81.94l-.29-.06c-.18,0-.36-.08-.55-.12a2,2,0,0,0-.44,0,.61.61,0,0,0-.28.07.34.34,0,0,0-.17.24,1.35,1.35,0,0,0-.05.29c0,.06,0,.17,0,.3s0,.3.07.48a2.17,2.17,0,0,0,.29.69l.15-.05a1.06,1.06,0,0,1,.33,0,1.13,1.13,0,0,1,.34,0,.83.83,0,0,1,.26.16,1.33,1.33,0,0,1,.2.22c0,.08.1.15.13.21s0,.1,0,.1,0,.06,0,.18a1.14,1.14,0,0,1,.05.26,1.55,1.55,0,0,1,0,.21.53.53,0,0,1-.06.16s0,0,0,0l-.05.06a1,1,0,0,1-.34.12,1.74,1.74,0,0,1-.71,0,4.14,4.14,0,0,1-.56-.18l-.2-.1a.05.05,0,0,1,0-.07" transform="translate(-185.6 -64.69)"/><path id="STROKE_d6aaa12f-5955-46dd-94fc-dbd9270378a9" data-name="STROKE d6aaa12f-5955-46dd-94fc-dbd9270378a9" class="cls-24" d="M538.27,146.45l-.27-.06-.08,0-.37-.08a1.92,1.92,0,0,0-.88.11.25.25,0,0,1,0,.07s.07.46.22,1.37l.09,0h.17a.8.8,0,0,1,.28,0,.5.5,0,0,1,.19.07l.11.09s.05,0,.05.06a1.78,1.78,0,0,1,.08.16.8.8,0,0,1,.09.39,1,1,0,0,1,0,.4.93.93,0,0,1-.32.38,1.49,1.49,0,0,1-.45.28,1.32,1.32,0,0,1-.32.05.44.44,0,0,1-.2-.05.18.18,0,0,1-.07-.09.54.54,0,0,1,0-.2" transform="translate(-185.6 -64.69)"/><path id="STROKE_07f60873-06f5-41aa-beac-28e917bbb81f" data-name="STROKE 07f60873-06f5-41aa-beac-28e917bbb81f" class="cls-25" d="M537.86,208.85l-.12,0-.48.12-.51.12-.24,0-.12,0-.07,0-.08.06a.46.46,0,0,0-.09.17.87.87,0,0,0,0,.23.74.74,0,0,0,0,.18c0,.05,0,.08,0,.1s0,.14.11.37a1.65,1.65,0,0,0,.4.66h.38a1.62,1.62,0,0,1,.31,0,.56.56,0,0,1,.24.07.32.32,0,0,1,.15.13l.08.12a1.64,1.64,0,0,1,0,.26,1.07,1.07,0,0,1-.09.43,1.89,1.89,0,0,1-.26.39,2,2,0,0,1-.3.29,1.51,1.51,0,0,1-.26.15l-.19,0-.2,0a.53.53,0,0,1,0-.16,1.42,1.42,0,0,1,0-.19" transform="translate(-185.6 -64.69)"/></svg>