<svg id="Layer_1" data-name="Layer 1" xmlns="http://www.w3.org/2000/svg" viewBox="0 0 430.74 188.16"><defs><style>.cls-1,.cls-10,.cls-11,.cls-12,.cls-13,.cls-14,.cls-15,.cls-16,.cls-17,.cls-18,.cls-19,.cls-2,.cls-20,.cls-21,.cls-22,.cls-23,.cls-24,.cls-25,.cls-26,.cls-27,.cls-28,.cls-29,.cls-3,.cls-30,.cls-31,.cls-32,.cls-33,.cls-34,.cls-35,.cls-36,.cls-37,.cls-38,.cls-39,.cls-4,.cls-40,.cls-41,.cls-42,.cls-43,.cls-44,.cls-45,.cls-46,.cls-47,.cls-48,.cls-49,.cls-5,.cls-50,.cls-51,.cls-52,.cls-53,.cls-54,.cls-55,.cls-56,.cls-57,.cls-58,.cls-59,.cls-6,.cls-60,.cls-61,.cls-62,.cls-7,.cls-8,.cls-9{fill:none;stroke-linecap:round;stroke-linejoin:round;isolation:isolate;}.cls-1,.cls-2,.cls-3,.cls-4,.cls-5,.cls-6{stroke:#f9642d;opacity:0.83;}.cls-1{stroke-width:1.62px;}.cls-2{stroke-width:1.38px;}.cls-3{stroke-width:1.48px;}.cls-4{stroke-width:1.85px;}.cls-5{stroke-width:0.32px;}.cls-6{stroke-width:0.31px;}.cls-10,.cls-11,.cls-12,.cls-13,.cls-14,.cls-15,.cls-16,.cls-17,.cls-18,.cls-19,.cls-20,.cls-21,.cls-22,.cls-23,.cls-24,.cls-25,.cls-26,.cls-27,.cls-28,.cls-29,.cls-30,.cls-31,.cls-32,.cls-33,.cls-34,.cls-35,.cls-36,.cls-37,.cls-38,.cls-39,.cls-40,.cls-50,.cls-51,.cls-52,.cls-53,.cls-54,.cls-7,.cls-8,.cls-9{stroke:#fff000;}.cls-7{stroke-width:1.42px;}.cls-10,.cls-11,.cls-12,.cls-13,.cls-14,.cls-15,.cls-16,.cls-17,.cls-18,.cls-19,.cls-20,.cls-21,.cls-22,.cls-23,.cls-24,.cls-25,.cls-26,.cls-27,.cls-28,.cls-29,.cls-30,.cls-31,.cls-32,.cls-33,.cls-34,.cls-35,.cls-36,.cls-37,.cls-38,.cls-39,.cls-40,.cls-41,.cls-42,.cls-43,.cls-44,.cls-45,.cls-46,.cls-47,.cls-48,.cls-50,.cls-51,.cls-52,.cls-53,.cls-54,.cls-7,.cls-8,.cls-9{opacity:0.75;}.cls-8{stroke-width:1.41px;}.cls-9{stroke-width:1.47px;}.cls-10{stroke-width:1.39px;}.cls-11{stroke-width:1.42px;}.cls-12{stroke-width:1.3px;}.cls-13{stroke-width:1.23px;}.cls-14{stroke-width:1.2px;}.cls-15{stroke-width:1.39px;}.cls-16{stroke-width:1.37px;}.cls-17{stroke-width:1.24px;}.cls-18{stroke-width:1.22px;}.cls-19{stroke-width:1.17px;}.cls-20{stroke-width:1.22px;}.cls-21{stroke-width:1.29px;}.cls-22{stroke-width:1.56px;}.cls-23{stroke-width:1.4px;}.cls-24{stroke-width:1.41px;}.cls-25{stroke-width:1.38px;}.cls-26{stroke-width:1.25px;}.cls-27{stroke-width:1.32px;}.cls-28{stroke-width:1.22px;}.cls-29{stroke-width:1.23px;}.cls-30{stroke-width:1.24px;}.cls-31{stroke-width:1.48px;}.cls-32{stroke-width:1.35px;}.cls-33{stroke-width:1.41px;}.cls-34{stroke-width:1.37px;}.cls-35{stroke-width:1.29px;}.cls-36{stroke-width:1.26px;}.cls-37{stroke-width:1.28px;}.cls-38{stroke-width:1.17px;}.cls-39{stroke-width:1.16px;}.cls-40{stroke-width:1.16px;}.cls-41,.cls-42,.cls-43,.cls-44,.cls-45,.cls-46,.cls-47,.cls-48{stroke:#bd8ae6;}.cls-41{stroke-width:0.92px;}.cls-42{stroke-width:0.87px;}.cls-43{stroke-width:0.86px;}.cls-44{stroke-width:0.19px;}.cls-45{stroke-width:0.19px;}.cls-46{stroke-width:0.19px;}.cls-47{stroke-width:0.2px;}.cls-48{stroke-width:0.18px;}.cls-49{stroke:#00a0c8;stroke-width:0.57px;opacity:0.65;}.cls-50{stroke-width:1.19px;}.cls-51{stroke-width:1.27px;}.cls-52{stroke-width:1.29px;}.cls-53{stroke-width:1.35px;}.cls-54{stroke-width:1.96px;}.cls-55,.cls-56,.cls-57,.cls-58,.cls-59,.cls-60,.cls-61,.cls-62{stroke:#fff3e3;opacity:0.55;}.cls-55{stroke-width:1.99px;}.cls-56{stroke-width:2.28px;}.cls-57{stroke-width:1.2px;}.cls-58{stroke-width:2.29px;}.cls-59{stroke-width:1.88px;}.cls-60{stroke-width:2.24px;}.cls-61{stroke-width:1.49px;}.cls-62{stroke-width:1.9px;}</style></defs><path id="STROKE_8d7753c9-10e8-4924-a35a-84bfea975e64" data-name="STROKE 8d7753c9-10e8-4924-a35a-84bfea975e64" class="cls-1" d="M475.55,204.45,475.46,238" transform="translate(-198.16 -115.5)"/><path id="STROKE_9efa895c-888a-4f1a-8a8d-60ad24794a10" data-name="STROKE 9efa895c-888a-4f1a-8a8d-60ad24794a10" class="cls-2" d="M474.89,237.13l33.64.23" transform="translate(-198.16 -115.5)"/><path id="STROKE_ecd6356f-b659-4094-a0d0-647068dcb46c" data-name="STROKE ecd6356f-b659-4094-a0d0-647068dcb46c" class="cls-3" d="M507.94,237.62l0-32.49" transform="translate(-198.16 -115.5)"/><path id="STROKE_f810074f-2113-485e-af47-789aabb0d5b7" data-name="STROKE f810074f-2113-485e-af47-789aabb0d5b7" class="cls-4" d="M508.46,205.39l-31.64-.19" transform="translate(-198.16 -115.5)"/><path id="STROKE_85dbe59a-2a7a-45f9-9483-f36cd3f23c5d" data-name="STROKE 85dbe59a-2a7a-45f9-9483-f36cd3f23c5d" class="cls-5" d="M492,204.54,491.94,237" transform="translate(-198.16 -115.5)"/><path id="STROKE_7db45dea-ebd3-4cd8-a9f2-56840b4f162b" data-name="STROKE 7db45dea-ebd3-4cd8-a9f2-56840b4f162b" class="cls-6" d="M475.64,221.46l31.43-.83" transform="translate(-198.16 -115.5)"/><path id="STROKE_23c6b965-809a-4fb1-80a0-ce0e806d4ad4" data-name="STROKE 23c6b965-809a-4fb1-80a0-ce0e806d4ad4" class="cls-7" d="M475.33,211.14l6-5.39" transform="translate(-198.16 -115.5)"/><path id="STROKE_992eb406-6a41-462d-8cdd-77aae2c5bb6b" data-name="STROKE 992eb406-6a41-462d-8cdd-77aae2c5bb6b" class="cls-8" d="M475.46,213.94l9.17-8.06" transform="translate(-198.16 -115.5)"/><path id="STROKE_1e3603c5-185e-4072-9a85-8352ca6efe86" data-name="STROKE 1e3603c5-185e-4072-9a85-8352ca6efe86" class="cls-9" d="M475.7,207.77l1.68-1.9" transform="translate(-198.16 -115.5)"/><path id="STROKE_4e7d76b0-73d0-4705-bc02-3077fa20a343" data-name="STROKE 4e7d76b0-73d0-4705-bc02-3077fa20a343" class="cls-10" d="M475.15,216.92l12.5-11.35" transform="translate(-198.16 -115.5)"/><path id="STROKE_6a2ad160-c102-4ab4-babd-f4c6e0d1f525" data-name="STROKE 6a2ad160-c102-4ab4-babd-f4c6e0d1f525" class="cls-11" d="M475.46,220.11l15.3-14.71" transform="translate(-198.16 -115.5)"/><path id="STROKE_0dbab8ed-ab33-45a2-be80-b3afc74d0861" data-name="STROKE 0dbab8ed-ab33-45a2-be80-b3afc74d0861" class="cls-12" d="M477.14,222.27,492,207.91" transform="translate(-198.16 -115.5)"/><path id="STROKE_a117c644-b026-4dac-8fe9-e932ece23af7" data-name="STROKE a117c644-b026-4dac-8fe9-e932ece23af7" class="cls-13" d="M480.47,221.94l10.88-10.32" transform="translate(-198.16 -115.5)"/><path id="STROKE_dd824e64-df8f-45c6-99d2-15d342c3df17" data-name="STROKE dd824e64-df8f-45c6-99d2-15d342c3df17" class="cls-14" d="M485.6,220.91l6-6.06" transform="translate(-198.16 -115.5)"/><path id="STROKE_d11649f8-5050-4703-884d-ea63cc7d3cd5" data-name="STROKE d11649f8-5050-4703-884d-ea63cc7d3cd5" class="cls-13" d="M489.41,220.9l3.18-3.68" transform="translate(-198.16 -115.5)"/><path id="STROKE_dbaab628-5544-4c7c-a6a3-feb3c1a0a593" data-name="STROKE dbaab628-5544-4c7c-a6a3-feb3c1a0a593" class="cls-15" d="M475.5,226.34l4.75-4.05" transform="translate(-198.16 -115.5)"/><path id="STROKE_95c311fa-fc70-43f2-aece-cf7d18ed46dd" data-name="STROKE 95c311fa-fc70-43f2-aece-cf7d18ed46dd" class="cls-16" d="M475.37,230.48l9.14-9" transform="translate(-198.16 -115.5)"/><path id="STROKE_5b52a0f8-cd29-4191-bef9-99ecdec7cf16" data-name="STROKE 5b52a0f8-cd29-4191-bef9-99ecdec7cf16" class="cls-13" d="M474.66,233.6l12.9-11.85" transform="translate(-198.16 -115.5)"/><path id="STROKE_951686c5-567f-4fd3-9785-caf830b0d45f" data-name="STROKE 951686c5-567f-4fd3-9785-caf830b0d45f" class="cls-17" d="M475.38,237.61,491,221.7" transform="translate(-198.16 -115.5)"/><path id="STROKE_a16452f3-896d-4d4a-be55-2caeca8549e6" data-name="STROKE a16452f3-896d-4d4a-be55-2caeca8549e6" class="cls-18" d="M480.82,236.88l11.45-12.64" transform="translate(-198.16 -115.5)"/><path id="STROKE_b66bba2a-9534-4745-954e-c113b7829428" data-name="STROKE b66bba2a-9534-4745-954e-c113b7829428" class="cls-19" d="M485.29,236.05l6.47-7.71" transform="translate(-198.16 -115.5)"/><path id="STROKE_064cc62f-eb10-4a75-b840-79d9e0601bc6" data-name="STROKE 064cc62f-eb10-4a75-b840-79d9e0601bc6" class="cls-20" d="M488.38,236.74l3.7-4.7" transform="translate(-198.16 -115.5)"/><path id="STROKE_441e74a6-ef5c-483f-9721-6fa420c663e9" data-name="STROKE 441e74a6-ef5c-483f-9721-6fa420c663e9" class="cls-21" d="M491.52,210.33l5.61-4.63" transform="translate(-198.16 -115.5)"/><path id="STROKE_7789ea20-d7e1-414c-b70e-6699f704e961" data-name="STROKE 7789ea20-d7e1-414c-b70e-6699f704e961" class="cls-22" d="M492.39,207.94l1.78-1.83" transform="translate(-198.16 -115.5)"/><path id="STROKE_2107e7c9-fe94-420a-9f21-bd240d8492d7" data-name="STROKE 2107e7c9-fe94-420a-9f21-bd240d8492d7" class="cls-23" d="M491.52,214.87l10-9.1" transform="translate(-198.16 -115.5)"/><path id="STROKE_c538715d-5f99-4694-8e80-e92beb5ccbe2" data-name="STROKE c538715d-5f99-4694-8e80-e92beb5ccbe2" class="cls-24" d="M491.33,217.16l13.22-11.34" transform="translate(-198.16 -115.5)"/><path id="STROKE_8f88e44d-dafd-4591-a85e-f7a084ba4c00" data-name="STROKE 8f88e44d-dafd-4591-a85e-f7a084ba4c00" class="cls-25" d="M492.37,219.74l14.83-13.46" transform="translate(-198.16 -115.5)"/><path id="STROKE_201df440-8b14-4674-9cd0-d48f025d1196" data-name="STROKE 201df440-8b14-4674-9cd0-d48f025d1196" class="cls-26" d="M493.75,221.19l14-12.51" transform="translate(-198.16 -115.5)"/><path id="STROKE_a08201db-ec15-4577-85d0-193c62741433" data-name="STROKE a08201db-ec15-4577-85d0-193c62741433" class="cls-27" d="M498.12,220.66l9.69-8.35" transform="translate(-198.16 -115.5)"/><path id="STROKE_d2921b47-0906-4fc0-a8e4-b0f8fa484b91" data-name="STROKE d2921b47-0906-4fc0-a8e4-b0f8fa484b91" class="cls-28" d="M501.52,220.9l5.82-6" transform="translate(-198.16 -115.5)"/><path id="STROKE_4ba4a85d-adef-45ef-ab9b-270fa169033b" data-name="STROKE 4ba4a85d-adef-45ef-ab9b-270fa169033b" class="cls-29" d="M505.46,220.26l3.38-3.88" transform="translate(-198.16 -115.5)"/><path id="STROKE_c376e2fc-6938-4f22-8488-9aae4d7e762f" data-name="STROKE c376e2fc-6938-4f22-8488-9aae4d7e762f" class="cls-30" d="M507.42,220.31l1.1-1.12" transform="translate(-198.16 -115.5)"/><path id="STROKE_a00ec6bc-7da0-4a55-b0c8-531de2776a74" data-name="STROKE a00ec6bc-7da0-4a55-b0c8-531de2776a74" class="cls-31" d="M491.91,223.79l2-2.33" transform="translate(-198.16 -115.5)"/><path id="STROKE_ba46ddd2-36d7-4237-9c51-6de4e9bacd81" data-name="STROKE ba46ddd2-36d7-4237-9c51-6de4e9bacd81" class="cls-32" d="M491.71,227.23l6.46-5.65" transform="translate(-198.16 -115.5)"/><path id="STROKE_17476875-94a4-41d6-bf4c-6abb8e3fa1d2" data-name="STROKE 17476875-94a4-41d6-bf4c-6abb8e3fa1d2" class="cls-33" d="M491.62,231.07l9-9.24" transform="translate(-198.16 -115.5)"/><path id="STROKE_fecc0d0c-fbdf-4cd3-a3ff-2f0928733f99" data-name="STROKE fecc0d0c-fbdf-4cd3-a3ff-2f0928733f99" class="cls-34" d="M491.66,233.42l11.86-11.6" transform="translate(-198.16 -115.5)"/><path id="STROKE_042bf825-99c8-4824-8388-f6cc809ea640" data-name="STROKE 042bf825-99c8-4824-8388-f6cc809ea640" class="cls-35" d="M492.29,235.52l14.49-14.13" transform="translate(-198.16 -115.5)"/><path id="STROKE_76258775-1353-4277-a554-79a3478dd682" data-name="STROKE 76258775-1353-4277-a554-79a3478dd682" class="cls-36" d="M494.89,236.68l13.49-13.06" transform="translate(-198.16 -115.5)"/><path id="STROKE_4d67ebb2-dec6-4a6e-b725-b226b9d9250a" data-name="STROKE 4d67ebb2-dec6-4a6e-b725-b226b9d9250a" class="cls-37" d="M498.7,236.23l9.2-9.87" transform="translate(-198.16 -115.5)"/><path id="STROKE_dd8768fc-38dd-40a6-a9d9-56bea6498bc6" data-name="STROKE dd8768fc-38dd-40a6-a9d9-56bea6498bc6" class="cls-38" d="M501.72,237.18l5.8-7.55" transform="translate(-198.16 -115.5)"/><path id="STROKE_fa039734-f6b6-4092-90d7-3a274fc773d3" data-name="STROKE fa039734-f6b6-4092-90d7-3a274fc773d3" class="cls-39" d="M504.75,236.86l3.18-4" transform="translate(-198.16 -115.5)"/><path id="STROKE_bb8ced06-0681-4919-b88e-ea47bf6e4676" data-name="STROKE bb8ced06-0681-4919-b88e-ea47bf6e4676" class="cls-40" d="M507.2,236.47l.87-1.36" transform="translate(-198.16 -115.5)"/><path id="STROKE_d1ad7050-bc14-4d42-bf8f-c7bfb12715aa" data-name="STROKE d1ad7050-bc14-4d42-bf8f-c7bfb12715aa" class="cls-41" d="M523.59,199.78l.23,21.51" transform="translate(-198.16 -115.5)"/><path id="STROKE_7f72db93-eced-4704-a164-67c05f4cc32d" data-name="STROKE 7f72db93-eced-4704-a164-67c05f4cc32d" class="cls-42" d="M523.66,221.49l10.51-.12" transform="translate(-198.16 -115.5)"/><path id="STROKE_546bc439-57a7-4fe4-ba9f-cb6da501c5a1" data-name="STROKE 546bc439-57a7-4fe4-ba9f-cb6da501c5a1" class="cls-43" d="M534.4,221.81l-.23-22.46" transform="translate(-198.16 -115.5)"/><path id="STROKE_4e0d79d8-d687-4e53-9d6c-f815e2248e5f" data-name="STROKE 4e0d79d8-d687-4e53-9d6c-f815e2248e5f" class="cls-44" d="M524.3,216.24l9.59-.22" transform="translate(-198.16 -115.5)"/><path id="STROKE_bcf438ba-851f-47f3-bd1a-6c889dfe7776" data-name="STROKE bcf438ba-851f-47f3-bd1a-6c889dfe7776" class="cls-45" d="M523.74,210.57l10.17-.31" transform="translate(-198.16 -115.5)"/><path id="STROKE_87dfc834-74e7-4c7a-bc60-0f8c5f2a26ad" data-name="STROKE 87dfc834-74e7-4c7a-bc60-0f8c5f2a26ad" class="cls-46" d="M524.17,211.16l4.88,2.19" transform="translate(-198.16 -115.5)"/><path id="STROKE_c966f70d-6b71-4731-ac4b-96c260584824" data-name="STROKE c966f70d-6b71-4731-ac4b-96c260584824" class="cls-44" d="M528.65,213.73l5.38-3.3" transform="translate(-198.16 -115.5)"/><path id="STROKE_0de75ff5-6c39-44cc-9596-20acab29b954" data-name="STROKE 0de75ff5-6c39-44cc-9596-20acab29b954" class="cls-47" d="M524.29,216.68l5.15,2.1" transform="translate(-198.16 -115.5)"/><path id="STROKE_130cd770-53d6-4e28-881c-bd66d895d8ce" data-name="STROKE 130cd770-53d6-4e28-881c-bd66d895d8ce" class="cls-48" d="M529,219.24l5.17-3.37" transform="translate(-198.16 -115.5)"/><path id="STROKE_e2830751-066a-401a-b02b-6310b7e969c1" data-name="STROKE e2830751-066a-401a-b02b-6310b7e969c1" class="cls-49" d="M542.89,222.74c0,.32,0,.63,0,.95s0,.63,0,.95,0,.63-.07,1,0,.63-.08.94-.07.64-.11.95-.08.63-.13.94l-.15.94c0,.31-.11.62-.17.94s-.13.62-.19.93-.14.61-.22.92-.15.62-.23.92-.17.62-.26.92-.18.61-.27.91l-.3.9c-.1.3-.21.6-.32.9s-.22.59-.33.89l-.36.88c-.12.29-.24.58-.37.87s-.26.58-.4.87-.27.57-.41.85l-.44.85-.45.83-.48.83c-.16.27-.32.54-.49.81s-.33.54-.51.81l-.53.79q-.25.39-.54.78c-.18.26-.37.51-.56.76s-.39.51-.58.76l-.6.74-.61.72-.63.72-.65.69q-.32.34-.66.69l-.67.67-.69.65-.71.64-.72.62-.73.6-.75.59-.76.57-.78.55c-.25.19-.52.36-.78.54s-.53.35-.8.52l-.81.5-.82.48c-.27.16-.55.31-.83.46l-.84.45-.85.42-.86.4-.87.39-.88.37-.88.34-.89.33-.9.31-.91.28-.92.26-.91.25-.93.22-.93.21-.93.18-.94.16-.94.13c-.31.05-.63.09-.94.12l-.95.1-.94.07-.95.06-1,0h-1.9l-.95,0-1-.06-.94-.07-.95-.1c-.31,0-.63-.07-.94-.12l-.94-.14-.94-.16-.93-.18-.93-.2-.93-.23-.92-.24-.91-.27-.9-.28c-.31-.1-.61-.2-.9-.31l-.9-.33-.88-.34-.88-.37-.87-.38-.86-.41-.85-.43-.84-.44-.83-.46-.82-.48-.81-.51c-.27-.16-.53-.34-.79-.51l-.79-.54-.77-.55-.76-.57-.75-.59-.73-.61c-.25-.2-.49-.41-.72-.62s-.48-.42-.71-.64l-.69-.65-.68-.67-.66-.68-.64-.7-.63-.71c-.21-.24-.41-.49-.61-.73l-.6-.74c-.2-.25-.39-.5-.58-.76s-.38-.5-.56-.76-.37-.52-.54-.78l-.53-.79-.51-.81c-.17-.27-.33-.54-.49-.81l-.47-.82c-.16-.28-.31-.56-.46-.84s-.29-.56-.43-.85l-.42-.85-.39-.87c-.13-.29-.26-.58-.38-.87s-.24-.59-.35-.88-.23-.59-.34-.89l-.32-.9c-.1-.3-.2-.6-.29-.9s-.19-.61-.28-.91-.17-.61-.25-.92-.16-.61-.23-.92-.15-.62-.22-.93-.13-.62-.19-.93-.12-.62-.17-.93l-.15-.94c0-.32-.09-.63-.13-.94s-.07-.63-.1-1-.07-.63-.09-.95-.05-.63-.06-.94,0-.64-.05-1,0-.64,0-.95v-1c0-.31,0-.63,0-.95s0-.63.05-.95,0-.63.06-.94L459,218c0-.32.07-.63.1-.95s.09-.62.13-.94l.15-.94c.06-.31.11-.62.18-.93s.12-.62.19-.93.14-.62.21-.93.15-.61.23-.92l.26-.92c.09-.3.18-.6.28-.91s.19-.6.29-.9.21-.6.32-.9l.33-.89L462,206c.12-.29.25-.58.38-.87l.39-.86.42-.86.43-.85.46-.83c.15-.28.31-.55.47-.83s.32-.54.49-.81l.51-.8c.17-.27.35-.53.53-.79s.36-.52.54-.78.37-.52.56-.77l.58-.75.6-.74c.2-.25.41-.49.61-.73l.63-.71.65-.7.66-.68c.22-.23.45-.45.68-.67l.69-.66.7-.63.72-.62.74-.61.74-.59.77-.57.77-.55.78-.53.8-.52.81-.5c.27-.17.54-.33.82-.48l.83-.47.84-.44.85-.43.86-.4.87-.39.88-.36.89-.35.89-.33.9-.3.9-.29.92-.26c.3-.09.61-.17.92-.24l.92-.23.93-.2q.46-.11.93-.18l.94-.16.94-.14.94-.12,1-.1.95-.07.95-.05c.31,0,.63,0,.95,0l.95,0,1,0c.32,0,.63,0,.95,0l.95.05.95.08.94.09.95.12.94.14.93.16.94.18.93.21.92.22.92.25.91.26.91.29.9.3.89.33.89.35.87.36.87.39.86.4.85.43.84.44.83.47c.28.15.55.32.82.48l.81.5c.27.17.54.34.8.52l.78.53.78.56.76.57.74.59.74.6.72.62.7.64c.24.22.47.43.69.65l.68.67.66.69.65.69.62.72.62.72.59.75c.2.24.39.5.58.75l.57.77q.27.38.54.78l.53.79.51.8c.16.27.33.54.48.82s.32.54.48.82l.45.84c.15.28.29.56.43.84s.28.57.42.86.27.57.39.86.26.58.38.87l.36.89c.11.29.23.59.33.89s.22.59.32.89l.3.91.27.91c.09.3.17.61.25.91s.16.62.24.92l.21.93c.07.31.13.62.19.93s.12.63.17.94.11.62.15.94.09.62.13.94.08.63.11.94.06.63.08.95,0,.63.07.95,0,.63,0,1,0,.63,0,.95S542.9,222.42,542.89,222.74Z" transform="translate(-198.16 -115.5)"/><path id="STROKE_2ea50250-1230-492f-8aa8-a8bf237ae714" data-name="STROKE 2ea50250-1230-492f-8aa8-a8bf237ae714" class="cls-49" d="M542.89,222.74c0,.32,0,.63,0,.95s0,.63,0,.95,0,.63-.07,1,0,.63-.08.94-.07.64-.11.95-.08.63-.13.94l-.15.94c0,.31-.11.62-.17.94s-.13.62-.19.93-.14.61-.22.92-.15.62-.23.92-.17.62-.26.92-.18.61-.27.91l-.3.9c-.1.3-.21.6-.32.9s-.22.59-.33.89l-.36.88c-.12.29-.24.58-.37.87s-.26.58-.4.87-.27.57-.41.85l-.44.85-.45.83-.48.83c-.16.27-.32.54-.49.81s-.33.54-.51.81l-.53.79q-.25.39-.54.78c-.18.26-.37.51-.56.76s-.39.51-.58.76l-.6.74-.61.72-.63.72-.65.69q-.32.34-.66.69l-.67.67-.69.65-.71.64-.72.62-.73.6-.75.59-.76.57-.78.55c-.25.19-.52.36-.78.54s-.53.35-.8.52l-.81.5-.82.48c-.27.16-.55.31-.83.46l-.84.45-.85.42-.86.4-.87.39-.88.37-.88.34-.89.33-.9.31-.91.28-.92.26-.91.25-.93.22-.93.21-.93.18-.94.16-.94.13c-.31.05-.63.09-.94.12l-.95.1-.94.07-.95.06-1,0h-1.9l-.95,0-1-.06-.94-.07-.95-.1c-.31,0-.63-.07-.94-.12l-.94-.14-.94-.16-.93-.18-.93-.2-.93-.23-.92-.24-.91-.27-.9-.28c-.31-.1-.61-.2-.9-.31l-.9-.33-.88-.34-.88-.37-.87-.38-.86-.41-.85-.43-.84-.44-.83-.46-.82-.48-.81-.51c-.27-.16-.53-.34-.79-.51l-.79-.54-.77-.55-.76-.57-.75-.59-.73-.61c-.25-.2-.49-.41-.72-.62s-.48-.42-.71-.64l-.69-.65-.68-.67-.66-.68-.64-.7-.63-.71c-.21-.24-.41-.49-.61-.73l-.6-.74c-.2-.25-.39-.5-.58-.76s-.38-.5-.56-.76-.37-.52-.54-.78l-.53-.79-.51-.81c-.17-.27-.33-.54-.49-.81l-.47-.82c-.16-.28-.31-.56-.46-.84s-.29-.56-.43-.85l-.42-.85-.39-.87c-.13-.29-.26-.58-.38-.87s-.24-.59-.35-.88-.23-.59-.34-.89l-.32-.9c-.1-.3-.2-.6-.29-.9s-.19-.61-.28-.91-.17-.61-.25-.92-.16-.61-.23-.92-.15-.62-.22-.93-.13-.62-.19-.93-.12-.62-.17-.93l-.15-.94c0-.32-.09-.63-.13-.94s-.07-.63-.1-1-.07-.63-.09-.95-.05-.63-.06-.94,0-.64-.05-1,0-.64,0-.95v-1c0-.31,0-.63,0-.95s0-.63.05-.95,0-.63.06-.94L459,218c0-.32.07-.63.1-.95s.09-.62.13-.94l.15-.94c.06-.31.11-.62.18-.93s.12-.62.19-.93.14-.62.21-.93.15-.61.23-.92l.26-.92c.09-.3.18-.6.28-.91s.19-.6.29-.9.21-.6.32-.9l.33-.89L462,206c.12-.29.25-.58.38-.87l.39-.86.42-.86.43-.85.46-.83c.15-.28.31-.55.47-.83s.32-.54.49-.81l.51-.8c.17-.27.35-.53.53-.79s.36-.52.54-.78.37-.52.56-.77l.58-.75.6-.74c.2-.25.41-.49.61-.73l.63-.71.65-.7.66-.68c.22-.23.45-.45.68-.67l.69-.66.7-.63.72-.62.74-.61.74-.59.77-.57.77-.55.78-.53.8-.52.81-.5c.27-.17.54-.33.82-.48l.83-.47.84-.44.85-.43.86-.4.87-.39.88-.36.89-.35.89-.33.9-.3.9-.29.92-.26c.3-.09.61-.17.92-.24l.92-.23.93-.2q.46-.11.93-.18l.94-.16.94-.14.94-.12,1-.1.95-.07.95-.05c.31,0,.63,0,.95,0l.95,0,1,0c.32,0,.63,0,.95,0l.95.05.95.08.94.09.95.12.94.14.93.16.94.18.93.21.92.22.92.25.91.26.91.29.9.3.89.33.89.35.87.36.87.39.86.4.85.43.84.44.83.47c.28.15.55.32.82.48l.81.5c.27.17.54.34.8.52l.78.53.78.56.76.57.74.59.74.6.72.62.7.64c.24.22.47.43.69.65l.68.67.66.69.65.69.62.72.62.72.59.75c.2.24.39.5.58.75l.57.77q.27.38.54.78l.53.79.51.8c.16.27.33.54.48.82s.32.54.48.82l.45.84c.15.28.29.56.43.84s.28.57.42.86.27.57.39.86.26.58.38.87l.36.89c.11.29.23.59.33.89s.22.59.32.89l.3.91.27.91c.09.3.17.61.25.91s.16.62.24.92l.21.93c.07.31.13.62.19.93s.12.63.17.94.11.62.15.94.09.62.13.94.08.63.11.94.06.63.08.95,0,.63.07.95,0,.63,0,1,0,.63,0,.95S542.9,222.42,542.89,222.74Z" transform="translate(-198.16 -115.5)"/><path id="STROKE_c7d0a081-a9af-40e9-a876-a9a6fdba012b" data-name="STROKE c7d0a081-a9af-40e9-a876-a9a6fdba012b" class="cls-50" d="M499.4,214.82,328.63,119.74" transform="translate(-198.16 -115.5)"/><path id="STROKE_ac959317-747d-40ba-82ab-ead339c37b6f" data-name="STROKE ac959317-747d-40ba-82ab-ead339c37b6f" class="cls-51" d="M482.83,214.7l-284-98.57" transform="translate(-198.16 -115.5)"/><path id="STROKE_7669afc0-0f1e-4513-998c-a0767e7a2098" data-name="STROKE 7669afc0-0f1e-4513-998c-a0767e7a2098" class="cls-52" d="M479.84,230.48l-279.73,10" transform="translate(-198.16 -115.5)"/><path id="STROKE_e9c8a42e-0061-4c2e-a3b9-f4f31df26ad9" data-name="STROKE e9c8a42e-0061-4c2e-a3b9-f4f31df26ad9" class="cls-53" d="M501.37,231,327.43,247.78" transform="translate(-198.16 -115.5)"/><path id="STROKE_7ef10d36-f6a1-48af-b9b6-5fb1de5deea6" data-name="STROKE 7ef10d36-f6a1-48af-b9b6-5fb1de5deea6" class="cls-54" d="M560.18,137.32c.45,1.09.81,2,1.07,2.56s1.21,2.75,2.84,6.39,2.6,5.82,2.89,6.5.72,1.74,1.27,3.17,1.31,3.33,2.24,5.71,1.78,4.61,2.55,6.7,1.61,4.48,2.53,7.18,1.67,5.13,2.27,7.26,1.09,4,1.46,5.52.66,2.87.89,3.95.55,2.93,1,5.56.8,5.45,1.09,8.45.43,6.43.43,10.25-.1,6.74-.27,8.74-.36,3.81-.58,5.41-.73,4.29-1.55,8.09-1.84,7.56-3,11.3-2.41,7-3.59,9.86-2.49,5.7-3.91,8.6-2.88,5.7-4.38,8.4-2.93,5.18-4.28,7.43-2.46,4.06-3.32,5.45-1.88,3-3.08,4.82-2.68,4.1-4.47,6.8l-.91,1.26" transform="translate(-198.16 -115.5)"/><path id="STROKE_c0c43091-ed73-46e5-90dc-2776e6a1f211" data-name="STROKE c0c43091-ed73-46e5-90dc-2776e6a1f211" class="cls-55" d="M594.51,207.4v.12q.22,1.39-1.42,13.35a2.14,2.14,0,0,1,.23-.5c.18-.32.34-.63.49-.91" transform="translate(-198.16 -115.5)"/><path id="STROKE_64b14ba5-de9d-4b4a-8e79-f1b3fd443521" data-name="STROKE 64b14ba5-de9d-4b4a-8e79-f1b3fd443521" class="cls-56" d="M595.17,208.63l.27-.29c0-.07.36.12.93.58s1.2,1.76,1.91,3.89,1.55,4.27,2.51,6.43l0,.18" transform="translate(-198.16 -115.5)"/><path id="STROKE_911ad34d-b4f2-4163-83c0-26ffd4483555" data-name="STROKE 911ad34d-b4f2-4163-83c0-26ffd4483555" class="cls-57" d="M593.17,214.7a6.62,6.62,0,0,0,1,0,13.82,13.82,0,0,1,2,.19,5.08,5.08,0,0,1,1.55.44l.72.4" transform="translate(-198.16 -115.5)"/><path id="STROKE_62c47211-94ea-4e5b-b448-aa314252b871" data-name="STROKE 62c47211-94ea-4e5b-b448-aa314252b871" class="cls-58" d="M607.24,210.48a2.76,2.76,0,0,1-.15-.39s0,1,.08,2.9a63.26,63.26,0,0,1-.31,7.91c0,.1,0-.06.07-.47a11.28,11.28,0,0,1,.19-1.14" transform="translate(-198.16 -115.5)"/><path id="STROKE_3c0577d0-a205-4767-a9cf-90efb5508647" data-name="STROKE 3c0577d0-a205-4767-a9cf-90efb5508647" class="cls-59" d="M607.08,211.46c-.24-.45-.37-.69-.39-.71a7.91,7.91,0,0,1-.16-.94,2.55,2.55,0,0,1,.16-1.48,4,4,0,0,1,.92-1.15,8.24,8.24,0,0,1,.83-.7,4.69,4.69,0,0,1,.75-.3,4.15,4.15,0,0,1,1.33-.14,2.37,2.37,0,0,1,1.5.69,3.8,3.8,0,0,1,1,1.43,4.69,4.69,0,0,1,.27,1.86,4,4,0,0,1-1.11,2.39,8.82,8.82,0,0,1-2,1.83,4.81,4.81,0,0,1-1.54.68,2.53,2.53,0,0,1-.93.07.88.88,0,0,1-.41-.21.77.77,0,0,1-.18-.35l.25-.43" transform="translate(-198.16 -115.5)"/><path id="STROKE_d9940f90-079a-498d-885c-ea4d11814503" data-name="STROKE d9940f90-079a-498d-885c-ea4d11814503" class="cls-60" d="M622.1,208.92l-.33.1q0,.12-2.55,13.76l.61-1.63c.39-1.06.67-1.79.83-2.19" transform="translate(-198.16 -115.5)"/><path id="STROKE_c463a1b0-c69a-4170-80e4-6bd9df3f0963" data-name="STROKE c463a1b0-c69a-4170-80e4-6bd9df3f0963" class="cls-61" d="M616.94,209.69a1.87,1.87,0,0,1-.32-.38c.23-.25.35-.38.35-.39l3.56-1a23.77,23.77,0,0,1,7.34-.9c.35.11.37.71.07,1.81a14,14,0,0,1-.73,2.22" transform="translate(-198.16 -115.5)"/><path id="STROKE_03084e61-4ce8-4a12-94af-105a8f9c7f51" data-name="STROKE 03084e61-4ce8-4a12-94af-105a8f9c7f51" class="cls-62" d="M613.74,224.13a3.31,3.31,0,0,1,.22-.43,1.36,1.36,0,0,1,.42-.52,5.53,5.53,0,0,1,.6-.3,2.78,2.78,0,0,0,.42-.2s.7-.15,2-.36,2.6-.38,3.91-.51a25.58,25.58,0,0,0,3.11-.44c.76-.16,1.31-.3,1.65-.4" transform="translate(-198.16 -115.5)"/></svg>