<svg id="Layer_1" data-name="Layer 1" xmlns="http://www.w3.org/2000/svg" viewBox="0 0 16.59 136.02"><defs><style>.cls-1,.cls-2,.cls-3{fill:none;stroke:#fff000;stroke-linecap:round;stroke-linejoin:round;isolation:isolate;opacity:0.75;}.cls-1{stroke-width:1.62px;}.cls-2{stroke-width:1.54px;}.cls-3{stroke-width:1.34px;}</style></defs><path id="STROKE_170e92d8-6b4a-4ba8-aa02-7df2bc5368d7" data-name="STROKE 170e92d8-6b4a-4ba8-aa02-7df2bc5368d7" class="cls-1" d="M80.81,84.49s.18-.22.55-.51c0,0,.1.18.18.62a5.55,5.55,0,0,1,0,1.49,7.28,7.28,0,0,1-.25,1.35,2.43,2.43,0,0,1-.55.94,3.14,3.14,0,0,1-.71.57,2.74,2.74,0,0,1-.51.2l-.42.07-.43,0a2.6,2.6,0,0,1-.4,0l-.52-.08L77.26,89a6.81,6.81,0,0,1-.77-.27,3.5,3.5,0,0,1-1.18-.84,4.76,4.76,0,0,1-.87-1.15A5.91,5.91,0,0,1,74,85.38a.81.81,0,0,1-.08.17s0,.21-.11.62a7.81,7.81,0,0,1-.42,1.38,4.29,4.29,0,0,1-.9,1.37,4.71,4.71,0,0,1-1,.83,2.79,2.79,0,0,1-1.08.3,3.65,3.65,0,0,1-1.21,0,3.21,3.21,0,0,1-.87-.35,2.26,2.26,0,0,1-.63-.64,4.28,4.28,0,0,1-.44-.77,3.38,3.38,0,0,1-.12-1.17,5.25,5.25,0,0,1,.14-1.33,2.11,2.11,0,0,1,.3-.71,1,1,0,0,1,.28-.28.64.64,0,0,1,.2,0,.76.76,0,0,1,.35.12" transform="translate(-65.83 -83.17)"/><path id="STROKE_f8b6cf46-9b5d-4ed3-8e51-728f7f314515" data-name="STROKE f8b6cf46-9b5d-4ed3-8e51-728f7f314515" class="cls-2" d="M79.28,149a8,8,0,0,1,.67-.63s.13,0,.34,0a.92.92,0,0,1,.61.49,3.45,3.45,0,0,1,.41.85c.08.27.15.49.18.66a5,5,0,0,1,.06.95,4.67,4.67,0,0,1-.12,1.23,4.12,4.12,0,0,1-.28.86,2.39,2.39,0,0,1-.39.57,2,2,0,0,1-.66.44,2.48,2.48,0,0,1-1.16.15,3,3,0,0,1-1.46-.53,4.79,4.79,0,0,1-1.23-1.23,11.31,11.31,0,0,1-1-1.86s-.06.33-.17.92-.21,1.07-.3,1.43a3.87,3.87,0,0,1-.4,1,2.06,2.06,0,0,1-.66.71,1.82,1.82,0,0,1-.63.28,2.71,2.71,0,0,1-.57,0,2.19,2.19,0,0,1-.81-.32,2.54,2.54,0,0,1-.91-1.12,5.6,5.6,0,0,1-.51-1.89,4.4,4.4,0,0,1,.17-1.85c.13,0,.27.13.43.42s.26.49.32.62" transform="translate(-65.83 -83.17)"/><path id="STROKE_cc661684-259e-4fff-8a4e-99f64dd2d81b" data-name="STROKE cc661684-259e-4fff-8a4e-99f64dd2d81b" class="cls-3" d="M78.76,213.7a.8.8,0,0,0,.11-.14,2.54,2.54,0,0,1,.37,1.41,5.73,5.73,0,0,1,0,1.86,2.55,2.55,0,0,1-.48,1.06,1.65,1.65,0,0,1-.74.52,3.21,3.21,0,0,1-1.14.1,4.64,4.64,0,0,1-1.35-.28,5.63,5.63,0,0,1-1.51-1,7.86,7.86,0,0,1-1.75-3.15,5.78,5.78,0,0,1,0,.76,10.16,10.16,0,0,1-.13,1.46,4.51,4.51,0,0,1-.36,1.17,2.19,2.19,0,0,1-.56.7,1.55,1.55,0,0,1-.73.32,2.29,2.29,0,0,1-.91-.1,4.14,4.14,0,0,1-1.34-.88,4.46,4.46,0,0,1-1.28-2,11.27,11.27,0,0,1-.41-3.66h.18" transform="translate(-65.83 -83.17)"/></svg>