<svg id="Layer_1" data-name="Layer 1" xmlns="http://www.w3.org/2000/svg" viewBox="0 0 12.3 9.96"><defs><style>.cls-1{fill:none;stroke:#fff000;stroke-linecap:round;stroke-linejoin:round;stroke-width:1.23px;isolation:isolate;opacity:0.75;}</style></defs><path id="STROKE_888cea83-f515-4384-bacb-2ece43d2305a" data-name="STROKE 888cea83-f515-4384-bacb-2ece43d2305a" class="cls-1" d="M153.5,86c-.17-.28-.34-.54-.51-.8a5,5,0,0,1-.35-.61,2.46,2.46,0,0,1-.16-.48,1.78,1.78,0,0,1,0-.43c0-.12,0-.28.08-.5a1.29,1.29,0,0,1,.32-.58,2.7,2.7,0,0,1,.7-.51,4.06,4.06,0,0,1,1.55-.35,9.25,9.25,0,0,1,1.8,0c.46,0,.83.1,1.1.15a7.62,7.62,0,0,1,.79.2,6.19,6.19,0,0,1,1.32.7,7.46,7.46,0,0,1,1.52,1.2,3.34,3.34,0,0,1,.82,1.36,4.35,4.35,0,0,1,.19,1.28,3.13,3.13,0,0,1-.28,1.11A3.5,3.5,0,0,1,161.08,89a7.23,7.23,0,0,1-2,1,7.39,7.39,0,0,1-1.6.37c-.42,0-.73.06-.91.06a9.94,9.94,0,0,1-1-.09,5.59,5.59,0,0,1-1.34-.31A5.24,5.24,0,0,1,153,89.3a3.17,3.17,0,0,1-1-1.38,5.19,5.19,0,0,1-.4-1.56,9.2,9.2,0,0,1,0-1.47,4.32,4.32,0,0,1,.29-1.3,3.12,3.12,0,0,1,.4-.74,1.19,1.19,0,0,1,.39-.33.54.54,0,0,1,.45,0l.36.17" transform="translate(-150.93 -81.07)"/></svg>